G04 Layer_Physical_Order=2*
G04 Layer_Color=16711680*
%FSLAX43Y43*%
%MOMM*%
G71*
G01*
G75*
%ADD10C,0.254*%
%ADD11C,1.500*%
%ADD12R,1.500X1.500*%
G36*
X117602Y86602D02*
X117125D01*
Y98425D01*
X117005Y98717D01*
X114719Y101003D01*
X114427Y101123D01*
X70739D01*
X70447Y101003D01*
X68415Y98971D01*
X68295Y98679D01*
Y93118D01*
X67939Y92970D01*
X67673Y92329D01*
X68707D01*
X69741D01*
X69475Y92970D01*
X69119Y93118D01*
Y98508D01*
X70910Y100299D01*
X71952D01*
X72049Y100064D01*
X70955Y98971D01*
X70835Y98679D01*
Y93118D01*
X70479Y92970D01*
X70213Y92329D01*
X71247D01*
X72281D01*
X72015Y92970D01*
X71659Y93118D01*
Y98508D01*
X73450Y100299D01*
X114256D01*
X116130Y98425D01*
X113881Y96177D01*
X113761Y95885D01*
Y86514D01*
X113405Y86366D01*
X113139Y85725D01*
X114173D01*
X115207D01*
X114941Y86366D01*
X114585Y86514D01*
Y95714D01*
X116066Y97195D01*
X116301Y97098D01*
Y86602D01*
X115709D01*
Y85725D01*
X116713D01*
Y85598D01*
X116840D01*
Y84594D01*
X117602D01*
Y52705D01*
X117621Y52686D01*
X117524Y52451D01*
X39624D01*
Y121920D01*
X117602D01*
Y86602D01*
D02*
G37*
%LPC*%
G36*
X83693Y86685D02*
X82925Y86366D01*
X82606Y85598D01*
X82925Y84830D01*
X83693Y84511D01*
X84461Y84830D01*
X84780Y85598D01*
X84461Y86366D01*
X83693Y86685D01*
D02*
G37*
G36*
X86233D02*
X85465Y86366D01*
X85146Y85598D01*
X85465Y84830D01*
X86233Y84511D01*
X87001Y84830D01*
X87320Y85598D01*
X87001Y86366D01*
X86233Y86685D01*
D02*
G37*
G36*
X81153D02*
X80385Y86366D01*
X80066Y85598D01*
X80385Y84830D01*
X81153Y84511D01*
X81921Y84830D01*
X82240Y85598D01*
X81921Y86366D01*
X81153Y86685D01*
D02*
G37*
G36*
X76073D02*
X75305Y86366D01*
X74986Y85598D01*
X75305Y84830D01*
X76073Y84511D01*
X76841Y84830D01*
X77160Y85598D01*
X76841Y86366D01*
X76073Y86685D01*
D02*
G37*
G36*
X78613D02*
X77845Y86366D01*
X77526Y85598D01*
X77845Y84830D01*
X78613Y84511D01*
X79381Y84830D01*
X79700Y85598D01*
X79381Y86366D01*
X78613Y86685D01*
D02*
G37*
G36*
X106553D02*
X105785Y86366D01*
X105466Y85598D01*
X105785Y84830D01*
X106553Y84511D01*
X107321Y84830D01*
X107640Y85598D01*
X107321Y86366D01*
X106553Y86685D01*
D02*
G37*
G36*
X114046Y85471D02*
X113139D01*
X113405Y84830D01*
X114046Y84564D01*
Y85471D01*
D02*
G37*
G36*
X99187Y93289D02*
X98419Y92970D01*
X98100Y92202D01*
X98419Y91434D01*
X98775Y91286D01*
Y90214D01*
X98127Y89566D01*
X95123D01*
X94831Y89446D01*
X93561Y88176D01*
X93441Y87884D01*
Y86514D01*
X93085Y86366D01*
X92766Y85598D01*
X93085Y84830D01*
X93853Y84511D01*
X94621Y84830D01*
X94940Y85598D01*
X94621Y86366D01*
X94265Y86514D01*
Y87713D01*
X95294Y88742D01*
X98298D01*
X98590Y88862D01*
X99479Y89751D01*
X99599Y90043D01*
Y91286D01*
X99955Y91434D01*
X100274Y92202D01*
X99955Y92970D01*
X99187Y93289D01*
D02*
G37*
G36*
X88773Y86685D02*
X88005Y86366D01*
X87686Y85598D01*
X88005Y84830D01*
X88773Y84511D01*
X89541Y84830D01*
X89860Y85598D01*
X89541Y86366D01*
X88773Y86685D01*
D02*
G37*
G36*
X91313D02*
X90545Y86366D01*
X90226Y85598D01*
X90545Y84830D01*
X91313Y84511D01*
X92081Y84830D01*
X92400Y85598D01*
X92081Y86366D01*
X91313Y86685D01*
D02*
G37*
G36*
X49276Y101671D02*
X48508Y101352D01*
X48189Y100584D01*
X48508Y99816D01*
X49276Y99497D01*
X50044Y99816D01*
X50192Y100172D01*
X53931D01*
X55214Y98889D01*
Y79756D01*
X55334Y79464D01*
X57493Y77305D01*
X57785Y77185D01*
X94107D01*
X94399Y77305D01*
X96685Y79591D01*
X96805Y79883D01*
Y84682D01*
X97161Y84830D01*
X97480Y85598D01*
X97161Y86366D01*
X96393Y86685D01*
X95625Y86366D01*
X95306Y85598D01*
X95625Y84830D01*
X95981Y84682D01*
Y80054D01*
X93936Y78009D01*
X57956D01*
X56038Y79927D01*
Y99060D01*
X55918Y99352D01*
X54394Y100876D01*
X54102Y100996D01*
X50192D01*
X50044Y101352D01*
X49276Y101671D01*
D02*
G37*
G36*
X58293Y86685D02*
X57525Y86366D01*
X57206Y85598D01*
X57525Y84830D01*
X58293Y84511D01*
X59061Y84830D01*
X59380Y85598D01*
X59061Y86366D01*
X58293Y86685D01*
D02*
G37*
G36*
X46736Y101671D02*
X45968Y101352D01*
X45649Y100584D01*
X45968Y99816D01*
X46324Y99668D01*
Y98171D01*
X46444Y97879D01*
X47333Y96990D01*
X47625Y96870D01*
X51899D01*
X53817Y94952D01*
Y79121D01*
X53937Y78829D01*
X57366Y75400D01*
X57658Y75280D01*
X96139D01*
X96431Y75400D01*
X99225Y78194D01*
X99345Y78486D01*
Y84682D01*
X99701Y84830D01*
X100020Y85598D01*
X99701Y86366D01*
X98933Y86685D01*
X98165Y86366D01*
X97846Y85598D01*
X98165Y84830D01*
X98521Y84682D01*
Y78657D01*
X95968Y76104D01*
X57829D01*
X54641Y79292D01*
Y95123D01*
X54521Y95415D01*
X52362Y97574D01*
X52070Y97694D01*
X47796D01*
X47148Y98342D01*
Y99668D01*
X47504Y99816D01*
X47823Y100584D01*
X47504Y101352D01*
X46736Y101671D01*
D02*
G37*
G36*
X42660Y101588D02*
X40652D01*
Y99580D01*
X41244D01*
Y95758D01*
X41364Y95466D01*
X42634Y94196D01*
X42926Y94076D01*
X49867D01*
X51277Y92666D01*
Y74803D01*
X51397Y74511D01*
X54699Y71209D01*
X54991Y71089D01*
X101600D01*
X101892Y71209D01*
X104305Y73622D01*
X104425Y73914D01*
Y84682D01*
X104781Y84830D01*
X105100Y85598D01*
X104781Y86366D01*
X104013Y86685D01*
X103245Y86366D01*
X102926Y85598D01*
X103245Y84830D01*
X103601Y84682D01*
Y74085D01*
X101429Y71913D01*
X55162D01*
X52101Y74974D01*
Y92837D01*
X51981Y93129D01*
X50330Y94780D01*
X50038Y94900D01*
X43097D01*
X42068Y95929D01*
Y99580D01*
X42660D01*
Y101588D01*
D02*
G37*
G36*
X44196Y101671D02*
X43428Y101352D01*
X43109Y100584D01*
X43428Y99816D01*
X43784Y99668D01*
Y96774D01*
X43904Y96482D01*
X45047Y95339D01*
X45339Y95219D01*
X51137D01*
X52674Y93682D01*
Y76200D01*
X52794Y75908D01*
X55461Y73241D01*
X55753Y73121D01*
X99822D01*
X100114Y73241D01*
X101765Y74892D01*
X101885Y75184D01*
Y84682D01*
X102241Y84830D01*
X102560Y85598D01*
X102241Y86366D01*
X101473Y86685D01*
X100705Y86366D01*
X100386Y85598D01*
X100705Y84830D01*
X101061Y84682D01*
Y75355D01*
X99651Y73945D01*
X55924D01*
X53498Y76371D01*
Y93853D01*
X53378Y94145D01*
X51600Y95923D01*
X51308Y96043D01*
X45510D01*
X44608Y96945D01*
Y99668D01*
X44964Y99816D01*
X45283Y100584D01*
X44964Y101352D01*
X44196Y101671D01*
D02*
G37*
G36*
X60833Y86685D02*
X60065Y86366D01*
X59746Y85598D01*
X60065Y84830D01*
X60833Y84511D01*
X61601Y84830D01*
X61920Y85598D01*
X61601Y86366D01*
X60833Y86685D01*
D02*
G37*
G36*
X70993D02*
X70225Y86366D01*
X69906Y85598D01*
X70225Y84830D01*
X70993Y84511D01*
X71761Y84830D01*
X72080Y85598D01*
X71761Y86366D01*
X70993Y86685D01*
D02*
G37*
G36*
X73533D02*
X72765Y86366D01*
X72446Y85598D01*
X72765Y84830D01*
X73533Y84511D01*
X74301Y84830D01*
X74620Y85598D01*
X74301Y86366D01*
X73533Y86685D01*
D02*
G37*
G36*
X68453D02*
X67685Y86366D01*
X67366Y85598D01*
X67685Y84830D01*
X68453Y84511D01*
X69221Y84830D01*
X69540Y85598D01*
X69221Y86366D01*
X68453Y86685D01*
D02*
G37*
G36*
X63373D02*
X62605Y86366D01*
X62286Y85598D01*
X62605Y84830D01*
X63373Y84511D01*
X64141Y84830D01*
X64460Y85598D01*
X64141Y86366D01*
X63373Y86685D01*
D02*
G37*
G36*
X65913D02*
X65145Y86366D01*
X64826Y85598D01*
X65145Y84830D01*
X65913Y84511D01*
X66681Y84830D01*
X67000Y85598D01*
X66681Y86366D01*
X65913Y86685D01*
D02*
G37*
G36*
X115207Y85471D02*
X114300D01*
Y84564D01*
X114941Y84830D01*
X115207Y85471D01*
D02*
G37*
G36*
X104267Y93289D02*
X103499Y92970D01*
X103180Y92202D01*
X103499Y91434D01*
X104267Y91115D01*
X105035Y91434D01*
X105354Y92202D01*
X105035Y92970D01*
X104267Y93289D01*
D02*
G37*
G36*
X68580Y92075D02*
X67673D01*
X67939Y91434D01*
X68580Y91168D01*
Y92075D01*
D02*
G37*
G36*
X101727Y93289D02*
X100959Y92970D01*
X100640Y92202D01*
X100959Y91434D01*
X101727Y91115D01*
X102495Y91434D01*
X102814Y92202D01*
X102495Y92970D01*
X101727Y93289D01*
D02*
G37*
G36*
X94107D02*
X93339Y92970D01*
X93020Y92202D01*
X93339Y91434D01*
X94107Y91115D01*
X94875Y91434D01*
X95194Y92202D01*
X94875Y92970D01*
X94107Y93289D01*
D02*
G37*
G36*
X96647D02*
X95879Y92970D01*
X95560Y92202D01*
X95879Y91434D01*
X96647Y91115D01*
X97415Y91434D01*
X97734Y92202D01*
X97415Y92970D01*
X96647Y93289D01*
D02*
G37*
G36*
X112891Y93206D02*
X110883D01*
Y91198D01*
X112891D01*
Y93206D01*
D02*
G37*
G36*
X106172Y98710D02*
X75057D01*
X74765Y98590D01*
X73495Y97320D01*
X73375Y97028D01*
Y93118D01*
X73019Y92970D01*
X72700Y92202D01*
X73019Y91434D01*
X73787Y91115D01*
X74555Y91434D01*
X74874Y92202D01*
X74555Y92970D01*
X74199Y93118D01*
Y96857D01*
X75228Y97886D01*
X76778D01*
X76875Y97651D01*
X76035Y96812D01*
X75915Y96520D01*
Y93118D01*
X75559Y92970D01*
X75240Y92202D01*
X75559Y91434D01*
X76327Y91115D01*
X77095Y91434D01*
X77414Y92202D01*
X77095Y92970D01*
X76739Y93118D01*
Y96349D01*
X78276Y97886D01*
X106001D01*
X107665Y96222D01*
Y93208D01*
X107411Y93039D01*
X106807Y93289D01*
X106039Y92970D01*
X105720Y92202D01*
X106039Y91434D01*
X106807Y91115D01*
X107411Y91365D01*
X107665Y91196D01*
Y86614D01*
X107785Y86322D01*
X108154Y85954D01*
X108006Y85598D01*
X108325Y84830D01*
X108681Y84682D01*
Y83058D01*
X108801Y82766D01*
X109944Y81623D01*
X110236Y81503D01*
X111252D01*
X111544Y81623D01*
X111925Y82004D01*
X112045Y82296D01*
Y84682D01*
X112401Y84830D01*
X112720Y85598D01*
X112401Y86366D01*
X111633Y86685D01*
X110865Y86366D01*
X110546Y85598D01*
X110865Y84830D01*
X111221Y84682D01*
Y82467D01*
X111081Y82327D01*
X110407D01*
X109505Y83229D01*
Y84682D01*
X109861Y84830D01*
X110180Y85598D01*
X109861Y86366D01*
X109093Y86685D01*
X108737Y86537D01*
X108489Y86785D01*
Y91196D01*
X108743Y91365D01*
X109347Y91115D01*
X110115Y91434D01*
X110434Y92202D01*
X110115Y92970D01*
X109347Y93289D01*
X108743Y93039D01*
X108489Y93208D01*
Y96393D01*
X108369Y96685D01*
X106464Y98590D01*
X106172Y98710D01*
D02*
G37*
G36*
X72281Y92075D02*
X71374D01*
Y91168D01*
X72015Y91434D01*
X72281Y92075D01*
D02*
G37*
G36*
X71120D02*
X70213D01*
X70479Y91434D01*
X71120Y91168D01*
Y92075D01*
D02*
G37*
G36*
X69741D02*
X68834D01*
Y91168D01*
X69475Y91434D01*
X69741Y92075D01*
D02*
G37*
G36*
X91567Y93289D02*
X90799Y92970D01*
X90480Y92202D01*
X90799Y91434D01*
X91567Y91115D01*
X92335Y91434D01*
X92654Y92202D01*
X92335Y92970D01*
X91567Y93289D01*
D02*
G37*
G36*
X46609Y92908D02*
X45841Y92589D01*
X45522Y91821D01*
X45841Y91053D01*
X46609Y90734D01*
X47377Y91053D01*
X47696Y91821D01*
X47377Y92589D01*
X46609Y92908D01*
D02*
G37*
G36*
X50153Y92825D02*
X48145D01*
Y90817D01*
X50153D01*
Y92825D01*
D02*
G37*
G36*
X44069Y92908D02*
X43301Y92589D01*
X42982Y91821D01*
X43301Y91053D01*
X44069Y90734D01*
X44837Y91053D01*
X45156Y91821D01*
X44837Y92589D01*
X44069Y92908D01*
D02*
G37*
G36*
X116586Y85471D02*
X115709D01*
Y84594D01*
X116586D01*
Y85471D01*
D02*
G37*
G36*
X41529Y92908D02*
X40761Y92589D01*
X40442Y91821D01*
X40761Y91053D01*
X41529Y90734D01*
X42297Y91053D01*
X42616Y91821D01*
X42297Y92589D01*
X41529Y92908D01*
D02*
G37*
G36*
X86487Y93289D02*
X85719Y92970D01*
X85400Y92202D01*
X85719Y91434D01*
X86487Y91115D01*
X87255Y91434D01*
X87574Y92202D01*
X87255Y92970D01*
X86487Y93289D01*
D02*
G37*
G36*
X89027D02*
X88259Y92970D01*
X87940Y92202D01*
X88259Y91434D01*
X89027Y91115D01*
X89795Y91434D01*
X90114Y92202D01*
X89795Y92970D01*
X89027Y93289D01*
D02*
G37*
G36*
X83947D02*
X83179Y92970D01*
X82860Y92202D01*
X83179Y91434D01*
X83947Y91115D01*
X84715Y91434D01*
X85034Y92202D01*
X84715Y92970D01*
X83947Y93289D01*
D02*
G37*
G36*
X78867D02*
X78099Y92970D01*
X77780Y92202D01*
X78099Y91434D01*
X78867Y91115D01*
X79635Y91434D01*
X79954Y92202D01*
X79635Y92970D01*
X78867Y93289D01*
D02*
G37*
G36*
X81407D02*
X80639Y92970D01*
X80320Y92202D01*
X80639Y91434D01*
X81407Y91115D01*
X82175Y91434D01*
X82494Y92202D01*
X82175Y92970D01*
X81407Y93289D01*
D02*
G37*
%LPD*%
D10*
X41656Y95758D02*
Y100584D01*
Y95758D02*
X42926Y94488D01*
X50038D01*
X51689Y92837D01*
Y74803D02*
Y92837D01*
Y74803D02*
X54991Y71501D01*
X101600D01*
X104013Y73914D01*
Y85598D01*
X44196Y96774D02*
Y100584D01*
Y96774D02*
X45339Y95631D01*
X51308D01*
X53086Y93853D01*
Y76200D02*
Y93853D01*
Y76200D02*
X55753Y73533D01*
X99822D01*
X101473Y75184D01*
Y85598D01*
X46736Y98171D02*
Y100584D01*
Y98171D02*
X47625Y97282D01*
X52070D01*
X54229Y95123D01*
Y79121D02*
Y95123D01*
Y79121D02*
X57658Y75692D01*
X96139D01*
X57785Y77597D02*
X94107D01*
X55626Y79756D02*
X57785Y77597D01*
X55626Y79756D02*
Y99060D01*
X54102Y100584D02*
X55626Y99060D01*
X49276Y100584D02*
X54102D01*
X96139Y75692D02*
X98933Y78486D01*
Y85598D01*
X94107Y77597D02*
X96393Y79883D01*
Y85598D01*
X73279Y100711D02*
X114427D01*
X70739D02*
X73279D01*
X71247Y98679D02*
X73279Y100711D01*
X71247Y92202D02*
Y98679D01*
X114173Y95885D02*
X116713Y98425D01*
X114173Y85598D02*
Y95885D01*
X116713Y85598D02*
Y98425D01*
X114427Y100711D02*
X116713Y98425D01*
X68707Y98679D02*
X70739Y100711D01*
X68707Y92202D02*
Y98679D01*
X78105Y98298D02*
X106172D01*
X75057D02*
X78105D01*
X76327Y96520D02*
X78105Y98298D01*
X76327Y92202D02*
Y96520D01*
X111633Y82296D02*
Y85598D01*
X111252Y81915D02*
X111633Y82296D01*
X110236Y81915D02*
X111252D01*
X109093Y83058D02*
X110236Y81915D01*
X109093Y83058D02*
Y85598D01*
X108077Y86614D02*
X109093Y85598D01*
X108077Y86614D02*
Y96393D01*
X106172Y98298D02*
X108077Y96393D01*
X73787Y97028D02*
X75057Y98298D01*
X73787Y92202D02*
Y97028D01*
X99187Y90043D02*
Y92202D01*
X98298Y89154D02*
X99187Y90043D01*
X95123Y89154D02*
X98298D01*
X93853Y87884D02*
X95123Y89154D01*
X93853Y85598D02*
Y87884D01*
D11*
X41529Y91821D02*
D03*
X44069D02*
D03*
X46609D02*
D03*
X49276Y100584D02*
D03*
X46736D02*
D03*
X44196D02*
D03*
X58293Y85598D02*
D03*
X60833D02*
D03*
X63373D02*
D03*
X65913D02*
D03*
X68453D02*
D03*
X70993D02*
D03*
X73533D02*
D03*
X76073D02*
D03*
X78613D02*
D03*
X81153D02*
D03*
X83693D02*
D03*
X86233D02*
D03*
X88773D02*
D03*
X91313D02*
D03*
X93853D02*
D03*
X96393D02*
D03*
X98933D02*
D03*
X101473D02*
D03*
X104013D02*
D03*
X106553D02*
D03*
X109093D02*
D03*
X111633D02*
D03*
X114173D02*
D03*
X68707Y92202D02*
D03*
X71247D02*
D03*
X73787D02*
D03*
X76327D02*
D03*
X78867D02*
D03*
X81407D02*
D03*
X83947D02*
D03*
X86487D02*
D03*
X89027D02*
D03*
X91567D02*
D03*
X94107D02*
D03*
X96647D02*
D03*
X99187D02*
D03*
X101727D02*
D03*
X104267D02*
D03*
X106807D02*
D03*
X109347D02*
D03*
D12*
X49149Y91821D02*
D03*
X41656Y100584D02*
D03*
X116713Y85598D02*
D03*
X111887Y92202D02*
D03*
M02*
