%FSTAX23Y23*%
%MOIN*%
%SFA1B1*%

%IPPOS*%
%ADD28C,0.010000*%
%ADD30C,0.030000*%
%ADD33C,0.059055*%
%LNbackscatter_tag_pcb-1*%
%LPD*%
G54D28*
X0363Y02155D02*
X0366Y02125D01*
X0363Y02155D02*
Y0223D01*
X0371Y0249D02*
X03765Y02435D01*
Y0241D02*
Y02435D01*
X02815Y03245D02*
X029D01*
X0295Y03195*
Y0288D02*
Y03195D01*
X02922Y02852D02*
X0295Y0288D01*
X02872Y02852D02*
X02922D01*
X03186Y02416D02*
Y02456D01*
X0322Y0249*
X0371*
X0311Y03395D02*
X0316D01*
X03085Y0337D02*
X0311Y03395D01*
X03085Y03057D02*
Y0337D01*
Y03057D02*
X03147Y02995D01*
X03245Y02827D02*
Y02835D01*
X0224Y03004D02*
X02417Y02827D01*
X03245*
X02325Y0242D02*
X0272D01*
X02295Y0245D02*
X02325Y0242D01*
X02295Y0245D02*
Y02665D01*
X0227Y02255D02*
X0249D01*
X0219Y02335D02*
X0227Y02255D01*
X0219Y02335D02*
Y02665D01*
X0311Y02345D02*
X03385D01*
X0306Y02295D02*
X0311Y02345D01*
X0306Y02125D02*
Y02295D01*
X03725Y0274D02*
Y03055D01*
X0348Y027D02*
X035Y0272D01*
X03705*
X03725Y0274*
X0307Y0251D02*
X031Y0254D01*
X03444*
X03469Y02515*
X03855*
X0393Y0259*
X0303Y0251D02*
Y0274D01*
X0308Y0279*
X0353*
X0363Y0289*
G54D30*
X0363Y0223D03*
X03725Y03055D03*
X0348Y027D03*
X02815Y03245D03*
X02872Y02852D03*
X03765Y0241D03*
X03186Y02416D03*
X03147Y02995D03*
X0316Y03395D03*
X03245Y02835D03*
X0224Y03004D03*
X0219Y02665D03*
X02295D03*
X0272Y0242D03*
X0249Y02255D03*
X03385Y02345D03*
X0303Y0251D03*
X0307D03*
X0393Y0259D03*
X0363Y0289D03*
G54D33*
X0366Y02125D03*
X0306D03*
M02*