%FSTAX23Y23*%
%MOIN*%
%SFA1B1*%

%IPPOS*%
%ADD28C,0.010000*%
%ADD29C,0.020000*%
%ADD30C,0.030000*%
%ADD31C,0.060000*%
%ADD32R,0.059055X0.059055*%
%ADD33C,0.059055*%
%ADD34C,0.020000*%
%LNbackscatter_tag_pcb-1*%
%LPD*%
G36*
X03949Y025D02*
Y02477D01*
X03939Y02471*
X03925Y02477*
X03905Y02469*
X03897Y0245*
X03905Y0243*
X03925Y02422*
X03939Y02428*
X03949Y02422*
Y02163*
X03929Y02155*
X03917Y02125*
X03929Y02094*
X03953Y02085*
X03951Y02075*
X03868*
X03866Y02085*
X0389Y02094*
X03902Y02125*
X0389Y02155*
X0387Y02163*
Y0242*
X03867Y02427*
X03747Y02547*
X0374Y0255*
X03502*
X03502Y02551*
X03499Y0256*
X03502Y02568*
X03502Y02569*
X0388*
X03949Y025*
G37*
G36*
X04049Y0257D02*
Y02163D01*
X04029Y02155*
X04017Y02125*
X04029Y02094*
X04053Y02085*
X04051Y02075*
X03968*
X03966Y02085*
X0399Y02094*
X04002Y02125*
X0399Y02155*
X0397Y02163*
Y02403*
X0398Y02405*
X0398Y02405*
X04Y02397*
X04019Y02405*
X04027Y02425*
X04019Y02444*
X04Y02452*
X0398Y02444*
X0398Y02444*
X0397Y02446*
Y02505*
X03967Y02512*
X03926Y02553*
X03931Y02563*
X03949Y0257*
X03957Y0259*
X03953Y02599*
X03959Y02609*
X0401*
X04049Y0257*
G37*
G36*
X0435Y02075D02*
X04068D01*
X04066Y02085*
X0409Y02094*
X04102Y02125*
X0409Y02155*
X0407Y02163*
Y02575*
X04067Y02582*
X04022Y02627*
X04015Y0263*
X03502*
X03502Y02631*
X03499Y0264*
X03502Y02648*
X03502Y02649*
X0406*
X04142Y02567*
X04141Y02562*
X04131Y02556*
X0413Y02557*
X0411Y02549*
X04102Y0253*
X0411Y0251*
X0413Y02502*
X04139Y02506*
X04149Y025*
Y02164*
X0412*
Y02085*
X04199*
Y02164*
X0417*
Y02565*
X04167Y02572*
X04142Y02597*
X04146Y02607*
X04175Y02619*
X04188Y0265*
X04175Y0268*
X04145Y02693*
X04114Y0268*
X04102Y02651*
X04092Y02647*
X04072Y02667*
X04065Y0267*
X03622*
X03616Y0268*
X03622Y02695*
X03614Y02714*
X03595Y02722*
X03575Y02714*
X03567Y02695*
X03573Y0268*
X03567Y0267*
X03549*
X03543Y0268*
X03545Y02685*
X0352*
Y0269*
X03515*
Y02715*
X03502Y0271*
X03499Y02719*
X0348Y02727*
X0346Y02719*
X03452Y027*
X03457Y02688*
X0346Y0268*
X03457Y02671*
X03452Y0266*
X03457Y02648*
X0346Y0264*
X03457Y02631*
X03452Y0262*
X03457Y02608*
X0346Y026*
X03457Y02591*
X03452Y0258*
X03457Y02568*
X0346Y0256*
X03457Y02551*
X03452Y0254*
X0346Y0252*
X0348Y02512*
X03499Y0252*
X03502Y02529*
X03735*
X03849Y02415*
Y02163*
X03829Y02155*
X03817Y02125*
X03829Y02094*
X03853Y02085*
X03851Y02075*
X03768*
X03766Y02085*
X0379Y02094*
X03802Y02125*
X0379Y02155*
X0376Y02167*
X03729Y02155*
X03717Y02125*
X03729Y02094*
X03753Y02085*
X03751Y02075*
X03668*
X03666Y02085*
X0369Y02094*
X03702Y02125*
X0369Y02155*
X0366Y02167*
X03629Y02155*
X03617Y02125*
X03629Y02094*
X03653Y02085*
X03651Y02075*
X03568*
X03566Y02085*
X0359Y02094*
X03602Y02125*
X0359Y02155*
X0356Y02167*
X03529Y02155*
X03517Y02125*
X03529Y02094*
X03553Y02085*
X03551Y02075*
X03468*
X03466Y02085*
X0349Y02094*
X03502Y02125*
X0349Y02155*
X0346Y02167*
X03429Y02155*
X03417Y02125*
X03429Y02094*
X03453Y02085*
X03451Y02075*
X03368*
X03366Y02085*
X0339Y02094*
X03402Y02125*
X0339Y02155*
X0336Y02167*
X03329Y02155*
X03317Y02125*
X03329Y02094*
X03353Y02085*
X03351Y02075*
X03268*
X03266Y02085*
X0329Y02094*
X03302Y02125*
X0329Y02155*
X0326Y02167*
X03229Y02155*
X03217Y02125*
X03229Y02094*
X03253Y02085*
X03251Y02075*
X03168*
X03166Y02085*
X0319Y02094*
X03202Y02125*
X0319Y02155*
X0316Y02167*
X03129Y02155*
X03117Y02125*
X03129Y02094*
X03153Y02085*
X03151Y02075*
X03068*
X03066Y02085*
X0309Y02094*
X03102Y02125*
X0309Y02155*
X0306Y02167*
X03029Y02155*
X03017Y02125*
X03029Y02094*
X03053Y02085*
X03051Y02075*
X02968*
X02966Y02085*
X0299Y02094*
X03002Y02125*
X0299Y02155*
X0296Y02167*
X02929Y02155*
X02917Y02125*
X02929Y02094*
X02953Y02085*
X02951Y02075*
X02868*
X02866Y02085*
X0289Y02094*
X02902Y02125*
X0289Y02155*
X0286Y02167*
X02829Y02155*
X02817Y02125*
X02829Y02094*
X02853Y02085*
X02851Y02075*
X02768*
X02766Y02085*
X0279Y02094*
X02802Y02125*
X0279Y02155*
X0276Y02167*
X02729Y02155*
X02717Y02125*
X02729Y02094*
X02753Y02085*
X02751Y02075*
X02668*
X02666Y02085*
X0269Y02094*
X02702Y02125*
X0269Y02155*
X0266Y02167*
X02629Y02155*
X02617Y02125*
X02629Y02094*
X02653Y02085*
X02651Y02075*
X02568*
X02566Y02085*
X0259Y02094*
X02602Y02125*
X0259Y02155*
X0256Y02167*
X02529Y02155*
X02517Y02125*
X02529Y02094*
X02553Y02085*
X02551Y02075*
X02468*
X02466Y02085*
X0249Y02094*
X02502Y02125*
X0249Y02155*
X0246Y02167*
X02429Y02155*
X02417Y02125*
X02429Y02094*
X02453Y02085*
X02451Y02075*
X02368*
X02366Y02085*
X0239Y02094*
X02402Y02125*
X0239Y02155*
X0236Y02167*
X02329Y02155*
X02317Y02125*
X02329Y02094*
X02353Y02085*
X02351Y02075*
X02268*
X02266Y02085*
X0229Y02094*
X02302Y02125*
X0229Y02155*
X0226Y02167*
X02229Y02155*
X02217Y02125*
X02229Y02094*
X02253Y02085*
X02251Y02075*
X02168*
X02166Y02085*
X0219Y02094*
X022Y0212*
X0216*
X02119*
X02129Y02094*
X02153Y02085*
X02151Y02075*
X02068*
X02066Y02085*
X0209Y02094*
X021Y0212*
X0206*
X02019*
X02029Y02094*
X02053Y02085*
X02051Y02075*
X0195*
Y03445*
X0435*
Y02075*
G37*
G36*
X03905Y026D02*
X03902Y0259D01*
X03893Y02586*
X03892Y02587*
X03885Y0259*
X03502*
X03502Y02591*
X03499Y026*
X03502Y02608*
X03502Y02609*
X039*
X03905Y026*
G37*
%LNbackscatter_tag_pcb-2*%
%LPC*%
G36*
X02725Y0234D02*
X0271Y02334D01*
X02705Y0232*
X02725*
Y0234*
G37*
G36*
X02735D02*
Y0232D01*
X02755*
X02749Y02334*
X02735Y0234*
G37*
G36*
X02805Y0235D02*
X0279Y02344D01*
X02785Y0233*
X02805*
Y0235*
G37*
G36*
X03385Y02372D02*
X03365Y02364D01*
X03357Y02345*
X03365Y02325*
X03385Y02317*
X03404Y02325*
X03412Y02345*
X03404Y02364*
X03385Y02372*
G37*
G36*
X02835Y0232D02*
X02815D01*
Y023*
X02829Y02305*
X02835Y0232*
G37*
G36*
X0232Y0233D02*
X02305Y02324D01*
X023Y0231*
X0232*
Y0233*
G37*
G36*
X0233D02*
Y0231D01*
X0235*
X02344Y02324*
X0233Y0233*
G37*
G36*
X0287Y02447D02*
X0285Y02439D01*
X02842Y0242*
X0285Y024*
X0287Y02392*
X02889Y024*
X02897Y0242*
X02889Y02439*
X0287Y02447*
G37*
G36*
X0295D02*
X0293Y02439D01*
X02922Y0242*
X0293Y024*
X0295Y02392*
X02969Y024*
X02977Y0242*
X02969Y02439*
X0295Y02447*
G37*
G36*
X03265Y02647D02*
X03245Y02639D01*
X03237Y0262*
X03245Y026*
X03265Y02592*
X03284Y026*
X03292Y0262*
X03284Y02639*
X03265Y02647*
G37*
G36*
X02675Y02487D02*
X02655Y02479D01*
X02647Y0246*
X02655Y0244*
X02675Y02432*
X0269Y02439*
X02697Y02431*
X02692Y0242*
X027Y024*
X0272Y02392*
X02739Y024*
X02747Y0242*
X02739Y02439*
X0272Y02447*
X02704Y0244*
X02697Y02448*
X02702Y0246*
X02694Y02479*
X02675Y02487*
G37*
G36*
X02815Y0235D02*
Y0233D01*
X02835*
X02829Y02344*
X02815Y0235*
G37*
G36*
X03765Y02437D02*
X03745Y02429D01*
X03737Y0241*
X03745Y0239*
X03765Y02382*
X03784Y0239*
X03792Y0241*
X03784Y02429*
X03765Y02437*
G37*
G36*
X03305Y02442D02*
X03285Y02434D01*
X03277Y02415*
X03285Y02395*
X03305Y02387*
X03324Y02395*
X03332Y02415*
X03324Y02434*
X03305Y02442*
G37*
G36*
X02805Y0232D02*
X02785D01*
X0279Y02305*
X02805Y023*
Y0232*
G37*
G36*
X0332Y02255D02*
X033D01*
X03305Y0224*
X0332Y02235*
Y02255*
G37*
G36*
X0249Y02282D02*
X0247Y02274D01*
X02462Y02255*
X0247Y02235*
X0249Y02227*
X02509Y02235*
X02517Y02255*
X02509Y02274*
X0249Y02282*
G37*
G36*
X03165Y0227D02*
X03145D01*
X0315Y02255*
X03165Y0225*
Y0227*
G37*
G36*
X0335Y02255D02*
X0333D01*
Y02235*
X03344Y0224*
X0335Y02255*
G37*
G36*
X0363Y02257D02*
X0361Y02249D01*
X03602Y0223*
X0361Y0221*
X0363Y02202*
X03649Y0221*
X03657Y0223*
X03649Y02249*
X0363Y02257*
G37*
G36*
X02155Y02165D02*
X02129Y02155D01*
X02119Y0213*
X02155*
Y02165*
G37*
G36*
X02055D02*
X02029Y02155D01*
X02019Y0213*
X02055*
Y02165*
G37*
G36*
X02165D02*
Y0213D01*
X022*
X0219Y02155*
X02165Y02165*
G37*
G36*
X02065D02*
Y0213D01*
X021*
X0209Y02155*
X02065Y02165*
G37*
G36*
X0235Y023D02*
X0233D01*
Y0228*
X02344Y02285*
X0235Y023*
G37*
G36*
X0232D02*
X023D01*
X02305Y02285*
X0232Y0228*
Y023*
G37*
G36*
X02755Y0231D02*
X02735D01*
Y0229*
X02749Y02295*
X02755Y0231*
G37*
G36*
X02725D02*
X02705D01*
X0271Y02295*
X02725Y0229*
Y0231*
G37*
G36*
X03175Y023D02*
Y0228D01*
X03195*
X03189Y02294*
X03175Y023*
G37*
G36*
X0332Y02285D02*
X03305Y02279D01*
X033Y02265*
X0332*
Y02285*
G37*
G36*
X03195Y0227D02*
X03175D01*
Y0225*
X03189Y02255*
X03195Y0227*
G37*
G36*
X03165Y023D02*
X0315Y02294D01*
X03145Y0228*
X03165*
Y023*
G37*
G36*
X0333Y02285D02*
Y02265D01*
X0335*
X03344Y02279*
X0333Y02285*
G37*
G36*
X02897Y02632D02*
X02877D01*
X02883Y02618*
X02897Y02612*
Y02632*
G37*
G36*
X0393Y03236D02*
Y032D01*
X03966*
X03955Y03225*
X0393Y03236*
G37*
G36*
X0392D02*
X03894Y03225D01*
X03883Y032*
X0392*
Y03236*
G37*
G36*
X029Y0331D02*
X0288D01*
X02885Y03295*
X029Y0329*
Y0331*
G37*
G36*
X02815Y03272D02*
X02795Y03264D01*
X02787Y03245*
X02795Y03225*
X02815Y03217*
X02834Y03225*
X02842Y03245*
X02834Y03264*
X02815Y03272*
G37*
G36*
X03966Y0319D02*
X0393D01*
Y03153*
X03955Y03164*
X03966Y0319*
G37*
G36*
X02805Y03131D02*
X0279Y03126D01*
X02785Y03111*
X02805*
Y03131*
G37*
G36*
X02835Y03101D02*
X02815D01*
Y03081*
X02829Y03087*
X02835Y03101*
G37*
G36*
X0392Y0319D02*
X03883D01*
X03894Y03164*
X0392Y03153*
Y0319*
G37*
G36*
X02815Y03131D02*
Y03111D01*
X02835*
X02829Y03126*
X02815Y03131*
G37*
G36*
X03286Y03371D02*
X03272Y03366D01*
X03266Y03351*
X03286*
Y03371*
G37*
G36*
X03316Y03341D02*
X03296D01*
Y03321*
X03311Y03327*
X03316Y03341*
G37*
G36*
X0316Y03422D02*
X0314Y03414D01*
X03132Y03395*
X0314Y03375*
X0316Y03367*
X03179Y03375*
X03187Y03395*
X03179Y03414*
X0316Y03422*
G37*
G36*
X03296Y03371D02*
Y03351D01*
X03316*
X03311Y03366*
X03296Y03371*
G37*
G36*
X03286Y03341D02*
X03266D01*
X03272Y03327*
X03286Y03321*
Y03341*
G37*
G36*
X02555Y03398D02*
X02524Y03385D01*
X02511Y03355*
X02524Y03324*
X02555Y03311*
X02585Y03324*
X02598Y03355*
X02585Y03385*
X02555Y03398*
G37*
G36*
X0293Y0331D02*
X0291D01*
Y0329*
X02924Y03295*
X0293Y0331*
G37*
G36*
X0291Y0334D02*
Y0332D01*
X0293*
X02924Y03334*
X0291Y0334*
G37*
G36*
X029D02*
X02885Y03334D01*
X0288Y0332*
X029*
Y0334*
G37*
G36*
X02805Y03101D02*
X02785D01*
X0279Y03087*
X02805Y03081*
Y03101*
G37*
G36*
X03815Y02797D02*
X03795Y02789D01*
X03787Y0277*
X03795Y0275*
X03815Y02742*
X03834Y0275*
X03842Y0277*
X03834Y02789*
X03815Y02797*
G37*
G36*
X03525Y02715D02*
Y02695D01*
X03545*
X03539Y02709*
X03525Y02715*
G37*
G36*
X03245Y02862D02*
X03225Y02854D01*
X03217Y02835*
X03225Y02815*
X03245Y02807*
X03264Y02815*
X03272Y02835*
X03264Y02854*
X03245Y02862*
G37*
G36*
X0416Y02832D02*
X0414Y02824D01*
X04132Y02805*
X0414Y02785*
X0416Y02777*
X04179Y02785*
X04187Y02805*
X04179Y02824*
X0416Y02832*
G37*
G36*
X02907Y02662D02*
Y02642D01*
X02927*
X02921Y02656*
X02907Y02662*
G37*
G36*
X02095Y02692D02*
X02075Y02684D01*
X02067Y02665*
X02075Y02645*
X02095Y02637*
X02114Y02645*
X02122Y02665*
X02114Y02684*
X02095Y02692*
G37*
G36*
X02927Y02632D02*
X02907D01*
Y02612*
X02921Y02618*
X02927Y02632*
G37*
G36*
X02897Y02662D02*
X02883Y02656D01*
X02877Y02642*
X02897*
Y02662*
G37*
G36*
X0219Y02692D02*
X0217Y02684D01*
X02162Y02665*
X0217Y02645*
X0219Y02637*
X02209Y02645*
X02217Y02665*
X02209Y02684*
X0219Y02692*
G37*
G36*
X0224Y03031D02*
X02221Y03023D01*
X02213Y03004*
X02221Y02985*
X0224Y02977*
X02259Y02985*
X02267Y03004*
X02259Y03023*
X0224Y03031*
G37*
G36*
X02795Y02959D02*
Y02939D01*
X02815*
X02809Y02953*
X02795Y02959*
G37*
G36*
X0244Y03398D02*
X02409Y03385D01*
X02396Y03355*
X02402Y0334*
X02313Y03251*
X02308Y0324*
Y02695*
X023Y02689*
X02295Y02692*
X02275Y02684*
X02267Y02665*
X02275Y02645*
X02295Y02637*
X023Y0264*
X02308Y02634*
Y02395*
X02305Y02394*
X02297Y02375*
X02305Y02355*
X02325Y02347*
X02344Y02355*
X02352Y02375*
X02344Y02394*
X02341Y02395*
Y02641*
X02695*
X02702Y02633*
X02695Y02617*
X02703Y02598*
X02722Y0259*
X02742Y02598*
X0275Y02617*
X02742Y02637*
X02737Y02639*
X02745Y02657*
X02737Y02677*
X02717Y02685*
X02698Y02677*
X02697Y02674*
X02341*
Y03233*
X02414Y03306*
X02423Y03302*
Y03255*
X02428Y03243*
X02523Y03148*
X02535Y03143*
X02604*
X02605Y0314*
X02625Y03132*
X02644Y0314*
X02645Y03143*
X03301*
X03302Y0314*
X03322Y03132*
X03341Y0314*
X03342Y03143*
X03844*
Y03065*
X03747*
X03744Y03074*
X03725Y03082*
X03705Y03074*
X03702Y03065*
X0326*
X03252Y03062*
X03183Y02993*
X03173Y02997*
X03166Y03014*
X03147Y03022*
X03127Y03014*
X03119Y02995*
X03127Y02975*
X03147Y02967*
X03166Y02975*
X03176Y02973*
Y02594*
X03167Y02588*
X0316Y02592*
X0314Y02584*
X0314Y02584*
X0313Y02586*
Y02652*
X03139Y02655*
X03147Y02675*
X03139Y02694*
X0312Y02702*
X031Y02694*
X03092Y02675*
X031Y02655*
X03109Y02652*
Y02499*
X03102Y02495*
X03101Y02495*
X03093Y025*
X03097Y0251*
X03089Y02529*
X0307Y02537*
X03058Y02532*
X0305Y02529*
X03041Y02532*
X0303Y02537*
X0301Y02529*
X03002Y0251*
X0301Y0249*
X0303Y02482*
X03041Y02487*
X0305Y0249*
X03058Y02487*
X0307Y02482*
X03087Y0249*
X03088Y0249*
X03097Y02486*
X03097Y02485*
X03097Y02486*
X03097Y02485*
X03092Y02475*
X03099Y02459*
X031Y02452*
X03099Y02445*
X03092Y0243*
X031Y0241*
X0312Y02402*
X03139Y0241*
X03147Y0243*
X0314Y02445*
X03139Y02452*
X0314Y02459*
X03147Y02475*
X03139Y02494*
X0313Y02497*
Y02543*
X0314Y02545*
X0314Y02545*
X0316Y02537*
X03167Y02541*
X03176Y02535*
Y02439*
X03167Y02435*
X03159Y02416*
X03167Y02397*
X03186Y02389*
X03205Y02397*
X03213Y02416*
X03205Y02435*
X03197Y02439*
Y02977*
X03264Y03044*
X03702*
X03705Y03035*
X03725Y03027*
X03744Y03035*
X03747Y03044*
X03855*
X03862Y03047*
X03865Y03055*
Y03148*
X03866Y03148*
X03871Y0316*
X03866Y03171*
X03855Y03176*
X03342*
X03341Y03179*
X03322Y03187*
X03302Y03179*
X03301Y03176*
X02645*
X02644Y03179*
X02625Y03187*
X02605Y03179*
X02604Y03176*
X02541*
X02456Y03261*
Y03318*
X0247Y03324*
X02483Y03355*
X0247Y03385*
X0244Y03398*
G37*
G36*
X0393Y03088D02*
X03899Y03075D01*
X03886Y03045*
X03899Y03014*
X0393Y03001*
X0396Y03014*
X03973Y03045*
X0396Y03075*
X0393Y03088*
G37*
G36*
X02785Y02959D02*
X02771Y02953D01*
X02765Y02939*
X02785*
Y02959*
G37*
G36*
X0356Y03012D02*
X0354Y03004D01*
X03532Y02985*
X0354Y02965*
X03555Y02959*
X03561Y02948*
X03561Y02948*
X03574Y02917*
X03605Y02904*
X03607Y02901*
X03602Y0289*
X0361Y0287*
X0363Y02862*
X03649Y0287*
X03657Y0289*
X03649Y02909*
X03642Y02911*
X03638Y02924*
X03648Y02948*
X03635Y02978*
X03605Y02991*
X03596Y02987*
X03583Y02993*
X03579Y03004*
X0356Y03012*
G37*
G36*
X02872Y0288D02*
X02853Y02872D01*
X02845Y02852*
X02853Y02833*
X02872Y02825*
X02892Y02833*
X029Y02852*
X02892Y02872*
X02872Y0288*
G37*
G36*
X02815Y02929D02*
X02795D01*
Y02909*
X02809Y02915*
X02815Y02929*
G37*
G36*
X02785D02*
X02765D01*
X02771Y02915*
X02785Y02909*
Y02929*
G37*
%LNbackscatter_tag_pcb-3*%
%LPD*%
G54D28*
X0326Y03055D02*
X03725D01*
X03186Y02981D02*
X0326Y03055D01*
X03186Y02416D02*
Y02981D01*
X03725Y03055D02*
X03855D01*
Y0316*
X0374Y0254D02*
X0386Y0242D01*
Y02125D02*
Y0242D01*
X0348Y0254D02*
X0374D01*
X0348Y0262D02*
X04015D01*
X0406Y02575*
Y02125D02*
Y02575D01*
X04065Y0266D02*
X0416Y02565D01*
Y02125D02*
Y02565D01*
X0348Y0258D02*
X03885D01*
X0396Y02505*
Y02125D02*
Y02505D01*
X0348Y0266D02*
X04065D01*
X0312Y02475D02*
Y02675D01*
G54D29*
X02325Y0324D02*
X0244Y03355D01*
X02535Y0316D02*
X02625D01*
X0244Y03255D02*
X02535Y0316D01*
X0244Y03255D02*
Y03355D01*
X02327Y02657D02*
X02717D01*
X02325Y02655D02*
X02327Y02657D01*
X02325Y02375D02*
Y02655D01*
Y0324*
X02625Y0316D02*
X03322D01*
X03855*
G54D30*
X0273Y02315D03*
X02905Y03315D03*
X0363Y0223D03*
X03725Y03055D03*
X0348Y027D03*
X02815Y03245D03*
X02872Y02852D03*
X0413Y0253D03*
X0287Y0242D03*
X0295D03*
X03765Y0241D03*
X03186Y02416D03*
X04Y02425D03*
X03305Y02415D03*
X0348Y0254D03*
Y0258D03*
Y0262D03*
X03147Y02995D03*
X0316Y03395D03*
X03245Y02835D03*
X0224Y03004D03*
X0416Y02805D03*
X02095Y02665D03*
X0219D03*
X02295D03*
X02675Y0246D03*
X0272Y0242D03*
X0249Y02255D03*
X02325Y02375D03*
X02625Y0316D03*
X02717Y02657D03*
X02722Y02617D03*
X03322Y0316D03*
X0356Y02985D03*
X0316Y02565D03*
X03385Y02345D03*
X03265Y0262D03*
X0279Y02934D03*
X03291Y03346D03*
X0281Y02325D03*
X0317Y02275D03*
X02325Y02305D03*
X02902Y02637D03*
X03325Y0226D03*
X0348Y0266D03*
X0312Y02475D03*
X0303Y0251D03*
X0307D03*
X0312Y0243D03*
X0393Y0259D03*
X03925Y0245D03*
X0363Y0289D03*
X03595Y02695D03*
X0312Y02675D03*
X03815Y0277D03*
X0352Y0269D03*
X0281Y03106D03*
G54D31*
X04145Y0265D03*
X0244Y03355D03*
X02555D03*
X0393Y03045D03*
X03925Y03195D03*
X03605Y02948D03*
G54D32*
X0416Y02125D03*
G54D33*
X0406Y02125D03*
X0396D03*
X0386D03*
X0376D03*
X0366D03*
X0356D03*
X0346D03*
X0336D03*
X0326D03*
X0316D03*
X0306D03*
X0296D03*
X0286D03*
X0276D03*
X0266D03*
X0256D03*
X0246D03*
X0236D03*
X0226D03*
X0216D03*
X0206D03*
G54D34*
X04305Y0329D03*
X0427Y0308D03*
X04305Y0301D03*
X0427Y0294D03*
X04305Y0287D03*
X0427Y0266D03*
X04305Y0245D03*
X0427Y0224D03*
X04305Y0217D03*
X0427Y021D03*
X042Y0336D03*
X04235Y0301D03*
Y0287D03*
Y0245D03*
X042Y0224D03*
X04235Y0217D03*
X0413Y0308D03*
X04165Y0287D03*
Y0273D03*
X04095Y0329D03*
Y0287D03*
Y0245D03*
Y0231D03*
X0399Y0336D03*
X04025Y0329D03*
X0399Y0322D03*
X0392Y0336D03*
X03955Y0329D03*
X0392Y0224D03*
X0385Y0336D03*
X03885Y0329D03*
X0378Y0336D03*
X03815Y0329D03*
X0378Y0224D03*
X03815Y0217D03*
X0371Y0336D03*
X03745Y0329D03*
Y0231D03*
X0371Y0224D03*
X0364Y0336D03*
X03675Y0231D03*
X0357Y0336D03*
Y0224D03*
X035Y0336D03*
Y0322D03*
X0343Y0336D03*
Y0224D03*
X0329Y0322D03*
X03325Y0301D03*
X0329Y0266D03*
X0322D03*
X03115Y0273D03*
X03045Y0329D03*
Y0287D03*
X0301Y0266D03*
X02975Y0329D03*
Y0287D03*
X0287Y0322D03*
Y0308D03*
X02905Y0259D03*
X0273Y0294D03*
Y028D03*
X0259Y0294D03*
X0252Y028D03*
X0245Y0294D03*
X0238Y0322D03*
Y0294D03*
X02415Y0217D03*
X02275Y0329D03*
X0224Y0308D03*
X0217Y0336D03*
X02205Y0287D03*
X021Y0308D03*
X02135Y0301D03*
X02065Y0329D03*
Y0287D03*
X01995Y0329D03*
Y0315D03*
Y0217D03*
M02*