%FSTAX23Y23*%
%MOIN*%
%SFA1B1*%

%IPPOS*%
%ADD10R,0.039370X0.043307*%
%ADD11R,0.043307X0.039370*%
%ADD12R,0.050000X0.144882*%
%ADD13O,0.050000X0.144882*%
%ADD14O,0.059055X0.027559*%
%ADD15R,0.059055X0.027559*%
%ADD16O,0.011811X0.070866*%
%ADD17O,0.070866X0.011811*%
%ADD18R,0.047244X0.013780*%
%ADD19C,0.080709*%
%ADD20R,0.096063X0.096063*%
%ADD21R,0.023622X0.059055*%
%ADD22O,0.023622X0.059055*%
%ADD23R,0.045275X0.017716*%
%ADD24C,0.009843*%
%ADD25R,0.086614X0.024016*%
%ADD26R,0.009843X0.039370*%
%ADD27O,0.009843X0.039370*%
%ADD30C,0.030000*%
%ADD31C,0.060000*%
%ADD32R,0.059055X0.059055*%
%ADD33C,0.059055*%
%LNbackscatter_tag_pcb-1*%
%LPD*%
G54D10*
X0381Y03195D03*
Y03128D03*
X02665Y02825D03*
Y02758D03*
X02575Y0255D03*
Y02616D03*
X02755Y03106D03*
Y0304D03*
X0422Y02595D03*
Y02528D03*
X04305Y02596D03*
Y0253D03*
X0267Y03106D03*
Y0304D03*
X0339Y03115D03*
Y03048D03*
X02305Y02928D03*
Y02995D03*
X0356Y03115D03*
Y03048D03*
X02575Y02825D03*
Y02758D03*
X043Y02738D03*
Y02805D03*
X03645Y03115D03*
Y03048D03*
X0258Y03105D03*
Y03038D03*
X02665Y0255D03*
Y02616D03*
X03475Y03115D03*
Y03048D03*
X0249Y03106D03*
Y0304D03*
X03725Y03195D03*
Y03128D03*
X02755Y03315D03*
Y03248D03*
X0267Y03315D03*
Y03248D03*
X0422Y02738D03*
Y02805D03*
X0383Y0232D03*
Y02386D03*
X0391Y0232D03*
Y02386D03*
X0404Y02313D03*
Y0238D03*
X024Y0306D03*
Y02993D03*
X02465Y02318D03*
Y02385D03*
X0415Y0231D03*
Y02376D03*
X02385Y02318D03*
Y02385D03*
X02665Y02333D03*
Y024D03*
X02575Y02333D03*
Y024D03*
X03855Y02825D03*
Y02758D03*
X04175Y02978D03*
Y03045D03*
X0385Y02975D03*
Y03041D03*
X0377Y02975D03*
Y03041D03*
G54D11*
X04305Y0238D03*
X04238D03*
X03225Y0313D03*
X03158D03*
X03225Y0321D03*
X03158D03*
X03626Y03265D03*
X0356D03*
X03393D03*
X0346D03*
X04306Y023D03*
X0424D03*
X03291Y03305D03*
X03225D03*
Y03395D03*
X03291D03*
X02983Y03175D03*
X0305D03*
X04018Y03045D03*
X04085D03*
X03703Y02765D03*
X0377D03*
X03703Y02685D03*
X0377D03*
X03953Y02935D03*
X0402D03*
X03953Y02855D03*
X0402D03*
X03705Y026D03*
X03771D03*
X03705Y02515D03*
X03771D03*
G54D12*
X02445Y02759D03*
G54D13*
X02345Y02759D03*
X02245D03*
X02145D03*
X02045D03*
X02445Y02565D03*
X02345D03*
X02245D03*
X02145D03*
X02045D03*
G54D14*
X0388Y02559D03*
Y02485D03*
X03974Y02559D03*
Y02522D03*
X035Y02837D03*
Y02762D03*
X03595Y02837D03*
Y028D03*
G54D15*
X03974Y02485D03*
X03595Y02762D03*
G54D16*
X03324Y02934D03*
X03304D03*
X03285D03*
X03265D03*
X03245D03*
X03226D03*
X03206D03*
X03186D03*
X03167D03*
X03147D03*
X03127D03*
X03108D03*
X03088D03*
X03068D03*
X03049D03*
X03029D03*
X03009D03*
X0299D03*
X0297D03*
X0295D03*
X0293D03*
X02911D03*
X02891D03*
X02871D03*
X02852D03*
Y0234D03*
X02871D03*
X02891D03*
X02911D03*
X0293D03*
X0295D03*
X0297D03*
X0299D03*
X03009D03*
X03029D03*
X03049D03*
X03068D03*
X03088D03*
X03108D03*
X03127D03*
X03147D03*
X03167D03*
X03186D03*
X03206D03*
X03226D03*
X03245D03*
X03265D03*
X03285D03*
X03304D03*
X03324D03*
G54D17*
X02791Y02873D03*
Y02853D03*
Y02834D03*
Y02814D03*
Y02794D03*
Y02775D03*
Y02755D03*
Y02735D03*
Y02715D03*
Y02696D03*
Y02676D03*
Y02656D03*
Y02637D03*
Y02617D03*
Y02597D03*
Y02578D03*
Y02558D03*
Y02538D03*
Y02519D03*
Y02499D03*
Y02479D03*
Y0246D03*
Y0244D03*
Y0242D03*
Y02401D03*
X03385D03*
Y0242D03*
Y0244D03*
Y0246D03*
Y02479D03*
Y02499D03*
Y02519D03*
Y02538D03*
Y02558D03*
Y02578D03*
Y02597D03*
Y02617D03*
Y02637D03*
Y02656D03*
Y02676D03*
Y02696D03*
Y02715D03*
Y02735D03*
Y02755D03*
Y02775D03*
Y02794D03*
Y02814D03*
Y02834D03*
Y02853D03*
Y02873D03*
G54D18*
X02032Y03055D03*
Y0303D03*
Y03004D03*
Y02978D03*
X0219Y03055D03*
Y0303D03*
Y03004D03*
Y02978D03*
G54D19*
X0219Y03275D03*
X04175D03*
G54D20*
X02294Y0317D03*
Y0338D03*
X02085Y0317D03*
Y0338D03*
X04279Y0317D03*
Y0338D03*
X0407Y0317D03*
Y0338D03*
G54D21*
X02025Y02285D03*
X0219Y0228D03*
G54D22*
X02062Y02285D03*
X021D03*
X02025Y0238D03*
X021D03*
X02227Y0228D03*
X02264D03*
X0219Y02375D03*
X02264D03*
G54D23*
X03685Y0289D03*
Y02864D03*
Y02838D03*
X0377D03*
Y02864D03*
Y0289D03*
G54D24*
X0301Y03083D03*
X03049D03*
X0301Y031D03*
X03049D03*
G54D25*
X03965Y02715D03*
G54D26*
X03935Y02672D03*
G54D27*
X03954Y02672D03*
X03974D03*
X03994D03*
X03935Y02757D03*
X03954D03*
X03974D03*
X03994D03*
G54D30*
X0273Y02315D03*
X02905Y03315D03*
X0363Y0223D03*
X03725Y03055D03*
X0348Y027D03*
X02815Y03245D03*
X02872Y02852D03*
X0413Y0253D03*
X0287Y0242D03*
X0295D03*
X03765Y0241D03*
X03186Y02416D03*
X04Y02425D03*
X03305Y02415D03*
X0348Y0254D03*
Y0258D03*
Y0262D03*
X03147Y02995D03*
X0316Y03395D03*
X03245Y02835D03*
X0224Y03004D03*
X0416Y02805D03*
X02095Y02665D03*
X0219D03*
X02295D03*
X02675Y0246D03*
X0272Y0242D03*
X0249Y02255D03*
X02325Y02375D03*
X02625Y0316D03*
X02717Y02657D03*
X02722Y02617D03*
X03322Y0316D03*
X0356Y02985D03*
X0316Y02565D03*
X03385Y02345D03*
X03265Y0262D03*
X0279Y02934D03*
X03291Y03346D03*
X0281Y02325D03*
X0317Y02275D03*
X02325Y02305D03*
X02902Y02637D03*
X03325Y0226D03*
X0348Y0266D03*
X0312Y02475D03*
X0303Y0251D03*
X0307D03*
X0312Y0243D03*
X0393Y0259D03*
X03925Y0245D03*
X0363Y0289D03*
X03595Y02695D03*
X0312Y02675D03*
X03815Y0277D03*
X0352Y0269D03*
X0281Y03106D03*
G54D31*
X04145Y0265D03*
X0244Y03355D03*
X02555D03*
X0393Y03045D03*
X03925Y03195D03*
X03605Y02948D03*
G54D32*
X0416Y02125D03*
G54D33*
X0406Y02125D03*
X0396D03*
X0386D03*
X0376D03*
X0366D03*
X0356D03*
X0346D03*
X0336D03*
X0326D03*
X0316D03*
X0306D03*
X0296D03*
X0286D03*
X0276D03*
X0266D03*
X0256D03*
X0246D03*
X0236D03*
X0226D03*
X0216D03*
X0206D03*
M02*