%FSTAX23Y23*%
%MOIN*%
%SFA1B1*%

%IPPOS*%
%ADD30C,0.030000*%
%ADD31C,0.060000*%
%ADD32R,0.059055X0.059055*%
%ADD33C,0.059055*%
%LNbackscatter_tag_pcb-1*%
%LPD*%
G54D30*
X0273Y02315D03*
X02905Y03315D03*
X0363Y0223D03*
X03725Y03055D03*
X0348Y027D03*
X02815Y03245D03*
X02872Y02852D03*
X0413Y0253D03*
X0287Y0242D03*
X0295D03*
X03765Y0241D03*
X03186Y02416D03*
X04Y02425D03*
X03305Y02415D03*
X0348Y0254D03*
Y0258D03*
Y0262D03*
X03147Y02995D03*
X0316Y03395D03*
X03245Y02835D03*
X0224Y03004D03*
X0416Y02805D03*
X02095Y02665D03*
X0219D03*
X02295D03*
X02675Y0246D03*
X0272Y0242D03*
X0249Y02255D03*
X02325Y02375D03*
X02625Y0316D03*
X02717Y02657D03*
X02722Y02617D03*
X03322Y0316D03*
X0356Y02985D03*
X0316Y02565D03*
X03385Y02345D03*
X03265Y0262D03*
X0279Y02934D03*
X03291Y03346D03*
X0281Y02325D03*
X0317Y02275D03*
X02325Y02305D03*
X02902Y02637D03*
X03325Y0226D03*
X0348Y0266D03*
X0312Y02475D03*
X0303Y0251D03*
X0307D03*
X0312Y0243D03*
X0393Y0259D03*
X03925Y0245D03*
X0363Y0289D03*
X03595Y02695D03*
X0312Y02675D03*
X03815Y0277D03*
X0352Y0269D03*
X0281Y03106D03*
G54D31*
X04145Y0265D03*
X0244Y03355D03*
X02555D03*
X0393Y03045D03*
X03925Y03195D03*
X03605Y02948D03*
G54D32*
X0416Y02125D03*
G54D33*
X0406Y02125D03*
X0396D03*
X0386D03*
X0376D03*
X0366D03*
X0356D03*
X0346D03*
X0336D03*
X0326D03*
X0316D03*
X0306D03*
X0296D03*
X0286D03*
X0276D03*
X0266D03*
X0256D03*
X0246D03*
X0236D03*
X0226D03*
X0216D03*
X0206D03*
M02*