%FSTAX23Y23*%
%MOIN*%
%SFA1B1*%

%IPPOS*%
%ADD10R,0.039370X0.043307*%
%ADD11R,0.043307X0.039370*%
%ADD12R,0.050000X0.144882*%
%ADD13O,0.050000X0.144882*%
%ADD14O,0.059055X0.027559*%
%ADD15R,0.059055X0.027559*%
%ADD16O,0.011811X0.070866*%
%ADD17O,0.070866X0.011811*%
%ADD18R,0.047244X0.013780*%
%ADD19C,0.080709*%
%ADD20R,0.096063X0.096063*%
%ADD21R,0.023622X0.059055*%
%ADD22O,0.023622X0.059055*%
%ADD23R,0.045275X0.017716*%
%ADD24C,0.009843*%
%ADD25R,0.086614X0.024016*%
%ADD26R,0.009843X0.039370*%
%ADD27O,0.009843X0.039370*%
%ADD28C,0.010000*%
%ADD29C,0.020000*%
%ADD30C,0.030000*%
%ADD31C,0.060000*%
%ADD32R,0.059055X0.059055*%
%ADD33C,0.059055*%
%ADD34C,0.020000*%
%LNbackscatter_tag_pcb-1*%
%LPD*%
G36*
X03281Y02423D02*
X03277Y02415D01*
X03285Y02395*
X03286Y02395*
X03288Y02383*
X03285Y02381*
X03283Y0238*
X03275Y02378*
X03267Y0238*
X03265Y02381*
X03263Y0238*
X03255Y02378*
X03247Y0238*
X03245Y02381*
X03244Y0238*
X03236Y02378*
X03227Y0238*
X03226Y02381*
X03224Y0238*
X03216Y02378*
X03208Y0238*
X03206Y02381*
X03201Y02385*
X03203Y02396*
X03205Y02397*
X03213Y02416*
X03205Y02435*
X03186Y02443*
X03167Y02435*
X03158Y02439*
Y02516*
X03187*
X03281Y02423*
G37*
G36*
X03439Y02413D02*
Y02319D01*
X03279Y02159*
X0326Y02167*
X03229Y02155*
X03217Y02125*
X03229Y02094*
X03253Y02085*
X03251Y02075*
X03168*
X03166Y02085*
X0319Y02094*
X03202Y02125*
X0319Y02154*
X03194Y02164*
X03205*
X03212Y02167*
X03292Y02247*
X03303Y02246*
X03305Y0224*
X0332Y02235*
Y0226*
X03325*
Y02265*
X0335*
X03344Y02279*
X03335Y02282*
Y02297*
X03336Y02298*
X03341Y0231*
Y02335*
X03324*
Y02345*
X03341*
Y02369*
X03336Y02381*
X03326Y02385*
X03324Y02395*
X03324Y02395*
X03327Y02404*
X03328Y02405*
X03339Y02409*
X03344Y02401*
X03347Y02392*
X03356Y02389*
X03374*
Y02367*
X03365Y02364*
X03357Y02345*
X03365Y02325*
X03385Y02317*
X03404Y02325*
X03412Y02345*
X03404Y02364*
X03396Y02367*
Y02389*
X03415*
X03423Y02392*
X03427Y02401*
X03426Y02402*
X03423Y0241*
X03424Y02411*
X03435Y02416*
X03439Y02413*
G37*
G36*
X02749Y024D02*
X02753Y02392D01*
X02761Y02389*
X0278*
Y0236*
X0277Y0235*
X02729*
X02689Y0239*
Y02401*
X02699Y02403*
X027Y024*
X0272Y02392*
X02739Y024*
X0274Y02404*
X02749Y024*
G37*
G36*
X02373Y02421D02*
X02371Y02411D01*
X0236*
Y02381*
X0235Y02379*
X02344Y02394*
X02325Y02402*
X02305Y02394*
X02297Y02375*
X02305Y02355*
X02305Y02355*
X02298Y02346*
X02288Y02346*
X02282Y02355*
X02282Y02357*
Y02392*
X02277Y02405*
X02264Y0241*
X02251Y02405*
X02246Y02392*
Y02357*
X0224Y02349*
X02231Y02348*
X02208Y02372*
Y02392*
X02202Y02405*
X022Y02406*
Y0242*
X02209Y02429*
X02365*
X02373Y02421*
G37*
G36*
X02649Y02229D02*
X02579Y02159D01*
X0256Y02167*
X02529Y02155*
X02517Y02125*
X02529Y02094*
X02553Y02085*
X02551Y02075*
X02468*
X02466Y02085*
X0249Y02094*
X02502Y02125*
X02494Y02144*
X02589Y02239*
X02645*
X02649Y02229*
G37*
G36*
X03454Y0229D02*
Y02234D01*
X03379Y02159*
X0336Y02167*
X03329Y02155*
X03317Y02125*
X03329Y02094*
X03353Y02085*
X03351Y02075*
X03268*
X03266Y02085*
X0329Y02094*
X03302Y02125*
X03294Y02144*
X03444Y02294*
X03454Y0229*
G37*
G36*
X03106Y02299D02*
X03108Y02298D01*
X03112Y02295*
X03112Y02283*
X0309Y0226*
X0293*
X02926Y0227*
X02938Y02283*
X02941Y0229*
Y02291*
X0295Y02298*
X02952Y02299*
X0296Y02301*
X02968Y02299*
X0297Y02298*
X02971Y02299*
X0298Y02301*
X02988Y02299*
X0299Y02298*
X02991Y02299*
X02999Y02301*
X03008Y02299*
X03009Y02298*
X03011Y02299*
X03019Y02301*
X03027Y02299*
X03029Y02298*
X03031Y02299*
X03039Y02301*
X03047Y02299*
X03049Y02298*
X0305Y02299*
X03058Y02301*
X03067Y02299*
X03068Y02298*
X0307Y02299*
X03078Y02301*
X03086Y02299*
X03088Y02298*
X0309Y02299*
X03098Y02301*
X03106Y02299*
G37*
G36*
X03525Y02665D02*
X03525Y02665D01*
X03534Y02659*
Y02435*
Y02395*
X03537Y02387*
X03619Y02306*
Y02252*
X0361Y02249*
X03602Y0223*
X03608Y02215*
X03602Y02205*
X03569*
X0352Y02254*
Y02467*
X03517Y02475*
X03487Y02505*
X03489Y02517*
X03499Y0252*
X03507Y0254*
X03502Y02551*
X03499Y0256*
X03502Y02568*
X03507Y0258*
X03502Y02591*
X03499Y026*
X03502Y02608*
X03507Y0262*
X03502Y02631*
X03499Y0264*
X03502Y02648*
X03506Y02657*
X03515Y02664*
Y0269*
X03525*
Y02665*
G37*
G36*
X02504Y02725D02*
Y0253D01*
X02507Y02522*
X02542Y02487*
X0255Y02484*
X02647*
X02653Y02474*
X02647Y0246*
X02655Y0244*
X02666Y02436*
X02664Y02426*
X0264*
Y0241*
X02599*
Y02426*
X0255*
Y02373*
X02547Y02364*
X02545*
Y02338*
X02575*
Y02328*
X02544*
X02535Y02323*
X0253Y02327*
Y02425*
X02527Y02432*
X02507Y02452*
X025Y02455*
X02439*
X02417Y02477*
X02418Y02479*
X02429Y02486*
X0244Y02481*
Y02565*
Y02648*
X0242Y0264*
X0241Y02644*
Y02674*
X02415Y02682*
X02475*
Y0274*
X02485Y02744*
X02504Y02725*
G37*
G36*
X02837Y02969D02*
X02835Y02964D01*
Y02945*
X02813*
X02809Y02953*
X02795Y02959*
Y02934*
X0279*
Y02929*
X02765*
X02767Y02924*
X02762Y02915*
X02684*
X02631Y02969*
X02635Y02979*
X0283*
X02837Y02969*
G37*
G36*
X02906Y02673D02*
X02901Y02663D01*
X02883Y02656*
X0288Y02648*
X02839*
X02832Y02656*
X02829Y02665*
Y02668*
X02832Y02676*
X02831Y02678*
X02829Y02686*
X02831Y02694*
X02832Y02696*
X02829Y02704*
Y02707*
X02832Y02715*
X02831Y02717*
X02829Y02725*
X02831Y02733*
X02841Y02737*
X02906Y02673*
G37*
G36*
X03534Y02861D02*
X03524Y02854D01*
X03516Y02857*
X03484*
X03479Y02855*
X0347Y0286*
Y02904*
X03534*
Y02861*
G37*
G36*
X03484Y02817D02*
X0349D01*
X03492Y02811*
X03506Y02798*
X03502Y02788*
X03484*
X03466Y0278*
X03461Y02767*
X035*
Y02757*
X03461*
X03466Y02744*
X03483Y02737*
X03485Y02735*
X03485Y02735*
X0348Y02727*
X0346Y02719*
X03452Y027*
X03456Y02691*
X03435Y0267*
X03427Y02676*
X03427Y02676*
X03426Y02678*
X03423Y02686*
X03426Y02694*
X03427Y02696*
X03426Y02697*
X03423Y02706*
X03426Y02714*
X03427Y02715*
X03426Y02717*
X03423Y02725*
X03426Y02734*
X03427Y02735*
X03426Y02737*
X03423Y02745*
X03426Y02753*
X03427Y02755*
X03423Y02763*
Y02766*
X03427Y02775*
X03434Y02783*
X03444*
X03452Y02787*
X03467Y02802*
X0347Y0281*
X03476Y02817*
X03479Y02819*
X03484Y02817*
G37*
G36*
X03027Y02552D02*
D01*
X03035Y02549*
X0311*
X03136Y02523*
Y02504*
X03128Y02498*
X0312Y02502*
X03101Y02494*
X03092Y02498*
X03097Y0251*
X03089Y02529*
X0307Y02537*
X03058Y02532*
X0305Y02529*
X03041Y02532*
X0303Y02537*
X0301Y02529*
X03002Y0251*
X0301Y0249*
X03019Y02487*
Y02445*
X03022Y02437*
X03038Y02421*
Y02388*
X03029Y02381*
X03027Y0238*
X03019Y02378*
X03011Y0238*
X03009Y02381*
X03008Y0238*
X02999Y02378*
X02991Y0238*
X0299Y02381*
X02988Y0238*
X0298Y02378*
X02971Y0238*
X0297Y02381*
X02961Y02388*
X02962Y02397*
X02969Y024*
X02977Y0242*
X02969Y02439*
X0295Y02447*
X0293Y02439*
X02927Y0243*
X02892*
X02889Y02439*
X0287Y02447*
X0285Y02439*
X02842Y0242*
X02845Y02414*
X02844Y02414*
X02832Y02416*
X02831Y02418*
X02832Y0242*
X02831Y02422*
X02829Y0243*
X02831Y02438*
X02832Y0244*
X02829Y02448*
Y02451*
X02832Y0246*
X02829Y02466*
X02832Y02467*
X02835Y02474*
X02791*
Y02484*
X02835*
X02832Y02491*
X02829Y02493*
X02832Y02499*
X02829Y02507*
Y0251*
X02832Y02519*
X02831Y0252*
X02829Y02528*
X02831Y02537*
X02832Y02538*
X02831Y0254*
X02829Y02548*
X02831Y02556*
X02832Y02558*
X02829Y02566*
Y02569*
X02832Y02578*
X02831Y02579*
X02829Y02588*
X02831Y02596*
X02832Y02597*
X02829Y02606*
Y02609*
X02832Y02617*
X02839Y02626*
X0288*
X02883Y02618*
X02897Y02612*
Y02637*
X02907*
Y02612*
X02921Y02618*
X02929Y02636*
X02939Y0264*
X03027Y02552*
G37*
G36*
X02703Y02598D02*
X02722Y0259D01*
X0274Y02598*
X02743Y02598*
X0275Y02594*
X02752Y02588*
X0275Y02579*
X02749Y02578*
X02753Y02569*
Y02566*
X02749Y02558*
X0275Y02556*
X02752Y02548*
X0275Y0254*
X02749Y02538*
X0275Y02537*
X02752Y02528*
X0275Y0252*
X02749Y02519*
X0275Y02517*
X02749Y02515*
X02737Y02513*
X02694Y02555*
Y02581*
X02692*
X02689Y0259*
Y02606*
X027*
X02703Y02598*
G37*
G36*
X02645Y03049D02*
Y03013D01*
X02694*
Y03029*
X0273*
Y03013*
X0276*
X02761Y0301*
X02756Y03*
X02632*
X02604Y03028*
Y03063*
Y03064*
X02607Y03073*
X02609*
X02619Y03075*
X02645Y03049*
G37*
G36*
X03925Y02647D02*
X03943D01*
Y02621*
X03935Y02614*
X0393Y02617*
X0391Y02609*
X03902Y0259*
X03904Y02586*
X03897Y02579*
X03895Y0258*
X03864*
X03849Y02574*
X03849Y02573*
X0384Y0257*
X03832Y02567*
X03807Y02542*
X03798Y02539*
X03795*
X03782*
Y02575*
X03798*
Y02611*
X03849Y02661*
X03925*
Y02647*
G37*
G36*
X02734Y02214D02*
X02679Y02159D01*
X0266Y02167*
X02629Y02155*
X02617Y02125*
X02629Y02094*
X02653Y02085*
X02651Y02075*
X02568*
X02566Y02085*
X0259Y02094*
X02602Y02125*
X02594Y02144*
X02674Y02224*
X0273*
X02734Y02214*
G37*
G36*
X03743Y02171D02*
X0374Y02159D01*
X03729Y02155*
X03717Y02125*
X03729Y02094*
X03753Y02085*
X03751Y02075*
X03668*
X03666Y02085*
X0369Y02094*
X03702Y02125*
X0369Y02155*
X0366Y02167*
X03629Y02155*
X03617Y02125*
X03629Y02094*
X03653Y02085*
X03651Y02075*
X03568*
X03566Y02085*
X0359Y02094*
X03602Y02125*
X0359Y02155*
X03575Y02161*
X0357Y0217*
X03569Y02174*
X0357Y02179*
X03573Y02182*
X03574Y02184*
X0373*
X03743Y02171*
G37*
G36*
X02989Y02169D02*
X02979Y02159D01*
X0296Y02167*
X02929Y02155*
X02917Y02125*
X02929Y02094*
X02953Y02085*
X02951Y02075*
X02868*
X02866Y02085*
X0289Y02094*
X02902Y02125*
X02894Y02144*
X02929Y02179*
X02985*
X02989Y02169*
G37*
G36*
X02343Y02161D02*
X02329Y02155D01*
X02317Y02125*
X02329Y02094*
X02353Y02085*
X02351Y02075*
X02268*
X02266Y02085*
X0229Y02094*
X02302Y02125*
X0229Y02155*
X02276Y02161*
Y02188*
X02343*
Y02161*
G37*
G36*
X03029Y02154D02*
X03017Y02125D01*
X03029Y02094*
X03053Y02085*
X03051Y02075*
X02968*
X02966Y02085*
X0299Y02094*
X03002Y02125*
X02994Y02144*
X03014Y02164*
X03025*
X03029Y02154*
G37*
G36*
X03129D02*
X03117Y02125D01*
X03129Y02094*
X03153Y02085*
X03151Y02075*
X03068*
X03066Y02085*
X0309Y02094*
X03102Y02125*
X0309Y02154*
X03094Y02164*
X03125*
X03129Y02154*
G37*
G36*
X03084Y03292D02*
D01*
X03091Y03289*
X0314*
X03146Y03282*
Y03234*
X03131*
Y03198*
X03118Y03185*
X03076*
Y03199*
X03024*
X03023*
X03014Y03202*
Y03204*
X02988*
Y03175*
Y03145*
X03014*
Y03147*
X03023Y0315*
X03024*
X03038*
Y031*
X03041Y03092*
Y03091*
X03038Y03083*
Y03035*
X03038Y03034*
Y02982*
X03029Y02975*
X0302Y02982*
Y02985*
X03017Y02992*
X02997Y03012*
X0299Y03015*
X02794*
X02779Y0303*
Y03065*
Y03066*
X02782Y03075*
X02784*
Y0308*
X02794Y03086*
X02805Y03081*
Y03106*
Y03131*
X02794Y03127*
X02784Y03132*
Y03138*
X0276*
Y03106*
X02755*
Y03101*
X02725*
Y03075*
X02727*
X0273Y03066*
Y03065*
Y0305*
X02694*
Y03066*
X02697Y03075*
X02699*
Y03101*
X0267*
Y03106*
X02665*
Y03138*
X02654*
X02647Y03148*
X02652Y0316*
X02644Y03179*
X02625Y03187*
X02605Y03179*
X02597Y0316*
X02603Y03146*
X02597Y03136*
X02585*
Y03105*
X0258*
Y031*
X0255*
Y03073*
X02552*
X02555Y03064*
Y03063*
Y03048*
X02514*
Y03066*
X02517Y03075*
X02519*
Y03101*
X0249*
Y03106*
X02485*
Y03138*
X02461*
Y03238*
X02529Y03306*
X02538Y03302*
Y0329*
X02543Y03278*
X02585Y03236*
X02596Y03231*
X02645*
Y03221*
X02694*
Y03237*
X0273*
Y03221*
X02779*
Y03237*
X02791*
X02795Y03225*
X02815Y03217*
X02834Y03225*
X02842Y03245*
X02834Y03264*
X02815Y03272*
X02795Y03264*
X02793Y03258*
X02779*
Y03274*
X02782Y03283*
X02784*
Y03304*
X02882*
X02885Y03295*
X029Y0329*
Y03315*
X02905*
Y0332*
X0293*
X02924Y03334*
X02924Y03334*
X02926Y03344*
X03032*
X03084Y03292*
G37*
G36*
X03498Y02216D02*
X03543Y02171D01*
X0354Y02159*
X03529Y02155*
X03517Y02125*
X03529Y02094*
X03553Y02085*
X03551Y02075*
X03468*
X03466Y02085*
X0349Y02094*
X03502Y02125*
X0349Y02155*
X0347Y02163*
Y02199*
X03486Y02214*
X03492Y02216*
X03496Y02216*
X03498Y02216*
G37*
G36*
X03449Y02185D02*
Y02163D01*
X03429Y02155*
X03417Y02125*
X03429Y02094*
X03453Y02085*
X03451Y02075*
X03368*
X03366Y02085*
X0339Y02094*
X03402Y02125*
X03394Y02144*
X03439Y02189*
X03449Y02185*
G37*
G36*
X0264Y0332D02*
X0267D01*
Y0331*
X0264*
Y03283*
X02642*
X02645Y03274*
Y03264*
X02603*
X02571Y03296*
Y03318*
X02585Y03324*
X02593Y03344*
X0264*
Y0332*
G37*
G36*
X04221Y03438D02*
Y03435D01*
Y03385*
X04337*
Y0343*
X04345Y03436*
X04347Y03436*
X0435Y03436*
Y02075*
X04068*
X04066Y02085*
X0409Y02094*
X04102Y02125*
X0409Y02155*
X0406Y02167*
X04029Y02155*
X04017Y02125*
X04029Y02094*
X04053Y02085*
X04051Y02075*
X03968*
X03966Y02085*
X0399Y02094*
X04002Y02125*
X0399Y02155*
X0396Y02167*
X03929Y02155*
X03917Y02125*
X03929Y02094*
X03953Y02085*
X03951Y02075*
X03868*
X03866Y02085*
X0389Y02094*
X03902Y02125*
X0389Y02155*
X0386Y02167*
X03829Y02155*
X03817Y02125*
X03829Y02094*
X03853Y02085*
X03851Y02075*
X03768*
X03766Y02085*
X0379Y02094*
X03802Y02125*
X0379Y02155*
X0377Y02163*
Y0217*
X03767Y02177*
X03742Y02202*
X03735Y02205*
X03657*
X03651Y02215*
X03657Y0223*
X03649Y02249*
X0364Y02252*
Y0231*
X03637Y02318*
X03555Y024*
Y0243*
X03574Y02449*
X0379*
X03797Y02452*
X03822Y02477*
X03825Y02485*
Y0253*
X03839Y02544*
X03849Y02545*
X03864Y02539*
X03895*
X0391Y02545*
X03916Y02559*
X03922Y02566*
X0393Y02562*
X0393Y02562*
X03938Y02559*
X03943Y02547*
X03944Y02541*
X03943Y02534*
X03938Y02522*
X03941Y02513*
X03939Y02503*
Y02479*
X03931Y02474*
X03928Y02475*
X03921Y02485*
X03913Y02503*
X03895Y0251*
X03885*
Y02485*
Y02459*
X0389*
X03898Y0245*
X03897Y0245*
X03905Y0243*
X03925Y02422*
X03944Y0243*
X03947Y02439*
X03967*
X03973Y02434*
X03975Y0243*
X03972Y02425*
X0398Y02405*
X04Y02397*
X04007Y024*
X04015Y02395*
Y02354*
Y02353*
X04012Y02344*
X0401*
Y02318*
X0404*
X04069*
Y02344*
X04067*
X04064Y02353*
Y02354*
Y02369*
X04125*
Y02351*
Y0235*
X04122Y02341*
X0412*
Y02315*
X0415*
X04179*
Y02341*
X04177*
X04174Y0235*
Y02351*
Y02366*
X04211*
Y02355*
X04227*
Y02324*
X04213*
Y02275*
X04265*
X04266*
X04275Y02272*
Y0227*
X04301*
Y023*
Y02329*
X04275*
Y02327*
X04266Y02324*
X04265*
X04248*
Y02355*
X04263*
X04264*
X04273Y02352*
Y0235*
X043*
Y0238*
Y02409*
X04273*
Y02407*
X04264Y02404*
X04263*
X04211*
Y02387*
X04174*
Y02403*
X04125*
Y0239*
X04064*
Y02406*
X0405*
X04047Y02412*
X04027Y02432*
X04023Y02434*
X04019Y02444*
X04Y02452*
X03994Y02449*
X0399Y02451*
X03985Y02456*
X03986Y02466*
X04009*
Y02503*
X04014Y02511*
X04028*
X04052Y02487*
X0406Y02484*
X04186*
X04194Y02487*
X04208Y02501*
X04244*
Y02519*
X0428*
Y02503*
X04329*
Y02555*
Y02556*
X04332Y02565*
X04334*
Y02591*
X04305*
X04275*
Y02565*
X04277*
X0428Y02556*
Y02555*
Y0254*
X04244*
Y02553*
Y02554*
X04247Y02563*
X04249*
Y0259*
X0422*
X0419*
Y02563*
X04192*
X04195Y02554*
Y02553*
Y0254*
X04152*
X04149Y02549*
X0413Y02557*
X0411Y02549*
X04102Y0253*
X04108Y02515*
X04102Y02505*
X04064*
X0404Y0253*
X04032Y02533*
X0401*
X04006Y02541*
X0401Y02548*
X04054*
X04062Y02552*
X04125Y02614*
X04145Y02606*
X04175Y02619*
X04188Y0265*
X04175Y0268*
X04145Y02693*
X04114Y0268*
X04101Y0265*
X04109Y0263*
X0405Y0257*
X04006*
X04004Y02574*
X0399Y0258*
X03985*
Y02636*
X03989Y02639*
Y02672*
X03994*
Y02677*
X0401*
Y02687*
X04013Y02692*
X04018*
Y0271*
X03965*
X03911*
Y02692*
X0391Y02683*
X03844*
X03836Y0268*
X0379Y02634*
X0378Y02638*
Y0266*
X03796*
Y02696*
X03822Y02722*
X03823Y02724*
X03829Y0273*
X03835Y02731*
X03879*
Y02746*
X0391*
X03911Y02737*
Y0272*
X03965*
X04018*
Y02737*
X04013*
X0401Y02742*
Y02752*
X03994*
Y02757*
X03989*
Y02786*
X03984Y02784*
X03979Y02786*
Y02757*
X03969*
Y0279*
X03965Y02793*
Y0283*
X03979*
Y02879*
X03926*
Y0283*
X03943*
Y02789*
X03935Y02782*
X03927Y02779*
X03924Y02772*
Y02768*
X03879*
Y02783*
Y02784*
X03882Y02793*
X03884*
Y0282*
X03855*
X03825*
Y02803*
X03815Y02796*
X03815Y02797*
X03796Y02789*
X03796Y02789*
X0378*
Y02824*
X03797*
Y02845*
X03802*
Y02859*
X0377*
X03737*
Y02845*
X03742*
Y02824*
X03759*
Y02789*
X03744*
X03743*
X03734Y02792*
Y02794*
X03708*
Y02765*
Y02735*
X03734*
Y02737*
X03743Y0274*
X03744*
X03759*
Y02709*
X03744*
X03743*
X03734Y02712*
Y02714*
X03708*
Y02685*
Y02655*
X03734*
Y02657*
X03743Y0266*
X03744*
X03759*
Y02624*
X03746*
X03745*
X03736Y02627*
Y02629*
X0371*
Y026*
Y0257*
X03736*
Y02572*
X03745Y02575*
X03746*
X03761*
Y02539*
X03746*
X03745*
X03736Y02542*
Y02544*
X0371*
Y02515*
Y02485*
X03736*
Y02487*
X03745Y0249*
X03746*
X0379*
X03795Y0248*
X03785Y0247*
X0357*
X03565Y02469*
X03555Y02474*
Y02735*
X0356Y02743*
X03584*
Y02717*
X03575Y02714*
X03567Y02695*
X03575Y02675*
X03595Y02667*
X03614Y02675*
X03622Y02695*
X03614Y02714*
X03605Y02717*
Y02743*
X03629*
Y02781*
X03627Y02791*
X03631Y028*
X03625Y02812*
X03625Y02817*
X03631Y02826*
X03657*
Y02824*
X03712*
Y02845*
X03717*
Y02859*
X03685*
Y02869*
X03717*
Y02883*
X03712*
Y02903*
X03657*
X03649Y02908*
X03649Y02909*
X03642Y02911*
X03638Y02924*
X03648Y02948*
X03635Y02978*
X03605Y02991*
X03596Y02987*
X03583Y02993*
X03579Y03004*
X0357Y03007*
Y03021*
X03584*
Y03037*
X0362*
Y03021*
X03669*
Y03073*
Y03074*
X03672Y03083*
X03674*
Y0311*
X03645*
X03615*
Y03083*
X03617*
X0362Y03074*
Y03073*
Y03058*
X03584*
Y03073*
Y03074*
X03587Y03083*
X03589*
Y0311*
X0356*
X0353*
Y03083*
X03532*
X03535Y03074*
Y03073*
Y03021*
X03549*
Y03007*
X0354Y03004*
X03532Y02985*
X0354Y02965*
X03549Y02962*
Y02925*
X03396*
Y03021*
X03414*
Y03037*
X0345*
Y03021*
X03499*
Y03073*
Y03074*
X03502Y03083*
X03504*
Y0311*
X03475*
X03445*
Y03083*
X03447*
X0345Y03074*
Y03073*
Y03058*
X03414*
Y03073*
Y03074*
X03417Y03083*
X03419*
Y0311*
X0339*
X0336*
Y03083*
X03362*
X03365Y03074*
Y03073*
Y03021*
X03374*
Y02915*
Y02885*
X03356*
X03347Y02881*
X03344Y02873*
X03346Y02867*
X03343Y02865*
X0334Y02858*
X03385*
X0343*
X03427Y02865*
X03424Y02867*
X03427Y02873*
X03423Y02881*
X03415Y02885*
X03396*
Y02904*
X03449*
Y02815*
X03441Y02808*
X03431Y02808*
X03427Y02814*
X03426Y02816*
X03423Y02824*
X03426Y02832*
X03427Y02834*
X03424Y0284*
X03427Y02841*
X0343Y02848*
X03385*
X03336*
X03333Y02844*
X03267*
X03264Y02854*
X03245Y02862*
X03225Y02854*
X03217Y02835*
X03225Y02815*
X03245Y02807*
X03264Y02815*
X03267Y02823*
X03337*
X03344Y02814*
X03345Y02812*
X03347Y02804*
X03345Y02796*
X03344Y02794*
X03345Y02793*
X03347Y02784*
X03345Y02776*
X03344Y02775*
X03345Y02773*
X03347Y02765*
X03345Y02757*
X03344Y02755*
X03345Y02753*
X03347Y02745*
X03345Y02737*
X03344Y02735*
X03345Y02734*
X03347Y02725*
X03345Y02717*
X03344Y02715*
X03347Y02707*
Y02704*
X03344Y02696*
X03345Y02694*
X03347Y02686*
X03345Y02678*
X03344Y02676*
X03347Y02668*
Y02665*
X03344Y02656*
X03346Y0265*
X03343Y02649*
X0334Y02642*
X03385*
Y02632*
X03336*
X03333Y02628*
X03288*
X03284Y02639*
X03265Y02647*
X03245Y02639*
X03237Y0262*
X03245Y026*
X03265Y02592*
X03284Y026*
X03286Y02606*
X03337*
X03344Y02597*
X03345Y02596*
X03347Y02588*
X03345Y02579*
X03344Y02578*
X03347Y02569*
Y02566*
X03344Y02558*
X03345Y02556*
X03347Y02548*
X03345Y0254*
X03344Y02538*
X03345Y02537*
X03347Y02528*
X03345Y0252*
X03344Y02519*
X03347Y0251*
Y02507*
X03344Y02499*
X03345Y02497*
X03347Y02489*
X03345Y02481*
X03344Y02479*
X03345Y02478*
X03347Y02469*
X03345Y02461*
X03344Y0246*
X03347Y02452*
X03343Y02443*
X03334Y02441*
X03202Y02572*
X03195Y02575*
X03182*
X03179Y02584*
X0316Y02592*
X0314Y02584*
X03134Y02569*
X03123Y02566*
X03122Y02567*
X03115Y0257*
X03039*
X02855Y02754*
Y02824*
X02864Y02829*
X02872Y02825*
X02892Y02833*
X029Y02852*
X02892Y02872*
X02882Y02876*
Y02885*
X02891Y02893*
X02893Y02893*
X02901Y02896*
X02909Y02893*
X02911Y02893*
X02912Y02893*
X02921Y02896*
X02929Y02893*
X0293Y02893*
X02932Y02893*
X0294Y02896*
X02948Y02893*
X0295Y02893*
X02952Y02893*
X0296Y02896*
X02968Y02893*
X0297Y02893*
X02971Y02893*
X0298Y02896*
X02988Y02893*
X0299Y02893*
X02991Y02893*
X02999Y02896*
X03008Y02893*
X03009Y02893*
X03011Y02893*
X03019Y02896*
X03027Y02893*
X03029Y02893*
X03031Y02893*
X03039Y02896*
X03047Y02893*
X03049Y02893*
X0305Y02893*
X03058Y02896*
X03067Y02893*
X03068Y02893*
X0307Y02893*
X03078Y02896*
X03086Y02893*
X03088Y02893*
X03094Y02895*
X03095Y02892*
X03103Y02889*
Y02934*
X03113*
Y02889*
X0312Y02892*
X03121Y02895*
X03127Y02893*
X03129Y02893*
X03137Y02896*
X03145Y02893*
X03147Y02893*
X03153Y02895*
X03155Y02892*
X03162Y02889*
Y02934*
X03172*
Y02889*
X03179Y02892*
X0318Y02895*
X03186Y02893*
X03188Y02893*
X03196Y02896*
X03204Y02893*
X03206Y02893*
X03208Y02893*
X03216Y02896*
X03224Y02893*
X03226Y02893*
X03227Y02893*
X03236Y02896*
X03244Y02893*
X03245Y02893*
X03247Y02893*
X03255Y02896*
X03263Y02893*
X03265Y02893*
X03267Y02893*
X03275Y02896*
X03283Y02893*
X03285Y02893*
X03286Y02893*
X03295Y02896*
X03303Y02893*
X03304Y02893*
X03308Y02894*
X03319Y02889*
Y02934*
Y02979*
X03308Y02974*
X03304Y02975*
X03303Y02975*
X03295Y02972*
X03286Y02975*
X03285Y02975*
X03283Y02975*
X03275Y02972*
X03267Y02975*
X03265Y02975*
X03263Y02975*
X03255Y02972*
X03247Y02975*
X03245Y02975*
X03244Y02975*
X03236Y02972*
X03227Y02975*
X03226Y02975*
X03224Y02975*
X03216Y02972*
X03208Y02975*
X03206Y02975*
X03204Y02975*
X03196Y02972*
X03188Y02975*
X03186Y02975*
X0318Y02973*
X03179Y02976*
X03168Y0298*
X03174Y02995*
X03171Y03*
X03177Y03009*
X03285*
X03292Y03012*
X03329Y03049*
X03332Y03057*
Y03137*
X03341Y0314*
X03349Y0316*
X03341Y03179*
X0334Y03184*
X03349Y03194*
X034*
X03407Y03197*
X0345Y0324*
X03486*
Y03254*
X03533*
Y0324*
X03585*
X03586*
X03595Y03237*
Y03235*
X03621*
Y03265*
Y03294*
X03595*
Y03292*
X03586Y03289*
X03585*
X03533*
Y03275*
X03486*
Y03289*
X03433*
X03424Y03292*
Y03294*
X03398*
Y03265*
Y03235*
X03401*
X03405Y03226*
X03395Y03215*
X03345*
X03337Y03212*
X03314Y03189*
X03311Y03182*
X03302Y03179*
X03294Y0316*
X03302Y0314*
X03311Y03137*
Y03061*
X0328Y0303*
X031*
X03092Y03027*
X0307Y03005*
X0306Y03009*
Y03035*
X0306Y03035*
Y03083*
X03057Y03091*
Y03092*
X0306Y031*
Y0315*
X03076*
Y03164*
X03123*
X0313Y03167*
X03137Y03174*
X03146Y0317*
Y03154*
X03131*
Y03105*
X03183*
X03184*
X03193Y03102*
Y031*
X0322*
Y0313*
Y03159*
X03193*
Y03157*
X03184Y03154*
X03183*
X03168*
Y03185*
X03183*
X03184*
X03193Y03182*
Y0318*
X0322*
Y0321*
X03225*
Y03215*
X03256*
Y03234*
Y03239*
X03264Y03244*
X03315*
X03322Y03247*
X03347Y03272*
X0335Y0328*
Y03346*
X03347Y03354*
X03318Y03383*
Y03419*
X03265*
Y0337*
X0327Y0336*
X03266Y03351*
X03291*
Y03341*
X03265*
X0326Y03334*
X0326*
Y03332*
X03251Y03329*
X0325*
X03235*
Y0337*
X03251*
Y03419*
X03198*
Y03405*
X03182*
X03179Y03414*
X0316Y03422*
X0314Y03414*
X03132Y03395*
X0314Y03375*
X0316Y03367*
X03179Y03375*
X03182Y03384*
X03198*
Y0337*
X03214*
Y03329*
X03198*
Y0328*
X0325*
X03251*
X03252Y0328*
X0326Y03275*
X03259Y03265*
X03168*
Y03287*
X03165Y03294*
X03152Y03307*
X03145Y0331*
X03096*
X03044Y03362*
X03036Y03365*
X02593*
X02585Y03385*
X02555Y03398*
X02524Y03385*
X02511Y03355*
X02517Y0334*
X02433Y03256*
X02428Y03245*
Y031*
X02425Y03091*
X02405*
Y0306*
X024*
Y03055*
X0237*
Y03028*
X02372*
X02375Y03019*
Y03005*
X02329*
Y03021*
X0228*
Y02969*
Y02968*
X02277Y02959*
X02275*
Y02933*
X02305*
X02334*
Y02959*
X02332*
X02329Y02968*
Y02969*
Y02984*
X02375*
Y02966*
X02424*
Y02982*
X02473*
Y02911*
X02458Y02896*
X02344*
X02334Y02896*
Y02906*
Y02923*
X02305*
X02275*
Y02913*
X02265Y02908*
X02261Y02911*
Y02935*
X02256Y02946*
X02245Y02951*
X02206*
Y02966*
X02218*
Y02975*
X02228Y02982*
X0224Y02977*
X02259Y02985*
X02267Y03004*
X02259Y03023*
X0224Y03031*
X02231Y03027*
X02223Y03033*
Y03046*
X02218*
Y03067*
X022*
Y0323*
X02224Y0324*
X02239Y03275*
X02224Y0331*
X0219Y03324*
X02155Y0331*
X0214Y03275*
X02155Y0324*
X02179Y0323*
Y03067*
X02161*
Y03046*
X02156*
Y03035*
X0219*
Y03025*
X02156*
Y03013*
X02161*
Y02992*
Y0299*
Y02982*
Y02966*
X02173*
Y02941*
X02163Y02931*
X0204*
X02028Y02926*
X01978Y02876*
X01973Y02865*
Y0249*
X01978Y02478*
X02008Y02448*
Y02401*
X02007Y02397*
Y02362*
X02012Y02349*
X02025Y02344*
X02038Y02349*
X02043Y02362*
Y02397*
X02041Y02402*
Y02438*
X02165*
X02176Y02443*
X02225Y02492*
X02245Y02485*
X02267Y02494*
X02277Y02517*
Y02612*
X02267Y02635*
X02245Y02644*
X02222Y02635*
X02212Y02612*
Y02525*
X02158Y02471*
X0205*
X02048Y02481*
X02071Y0249*
X02082Y02517*
Y0256*
X02045*
Y0257*
X02082*
Y02612*
X02073Y02636*
X02079Y02644*
X02095Y02637*
X02114Y02645*
X02122Y02665*
X02114Y02684*
X02095Y02692*
X02081Y02686*
X02077Y02687*
X02072Y02699*
X02077Y02712*
Y02807*
X02067Y0283*
X02045Y02839*
X02022Y0283*
X02016Y02816*
X02006Y02818*
Y02858*
X02046Y02898*
X02128*
Y02833*
X02122Y0283*
X02112Y02807*
Y02712*
X02122Y02689*
X02139Y02682*
X0214Y02678*
X0214Y0267*
X02137Y02667*
X02134Y0266*
Y0264*
X02122Y02635*
X02112Y02612*
Y02517*
X02122Y02494*
X02145Y02485*
X02167Y02494*
X02177Y02517*
Y02612*
X02167Y02635*
X02155Y0264*
Y02654*
X02167*
X0217Y02645*
X0219Y02637*
X02209Y02645*
X02217Y02665*
X02209Y02684*
X0219Y02692*
X02177Y02686*
X0217Y02694*
X02177Y02712*
Y02807*
X02167Y0283*
X02161Y02833*
Y02898*
X0217*
X02181Y02903*
X02196Y02918*
X02228*
Y029*
X02233Y02888*
X02253Y02868*
X02265Y02863*
X02465*
X02476Y02868*
X02501Y02893*
X02506Y02905*
Y02982*
X02587*
X02672Y02897*
X0268Y02894*
X02757*
X02759Y02884*
X02753Y02881*
X02749Y02873*
X02753Y02865*
Y02862*
X02749Y02853*
X0275Y02852*
X02752Y02843*
X0275Y02835*
X02749Y02834*
X0275Y02832*
X02752Y02824*
X0275Y02816*
X02749Y02814*
X02753Y02806*
Y02803*
X02749Y02794*
X0275Y02793*
X02752Y02784*
X0275Y02776*
X02749Y02775*
X02753Y02766*
Y02763*
X02749Y02755*
X0275Y02753*
X02752Y02745*
X0275Y02737*
X02749Y02735*
X0275Y02734*
X02752Y02725*
X0275Y02717*
X02749Y02715*
X02753Y02707*
Y02704*
X02749Y02696*
X0275Y02694*
X02752Y02686*
X0275Y02678*
X02749Y02676*
X02748Y02675*
X02737Y02676*
X02737Y02677*
X02717Y02685*
X02701Y02678*
X02675Y02704*
Y02731*
X02689*
Y02783*
Y02784*
X02692Y02793*
X02694*
Y0282*
X02665*
X02635*
Y02793*
X02637*
X0264Y02784*
Y02783*
Y02768*
X02599*
Y02783*
Y02784*
X02602Y02793*
X02604*
Y0282*
X02575*
X02545*
Y02793*
X02547*
X0255Y02784*
Y02783*
Y02731*
X02599*
Y02747*
X0264*
Y02731*
X02654*
Y027*
X02657Y02692*
X02691Y02658*
X0269Y02657*
X02693Y02652*
X02686Y02643*
X0264*
Y02628*
X02599*
Y02643*
X0255*
Y02591*
Y0259*
X02547Y02581*
X02545*
Y02555*
X02575*
X02604*
Y02581*
X02602*
X02599Y0259*
Y02591*
Y02606*
X0264*
Y0259*
X02637Y02581*
X02635*
Y02555*
X02665*
Y0255*
X0267*
Y02518*
X02694*
X02695Y02518*
X02698Y02515*
X02693Y02505*
X02561*
X0256Y02508*
X02565Y02518*
X0257*
Y02545*
X02545*
Y02529*
X02535Y02525*
X02525Y02534*
Y0273*
X02522Y02737*
X02492Y02767*
X02485Y0277*
X02475*
Y02837*
X02415*
Y02754*
X02405Y0275*
X02387Y02767*
X0238Y0277*
X02377Y02779*
Y02807*
X02367Y0283*
X02345Y02839*
X02322Y0283*
X02312Y02807*
Y02712*
X02322Y02689*
X02345Y02679*
X02367Y02689*
X02377Y02712*
Y02723*
X02387Y02729*
X02389Y02728*
Y0248*
X02392Y02472*
X02427Y02437*
X02435Y02434*
X02495*
X02509Y0242*
Y0232*
X02512Y02312*
X02533Y0229*
X02529Y0228*
X02505*
X02498Y02278*
X0249Y02282*
X0247Y02274*
X02462Y02255*
X0247Y02235*
X0249Y02227*
X02509Y02235*
X02517Y02255*
X02519Y02259*
X02564*
X02568Y02249*
X02479Y02159*
X0246Y02167*
X02429Y02155*
X02417Y02125*
X02429Y02094*
X02453Y02085*
X02451Y02075*
X02368*
X02366Y02085*
X0239Y02094*
X02402Y02125*
X0239Y02155*
X02376Y02161*
Y02205*
X02371Y02216*
X0236Y02221*
X02276*
Y02221*
X02264Y02226*
X02253Y02221*
X02253Y02221*
X02206*
Y02237*
X02216Y02243*
X02222Y02241*
Y0228*
X02232*
Y02241*
X02244Y02246*
X02248*
X02259Y02241*
Y0228*
X02269*
Y02241*
X02281Y02246*
X02288Y02262*
Y02269*
X023*
X02308Y02272*
X02316Y02281*
X0232Y0228*
Y02305*
X0233*
Y0228*
X02344Y02285*
X02349Y02299*
X0235Y023*
X02354Y02299*
X0236Y02292*
Y02291*
X02409*
Y02307*
X0244*
Y02291*
X02489*
Y02343*
Y02344*
X02492Y02353*
X02494*
Y0238*
X02465*
X02435*
Y02353*
X02437*
X0244Y02344*
Y02343*
Y02328*
X02409*
Y02344*
X0236*
Y02317*
X02354Y0231*
X0235Y02309*
X02349Y0231*
X02344Y02324*
X02333Y02328*
X0233Y0234*
X02332Y02342*
X02335Y0235*
X02343Y02355*
X02344Y02355*
X0235Y0237*
X0236Y02368*
Y02358*
X02409*
Y02411*
X02395*
Y02425*
X02392Y02432*
X02377Y02447*
X0237Y0245*
X02205*
X02197Y02447*
X02182Y02432*
X02179Y02425*
Y02406*
X02177Y02405*
X02171Y02392*
Y02357*
X02177Y02344*
X02185Y0234*
X02183Y0233*
X02155*
X02147Y02327*
X02129Y0231*
X02119Y02312*
X02116Y02319*
X02105Y02324*
Y02285*
Y02246*
X02116Y02251*
X02123Y02267*
Y02275*
X02128Y02277*
X02159Y02309*
X02173*
Y02245*
X02173*
Y02221*
X021*
X02099Y02221*
X02099Y02221*
X02041*
Y02242*
X02051Y02248*
X02057Y02246*
Y02285*
Y02324*
X02051Y02322*
X02042Y0232*
X02008*
Y0225*
X02008*
Y02205*
X02013Y02193*
X02025Y02188*
X02243*
Y02161*
X02229Y02155*
X02217Y02125*
X02229Y02094*
X02253Y02085*
X02251Y02075*
X02168*
X02166Y02085*
X0219Y02094*
X022Y0212*
X0216*
X02119*
X02129Y02094*
X02153Y02085*
X02151Y02075*
X02068*
X02066Y02085*
X0209Y02094*
X021Y0212*
X0206*
X02019*
X02029Y02094*
X02053Y02085*
X02051Y02075*
X0195*
Y03445*
X0202*
X02027Y03438*
Y03435*
Y03385*
X02143*
Y03435*
Y03438*
X0215Y03445*
X02229*
X02236Y03438*
Y03435*
Y03385*
X02352*
Y03435*
Y03438*
X02359Y03445*
X04005*
X04012Y03438*
Y03435*
Y03385*
X04128*
Y03435*
Y03438*
X04135Y03445*
X04214*
X04221Y03438*
G37*
G36*
X02819Y02199D02*
X02779Y02159D01*
X0276Y02167*
X02729Y02155*
X02717Y02125*
X02729Y02094*
X02753Y02085*
X02751Y02075*
X02668*
X02666Y02085*
X0269Y02094*
X02702Y02125*
X02694Y02144*
X02759Y02209*
X02815*
X02819Y02199*
G37*
G36*
X02904Y02184D02*
X02879Y02159D01*
X0286Y02167*
X02829Y02155*
X02817Y02125*
X02829Y02094*
X02853Y02085*
X02851Y02075*
X02768*
X02766Y02085*
X0279Y02094*
X02802Y02125*
X02794Y02144*
X02844Y02194*
X029*
X02904Y02184*
G37*
%LNbackscatter_tag_pcb-2*%
%LPC*%
G36*
X0335Y02255D02*
X0333D01*
Y02235*
X03344Y0224*
X0335Y02255*
G37*
G36*
X0245Y02648D02*
Y0257D01*
X02482*
Y02612*
X02471Y02639*
X0245Y02648*
G37*
G36*
X02482Y0256D02*
X0245D01*
Y02481*
X02471Y0249*
X02482Y02517*
Y0256*
G37*
G36*
X02785Y02959D02*
X02771Y02953D01*
X02765Y02939*
X02785*
Y02959*
G37*
G36*
X02978Y03204D02*
X02951D01*
Y0318*
X02978*
Y03204*
G37*
G36*
Y0317D02*
X02951D01*
Y03145*
X02978*
Y0317*
G37*
G36*
X0293Y0331D02*
X0291D01*
Y0329*
X02924Y03295*
X0293Y0331*
G37*
G36*
X03005Y03078D02*
X02995D01*
X02998Y03072*
X03005Y03069*
Y03078*
G37*
G36*
X03024D02*
X03015D01*
Y03069*
X03021Y03072*
X03024Y03078*
G37*
G36*
X03005Y03114D02*
X02998Y03111D01*
X02995Y03105*
X03005*
Y03114*
G37*
G36*
X03015D02*
Y03105D01*
X03024*
X03021Y03111*
X03015Y03114*
G37*
G36*
X02835Y03101D02*
X02815D01*
Y03081*
X02829Y03087*
X02835Y03101*
G37*
G36*
X03024Y03095D02*
X0301D01*
X02995*
X02997Y03091*
X02995Y03088*
X0301*
X03024*
X03022Y03091*
X03024Y03095*
G37*
G36*
X02519Y03138D02*
X02495D01*
Y03111*
X02519*
Y03138*
G37*
G36*
X02699D02*
X02675D01*
Y03111*
X02699*
Y03138*
G37*
G36*
X0275D02*
X02725D01*
Y03111*
X0275*
Y03138*
G37*
G36*
X02575Y03136D02*
X0255D01*
Y0311*
X02575*
Y03136*
G37*
G36*
X02815Y03131D02*
Y03111D01*
X02835*
X02829Y03126*
X02815Y03131*
G37*
G36*
X0312Y02702D02*
X031Y02694D01*
X03092Y02675*
X031Y02655*
X0312Y02647*
X03139Y02655*
X03147Y02675*
X03139Y02694*
X0312Y02702*
G37*
G36*
X0401Y02667D02*
X03999D01*
Y02643*
X04005Y02646*
X0401Y02657*
Y02667*
G37*
G36*
X037Y02629D02*
X03673D01*
Y02605*
X037*
Y02629*
G37*
G36*
X03698Y0268D02*
X03671D01*
Y02655*
X03698*
Y0268*
G37*
G36*
X04334Y02628D02*
X0431D01*
Y02601*
X04334*
Y02628*
G37*
G36*
X037Y02595D02*
X03673D01*
Y0257*
X037*
Y02595*
G37*
G36*
X04215Y02626D02*
X0419D01*
Y026*
X04215*
Y02626*
G37*
G36*
X04249D02*
X04225D01*
Y026*
X04249*
Y02626*
G37*
G36*
X043Y02628D02*
X04275D01*
Y02601*
X043*
Y02628*
G37*
G36*
X02245Y02839D02*
X02222Y0283D01*
X02212Y02807*
Y02712*
X02222Y02689*
X02234Y02684*
Y02675*
X02237Y02667*
X02247Y02657*
X02255Y02654*
X02272*
X02275Y02645*
X02295Y02637*
X02314Y02645*
X02322Y02665*
X02314Y02684*
X02295Y02692*
X02275Y02684*
X02275Y02682*
X02266Y02681*
X02267Y02689*
X02277Y02712*
Y02807*
X02267Y0283*
X02245Y02839*
G37*
G36*
X03698Y02714D02*
X03671D01*
Y0269*
X03698*
Y02714*
G37*
G36*
X0266Y02856D02*
X02635D01*
Y0283*
X0266*
Y02856*
G37*
G36*
X0257D02*
X02545D01*
Y0283*
X0257*
Y02856*
G37*
G36*
X03698Y02794D02*
X03671D01*
Y0277*
X03698*
Y02794*
G37*
G36*
X0385Y02856D02*
X03825D01*
Y0283*
X0385*
Y02856*
G37*
G36*
X03884D02*
X0386D01*
Y0283*
X03884*
Y02856*
G37*
G36*
X02694D02*
X0267D01*
Y0283*
X02694*
Y02856*
G37*
G36*
X02604D02*
X0258D01*
Y0283*
X02604*
Y02856*
G37*
G36*
X04295Y02733D02*
X0427D01*
Y02706*
X04295*
Y02733*
G37*
G36*
X04249D02*
X04225D01*
Y02706*
X04249*
Y02733*
G37*
G36*
X04215D02*
X0419D01*
Y02706*
X04215*
Y02733*
G37*
G36*
X04329D02*
X04305D01*
Y02706*
X04329*
Y02733*
G37*
G36*
X03999Y02786D02*
Y02762D01*
X0401*
Y02772*
X04005Y02783*
X03999Y02786*
G37*
G36*
X0416Y02832D02*
X0414Y02824D01*
X04132Y02805*
X0414Y02785*
X0416Y02777*
X04179Y02785*
X04182Y02794*
X04195*
Y02779*
Y02778*
X04192Y02769*
X0419*
Y02743*
X0422*
X04249*
Y02769*
X04247*
X04244Y02778*
Y02779*
Y02794*
X04275*
Y02779*
Y02778*
X04272Y02769*
X0427*
Y02743*
X043*
X04329*
Y02769*
X04327*
X04324Y02778*
Y02779*
Y02831*
X04275*
Y02815*
X04244*
Y02831*
X04195*
Y02815*
X04182*
X04179Y02824*
X0416Y02832*
G37*
G36*
X03698Y0276D02*
X03671D01*
Y02735*
X03698*
Y0276*
G37*
G36*
X04338Y02329D02*
X04311D01*
Y02305*
X04338*
Y02329*
G37*
G36*
X02165Y02165D02*
Y0213D01*
X022*
X0219Y02155*
X02165Y02165*
G37*
G36*
X03905Y02315D02*
X0388D01*
Y02288*
X03905*
Y02315*
G37*
G36*
X03939D02*
X03915D01*
Y02288*
X03939*
Y02315*
G37*
G36*
X021Y02415D02*
X02087Y0241D01*
X02081Y02397*
Y02362*
X02087Y02349*
X021Y02344*
X02112Y02349*
X02118Y02362*
Y02397*
X02112Y0241*
X021Y02415*
G37*
G36*
X04336Y02375D02*
X0431D01*
Y0235*
X04336*
Y02375*
G37*
G36*
X02095Y02324D02*
X02083Y02319D01*
X02079*
X02067Y02324*
Y02285*
Y02246*
X02079Y02251*
X02083*
X02095Y02246*
Y02285*
Y02324*
G37*
G36*
X03765Y02437D02*
X03745Y02429D01*
X03737Y0241*
X03745Y0239*
X03765Y02382*
X03784Y0239*
X03787Y02397*
X03796Y02398*
X03805Y0239*
Y02361*
Y0236*
X03802Y02351*
X038*
Y02325*
X0383*
X03859*
Y02351*
X03857*
X03854Y0236*
Y02361*
Y02376*
X03885*
Y02361*
Y0236*
X03882Y02351*
X0388*
Y02325*
X0391*
X03939*
Y02351*
X03937*
X03934Y0236*
Y02361*
Y02413*
X03885*
Y02397*
X03854*
Y02413*
X03818*
X03814Y02417*
X03806Y0242*
X03787*
X03784Y02429*
X03765Y02437*
G37*
G36*
X04145Y02305D02*
X0412D01*
Y02278*
X04145*
Y02305*
G37*
G36*
X04179D02*
X04155D01*
Y02278*
X04179*
Y02305*
G37*
G36*
X04338Y02295D02*
X04311D01*
Y0227*
X04338*
Y02295*
G37*
G36*
X03825Y02315D02*
X038D01*
Y02288*
X03825*
Y02315*
G37*
G36*
X03859D02*
X03835D01*
Y02288*
X03859*
Y02315*
G37*
G36*
X04035Y02308D02*
X0401D01*
Y02281*
X04035*
Y02308*
G37*
G36*
X04069D02*
X04045D01*
Y02281*
X04069*
Y02308*
G37*
G36*
X03875Y0251D02*
X03864D01*
X03846Y02503*
X0384Y0249*
X03875*
Y0251*
G37*
G36*
X04199Y02164D02*
X0412D01*
Y02085*
X04199*
Y02164*
G37*
G36*
X02345Y02644D02*
X02322Y02635D01*
X02312Y02612*
Y02517*
X02322Y02494*
X02345Y02485*
X02367Y02494*
X02377Y02517*
Y02612*
X02367Y02635*
X02345Y02644*
G37*
G36*
X037Y0251D02*
X03673D01*
Y02485*
X037*
Y0251*
G37*
G36*
Y02544D02*
X03673D01*
Y0252*
X037*
Y02544*
G37*
G36*
X02604Y02545D02*
X0258D01*
Y02518*
X02604*
Y02545*
G37*
G36*
X0266D02*
X02635D01*
Y02518*
X0266*
Y02545*
G37*
G36*
X0246Y02416D02*
X02435D01*
Y0239*
X0246*
Y02416*
G37*
G36*
X02494D02*
X0247D01*
Y0239*
X02494*
Y02416*
G37*
G36*
X02065Y02165D02*
Y0213D01*
X021*
X0209Y02155*
X02065Y02165*
G37*
G36*
X04336Y02409D02*
X0431D01*
Y02385*
X04336*
Y02409*
G37*
G36*
X02055Y02165D02*
X02029Y02155D01*
X02019Y0213*
X02055*
Y02165*
G37*
G36*
X02155D02*
X02129Y02155D01*
X02119Y0213*
X02155*
Y02165*
G37*
G36*
X03875Y0248D02*
X0384D01*
X03846Y02466*
X03864Y02459*
X03875*
Y0248*
G37*
G36*
X02289Y03228D02*
X02236D01*
Y03175*
X02289*
Y03228*
G37*
G36*
X02352D02*
X02299D01*
Y03175*
X02352*
Y03228*
G37*
G36*
X02143D02*
X0209D01*
Y03175*
X02143*
Y03228*
G37*
G36*
X03966Y0319D02*
X0393D01*
Y03153*
X03955Y03164*
X03966Y0319*
G37*
G36*
X0208Y03228D02*
X02027D01*
Y03175*
X0208*
Y03228*
G37*
G36*
X04337D02*
X04284D01*
Y03175*
X04337*
Y03228*
G37*
G36*
X04274D02*
X04221D01*
Y03175*
X04274*
Y03228*
G37*
G36*
X04065D02*
X04012D01*
Y03175*
X04065*
Y03228*
G37*
G36*
X04128D02*
X04075D01*
Y03175*
X04128*
Y03228*
G37*
G36*
X03504Y03146D02*
X0348D01*
Y0312*
X03504*
Y03146*
G37*
G36*
X03589D02*
X03565D01*
Y0312*
X03589*
Y03146*
G37*
G36*
X03419D02*
X03395D01*
Y0312*
X03419*
Y03146*
G37*
G36*
X03555D02*
X0353D01*
Y0312*
X03555*
Y03146*
G37*
G36*
X0364D02*
X03615D01*
Y0312*
X0364*
Y03146*
G37*
G36*
X0392Y0319D02*
X03883D01*
X03894Y03164*
X0392Y03153*
Y0319*
G37*
G36*
X03839D02*
X0381D01*
X0378*
Y03163*
X03782*
X03785Y03154*
Y03153*
Y03138*
X03749*
Y03153*
Y03154*
X03752Y03163*
X03754*
Y0319*
X03725*
X03695*
Y03163*
X03697*
X037Y03154*
Y03153*
Y03101*
X03714*
Y03077*
X03705Y03074*
X03697Y03055*
X03705Y03035*
X03725Y03027*
X03735Y03032*
X03745Y03025*
Y03015*
X03794*
Y03034*
X03825*
Y03016*
Y03015*
X03822Y03006*
X0382*
Y0298*
X0385*
X03879*
Y03006*
X03877*
X03874Y03015*
Y03016*
Y03034*
X03891*
X03899Y03014*
X0393Y03001*
X0396Y03014*
X03968Y03034*
X03991*
Y0302*
X04007*
Y02959*
X03994*
X03993*
X03984Y02962*
Y02964*
X03958*
Y02935*
Y02905*
X03984*
Y02907*
X03993Y0291*
X03994*
X04007*
Y02879*
X03993*
Y0283*
X04046*
Y02879*
X04028*
Y0291*
X04046*
Y02959*
X04028*
Y0302*
X04044*
Y03069*
X03991*
Y03055*
X03968*
X0396Y03075*
X0393Y03088*
X03899Y03075*
X03891Y03055*
X03874*
Y03068*
X03825*
Y03055*
X03794*
Y03068*
X03746*
X03744Y03074*
X03735Y03077*
Y03101*
X03749*
Y03117*
X03785*
Y03101*
X03834*
Y03153*
Y03154*
X03837Y03163*
X03839*
Y0319*
G37*
G36*
X03674Y03146D02*
X0365D01*
Y0312*
X03674*
Y03146*
G37*
G36*
X03256Y03159D02*
X0323D01*
Y03135*
X03256*
Y03159*
G37*
G36*
Y03205D02*
X0323D01*
Y0318*
X03256*
Y03205*
G37*
G36*
X02143Y03375D02*
X0209D01*
Y03321*
X02143*
Y03375*
G37*
G36*
X02289D02*
X02236D01*
Y03321*
X02289*
Y03375*
G37*
G36*
X0208D02*
X02027D01*
Y03321*
X0208*
Y03375*
G37*
G36*
X0244Y03398D02*
X02409Y03385D01*
X02396Y03355*
X02409Y03324*
X0244Y03311*
X0247Y03324*
X02483Y03355*
X0247Y03385*
X0244Y03398*
G37*
G36*
X04274Y03375D02*
X04221D01*
Y03321*
X04274*
Y03375*
G37*
G36*
X04337D02*
X04284D01*
Y03321*
X04337*
Y03375*
G37*
G36*
X04128D02*
X04075D01*
Y03321*
X04128*
Y03375*
G37*
G36*
X02352D02*
X02299D01*
Y03321*
X02352*
Y03375*
G37*
G36*
X04065D02*
X04012D01*
Y03321*
X04065*
Y03375*
G37*
G36*
X0393Y03236D02*
Y032D01*
X03966*
X03955Y03225*
X0393Y03236*
G37*
G36*
X03754Y03226D02*
X0373D01*
Y032*
X03754*
Y03226*
G37*
G36*
X0392Y03236D02*
X03894Y03225D01*
X03883Y032*
X0392*
Y03236*
G37*
G36*
X0372Y03226D02*
X03695D01*
Y032*
X0372*
Y03226*
G37*
G36*
X03805D02*
X0378D01*
Y032*
X03805*
Y03226*
G37*
G36*
X03388Y03294D02*
X03361D01*
Y0327*
X03388*
Y03294*
G37*
G36*
X03658D02*
X03631D01*
Y0327*
X03658*
Y03294*
G37*
G36*
Y0326D02*
X03631D01*
Y03235*
X03658*
Y0326*
G37*
G36*
X03839Y03226D02*
X03815D01*
Y032*
X03839*
Y03226*
G37*
G36*
X03388Y0326D02*
X03361D01*
Y03235*
X03388*
Y0326*
G37*
G36*
X02066Y03025D02*
X02032D01*
X01998*
Y03013*
Y03009*
X02032*
X02066*
Y03013*
Y03025*
G37*
G36*
Y0305D02*
X02032D01*
X01998*
Y03038*
Y03035*
X02032*
X02066*
Y03038*
Y0305*
G37*
G36*
Y02999D02*
X02032D01*
X01998*
Y02987*
Y02983*
X02032*
Y02978*
Y02983*
X02066*
Y02987*
Y02999*
G37*
G36*
X02027Y02973D02*
X01998D01*
Y02961*
X02027*
Y02973*
G37*
G36*
X02066D02*
X02037D01*
Y02961*
X02066*
Y02973*
G37*
G36*
X02395Y03091D02*
X0237D01*
Y03065*
X02395*
Y03091*
G37*
G36*
X02066Y03072D02*
X02037D01*
Y0306*
X02066*
Y03072*
G37*
G36*
X04175Y03324D02*
X0414Y0331D01*
X04125Y03275*
X0414Y0324*
X04164Y0323*
Y03071*
X0415*
Y03055*
X04111*
Y03069*
X04058*
Y0302*
X04111*
Y03034*
X0415*
Y03019*
Y03018*
X04147Y03009*
X04145*
Y02983*
X04175*
X04204*
Y03009*
X04202*
X04199Y03018*
Y03019*
Y03071*
X04185*
Y0323*
X04209Y0324*
X04224Y03275*
X04209Y0331*
X04175Y03324*
G37*
G36*
X02027Y03072D02*
X01998D01*
Y0306*
X02027*
Y03072*
G37*
G36*
X03329Y02979D02*
Y02939D01*
X03341*
Y02964*
X03336Y02976*
X03329Y02979*
G37*
G36*
X03948Y0293D02*
X03921D01*
Y02905*
X03948*
Y0293*
G37*
G36*
X03794Y03001D02*
X03745D01*
Y02948*
X03759*
Y02903*
X03742*
Y02883*
X03737*
Y02869*
X0377*
X03802*
Y02883*
X03797*
Y02903*
X0378*
Y02948*
X03794*
Y03001*
G37*
G36*
X03341Y02929D02*
X03329D01*
Y02889*
X03336Y02892*
X03341Y02904*
Y02929*
G37*
G36*
X0417Y02973D02*
X04145D01*
Y02946*
X0417*
Y02973*
G37*
G36*
X04204D02*
X0418D01*
Y02946*
X04204*
Y02973*
G37*
G36*
X03879Y0297D02*
X03855D01*
Y02943*
X03879*
Y0297*
G37*
G36*
X03948Y02964D02*
X03921D01*
Y0294*
X03948*
Y02964*
G37*
G36*
X03845Y0297D02*
X0382D01*
Y02943*
X03845*
Y0297*
G37*
G36*
X02352Y03165D02*
X02299D01*
Y03112*
X02352*
Y03165*
G37*
G36*
X04065D02*
X04012D01*
Y03112*
X04065*
Y03165*
G37*
G36*
X02289D02*
X02236D01*
Y03112*
X02289*
Y03165*
G37*
G36*
X0208D02*
X02027D01*
Y03112*
X0208*
Y03165*
G37*
G36*
X02143D02*
X0209D01*
Y03112*
X02143*
Y03165*
G37*
G36*
X03385Y03146D02*
X0336D01*
Y0312*
X03385*
Y03146*
G37*
G36*
X0347D02*
X03445D01*
Y0312*
X0347*
Y03146*
G37*
G36*
X04337Y03165D02*
X04284D01*
Y03112*
X04337*
Y03165*
G37*
G36*
X04128D02*
X04075D01*
Y03112*
X04128*
Y03165*
G37*
G36*
X04274D02*
X04221D01*
Y03112*
X04274*
Y03165*
G37*
G36*
X03256Y03125D02*
X0323D01*
Y031*
X03256*
Y03125*
G37*
%LNbackscatter_tag_pcb-3*%
%LPD*%
G54D10*
X0381Y03195D03*
Y03128D03*
X02665Y02825D03*
Y02758D03*
X02575Y0255D03*
Y02616D03*
X02755Y03106D03*
Y0304D03*
X0422Y02595D03*
Y02528D03*
X04305Y02596D03*
Y0253D03*
X0267Y03106D03*
Y0304D03*
X0339Y03115D03*
Y03048D03*
X02305Y02928D03*
Y02995D03*
X0356Y03115D03*
Y03048D03*
X02575Y02825D03*
Y02758D03*
X043Y02738D03*
Y02805D03*
X03645Y03115D03*
Y03048D03*
X0258Y03105D03*
Y03038D03*
X02665Y0255D03*
Y02616D03*
X03475Y03115D03*
Y03048D03*
X0249Y03106D03*
Y0304D03*
X03725Y03195D03*
Y03128D03*
X02755Y03315D03*
Y03248D03*
X0267Y03315D03*
Y03248D03*
X0422Y02738D03*
Y02805D03*
X0383Y0232D03*
Y02386D03*
X0391Y0232D03*
Y02386D03*
X0404Y02313D03*
Y0238D03*
X024Y0306D03*
Y02993D03*
X02465Y02318D03*
Y02385D03*
X0415Y0231D03*
Y02376D03*
X02385Y02318D03*
Y02385D03*
X02665Y02333D03*
Y024D03*
X02575Y02333D03*
Y024D03*
X03855Y02825D03*
Y02758D03*
X04175Y02978D03*
Y03045D03*
X0385Y02975D03*
Y03041D03*
X0377Y02975D03*
Y03041D03*
G54D11*
X04305Y0238D03*
X04238D03*
X03225Y0313D03*
X03158D03*
X03225Y0321D03*
X03158D03*
X03626Y03265D03*
X0356D03*
X03393D03*
X0346D03*
X04306Y023D03*
X0424D03*
X03291Y03305D03*
X03225D03*
Y03395D03*
X03291D03*
X02983Y03175D03*
X0305D03*
X04018Y03045D03*
X04085D03*
X03703Y02765D03*
X0377D03*
X03703Y02685D03*
X0377D03*
X03953Y02935D03*
X0402D03*
X03953Y02855D03*
X0402D03*
X03705Y026D03*
X03771D03*
X03705Y02515D03*
X03771D03*
G54D12*
X02445Y02759D03*
G54D13*
X02345Y02759D03*
X02245D03*
X02145D03*
X02045D03*
X02445Y02565D03*
X02345D03*
X02245D03*
X02145D03*
X02045D03*
G54D14*
X0388Y02559D03*
Y02485D03*
X03974Y02559D03*
Y02522D03*
X035Y02837D03*
Y02762D03*
X03595Y02837D03*
Y028D03*
G54D15*
X03974Y02485D03*
X03595Y02762D03*
G54D16*
X03324Y02934D03*
X03304D03*
X03285D03*
X03265D03*
X03245D03*
X03226D03*
X03206D03*
X03186D03*
X03167D03*
X03147D03*
X03127D03*
X03108D03*
X03088D03*
X03068D03*
X03049D03*
X03029D03*
X03009D03*
X0299D03*
X0297D03*
X0295D03*
X0293D03*
X02911D03*
X02891D03*
X02871D03*
X02852D03*
Y0234D03*
X02871D03*
X02891D03*
X02911D03*
X0293D03*
X0295D03*
X0297D03*
X0299D03*
X03009D03*
X03029D03*
X03049D03*
X03068D03*
X03088D03*
X03108D03*
X03127D03*
X03147D03*
X03167D03*
X03186D03*
X03206D03*
X03226D03*
X03245D03*
X03265D03*
X03285D03*
X03304D03*
X03324D03*
G54D17*
X02791Y02873D03*
Y02853D03*
Y02834D03*
Y02814D03*
Y02794D03*
Y02775D03*
Y02755D03*
Y02735D03*
Y02715D03*
Y02696D03*
Y02676D03*
Y02656D03*
Y02637D03*
Y02617D03*
Y02597D03*
Y02578D03*
Y02558D03*
Y02538D03*
Y02519D03*
Y02499D03*
Y02479D03*
Y0246D03*
Y0244D03*
Y0242D03*
Y02401D03*
X03385D03*
Y0242D03*
Y0244D03*
Y0246D03*
Y02479D03*
Y02499D03*
Y02519D03*
Y02538D03*
Y02558D03*
Y02578D03*
Y02597D03*
Y02617D03*
Y02637D03*
Y02656D03*
Y02676D03*
Y02696D03*
Y02715D03*
Y02735D03*
Y02755D03*
Y02775D03*
Y02794D03*
Y02814D03*
Y02834D03*
Y02853D03*
Y02873D03*
G54D18*
X02032Y03055D03*
Y0303D03*
Y03004D03*
Y02978D03*
X0219Y03055D03*
Y0303D03*
Y03004D03*
Y02978D03*
G54D19*
X0219Y03275D03*
X04175D03*
G54D20*
X02294Y0317D03*
Y0338D03*
X02085Y0317D03*
Y0338D03*
X04279Y0317D03*
Y0338D03*
X0407Y0317D03*
Y0338D03*
G54D21*
X02025Y02285D03*
X0219Y0228D03*
G54D22*
X02062Y02285D03*
X021D03*
X02025Y0238D03*
X021D03*
X02227Y0228D03*
X02264D03*
X0219Y02375D03*
X02264D03*
G54D23*
X03685Y0289D03*
Y02864D03*
Y02838D03*
X0377D03*
Y02864D03*
Y0289D03*
G54D24*
X0301Y03083D03*
X03049D03*
X0301Y031D03*
X03049D03*
G54D25*
X03965Y02715D03*
G54D26*
X03935Y02672D03*
G54D27*
X03954Y02672D03*
X03974D03*
X03994D03*
X03935Y02757D03*
X03954D03*
X03974D03*
X03994D03*
G54D28*
X02665Y02333D02*
X0271D01*
X02575D02*
X02665D01*
X02728Y02315D02*
X0273D01*
X0271Y02333D02*
X02728Y02315D01*
X0267Y03315D02*
X02755D01*
X02905*
X0363Y0223D02*
Y0231D01*
X03545Y02395D02*
X0363Y0231D01*
X03765Y0241D02*
X03806D01*
X0383Y02386*
X03049Y02934D02*
X03049Y02934D01*
X03091Y033D02*
X03145D01*
X03157Y03287*
X03385Y03043D02*
X0339Y03048D01*
X03475*
X0356D02*
X03645D01*
X03725Y03055D02*
Y03128D01*
X0381*
X0346Y03265D02*
X0356D01*
X03068Y02934D02*
Y02988D01*
X031Y0302*
X03285*
X03009Y02934D02*
Y02985D01*
X0299Y03005D02*
X03009Y02985D01*
X0279Y03005D02*
X0299D01*
X02755Y0304D02*
X0279Y03005D01*
X0267Y0304D02*
X02755D01*
X0299Y02934D02*
Y0298D01*
X0298Y0299D02*
X0299Y0298D01*
X02628Y0299D02*
X0298D01*
X0258Y03038D02*
X02628Y0299D01*
X02491Y03038D02*
X0258D01*
X0249Y0304D02*
X02491Y03038D01*
X02871Y02854D02*
Y02934D01*
Y02854D02*
X02872Y02852D01*
X02811Y03248D02*
X02815Y03245D01*
X0267Y03248D02*
X02755D01*
X02811*
X02575Y02616D02*
X02575Y02617D01*
X02665Y027D02*
X02708Y02656D01*
X02665Y027D02*
Y02758D01*
X02575D02*
X02665D01*
X02575Y024D02*
X02576Y02401D01*
X02871Y0234D02*
Y02418D01*
X0287Y0242D02*
X02871Y02418D01*
X0295Y0234D02*
Y02419D01*
X0295Y0242D02*
X0295Y02419D01*
X03186Y0234D02*
Y02416D01*
X0383Y02386D02*
X0391D01*
X04Y02425D02*
X0402D01*
X0404Y02405*
Y0238D02*
Y02405D01*
X03304Y0234D02*
Y02414D01*
X0246Y02125D02*
X02585Y0225D01*
X03127Y02282D02*
Y0234D01*
X0256Y02125D02*
X0267Y02235D01*
X03206Y02266D02*
Y0234D01*
X0266Y02125D02*
X02755Y0222D01*
X03226Y02261D02*
Y0234D01*
X0276Y02125D02*
X0284Y02205D01*
X03245Y02259D02*
Y0234D01*
X0286Y02125D02*
X02925Y0219D01*
X03197D02*
X03265Y02258D01*
Y0234*
X0296Y02125D02*
X0301Y02175D01*
X02585Y0225D02*
X03095D01*
X03127Y02282*
X03205Y02175D02*
X03285Y02255D01*
Y0234*
X03191Y02205D02*
X03245Y02259D01*
X03185Y0222D02*
X03226Y02261D01*
X03175Y02235D02*
X03206Y02266D01*
X0267Y02235D02*
X03175D01*
X02755Y0222D02*
X03185D01*
X0284Y02205D02*
X03191D01*
X02925Y0219D02*
X03197D01*
X0301Y02175D02*
X03205D01*
X03465Y0223D02*
Y0244D01*
X03385Y0246D02*
X03444D01*
X0346Y02125D02*
Y02203D01*
X0348Y02223*
X03444Y0246D02*
X03465Y0244D01*
X0326Y02125D02*
X0345Y02315D01*
Y02425*
X03434Y0244D02*
X0345Y02425D01*
X03385Y0244D02*
X03434D01*
X0336Y02125D02*
X03465Y0223D01*
X0348Y02223D02*
Y02455D01*
X03455Y02479D02*
X0348Y02455D01*
X03385Y02479D02*
X03455D01*
X0356Y02125D02*
Y0217D01*
X03495Y02235D02*
X0356Y0217D01*
X03495Y02235D02*
Y02461D01*
X03456Y02499D02*
X03495Y02461D01*
X03385Y02499D02*
X03456D01*
X03385Y02519D02*
X03458D01*
X0351Y02467*
Y0225D02*
Y02467D01*
X03385Y02538D02*
X03478D01*
X0348Y0254*
X03385Y02558D02*
X03458D01*
X0348Y0258*
X03438Y02578D02*
X0348Y0262D01*
X03147Y02934D02*
Y02994D01*
X03147Y02995D02*
X03147Y02994D01*
X0316Y03395D02*
X03225D01*
Y03305D02*
Y03395D01*
X02305Y02995D02*
X02398D01*
X024Y02993*
X03147Y0234D02*
Y02527D01*
X03115Y0256D02*
X03147Y02527D01*
X0219Y03055D02*
Y03275D01*
X03245Y02834D02*
X03385D01*
X03245Y02835D02*
X03245Y02834D01*
X0219Y03004D02*
X0224D01*
X0422Y02805D02*
X043D01*
X0416D02*
X0422D01*
X0351Y0225D02*
X03565Y02195D01*
X04238Y02301D02*
Y0238D01*
Y02301D02*
X0424Y023D01*
X0219Y02375D02*
Y02425D01*
X02205Y0244*
X0272Y0242D02*
X02791D01*
X0272Y0242D02*
X0272Y0242D01*
X02575Y024D02*
X02665D01*
X02255Y02665D02*
X02295D01*
X02245Y02675D02*
X02255Y02665D01*
X02245Y02675D02*
Y02759D01*
X02739Y0244D02*
X02791D01*
X0272Y0246D02*
X02739Y0244D01*
X02675Y0246D02*
X0272D01*
X02749Y0246D02*
X02791D01*
X02715Y02495D02*
X02749Y0246D01*
X0255Y02495D02*
X02715D01*
X02515Y0253D02*
X0255Y02495D01*
X02515Y0253D02*
Y0273D01*
X02485Y02759D02*
X02515Y0273D01*
X02445Y02759D02*
X02485D01*
X02911Y02296D02*
Y0234D01*
X02905Y0229D02*
X02911Y02296D01*
X0255Y0229D02*
X02905D01*
X02345Y02759D02*
X0238D01*
X024Y0274*
Y0248D02*
Y0274D01*
Y0248D02*
X02435Y02445D01*
X025*
X0252Y02425*
Y0232D02*
Y02425D01*
Y0232D02*
X0255Y0229D01*
X0293Y0229D02*
Y0234D01*
X0291Y0227D02*
X0293Y0229D01*
X02505Y0227D02*
X0291D01*
X0249Y02255D02*
X02505Y0227D01*
X0215Y02665D02*
X0219D01*
X02145Y0266D02*
X0215Y02665D01*
X02145Y02565D02*
Y0266D01*
X024Y02993D02*
X0249D01*
X02591*
X02791Y02356D02*
Y02401D01*
X02775Y0234D02*
X02791Y02356D01*
X02725Y0234D02*
X02775D01*
X02665Y024D02*
X02725Y0234D01*
X02205Y0244D02*
X0237D01*
X02385Y02425*
Y02385D02*
Y02425D01*
Y02318D02*
X02465D01*
X0219Y02375D02*
X0223Y02335D01*
X02325Y0235D02*
Y02375D01*
X0231Y02335D02*
X02325Y0235D01*
X02625Y03085D02*
X0267Y0304D01*
X02625Y03085D02*
Y0316D01*
X02806Y02356D02*
X0287Y0242D01*
X02791Y02356D02*
X02806D01*
X0287Y0242D02*
X0295D01*
X03036Y03355D02*
X03091Y033D01*
X02555Y03355D02*
X03036D01*
X03291Y03395D02*
X0334Y03346D01*
X03157Y03255D02*
Y03287D01*
X034Y03205D02*
X0346Y03265D01*
X03345Y03205D02*
X034D01*
X03322Y03182D02*
X03345Y03205D01*
X03322Y0316D02*
Y03182D01*
Y03057D02*
Y0316D01*
X03285Y0302D02*
X03322Y03057D01*
X0356Y02985D02*
Y03048D01*
X03385Y02873D02*
Y02915D01*
Y03043*
X0356Y02915D02*
Y02985D01*
X03192Y02527D02*
X03305Y02415D01*
X03147Y02527D02*
X03192D01*
X03385Y02345D02*
Y02401D01*
X03385Y02345D02*
X03385Y02345D01*
X03339Y0242D02*
X03385D01*
X0316Y02565D02*
X03195D01*
X03339Y0242*
X0415Y02376D02*
X04235D01*
X04238Y0238*
X03267Y02617D02*
X03385D01*
X03265Y0262D02*
X03267Y02617D01*
X0334Y0328D02*
Y03346D01*
X0279Y02934D02*
X02852D01*
X02591Y02993D02*
X0268Y02905D01*
X02815*
X02845Y02875*
X03157Y03255D02*
X03315D01*
X0334Y0328*
X03291Y03305D02*
Y03346D01*
X0281Y02325D02*
X02837D01*
X02852Y0234*
X02755Y02479D02*
X02791D01*
X02685Y0255D02*
X02755Y02479D01*
X02665Y0255D02*
X02685D01*
X03167Y02277D02*
Y0234D01*
Y02277D02*
X0317Y02275D01*
X02249Y02335D02*
X02249Y02335D01*
X0228*
X0228Y02335*
X0231*
X0223D02*
X02249D01*
X02845Y0275D02*
Y02875D01*
Y0275D02*
X03035Y0256D01*
X03115*
X02791Y02637D02*
X02902D01*
X03324Y0226D02*
Y0234D01*
Y0226D02*
X03325Y0226D01*
X02227Y0228D02*
Y02291D01*
X02062Y02285D02*
X021D01*
X0212*
X02155Y0232*
X02223*
X02223Y0232*
X02227Y0228D02*
X02264D01*
X023*
X02325Y02305*
X02223Y0232D02*
X0231D01*
X02325Y02305*
X04175Y03045D02*
Y03275D01*
X04085Y03045D02*
X04175D01*
X0393D02*
X04018D01*
X0377Y03041D02*
X03773Y03045D01*
X0377Y0289D02*
Y02975D01*
Y02685D02*
Y02765D01*
Y02838*
X03049Y03035D02*
Y03083D01*
Y03035D02*
X03049Y03035D01*
Y02934D02*
Y03035D01*
X03049Y031D02*
Y03174D01*
X0305Y03175*
X03123*
X03157Y03209*
X03158Y0321*
X03157Y0313D02*
Y03209D01*
X04018Y02856D02*
X0402Y02855D01*
X03773Y03045D02*
X0393D01*
X04018Y02856D02*
Y03045D01*
X03954Y02757D02*
Y02853D01*
X03953Y02855D02*
X03954Y02853D01*
X03855Y02757D02*
X03935D01*
X03855Y02758D02*
X03855Y02757D01*
X03595Y02837D02*
X03683D01*
X03685Y02838*
X03385Y02794D02*
X03444D01*
X0346Y0281*
Y02915*
X03385D02*
X0346D01*
X03555Y028D02*
X03595D01*
X03545Y0281D02*
X03555Y028D01*
X03545Y0281D02*
Y02915D01*
X0346D02*
X03545D01*
X0356*
X03844Y02672D02*
X03935D01*
X03771Y026D02*
X03844Y02672D01*
X03771Y02515D02*
Y026D01*
X04054Y02559D02*
X04145Y0265D01*
X035Y02819D02*
Y02837D01*
Y02819D02*
X03545Y02775D01*
X0379Y0246D02*
X03815Y02485D01*
X0357Y0246D02*
X0379D01*
X03545Y02435D02*
X0357Y0246D01*
X03545Y02395D02*
Y02435D01*
Y02775*
X03735Y02195D02*
X0376Y0217D01*
Y02125D02*
Y0217D01*
X03565Y02195D02*
X03735D01*
X03385Y02578D02*
X03438D01*
X03385Y02597D02*
X03432D01*
X03443Y02623D02*
X0348Y0266D01*
X03443Y02608D02*
Y02623D01*
X03432Y02597D02*
X03443Y02608D01*
X03385Y02656D02*
X03436D01*
X0348Y027*
X03974Y02559D02*
X03974Y02559D01*
X03974Y02559D02*
Y02672D01*
X03974Y02559D02*
X04054D01*
X03974Y02522D02*
X04032D01*
X0406Y02495*
X04186*
X0422Y02528*
X03815Y02535D02*
X0384Y0256D01*
X0384Y02559*
X0388*
X03815Y02485D02*
Y02535D01*
X03974Y02454D02*
Y02485D01*
X0397Y0245D02*
X03974Y02454D01*
X03925Y0245D02*
X0397D01*
X03108Y0234D02*
Y02418D01*
X0312Y0243*
X03954Y02614D02*
Y02672D01*
X0393Y0259D02*
X03954Y02614D01*
X02708Y02656D02*
X02791D01*
X0363Y0289D02*
X03685D01*
X03595Y02695D02*
Y02762D01*
X03088Y02443D02*
X0312Y02475D01*
X03088Y0234D02*
Y02443D01*
X03068Y0234D02*
Y02508D01*
X0307Y0251*
X03049Y0234D02*
Y02425D01*
X0303Y02445D02*
X03049Y02425D01*
X0303Y02445D02*
Y0251D01*
X0377Y02601D02*
Y02685D01*
Y02601D02*
X03771Y026D01*
X03815Y0273D02*
Y0277D01*
X0377Y02685D02*
X03815Y0273D01*
X03595Y02837D02*
Y02938D01*
X03605Y02948*
X035Y02739D02*
Y02762D01*
Y02739D02*
X0352Y0272D01*
Y0269D02*
Y0272D01*
X02755Y03106D02*
X02813D01*
X02575Y02617D02*
X02791D01*
X0404Y0238D02*
X0415D01*
X0413Y0253D02*
X04305D01*
X03155Y03127D02*
X03157Y0313D01*
Y03209D02*
Y03255D01*
G54D29*
X0226Y02125D02*
Y02205D01*
X0236*
Y02125D02*
Y02205D01*
X02025D02*
Y0228D01*
X02099Y02205D02*
X021Y02205D01*
X0219*
X0226*
X02264Y02209*
X02025Y02205D02*
X021D01*
X0199Y02865D02*
X0204Y02915D01*
X0217D02*
X0219Y02935D01*
Y02978*
X02025Y02455D02*
X02165D01*
X02245Y02535*
Y02565*
X02145Y02759D02*
Y02915D01*
X0204D02*
X02145D01*
X0217*
X02045Y02675D02*
X02055Y02665D01*
X02095*
X02045Y02675D02*
Y02759D01*
X0219Y02935D02*
X02245D01*
Y029D02*
Y02935D01*
Y029D02*
X02265Y0288D01*
X02465*
X0249Y02905*
Y02993*
Y0304*
X02445Y03085D02*
X0249Y0304D01*
X02445Y03085D02*
Y03245D01*
X02555Y03355*
Y0329D02*
Y03355D01*
Y0329D02*
X02596Y03248D01*
X0267*
X0219Y02205D02*
Y0228D01*
X0199Y0249D02*
Y02865D01*
Y0249D02*
X02025Y02455D01*
Y02375D02*
Y02455D01*
G54D30*
X0273Y02315D03*
X02905Y03315D03*
X0363Y0223D03*
X03725Y03055D03*
X0348Y027D03*
X02815Y03245D03*
X02872Y02852D03*
X0413Y0253D03*
X0287Y0242D03*
X0295D03*
X03765Y0241D03*
X03186Y02416D03*
X04Y02425D03*
X03305Y02415D03*
X0348Y0254D03*
Y0258D03*
Y0262D03*
X03147Y02995D03*
X0316Y03395D03*
X03245Y02835D03*
X0224Y03004D03*
X0416Y02805D03*
X02095Y02665D03*
X0219D03*
X02295D03*
X02675Y0246D03*
X0272Y0242D03*
X0249Y02255D03*
X02325Y02375D03*
X02625Y0316D03*
X02717Y02657D03*
X02722Y02617D03*
X03322Y0316D03*
X0356Y02985D03*
X0316Y02565D03*
X03385Y02345D03*
X03265Y0262D03*
X0279Y02934D03*
X03291Y03346D03*
X0281Y02325D03*
X0317Y02275D03*
X02325Y02305D03*
X02902Y02637D03*
X03325Y0226D03*
X0348Y0266D03*
X0312Y02475D03*
X0303Y0251D03*
X0307D03*
X0312Y0243D03*
X0393Y0259D03*
X03925Y0245D03*
X0363Y0289D03*
X03595Y02695D03*
X0312Y02675D03*
X03815Y0277D03*
X0352Y0269D03*
X0281Y03106D03*
G54D31*
X04145Y0265D03*
X0244Y03355D03*
X02555D03*
X0393Y03045D03*
X03925Y03195D03*
X03605Y02948D03*
G54D32*
X0416Y02125D03*
G54D33*
X0406Y02125D03*
X0396D03*
X0386D03*
X0376D03*
X0366D03*
X0356D03*
X0346D03*
X0336D03*
X0326D03*
X0316D03*
X0306D03*
X0296D03*
X0286D03*
X0276D03*
X0266D03*
X0256D03*
X0246D03*
X0236D03*
X0226D03*
X0216D03*
X0206D03*
G54D34*
X04305Y0329D03*
X0427Y0308D03*
X04305Y0301D03*
X0427Y0294D03*
X04305Y0287D03*
X0427Y0266D03*
X04305Y0245D03*
X0427Y0224D03*
X04305Y0217D03*
X0427Y021D03*
X042Y0336D03*
X04235Y0301D03*
Y0287D03*
Y0245D03*
X042Y0224D03*
X04235Y0217D03*
X0413Y0308D03*
X04165Y0287D03*
Y0273D03*
X04095Y0329D03*
Y0287D03*
Y0245D03*
Y0231D03*
X0399Y0336D03*
X04025Y0329D03*
X0399Y0322D03*
X0392Y0336D03*
X03955Y0329D03*
X0392Y0224D03*
X0385Y0336D03*
X03885Y0329D03*
X0378Y0336D03*
X03815Y0329D03*
X0378Y0224D03*
X03815Y0217D03*
X0371Y0336D03*
X03745Y0329D03*
Y0231D03*
X0371Y0224D03*
X0364Y0336D03*
X03675Y0231D03*
X0357Y0336D03*
Y0224D03*
X035Y0336D03*
Y0322D03*
X0343Y0336D03*
Y0224D03*
X0329Y0322D03*
X03325Y0301D03*
X0329Y0266D03*
X0322D03*
X03115Y0273D03*
X03045Y0329D03*
Y0287D03*
X0301Y0266D03*
X02975Y0329D03*
Y0287D03*
X0287Y0322D03*
Y0308D03*
X02905Y0259D03*
X0273Y0294D03*
Y028D03*
X0259Y0294D03*
X0252Y028D03*
X0245Y0294D03*
X0238Y0322D03*
Y0294D03*
X02415Y0217D03*
X02275Y0329D03*
X0224Y0308D03*
X0217Y0336D03*
X02205Y0287D03*
X021Y0308D03*
X02135Y0301D03*
X02065Y0329D03*
Y0287D03*
X01995Y0329D03*
Y0315D03*
Y0217D03*
M02*