G04 Layer_Physical_Order=1*
G04 Layer_Color=255*
%FSLAX43Y43*%
%MOMM*%
G71*
G01*
G75*
%ADD10R,1.000X1.100*%
%ADD11R,1.100X1.000*%
%ADD12R,1.270X3.680*%
%ADD13O,1.270X3.680*%
%ADD14O,1.500X0.700*%
%ADD15R,1.500X0.700*%
%ADD16O,0.300X1.800*%
%ADD17O,1.800X0.300*%
%ADD18R,1.200X0.350*%
%ADD19C,2.050*%
%ADD20R,2.440X2.440*%
%ADD21R,0.600X1.500*%
%ADD22O,0.600X1.500*%
%ADD23R,1.150X0.450*%
%ADD24C,0.250*%
%ADD25R,2.200X0.610*%
%ADD26R,0.250X1.000*%
%ADD27O,0.250X1.000*%
%ADD28C,0.254*%
%ADD29C,0.508*%
%ADD30C,0.762*%
%ADD31C,1.524*%
%ADD32R,1.500X1.500*%
%ADD33C,1.500*%
%ADD34C,0.508*%
G36*
X83347Y61552D02*
X83260Y61341D01*
X83461Y60855D01*
X83486Y60845D01*
X83528Y60552D01*
X83446Y60486D01*
X83404Y60468D01*
X83196Y60409D01*
X82988Y60468D01*
X82946Y60486D01*
X82904Y60468D01*
X82696Y60409D01*
X82488Y60468D01*
X82446Y60486D01*
X82404Y60468D01*
X82196Y60409D01*
X81988Y60468D01*
X81946Y60486D01*
X81904Y60468D01*
X81696Y60409D01*
X81488Y60468D01*
X81446Y60486D01*
X81326Y60583D01*
X81359Y60872D01*
X81432Y60902D01*
X81633Y61388D01*
X81432Y61874D01*
X80946Y62075D01*
X80460Y61874D01*
X80221Y61961D01*
Y63924D01*
X80975D01*
X83347Y61552D01*
D02*
G37*
G36*
X87355Y61311D02*
Y58915D01*
X83298Y54857D01*
X82804Y55062D01*
X82036Y54743D01*
X81717Y53975D01*
X82036Y53207D01*
X82633Y52959D01*
X82583Y52705D01*
X80485D01*
X80435Y52959D01*
X81032Y53207D01*
X81351Y53975D01*
X81044Y54716D01*
X81138Y54970D01*
X81407D01*
X81407Y54970D01*
X81601Y55051D01*
X83640Y57090D01*
X83907Y57069D01*
X83969Y56918D01*
X84328Y56769D01*
Y57404D01*
X84455D01*
Y57531D01*
X85090D01*
X84941Y57890D01*
X84721Y57981D01*
Y58363D01*
X84755Y58377D01*
X84883Y58686D01*
Y59309D01*
X84446D01*
Y59563D01*
X84883D01*
Y60186D01*
X84755Y60495D01*
X84492Y60604D01*
X84435Y60846D01*
X84434Y60858D01*
X84520Y61064D01*
X84538Y61105D01*
X84818Y61211D01*
X84818Y61211D01*
X84946Y60986D01*
X85034Y60774D01*
X85246Y60686D01*
X85721D01*
Y60143D01*
X85493Y60049D01*
X85292Y59563D01*
X85493Y59077D01*
X85979Y58876D01*
X86465Y59077D01*
X86666Y59563D01*
X86465Y60049D01*
X86271Y60129D01*
Y60686D01*
X86746D01*
X86958Y60774D01*
X87046Y60986D01*
X87028Y61028D01*
X86969Y61236D01*
X86975Y61257D01*
X87271Y61367D01*
X87355Y61311D01*
D02*
G37*
G36*
X69848Y60981D02*
X69934Y60774D01*
X70146Y60686D01*
X70621D01*
Y59961D01*
X70371Y59711D01*
X69329D01*
X68318Y60722D01*
Y61004D01*
X68572Y61054D01*
X68602Y60982D01*
X69088Y60781D01*
X69574Y60982D01*
X69612Y61073D01*
X69848Y60981D01*
D02*
G37*
G36*
X60275Y61510D02*
X60234Y61256D01*
X59952D01*
Y60483D01*
X59698Y60432D01*
X59541Y60811D01*
X59055Y61012D01*
X58569Y60811D01*
X58368Y60325D01*
X58569Y59839D01*
X58570Y59834D01*
X58378Y59604D01*
X58124Y59612D01*
X57973Y59838D01*
X57988Y59875D01*
Y60775D01*
X57853Y61102D01*
X57526Y61237D01*
X57199Y61102D01*
X57064Y60775D01*
Y59875D01*
X56913Y59672D01*
X56684Y59655D01*
X56088Y60252D01*
Y60775D01*
X55953Y61102D01*
X55901Y61123D01*
Y61481D01*
X56121Y61701D01*
X60084D01*
X60275Y61510D01*
D02*
G37*
G36*
X67301Y56640D02*
X65518Y54857D01*
X65024Y55062D01*
X64256Y54743D01*
X63937Y53975D01*
X64256Y53207D01*
X64853Y52959D01*
X64803Y52705D01*
X62705D01*
X62655Y52959D01*
X63252Y53207D01*
X63571Y53975D01*
X63366Y54468D01*
X65773Y56875D01*
X67203D01*
X67301Y56640D01*
D02*
G37*
G36*
X87736Y58186D02*
Y56756D01*
X85838Y54857D01*
X85344Y55062D01*
X84576Y54743D01*
X84257Y53975D01*
X84576Y53207D01*
X85173Y52959D01*
X85123Y52705D01*
X83025D01*
X82975Y52959D01*
X83572Y53207D01*
X83891Y53975D01*
X83686Y54468D01*
X87501Y58284D01*
X87736Y58186D01*
D02*
G37*
G36*
X78904Y58404D02*
X78946Y58386D01*
X79051Y58301D01*
X79065Y57991D01*
X78499Y57425D01*
X74429D01*
X74324Y57679D01*
X74640Y57996D01*
X74640Y57996D01*
X74721Y58190D01*
X74721Y58190D01*
Y58204D01*
X74946Y58386D01*
X74988Y58404D01*
X75196Y58463D01*
X75404Y58404D01*
X75446Y58386D01*
X75488Y58404D01*
X75696Y58463D01*
X75904Y58404D01*
X75946Y58386D01*
X75988Y58404D01*
X76196Y58463D01*
X76404Y58404D01*
X76446Y58386D01*
X76488Y58404D01*
X76696Y58463D01*
X76904Y58404D01*
X76946Y58386D01*
X76988Y58404D01*
X77196Y58463D01*
X77404Y58404D01*
X77446Y58386D01*
X77488Y58404D01*
X77696Y58463D01*
X77904Y58404D01*
X77946Y58386D01*
X77988Y58404D01*
X78196Y58463D01*
X78404Y58404D01*
X78446Y58386D01*
X78488Y58404D01*
X78696Y58463D01*
X78904Y58404D01*
D02*
G37*
G36*
X89535Y67691D02*
X89557Y67700D01*
X89768Y67559D01*
Y61849D01*
X89768Y61849D01*
X89768Y61849D01*
Y60846D01*
X89768Y60846D01*
X89849Y60652D01*
X91927Y58573D01*
Y57215D01*
X91716Y57128D01*
X91515Y56642D01*
X91664Y56282D01*
X91512Y56028D01*
X90665D01*
X89429Y57264D01*
Y62673D01*
X89348Y62867D01*
X89348Y62867D01*
X88583Y63633D01*
X88642Y63932D01*
X88878Y64030D01*
X89079Y64516D01*
X88960Y64805D01*
X88885Y65024D01*
X88960Y65243D01*
X89079Y65532D01*
X88960Y65821D01*
X88885Y66040D01*
X88960Y66259D01*
X89079Y66548D01*
X88960Y66837D01*
X88885Y67056D01*
X88960Y67275D01*
X89057Y67509D01*
X89281Y67685D01*
Y68326D01*
X89535D01*
Y67691D01*
D02*
G37*
G36*
X63606Y69228D02*
Y64262D01*
X63606Y64262D01*
X63687Y64068D01*
X64576Y63179D01*
X64576Y63179D01*
X64770Y63098D01*
X64770Y63098D01*
X67255D01*
X67407Y62844D01*
X67258Y62484D01*
X67459Y61998D01*
X67717Y61891D01*
X67667Y61637D01*
X67064D01*
Y61235D01*
X66032D01*
Y61637D01*
X64778D01*
Y60283D01*
X64778D01*
X64694Y60064D01*
X64651D01*
Y59387D01*
X65405D01*
Y59133D01*
X64633D01*
X64397Y59018D01*
X64283Y59107D01*
Y61595D01*
X64283Y61595D01*
X64202Y61789D01*
X64202Y61789D01*
X63694Y62297D01*
X63500Y62378D01*
X63500Y62378D01*
X61963D01*
X61416Y62925D01*
X61427Y62989D01*
X61713Y63145D01*
X61976Y63036D01*
Y65151D01*
Y67266D01*
X61489Y67064D01*
X61235Y67181D01*
Y67924D01*
X61341Y68134D01*
X62865D01*
Y69610D01*
X63119Y69715D01*
X63606Y69228D01*
D02*
G37*
G36*
X72063Y75417D02*
X72009Y75286D01*
Y74811D01*
X71452D01*
X71365Y75022D01*
X71006Y75171D01*
Y74536D01*
X70879D01*
Y74409D01*
X70244D01*
X70301Y74273D01*
X70159Y74062D01*
X68186D01*
X66831Y75417D01*
X66936Y75671D01*
X71893D01*
X72063Y75417D01*
D02*
G37*
G36*
X73816Y67908D02*
X73703Y67662D01*
X73244Y67472D01*
X73157Y67261D01*
X72128D01*
X71946Y67486D01*
X71858Y67698D01*
X71858Y67774D01*
X71946Y67986D01*
X71928Y68028D01*
X71869Y68236D01*
X71928Y68444D01*
X71946Y68486D01*
X71858Y68698D01*
X71858Y68774D01*
X71946Y68986D01*
X71928Y69028D01*
X71869Y69236D01*
X71927Y69439D01*
X72180Y69544D01*
X73816Y67908D01*
D02*
G37*
G36*
X89768Y72673D02*
X89514Y72503D01*
X89313Y72586D01*
X88513D01*
X88370Y72527D01*
X88159Y72668D01*
Y73766D01*
X89768D01*
Y72673D01*
D02*
G37*
G36*
X88513Y71554D02*
X88663D01*
X88719Y71421D01*
X89061Y71078D01*
X88956Y70824D01*
X88513D01*
X88051Y70632D01*
X87912Y70297D01*
X88913D01*
Y70043D01*
X87912D01*
X88051Y69708D01*
X88484Y69528D01*
X88521Y69494D01*
X88522Y69488D01*
X88392Y69267D01*
X87906Y69066D01*
X87705Y68580D01*
X87792Y68369D01*
X87258Y67835D01*
X87055Y67971D01*
X87046Y67986D01*
X87028Y68028D01*
X86969Y68236D01*
X87028Y68444D01*
X87046Y68486D01*
X87028Y68528D01*
X86969Y68736D01*
X87028Y68944D01*
X87046Y68986D01*
X87028Y69028D01*
X86969Y69236D01*
X87028Y69444D01*
X87046Y69486D01*
X87028Y69528D01*
X86969Y69736D01*
X87028Y69944D01*
X87046Y69986D01*
X86958Y70198D01*
X86958Y70274D01*
X87046Y70486D01*
X87228Y70711D01*
X87496D01*
X87496Y70711D01*
X87690Y70792D01*
X88078Y71180D01*
X88078Y71180D01*
X88159Y71374D01*
X88297Y71564D01*
X88370Y71613D01*
X88513Y71554D01*
D02*
G37*
G36*
X76895Y64830D02*
X76895Y64830D01*
X77089Y64749D01*
X77089Y64749D01*
X79007D01*
X79671Y64085D01*
Y63606D01*
X79460Y63465D01*
X79248Y63552D01*
X78776Y63357D01*
X78547Y63468D01*
X78665Y63754D01*
X78464Y64240D01*
X77978Y64441D01*
X77689Y64322D01*
X77470Y64247D01*
X77251Y64322D01*
X76962Y64441D01*
X76476Y64240D01*
X76275Y63754D01*
X76476Y63268D01*
X76687Y63181D01*
Y62103D01*
X76687Y62103D01*
X76768Y61909D01*
X77171Y61505D01*
Y60668D01*
X76946Y60486D01*
X76904Y60468D01*
X76696Y60409D01*
X76488Y60468D01*
X76446Y60486D01*
X76404Y60468D01*
X76196Y60409D01*
X75988Y60468D01*
X75946Y60486D01*
X75904Y60468D01*
X75696Y60409D01*
X75488Y60468D01*
X75446Y60486D01*
X75222Y60667D01*
X75236Y60908D01*
X75416Y60982D01*
X75617Y61468D01*
X75416Y61954D01*
X74930Y62155D01*
X74444Y61954D01*
X74357Y61743D01*
X73471D01*
X73384Y61954D01*
X72898Y62155D01*
X72412Y61954D01*
X72211Y61468D01*
X72265Y61338D01*
X72254Y61326D01*
X71951Y61370D01*
X71923Y61430D01*
X71946Y61486D01*
X71928Y61528D01*
X71869Y61736D01*
X71928Y61944D01*
X71946Y61986D01*
X71858Y62198D01*
X71858Y62274D01*
X71946Y62486D01*
X71880Y62646D01*
X71955Y62677D01*
X72031Y62859D01*
X70896D01*
Y63113D01*
X72031D01*
X71955Y63295D01*
X71880Y63326D01*
X71946Y63486D01*
X71858Y63698D01*
X71858Y63774D01*
X71946Y63986D01*
X71928Y64028D01*
X71869Y64236D01*
X71928Y64444D01*
X71946Y64486D01*
X71928Y64528D01*
X71869Y64736D01*
X71928Y64944D01*
X71946Y64986D01*
X71858Y65198D01*
X71858Y65274D01*
X71946Y65486D01*
X71928Y65528D01*
X71869Y65736D01*
X71928Y65944D01*
X71946Y65986D01*
X71858Y66198D01*
X71858Y66274D01*
X71946Y66486D01*
X72128Y66711D01*
X73157D01*
X73244Y66500D01*
X73603Y66351D01*
Y66986D01*
X73857D01*
Y66351D01*
X74216Y66500D01*
X74406Y66959D01*
X74652Y67072D01*
X76895Y64830D01*
D02*
G37*
G36*
X68678Y66011D02*
X69164Y65810D01*
X69612Y65995D01*
X69693Y65992D01*
X69873Y65910D01*
X69923Y65736D01*
X69864Y65528D01*
X69846Y65486D01*
X69934Y65274D01*
X69934Y65198D01*
X69846Y64986D01*
X69864Y64944D01*
X69923Y64736D01*
X69864Y64528D01*
X69846Y64486D01*
X69864Y64444D01*
X69923Y64236D01*
X69864Y64028D01*
X69846Y63986D01*
X69864Y63943D01*
X69834Y63883D01*
X69525Y63833D01*
X68445Y64913D01*
Y65574D01*
X68402D01*
X68318Y65793D01*
X68318D01*
Y66211D01*
X68595D01*
X68678Y66011D01*
D02*
G37*
G36*
X67191Y77454D02*
Y76539D01*
X68445D01*
Y76941D01*
X69350D01*
Y76539D01*
X70108D01*
X70153Y76475D01*
X70020Y76221D01*
X66867D01*
X66159Y76929D01*
Y77809D01*
X66159Y77844D01*
X66243Y78063D01*
X66286Y78063D01*
X66540Y78105D01*
X67191Y77454D01*
D02*
G37*
G36*
X99697Y67259D02*
X100174D01*
Y66577D01*
X99967Y66413D01*
X99822Y66473D01*
X99336Y66272D01*
X99135Y65786D01*
X99171Y65699D01*
X98991Y65519D01*
X98952Y65535D01*
X98152D01*
X97787Y65384D01*
X97783Y65374D01*
X97536Y65299D01*
X97536Y65299D01*
X97342Y65218D01*
X97342Y65218D01*
X96707Y64584D01*
X96484Y64508D01*
X96413Y64508D01*
X96082D01*
Y65413D01*
X96484D01*
Y66328D01*
X97767Y67611D01*
X99697D01*
Y67259D01*
D02*
G37*
G36*
X69460Y56259D02*
X68058Y54857D01*
X67564Y55062D01*
X66796Y54743D01*
X66477Y53975D01*
X66796Y53207D01*
X67393Y52959D01*
X67343Y52705D01*
X65245D01*
X65195Y52959D01*
X65792Y53207D01*
X66111Y53975D01*
X65906Y54468D01*
X67932Y56494D01*
X69362D01*
X69460Y56259D01*
D02*
G37*
G36*
X95074Y55159D02*
X95015Y54859D01*
X94736Y54743D01*
X94417Y53975D01*
X94736Y53207D01*
X95333Y52959D01*
X95283Y52705D01*
X93185D01*
X93135Y52959D01*
X93732Y53207D01*
X94051Y53975D01*
X93732Y54743D01*
X92964Y55062D01*
X92196Y54743D01*
X91877Y53975D01*
X92196Y53207D01*
X92793Y52959D01*
X92743Y52705D01*
X90645D01*
X90595Y52959D01*
X91192Y53207D01*
X91511Y53975D01*
X91192Y54743D01*
X90813Y54900D01*
X90699Y55118D01*
X90655Y55224D01*
X90703Y55351D01*
X90759Y55438D01*
X90804Y55478D01*
X94755D01*
X95074Y55159D01*
D02*
G37*
G36*
X75937Y55116D02*
X75677Y54857D01*
X75184Y55062D01*
X74416Y54743D01*
X74097Y53975D01*
X74416Y53207D01*
X75013Y52959D01*
X74963Y52705D01*
X72865D01*
X72815Y52959D01*
X73412Y53207D01*
X73731Y53975D01*
X73526Y54468D01*
X74409Y55351D01*
X75839D01*
X75937Y55116D01*
D02*
G37*
G36*
X59532Y54891D02*
X59176Y54743D01*
X58857Y53975D01*
X59176Y53207D01*
X59773Y52959D01*
X59723Y52705D01*
X57625D01*
X57575Y52959D01*
X58172Y53207D01*
X58491Y53975D01*
X58172Y54743D01*
X57816Y54891D01*
Y55595D01*
X59532D01*
Y54891D01*
D02*
G37*
G36*
X76944Y54716D02*
X76637Y53975D01*
X76956Y53207D01*
X77553Y52959D01*
X77503Y52705D01*
X75405D01*
X75355Y52959D01*
X75952Y53207D01*
X76271Y53975D01*
X76066Y54468D01*
X76568Y54970D01*
X76850D01*
X76944Y54716D01*
D02*
G37*
G36*
X79484D02*
X79177Y53975D01*
X79496Y53207D01*
X80093Y52959D01*
X80043Y52705D01*
X77945D01*
X77895Y52959D01*
X78492Y53207D01*
X78811Y53975D01*
X78504Y54716D01*
X78598Y54970D01*
X79390D01*
X79484Y54716D01*
D02*
G37*
G36*
X78341Y83626D02*
X78341Y83626D01*
X78535Y83545D01*
X79769D01*
X79931Y83383D01*
Y82161D01*
X79538D01*
Y81246D01*
X79212Y80920D01*
X78147D01*
Y81272D01*
X76828D01*
X76793Y81272D01*
X76574Y81356D01*
Y81399D01*
X75897D01*
Y80645D01*
Y79891D01*
X76574D01*
Y79934D01*
X76793Y80018D01*
X76828Y80018D01*
X77179D01*
Y78740D01*
X77260Y78546D01*
X77260Y78524D01*
X77179Y78330D01*
Y77090D01*
X77179Y77090D01*
X77180Y77088D01*
Y75764D01*
X76946Y75586D01*
X76721Y75768D01*
Y75827D01*
X76721Y75827D01*
X76640Y76021D01*
X76640Y76021D01*
X76140Y76521D01*
X75946Y76602D01*
X75946Y76602D01*
X70980D01*
X70604Y76978D01*
Y77858D01*
X70604Y77893D01*
X70688Y78112D01*
X70731D01*
Y78255D01*
X70985Y78390D01*
X71247Y78281D01*
Y78916D01*
Y79551D01*
X70985Y79442D01*
X70731Y79577D01*
Y79720D01*
X70104D01*
Y78916D01*
X69977D01*
Y78789D01*
X69223D01*
Y78112D01*
X69266D01*
X69350Y77893D01*
X69350Y77858D01*
Y77491D01*
X68445D01*
Y77893D01*
X68445D01*
X68529Y78112D01*
X68572D01*
Y78789D01*
X67818D01*
Y78916D01*
X67691D01*
Y79720D01*
X67412D01*
X67242Y79974D01*
X67362Y80264D01*
X67161Y80750D01*
X66675Y80951D01*
X66189Y80750D01*
X65988Y80264D01*
X66128Y79925D01*
X65964Y79671D01*
X65659D01*
Y78867D01*
X65532D01*
Y78740D01*
X64778D01*
Y78063D01*
X64821D01*
X64905Y77844D01*
X64905Y77809D01*
Y77442D01*
X63873D01*
Y77893D01*
X63873D01*
X63957Y78112D01*
X64000D01*
Y78789D01*
X63246D01*
Y78916D01*
X63119D01*
Y79720D01*
X62515D01*
Y82252D01*
X64250Y83987D01*
X64485Y83890D01*
Y83566D01*
X64605Y83274D01*
X65670Y82209D01*
X65962Y82089D01*
X67191D01*
Y81824D01*
X68445D01*
Y82226D01*
X69350D01*
Y81824D01*
X70604D01*
Y82226D01*
X70895D01*
X71015Y81937D01*
X71501Y81736D01*
X71987Y81937D01*
X72188Y82423D01*
X71987Y82909D01*
X71501Y83110D01*
X71015Y82909D01*
X70960Y82776D01*
X70604D01*
Y83178D01*
X70604D01*
X70688Y83397D01*
X70731D01*
Y83926D01*
X73214D01*
X73301Y83715D01*
X73660Y83566D01*
Y84201D01*
X73787D01*
Y84328D01*
X74422D01*
X74273Y84687D01*
X74270Y84688D01*
X74321Y84942D01*
X77024D01*
X78341Y83626D01*
D02*
G37*
G36*
X88862Y56291D02*
X89994Y55159D01*
X89935Y54859D01*
X89656Y54743D01*
X89337Y53975D01*
X89656Y53207D01*
X90253Y52959D01*
X90203Y52705D01*
X88105D01*
X88055Y52959D01*
X88652Y53207D01*
X88971Y53975D01*
X88652Y54743D01*
X88159Y54948D01*
Y55862D01*
X88545Y56249D01*
X88722Y56300D01*
X88799Y56305D01*
X88862Y56291D01*
D02*
G37*
G36*
X87609Y55519D02*
Y54948D01*
X87116Y54743D01*
X86797Y53975D01*
X87116Y53207D01*
X87713Y52959D01*
X87663Y52705D01*
X85565D01*
X85515Y52959D01*
X86112Y53207D01*
X86431Y53975D01*
X86226Y54468D01*
X87374Y55617D01*
X87609Y55519D01*
D02*
G37*
G36*
X67064Y84328D02*
X67818D01*
Y84074D01*
X67064D01*
Y83397D01*
X67107D01*
X67191Y83178D01*
X67191D01*
Y82913D01*
X66133D01*
X65309Y83737D01*
Y84288D01*
X65675Y84439D01*
X65883Y84942D01*
X67064D01*
Y84328D01*
D02*
G37*
G36*
X107231Y87326D02*
X107231Y87249D01*
Y85979D01*
X110179D01*
Y87130D01*
X110381Y87289D01*
X110433Y87299D01*
X110490Y87275D01*
Y52705D01*
X103345D01*
X103295Y52959D01*
X103892Y53207D01*
X104211Y53975D01*
X103892Y54743D01*
X103124Y55062D01*
X102356Y54743D01*
X102037Y53975D01*
X102356Y53207D01*
X102953Y52959D01*
X102903Y52705D01*
X100805D01*
X100755Y52959D01*
X101352Y53207D01*
X101671Y53975D01*
X101352Y54743D01*
X100584Y55062D01*
X99816Y54743D01*
X99497Y53975D01*
X99816Y53207D01*
X100413Y52959D01*
X100363Y52705D01*
X98265D01*
X98215Y52959D01*
X98812Y53207D01*
X99131Y53975D01*
X98812Y54743D01*
X98044Y55062D01*
X97276Y54743D01*
X96957Y53975D01*
X97276Y53207D01*
X97873Y52959D01*
X97823Y52705D01*
X95725D01*
X95675Y52959D01*
X96272Y53207D01*
X96591Y53975D01*
X96272Y54743D01*
X95779Y54948D01*
Y55118D01*
X95698Y55312D01*
X95698Y55312D01*
X95063Y55947D01*
X94869Y56028D01*
X94869Y56028D01*
X92892D01*
X92740Y56282D01*
X92889Y56642D01*
X92688Y57128D01*
X92477Y57215D01*
Y58687D01*
X92477Y58687D01*
X92396Y58881D01*
X92396Y58881D01*
X90318Y60960D01*
Y61735D01*
X90792Y62209D01*
X96266D01*
X96266Y62209D01*
X96460Y62290D01*
X97095Y62925D01*
X97095Y62925D01*
X97176Y63119D01*
Y64275D01*
X97525Y64624D01*
X97787Y64654D01*
X98152Y64503D01*
X98952D01*
X99317Y64654D01*
X99468Y65019D01*
X99628Y65179D01*
X99822Y65099D01*
X99822Y65099D01*
X99825Y65098D01*
X100036Y65019D01*
X100167Y64701D01*
X100179Y64544D01*
X100167Y64387D01*
X100036Y64069D01*
X100126Y63850D01*
X100075Y63596D01*
X100075D01*
Y62989D01*
X99864Y62847D01*
X99782Y62881D01*
X99606Y63119D01*
X99414Y63581D01*
X98952Y63773D01*
X98679D01*
Y63119D01*
Y62465D01*
X98830D01*
X99010Y62235D01*
X99008Y62230D01*
X99209Y61744D01*
X99695Y61543D01*
X100181Y61744D01*
X100268Y61955D01*
X100787D01*
X100916Y61826D01*
X100971Y61735D01*
X100913Y61595D01*
X101114Y61109D01*
X101600Y60908D01*
X101778Y60981D01*
X101989Y60840D01*
Y59810D01*
X101989Y59775D01*
X101905Y59556D01*
X101862D01*
Y58879D01*
X102616D01*
X103370D01*
Y59556D01*
X103327D01*
X103243Y59775D01*
X103243Y59810D01*
Y60177D01*
X104783D01*
Y59732D01*
X104783Y59697D01*
X104699Y59478D01*
X104656D01*
Y58801D01*
X105410D01*
X106164D01*
Y59478D01*
X106121D01*
X106037Y59697D01*
X106037Y59732D01*
Y60099D01*
X106970D01*
Y59825D01*
X107372D01*
Y59047D01*
X107019D01*
Y57793D01*
X108338D01*
X108373Y57793D01*
X108592Y57709D01*
Y57666D01*
X109269D01*
Y58420D01*
Y59174D01*
X108592D01*
Y59131D01*
X108373Y59047D01*
X108338Y59047D01*
X107922D01*
Y59825D01*
X108289D01*
X108324Y59825D01*
X108543Y59741D01*
Y59698D01*
X109220D01*
Y60452D01*
Y61206D01*
X108543D01*
Y61163D01*
X108324Y61079D01*
X108289Y61079D01*
X106970D01*
Y60649D01*
X106037D01*
Y61051D01*
X104783D01*
Y60727D01*
X103243D01*
Y61129D01*
X102874D01*
X102810Y61281D01*
X102810Y61281D01*
X102302Y61789D01*
X102187Y61837D01*
X102086Y62081D01*
X101600Y62282D01*
X101451Y62220D01*
X101367Y62267D01*
X101242Y62388D01*
X101260Y62642D01*
X101829D01*
Y63596D01*
X101964Y63794D01*
X102314D01*
X102930Y63179D01*
X102930Y63179D01*
X103124Y63098D01*
X103124Y63098D01*
X106348D01*
X106348Y63098D01*
X106542Y63179D01*
X106900Y63536D01*
X107815D01*
Y63987D01*
X108720D01*
Y63585D01*
X109974D01*
Y64904D01*
X109974Y64939D01*
X110058Y65158D01*
X110101D01*
Y65835D01*
X109347D01*
X108593D01*
Y65158D01*
X108636D01*
X108720Y64939D01*
X108720Y64904D01*
Y64537D01*
X107815D01*
Y64855D01*
X107815Y64890D01*
X107899Y65109D01*
X107942D01*
Y65786D01*
X107188D01*
X106434D01*
Y65109D01*
X106477D01*
X106561Y64890D01*
X106561Y64855D01*
Y64537D01*
X105475D01*
X105388Y64748D01*
X104902Y64949D01*
X104416Y64748D01*
X104215Y64262D01*
X104364Y63902D01*
X104212Y63648D01*
X103238D01*
X102622Y64263D01*
X102428Y64344D01*
X102428Y64344D01*
X101878D01*
X101763Y64544D01*
X101878Y64744D01*
X102992D01*
X102992Y64744D01*
X103186Y64825D01*
X104780Y66419D01*
X105283Y66210D01*
X106061Y66532D01*
X106383Y67310D01*
X106061Y68088D01*
X105283Y68410D01*
X104505Y68088D01*
X104183Y67310D01*
X104392Y66807D01*
X102878Y65294D01*
X101754D01*
X101717Y65384D01*
X101352Y65535D01*
X101224D01*
Y66965D01*
X101322Y67031D01*
Y67886D01*
X101449D01*
Y68013D01*
X101859D01*
Y68261D01*
X101953Y68402D01*
X102065D01*
Y68834D01*
X100711D01*
X99357D01*
Y68402D01*
X99357D01*
X99326Y68161D01*
X97653D01*
X97653Y68161D01*
X97459Y68080D01*
X97459Y68080D01*
X96287Y66909D01*
X96033Y67014D01*
Y67572D01*
X96435D01*
Y68487D01*
X97095Y69148D01*
X97095D01*
X97116Y69196D01*
X97269Y69356D01*
X97411Y69378D01*
X98544D01*
Y69761D01*
X99326D01*
X99357Y69520D01*
X99357D01*
Y69088D01*
X100711D01*
X102065D01*
Y69520D01*
X101953D01*
X101859Y69661D01*
Y69909D01*
X101449D01*
Y70036D01*
X101322D01*
Y70769D01*
X101199Y70718D01*
X101076Y70769D01*
Y70036D01*
X100822D01*
Y70891D01*
X100724Y70957D01*
Y71890D01*
X101085D01*
Y73144D01*
X99731D01*
Y71890D01*
X100174D01*
Y70865D01*
X99949Y70684D01*
X99756Y70604D01*
X99676Y70411D01*
Y70311D01*
X98544D01*
Y70697D01*
X98544Y70732D01*
X98628Y70951D01*
X98671D01*
Y71628D01*
X97917D01*
X97163D01*
Y71212D01*
X96909Y71042D01*
X96901Y71045D01*
X96440Y70854D01*
X96435Y70858D01*
Y70858D01*
X96033D01*
Y71754D01*
X96460D01*
Y72277D01*
X96587D01*
Y72629D01*
X95758D01*
X94929D01*
Y72277D01*
X95056D01*
Y71754D01*
X95483D01*
Y70858D01*
X95116D01*
X95081Y70858D01*
X94862Y70942D01*
Y70985D01*
X94185D01*
Y70231D01*
Y69477D01*
X94862D01*
Y69520D01*
X95081Y69604D01*
X95116Y69604D01*
X95483D01*
Y68826D01*
X95116D01*
X95081Y68826D01*
X94862Y68910D01*
Y68953D01*
X94185D01*
Y68199D01*
Y67445D01*
X94862D01*
Y67488D01*
X95081Y67572D01*
X95116Y67572D01*
X95483D01*
Y66667D01*
X95165D01*
X95130Y66667D01*
X94911Y66751D01*
Y66794D01*
X94234D01*
Y66040D01*
Y65286D01*
X94911D01*
Y65329D01*
X95130Y65413D01*
X95165Y65413D01*
X95532D01*
Y64508D01*
X95165D01*
X95130Y64508D01*
X94911Y64592D01*
Y64635D01*
X94234D01*
Y63881D01*
Y63127D01*
X94911D01*
Y63170D01*
X95130Y63254D01*
X95165Y63254D01*
X96288D01*
X96393Y63000D01*
X96152Y62759D01*
X90678D01*
X90572Y62715D01*
X90318Y62845D01*
Y69488D01*
X90436Y69693D01*
X91038D01*
Y69026D01*
X90827Y68939D01*
X90626Y68453D01*
X90827Y67967D01*
X91313Y67766D01*
X91799Y67967D01*
X92000Y68453D01*
X91799Y68939D01*
X91588Y69026D01*
Y69693D01*
X92190D01*
Y70647D01*
X92190D01*
X92139Y70901D01*
X92229Y71120D01*
X92098Y71438D01*
X92089Y71552D01*
X92228Y71795D01*
X92906D01*
Y71754D01*
X94310D01*
Y72277D01*
X94437D01*
Y72629D01*
X93608D01*
Y72883D01*
X94437D01*
Y73235D01*
X94310D01*
Y73758D01*
X92906D01*
X92698Y73868D01*
X92688Y73892D01*
X92530Y73957D01*
X92417Y74279D01*
X92667Y74881D01*
X92345Y75659D01*
X91567Y75981D01*
X91346Y75889D01*
X91024Y76031D01*
X90910Y76305D01*
X90699Y76392D01*
Y76744D01*
X91051D01*
Y77146D01*
X91956D01*
Y76744D01*
X93210D01*
Y78063D01*
X93210Y78098D01*
X93294Y78317D01*
X93337D01*
Y78994D01*
X92583D01*
X91829D01*
Y78317D01*
X91872D01*
X91956Y78098D01*
X91956Y78063D01*
Y77696D01*
X91051D01*
Y78063D01*
X91051Y78098D01*
X91135Y78317D01*
X91178D01*
Y78994D01*
X90424D01*
X89670D01*
Y78317D01*
X89713D01*
X89797Y78098D01*
X89797Y78063D01*
Y76744D01*
X90149D01*
Y76392D01*
X89938Y76305D01*
X89737Y75819D01*
X89938Y75333D01*
X90149Y75246D01*
Y74316D01*
X86271D01*
Y76744D01*
X86733D01*
Y77146D01*
X87638D01*
Y76744D01*
X88892D01*
Y78063D01*
X88892Y78098D01*
X88976Y78317D01*
X89019D01*
Y78994D01*
X88265D01*
X87511D01*
Y78317D01*
X87554D01*
X87638Y78098D01*
X87638Y78063D01*
Y77696D01*
X86733D01*
Y78063D01*
X86733Y78098D01*
X86817Y78317D01*
X86860D01*
Y78994D01*
X86106D01*
X85352D01*
Y78317D01*
X85395D01*
X85479Y78098D01*
X85479Y78063D01*
Y76744D01*
X85721D01*
Y74041D01*
Y73286D01*
X85246D01*
X85034Y73198D01*
X84946Y72986D01*
X85012Y72826D01*
X84937Y72795D01*
X84861Y72613D01*
X85996D01*
X87131D01*
X87055Y72795D01*
X86980Y72826D01*
X87046Y72986D01*
X86958Y73198D01*
X86746Y73286D01*
X86271D01*
Y73766D01*
X87609D01*
Y71516D01*
X87420Y71332D01*
X87162Y71342D01*
X87046Y71486D01*
X87028Y71528D01*
X86969Y71736D01*
X87028Y71944D01*
X87046Y71986D01*
X86980Y72146D01*
X87055Y72177D01*
X87131Y72359D01*
X85996D01*
X84739D01*
X84673Y72261D01*
X83006D01*
X82909Y72495D01*
X82423Y72696D01*
X81937Y72495D01*
X81736Y72009D01*
X81937Y71523D01*
X82423Y71322D01*
X82909Y71523D01*
X82987Y71711D01*
X84764D01*
X84946Y71486D01*
X84964Y71444D01*
X85023Y71236D01*
X84964Y71028D01*
X84946Y70986D01*
X84964Y70944D01*
X85023Y70736D01*
X84964Y70528D01*
X84946Y70486D01*
X84964Y70444D01*
X85023Y70236D01*
X84964Y70028D01*
X84946Y69986D01*
X84964Y69944D01*
X85023Y69736D01*
X84964Y69528D01*
X84946Y69486D01*
X84964Y69444D01*
X85023Y69236D01*
X84964Y69028D01*
X84946Y68986D01*
X85034Y68774D01*
X85034Y68698D01*
X84946Y68486D01*
X84964Y68444D01*
X85023Y68236D01*
X84964Y68028D01*
X84946Y67986D01*
X85034Y67774D01*
X85034Y67698D01*
X84946Y67486D01*
X85012Y67326D01*
X84937Y67295D01*
X84861Y67113D01*
X85996D01*
Y66859D01*
X84739D01*
X84673Y66761D01*
X83530D01*
X83417Y67034D01*
X82931Y67235D01*
X82445Y67034D01*
X82244Y66548D01*
X82445Y66062D01*
X82931Y65861D01*
X83417Y66062D01*
X83479Y66211D01*
X84764D01*
X84946Y65986D01*
X84964Y65944D01*
X85023Y65736D01*
X84964Y65528D01*
X84946Y65486D01*
X85034Y65274D01*
X85034Y65198D01*
X84946Y64986D01*
X84964Y64944D01*
X85023Y64736D01*
X84964Y64528D01*
X84946Y64486D01*
X84964Y64444D01*
X85023Y64236D01*
X84964Y64028D01*
X84946Y63986D01*
X85034Y63774D01*
X85034Y63698D01*
X84946Y63486D01*
X84964Y63444D01*
X85023Y63236D01*
X84964Y63028D01*
X84946Y62986D01*
X84964Y62944D01*
X85023Y62736D01*
X84964Y62528D01*
X84946Y62486D01*
X85022Y62303D01*
X84930Y62067D01*
X84691Y62002D01*
X81347Y65345D01*
X81153Y65426D01*
X81153Y65426D01*
X80837D01*
X80750Y65637D01*
X80264Y65838D01*
X79778Y65637D01*
X79625Y65268D01*
X79342Y65192D01*
X79315Y65218D01*
X79121Y65299D01*
X79121Y65299D01*
X77203D01*
X72538Y69964D01*
Y71731D01*
X72749Y71872D01*
X72974Y71779D01*
X73460Y71980D01*
X73662Y72466D01*
X73460Y72952D01*
X73221Y73051D01*
Y73304D01*
X73446Y73486D01*
X73488Y73504D01*
X73696Y73563D01*
X73904Y73504D01*
X73946Y73486D01*
X73988Y73504D01*
X74196Y73563D01*
X74404Y73504D01*
X74446Y73486D01*
X74488Y73504D01*
X74696Y73563D01*
X74904Y73504D01*
X74946Y73486D01*
X74988Y73504D01*
X75196Y73563D01*
X75404Y73504D01*
X75446Y73486D01*
X75488Y73504D01*
X75696Y73563D01*
X75904Y73504D01*
X75946Y73486D01*
X75988Y73504D01*
X76196Y73563D01*
X76404Y73504D01*
X76446Y73486D01*
X76488Y73504D01*
X76696Y73563D01*
X76904Y73504D01*
X76946Y73486D01*
X76988Y73504D01*
X77196Y73563D01*
X77404Y73504D01*
X77446Y73486D01*
X77488Y73504D01*
X77696Y73563D01*
X77904Y73504D01*
X77946Y73486D01*
X77988Y73504D01*
X78196Y73563D01*
X78404Y73504D01*
X78446Y73486D01*
X78606Y73552D01*
X78637Y73477D01*
X78819Y73401D01*
Y74536D01*
X79073D01*
Y73401D01*
X79255Y73477D01*
X79286Y73552D01*
X79446Y73486D01*
X79488Y73504D01*
X79696Y73563D01*
X79904Y73504D01*
X79946Y73486D01*
X80106Y73552D01*
X80137Y73477D01*
X80319Y73401D01*
Y74536D01*
X80573D01*
Y73401D01*
X80755Y73477D01*
X80786Y73552D01*
X80946Y73486D01*
X80988Y73504D01*
X81196Y73563D01*
X81404Y73504D01*
X81446Y73486D01*
X81488Y73504D01*
X81696Y73563D01*
X81904Y73504D01*
X81946Y73486D01*
X81988Y73504D01*
X82196Y73563D01*
X82404Y73504D01*
X82446Y73486D01*
X82488Y73504D01*
X82696Y73563D01*
X82904Y73504D01*
X82946Y73486D01*
X82988Y73504D01*
X83196Y73563D01*
X83404Y73504D01*
X83446Y73486D01*
X83488Y73504D01*
X83696Y73563D01*
X83904Y73504D01*
X83946Y73486D01*
X84030Y73521D01*
X84319Y73401D01*
Y74536D01*
Y75671D01*
X84030Y75551D01*
X83946Y75586D01*
X83904Y75568D01*
X83696Y75509D01*
X83488Y75568D01*
X83446Y75586D01*
X83404Y75568D01*
X83196Y75509D01*
X82988Y75568D01*
X82946Y75586D01*
X82904Y75568D01*
X82696Y75509D01*
X82488Y75568D01*
X82446Y75586D01*
X82404Y75568D01*
X82196Y75509D01*
X81988Y75568D01*
X81946Y75586D01*
X81904Y75568D01*
X81696Y75509D01*
X81488Y75568D01*
X81446Y75586D01*
X81404Y75568D01*
X81196Y75509D01*
X80988Y75568D01*
X80946Y75586D01*
X80786Y75520D01*
X80755Y75595D01*
X80472Y75713D01*
X80621Y76073D01*
X80559Y76222D01*
X80701Y76433D01*
X83439D01*
X83439Y76433D01*
X83633Y76514D01*
X84573Y77453D01*
X84654Y77648D01*
X84654Y77648D01*
Y79691D01*
X84865Y79778D01*
X85066Y80264D01*
X84865Y80750D01*
X84837Y80892D01*
X85077Y81132D01*
X86360D01*
X86360Y81132D01*
X86554Y81213D01*
X87646Y82304D01*
X88561D01*
Y82656D01*
X89747D01*
Y82304D01*
X91066D01*
X91101Y82304D01*
X91320Y82220D01*
Y82177D01*
X91997D01*
Y82931D01*
Y83685D01*
X91320D01*
Y83642D01*
X91101Y83558D01*
X91066Y83558D01*
X89747D01*
Y83206D01*
X88561D01*
Y83558D01*
X87207D01*
Y83558D01*
X86988Y83642D01*
Y83685D01*
X86311D01*
Y82931D01*
Y82177D01*
X86409D01*
X86507Y81942D01*
X86246Y81682D01*
X84963D01*
X84963Y81682D01*
X84769Y81601D01*
X84769Y81601D01*
X84184Y81017D01*
X84111Y80840D01*
X83893Y80750D01*
X83691Y80264D01*
X83893Y79778D01*
X84104Y79691D01*
Y77762D01*
X83325Y76983D01*
X78740D01*
X78546Y76902D01*
X78546Y76902D01*
X77984Y76341D01*
X77730Y76446D01*
Y77089D01*
X77730Y77089D01*
X77729Y77091D01*
Y78330D01*
X77648Y78524D01*
X77648Y78546D01*
X77729Y78740D01*
Y80018D01*
X78147D01*
Y80370D01*
X79326D01*
X79326Y80370D01*
X79520Y80451D01*
X79696Y80627D01*
X79931Y80529D01*
Y80129D01*
X79538D01*
Y78875D01*
X80857D01*
X80892Y78875D01*
X81111Y78791D01*
Y78748D01*
X81788D01*
Y79502D01*
Y80256D01*
X81111D01*
Y80213D01*
X80892Y80129D01*
X80857Y80129D01*
X80481D01*
Y80907D01*
X80857D01*
X80892Y80907D01*
X81111Y80823D01*
Y80780D01*
X81788D01*
Y81534D01*
X81915D01*
Y81661D01*
X82719D01*
Y82148D01*
X82719Y82288D01*
X82926Y82402D01*
X84201D01*
X84201Y82402D01*
X84395Y82483D01*
X85030Y83118D01*
X85030Y83118D01*
X85111Y83312D01*
Y85012D01*
X85111Y85012D01*
X85030Y85206D01*
X85030Y85206D01*
X84292Y85945D01*
Y86860D01*
X82938D01*
Y85606D01*
X82938D01*
X83069Y85352D01*
X82980Y85139D01*
X83615D01*
Y84885D01*
X82951D01*
X82828Y84701D01*
X82811D01*
Y84658D01*
X82592Y84574D01*
X82557Y84574D01*
X82190D01*
Y85606D01*
X82592D01*
Y86860D01*
X81238D01*
Y86508D01*
X80837D01*
X80750Y86719D01*
X80264Y86920D01*
X79778Y86719D01*
X79577Y86233D01*
X79778Y85747D01*
X80264Y85546D01*
X80750Y85747D01*
X80837Y85958D01*
X81238D01*
Y85606D01*
X81640D01*
Y84574D01*
X81238D01*
Y83320D01*
X82557D01*
X82592Y83320D01*
X82607Y83314D01*
X82811Y83193D01*
X82780Y82952D01*
X80481D01*
Y83497D01*
X80481Y83497D01*
X80400Y83691D01*
X80400Y83691D01*
X80077Y84014D01*
X79883Y84095D01*
X79883Y84095D01*
X78649D01*
X77332Y85411D01*
X77138Y85492D01*
X77138Y85492D01*
X65883D01*
X65675Y85995D01*
X64897Y86317D01*
X64119Y85995D01*
X63797Y85217D01*
X63949Y84852D01*
X61811Y82715D01*
X61691Y82423D01*
Y78759D01*
X61608Y78528D01*
Y78528D01*
X61087D01*
Y77724D01*
X60960D01*
Y77597D01*
X60206D01*
Y76920D01*
X60249D01*
X60333Y76701D01*
X60333D01*
Y76348D01*
X59174D01*
Y76750D01*
X57920D01*
Y75431D01*
X57920Y75396D01*
X57836Y75177D01*
X57793D01*
Y74500D01*
X58547D01*
X59301D01*
Y75177D01*
X59258D01*
X59174Y75396D01*
X59174Y75431D01*
Y75798D01*
X60333D01*
Y75347D01*
X61587D01*
Y75749D01*
X62834D01*
Y73958D01*
X62440Y73564D01*
X59553D01*
X59301Y73569D01*
X59301Y73818D01*
Y74246D01*
X58547D01*
X57793D01*
Y74005D01*
X57539Y73878D01*
X57435Y73955D01*
Y74549D01*
X57315Y74841D01*
X57023Y74961D01*
X56038D01*
Y75360D01*
X56353D01*
Y75581D01*
X56607Y75751D01*
X56911Y75625D01*
X57397Y75826D01*
X57598Y76312D01*
X57397Y76798D01*
X56911Y76999D01*
X56691Y76908D01*
X56480Y77049D01*
Y77391D01*
X56353D01*
Y77914D01*
X55901D01*
Y82059D01*
X56508Y82310D01*
X56873Y83192D01*
X56508Y84074D01*
X55626Y84439D01*
X54744Y84074D01*
X54379Y83192D01*
X54744Y82310D01*
X55351Y82059D01*
Y77914D01*
X54899D01*
Y77391D01*
X54772D01*
Y77089D01*
X55626D01*
Y76835D01*
X54772D01*
Y76533D01*
X54899D01*
Y76010D01*
X54899Y76010D01*
Y75964D01*
X54899D01*
X54899Y75756D01*
Y75360D01*
X55214D01*
Y74720D01*
X54947Y74453D01*
X51816D01*
X51524Y74333D01*
X50254Y73063D01*
X50134Y72771D01*
Y63246D01*
X50254Y62954D01*
X51023Y62186D01*
Y61010D01*
X50978Y60902D01*
Y60002D01*
X51113Y59675D01*
X51440Y59540D01*
X51767Y59675D01*
X51902Y60002D01*
Y60902D01*
X51847Y61034D01*
Y61945D01*
X54991D01*
X55283Y62065D01*
X56539Y63322D01*
X57023Y63121D01*
X57606Y63363D01*
X57848Y63946D01*
Y66356D01*
X57606Y66939D01*
X57023Y67181D01*
X56440Y66939D01*
X56198Y66356D01*
Y64147D01*
X54820Y62769D01*
X52089D01*
X52039Y63023D01*
X52623Y63266D01*
X52905Y63946D01*
Y65024D01*
X51943D01*
Y65278D01*
X52905D01*
Y66356D01*
X52655Y66960D01*
X52829Y67163D01*
X53213Y67004D01*
X53699Y67205D01*
X53900Y67691D01*
X53699Y68177D01*
X53213Y68378D01*
X52869Y68236D01*
X52781Y68264D01*
X52635Y68576D01*
X52768Y68896D01*
Y71306D01*
X52526Y71889D01*
X51943Y72131D01*
X51360Y71889D01*
X51212Y71533D01*
X50958Y71584D01*
Y72600D01*
X51987Y73629D01*
X54071D01*
Y71960D01*
X53900Y71889D01*
X53658Y71306D01*
Y68896D01*
X53900Y68313D01*
X54342Y68130D01*
X54368Y68041D01*
X54372Y67842D01*
X54289Y67758D01*
X54208Y67564D01*
X54208Y67564D01*
Y67067D01*
X53900Y66939D01*
X53658Y66356D01*
Y63946D01*
X53900Y63363D01*
X54483Y63121D01*
X55066Y63363D01*
X55308Y63946D01*
Y66356D01*
X55066Y66939D01*
X54758Y67067D01*
Y67416D01*
X55053D01*
X55140Y67205D01*
X55626Y67004D01*
X56112Y67205D01*
X56313Y67691D01*
X56112Y68177D01*
X55626Y68378D01*
X55315Y68249D01*
X55120Y68444D01*
X55308Y68896D01*
Y71306D01*
X55066Y71889D01*
X54895Y71960D01*
Y73629D01*
X55118D01*
X55410Y73749D01*
X55797Y74137D01*
X56611D01*
Y73660D01*
X56731Y73368D01*
X57239Y72860D01*
X57531Y72740D01*
X62611D01*
X62903Y72860D01*
X63538Y73495D01*
X63658Y73787D01*
Y75749D01*
X65721D01*
X67878Y73593D01*
X67878Y73593D01*
X68072Y73512D01*
X68072Y73512D01*
X70028D01*
X70079Y73258D01*
X69934Y73198D01*
X69846Y72986D01*
X69934Y72774D01*
X69934Y72698D01*
X69846Y72486D01*
X69864Y72444D01*
X69923Y72236D01*
X69864Y72028D01*
X69846Y71986D01*
X69864Y71944D01*
X69923Y71736D01*
X69864Y71528D01*
X69846Y71486D01*
X69934Y71274D01*
X69934Y71198D01*
X69846Y70986D01*
X69864Y70944D01*
X69923Y70736D01*
X69864Y70528D01*
X69846Y70486D01*
X69934Y70274D01*
X69934Y70198D01*
X69846Y69986D01*
X69864Y69944D01*
X69923Y69736D01*
X69864Y69528D01*
X69846Y69486D01*
X69864Y69444D01*
X69923Y69236D01*
X69864Y69028D01*
X69846Y68986D01*
X69934Y68774D01*
X69934Y68698D01*
X69846Y68486D01*
X69864Y68444D01*
X69923Y68236D01*
X69864Y68028D01*
X69846Y67986D01*
X69818Y67951D01*
X69526Y67993D01*
X69523Y67999D01*
X69037Y68201D01*
X68629Y68031D01*
X67966Y68694D01*
Y69378D01*
X68318D01*
Y70697D01*
X68318Y70732D01*
X68402Y70951D01*
X68445D01*
Y71628D01*
X67691D01*
X66937D01*
Y70951D01*
X66980D01*
X67064Y70732D01*
X67064Y70697D01*
Y70330D01*
X66032D01*
Y70697D01*
X66032Y70732D01*
X66116Y70951D01*
X66159D01*
Y71628D01*
X65405D01*
X64651D01*
Y70951D01*
X64694D01*
X64778Y70732D01*
X64778Y70697D01*
Y69378D01*
X66032D01*
Y69780D01*
X67064D01*
Y69378D01*
X67416D01*
Y68580D01*
X67416Y68580D01*
X67497Y68386D01*
X68355Y67527D01*
X68350Y67513D01*
X68413Y67362D01*
X68227Y67147D01*
X67064D01*
Y66761D01*
X66032D01*
Y67147D01*
X64778D01*
Y65828D01*
X64778Y65793D01*
X64694Y65574D01*
X64651D01*
Y64897D01*
X65405D01*
X66159D01*
Y65574D01*
X66116D01*
X66032Y65793D01*
X66032Y65828D01*
Y66211D01*
X67064D01*
Y65793D01*
X67064D01*
X66980Y65574D01*
X66937D01*
Y64897D01*
X67691D01*
Y64770D01*
X67818D01*
Y63966D01*
X68445D01*
Y63966D01*
X68460Y63972D01*
X68530Y63902D01*
X68425Y63648D01*
X65068D01*
X65025Y63712D01*
X65161Y63966D01*
X65278D01*
Y64643D01*
X64651D01*
Y64240D01*
X64397Y64135D01*
X64156Y64376D01*
Y69342D01*
X64156Y69342D01*
X64075Y69536D01*
X64075Y69536D01*
X63316Y70295D01*
X63122Y70376D01*
X63122Y70376D01*
X62865D01*
Y72068D01*
X61341D01*
Y69953D01*
X61087Y69858D01*
X60649Y70295D01*
X60455Y70376D01*
X60388Y70611D01*
Y71306D01*
X60146Y71889D01*
X59563Y72131D01*
X58980Y71889D01*
X58738Y71306D01*
Y68896D01*
X58980Y68313D01*
X59563Y68071D01*
X60146Y68313D01*
X60388Y68896D01*
Y69189D01*
X60642Y69325D01*
X60685Y69296D01*
Y62992D01*
X60685Y62992D01*
X60766Y62798D01*
X61655Y61909D01*
X61655Y61909D01*
X61849Y61828D01*
X61849Y61828D01*
X63386D01*
X63733Y61481D01*
Y58928D01*
X63733Y58928D01*
X63814Y58734D01*
X64360Y58187D01*
X64255Y57933D01*
X63627D01*
X63627Y57933D01*
X63474Y57870D01*
X63246Y57964D01*
X62760Y57763D01*
X62559Y57277D01*
X62760Y56791D01*
X63246Y56590D01*
X63732Y56791D01*
X63933Y57277D01*
X64004Y57383D01*
X65144D01*
X65249Y57129D01*
X62978Y54857D01*
X62484Y55062D01*
X61716Y54743D01*
X61397Y53975D01*
X61716Y53207D01*
X62313Y52959D01*
X62263Y52705D01*
X60165D01*
X60115Y52959D01*
X60712Y53207D01*
X61031Y53975D01*
X60712Y54743D01*
X60356Y54891D01*
Y56007D01*
X60236Y56299D01*
X59944Y56419D01*
X57818D01*
X57818Y56421D01*
X57526Y56541D01*
X57234Y56421D01*
X57233Y56419D01*
X56038D01*
Y56833D01*
X56292Y56993D01*
X56449Y56928D01*
Y57925D01*
X56703D01*
Y56928D01*
X57000Y57051D01*
X57102Y57051D01*
X57399Y56928D01*
Y57925D01*
X57653D01*
Y56928D01*
X57950Y57051D01*
X58126Y57475D01*
Y57650D01*
X58433D01*
X58433Y57650D01*
X58627Y57731D01*
X58844Y57947D01*
X58928Y57912D01*
Y58547D01*
X59182D01*
Y57912D01*
X59541Y58061D01*
X59688Y58417D01*
X59698Y58440D01*
X59811Y58418D01*
X59952Y58222D01*
Y58202D01*
X61206D01*
Y58604D01*
X61984D01*
Y58202D01*
X63238D01*
Y59521D01*
X63238Y59556D01*
X63322Y59775D01*
X63365D01*
Y60452D01*
X62611D01*
X61857D01*
Y59775D01*
X61900D01*
X61984Y59556D01*
X61984Y59521D01*
Y59154D01*
X61206D01*
Y59556D01*
X59952D01*
Y58872D01*
X59811Y58676D01*
X59698Y58654D01*
X59688Y58677D01*
X59541Y59033D01*
X59262Y59149D01*
X59202Y59448D01*
X59249Y59496D01*
X59330Y59690D01*
X59521Y59831D01*
X59541Y59839D01*
X59698Y60218D01*
X59952Y60167D01*
Y59902D01*
X61206D01*
Y61256D01*
X60854D01*
Y61595D01*
X60854Y61595D01*
X60773Y61789D01*
X60392Y62170D01*
X60198Y62251D01*
X60198Y62251D01*
X56007D01*
X56007Y62251D01*
X55813Y62170D01*
X55432Y61789D01*
X55351Y61595D01*
X55351Y61595D01*
Y61123D01*
X55299Y61102D01*
X55164Y60775D01*
Y59875D01*
X55299Y59548D01*
X55517Y59458D01*
X55467Y59204D01*
X54738D01*
X54738Y59204D01*
X54544Y59123D01*
X54096Y58676D01*
X53847Y58726D01*
X53764Y58926D01*
X53467Y59049D01*
Y58052D01*
Y57055D01*
X53764Y57178D01*
X53940Y57602D01*
Y57810D01*
X54055Y57858D01*
X54852Y58654D01*
X55199D01*
Y57048D01*
X55214D01*
Y56419D01*
X53347D01*
X53335Y56424D01*
X53323Y56419D01*
X51847D01*
Y56965D01*
X52101Y57122D01*
X52263Y57055D01*
Y58052D01*
Y59049D01*
X52114Y58987D01*
X51867Y58929D01*
Y58929D01*
X51867Y58929D01*
X51013D01*
Y57175D01*
X51023D01*
Y56007D01*
X51143Y55715D01*
X51435Y55595D01*
X56992D01*
Y54891D01*
X56636Y54743D01*
X56317Y53975D01*
X56636Y53207D01*
X57233Y52959D01*
X57183Y52705D01*
X55085D01*
X55035Y52959D01*
X55632Y53207D01*
X55898Y53848D01*
X54864D01*
X53830D01*
X54096Y53207D01*
X54693Y52959D01*
X54643Y52705D01*
X52545D01*
X52495Y52959D01*
X53092Y53207D01*
X53358Y53848D01*
X52324D01*
X51290D01*
X51556Y53207D01*
X52153Y52959D01*
X52103Y52705D01*
X49530D01*
Y87503D01*
X51311D01*
X51492Y87326D01*
X51492Y87249D01*
Y85979D01*
X54440D01*
Y87249D01*
X54440Y87326D01*
X54621Y87503D01*
X56631D01*
X56812Y87326D01*
X56812Y87249D01*
Y85979D01*
X59760D01*
Y87249D01*
X59760Y87326D01*
X59941Y87503D01*
X101730D01*
X101911Y87326D01*
X101911Y87249D01*
Y85979D01*
X104859D01*
Y87249D01*
X104859Y87326D01*
X105040Y87503D01*
X107050D01*
X107231Y87326D01*
D02*
G37*
G36*
X71619Y55878D02*
X70598Y54857D01*
X70104Y55062D01*
X69336Y54743D01*
X69017Y53975D01*
X69336Y53207D01*
X69933Y52959D01*
X69883Y52705D01*
X67785D01*
X67735Y52959D01*
X68332Y53207D01*
X68651Y53975D01*
X68446Y54468D01*
X70091Y56113D01*
X71521D01*
X71619Y55878D01*
D02*
G37*
G36*
X73778Y55497D02*
X73137Y54857D01*
X72644Y55062D01*
X71876Y54743D01*
X71557Y53975D01*
X71876Y53207D01*
X72473Y52959D01*
X72423Y52705D01*
X70325D01*
X70275Y52959D01*
X70872Y53207D01*
X71191Y53975D01*
X70986Y54468D01*
X72250Y55732D01*
X73680D01*
X73778Y55497D01*
D02*
G37*
%LPC*%
G36*
X85090Y57277D02*
X84582D01*
Y56769D01*
X84941Y56918D01*
X85090Y57277D01*
D02*
G37*
G36*
X62230Y67266D02*
Y65278D01*
X63065D01*
Y66356D01*
X62783Y67036D01*
X62230Y67266D01*
D02*
G37*
G36*
X63065Y65024D02*
X62230D01*
Y63036D01*
X62783Y63266D01*
X63065Y63946D01*
Y65024D01*
D02*
G37*
G36*
X70752Y75171D02*
X70393Y75022D01*
X70244Y74663D01*
X70752D01*
Y75171D01*
D02*
G37*
G36*
X75643Y81399D02*
X74966D01*
Y80772D01*
X75643D01*
Y81399D01*
D02*
G37*
G36*
Y80518D02*
X74966D01*
Y79891D01*
X75643D01*
Y80518D01*
D02*
G37*
G36*
X74422Y84074D02*
X73914D01*
Y83566D01*
X74273Y83715D01*
X74422Y84074D01*
D02*
G37*
G36*
X76327Y78203D02*
X76096D01*
X76164Y78040D01*
X76327Y77972D01*
Y78203D01*
D02*
G37*
G36*
X76812D02*
X76581D01*
Y77972D01*
X76744Y78040D01*
X76812Y78203D01*
D02*
G37*
G36*
X76327Y79098D02*
X76164Y79030D01*
X76096Y78867D01*
X76327D01*
Y79098D01*
D02*
G37*
G36*
X76581D02*
Y78867D01*
X76812D01*
X76744Y79030D01*
X76581Y79098D01*
D02*
G37*
G36*
X72009Y78789D02*
X71501D01*
Y78281D01*
X71860Y78430D01*
X72009Y78789D01*
D02*
G37*
G36*
X76812Y78613D02*
X76454D01*
X76096D01*
X76129Y78535D01*
X76096Y78457D01*
X76454D01*
X76812D01*
X76779Y78535D01*
X76812Y78613D01*
D02*
G37*
G36*
X64000Y79720D02*
X63373D01*
Y79043D01*
X64000D01*
Y79720D01*
D02*
G37*
G36*
X68572D02*
X67945D01*
Y79043D01*
X68572D01*
Y79720D01*
D02*
G37*
G36*
X69850D02*
X69223D01*
Y79043D01*
X69850D01*
Y79720D01*
D02*
G37*
G36*
X65405Y79671D02*
X64778D01*
Y78994D01*
X65405D01*
Y79671D01*
D02*
G37*
G36*
X71501Y79551D02*
Y79043D01*
X72009D01*
X71860Y79402D01*
X71501Y79551D01*
D02*
G37*
G36*
X79248Y68632D02*
X78762Y68431D01*
X78561Y67945D01*
X78762Y67459D01*
X79248Y67258D01*
X79734Y67459D01*
X79935Y67945D01*
X79734Y68431D01*
X79248Y68632D01*
D02*
G37*
G36*
X101859Y67759D02*
X101576D01*
Y67153D01*
X101739Y67221D01*
X101859Y67511D01*
Y67759D01*
D02*
G37*
G36*
X93980Y66794D02*
X93303D01*
Y66167D01*
X93980D01*
Y66794D01*
D02*
G37*
G36*
X93931Y68072D02*
X93254D01*
Y67445D01*
X93931D01*
Y68072D01*
D02*
G37*
G36*
X110101Y66766D02*
X109474D01*
Y66089D01*
X110101D01*
Y66766D01*
D02*
G37*
G36*
X93980Y65913D02*
X93303D01*
Y65286D01*
X93980D01*
Y65913D01*
D02*
G37*
G36*
X107061Y66717D02*
X106434D01*
Y66040D01*
X107061D01*
Y66717D01*
D02*
G37*
G36*
X107942D02*
X107315D01*
Y66040D01*
X107942D01*
Y66717D01*
D02*
G37*
G36*
X109220Y66766D02*
X108593D01*
Y66089D01*
X109220D01*
Y66766D01*
D02*
G37*
G36*
X57023Y72131D02*
X56440Y71889D01*
X56198Y71306D01*
Y68896D01*
X56440Y68313D01*
X56748Y68185D01*
Y67945D01*
X56748Y67945D01*
X56829Y67751D01*
X57083Y67497D01*
X57083Y67497D01*
X57277Y67416D01*
X57720D01*
X57807Y67205D01*
X58293Y67004D01*
X58779Y67205D01*
X58980Y67691D01*
X58779Y68177D01*
X58293Y68378D01*
X57807Y68177D01*
X57787Y68130D01*
X57568Y68098D01*
X57606Y68313D01*
X57848Y68896D01*
Y71306D01*
X57606Y71889D01*
X57023Y72131D01*
D02*
G37*
G36*
X93931Y68953D02*
X93254D01*
Y68326D01*
X93931D01*
Y68953D01*
D02*
G37*
G36*
X67564Y72559D02*
X66937D01*
Y71882D01*
X67564D01*
Y72559D01*
D02*
G37*
G36*
X65278D02*
X64651D01*
Y71882D01*
X65278D01*
Y72559D01*
D02*
G37*
G36*
X93931Y70985D02*
X93254D01*
Y70358D01*
X93931D01*
Y70985D01*
D02*
G37*
G36*
X97790Y72559D02*
X97163D01*
Y71882D01*
X97790D01*
Y72559D01*
D02*
G37*
G36*
X98671D02*
X98044D01*
Y71882D01*
X98671D01*
Y72559D01*
D02*
G37*
G36*
X68445D02*
X67818D01*
Y71882D01*
X68445D01*
Y72559D01*
D02*
G37*
G36*
X66159D02*
X65532D01*
Y71882D01*
X66159D01*
Y72559D01*
D02*
G37*
G36*
X109093Y69420D02*
X108466D01*
Y68743D01*
X109093D01*
Y69420D01*
D02*
G37*
G36*
X107942D02*
X107315D01*
Y68743D01*
X107942D01*
Y69420D01*
D02*
G37*
G36*
X107061D02*
X106434D01*
Y68743D01*
X107061D01*
Y69420D01*
D02*
G37*
G36*
X109974D02*
X109347D01*
Y68743D01*
X109974D01*
Y69420D01*
D02*
G37*
G36*
X101576Y70769D02*
Y70163D01*
X101859D01*
Y70411D01*
X101739Y70701D01*
X101576Y70769D01*
D02*
G37*
G36*
X105664Y71934D02*
X105178Y71733D01*
X104977Y71247D01*
X105178Y70761D01*
X105664Y70560D01*
X106150Y70761D01*
X106237Y70972D01*
X106561D01*
Y70605D01*
X106561Y70570D01*
X106477Y70351D01*
X106434D01*
Y69674D01*
X107188D01*
X107942D01*
Y70351D01*
X107899D01*
X107815Y70570D01*
X107815Y70605D01*
Y70972D01*
X108593D01*
Y70605D01*
X108593Y70570D01*
X108509Y70351D01*
X108466D01*
Y69674D01*
X109220D01*
X109974D01*
Y70351D01*
X109931D01*
X109847Y70570D01*
X109847Y70605D01*
Y71924D01*
X108593D01*
Y71522D01*
X107815D01*
Y71924D01*
X106561D01*
Y71522D01*
X106237D01*
X106150Y71733D01*
X105664Y71934D01*
D02*
G37*
G36*
X93931Y70104D02*
X93254D01*
Y69477D01*
X93931D01*
Y70104D01*
D02*
G37*
G36*
X110200Y59174D02*
X109523D01*
Y58547D01*
X110200D01*
Y59174D01*
D02*
G37*
G36*
X54991Y55009D02*
Y54102D01*
X55898D01*
X55632Y54743D01*
X54991Y55009D01*
D02*
G37*
G36*
X99187Y58801D02*
X98560D01*
Y58124D01*
X99187D01*
Y58801D01*
D02*
G37*
G36*
X100068D02*
X99441D01*
Y58124D01*
X100068D01*
Y58801D01*
D02*
G37*
G36*
X53340Y61364D02*
X53013Y61229D01*
X52878Y60902D01*
Y60002D01*
X53013Y59675D01*
X53340Y59540D01*
X53667Y59675D01*
X53802Y60002D01*
Y60902D01*
X53667Y61229D01*
X53340Y61364D01*
D02*
G37*
G36*
X110151Y60325D02*
X109474D01*
Y59698D01*
X110151D01*
Y60325D01*
D02*
G37*
G36*
X53213Y59049D02*
X52916Y58926D01*
X52814Y58926D01*
X52517Y59049D01*
Y58052D01*
Y57055D01*
X52814Y57178D01*
X52916Y57178D01*
X53213Y57055D01*
Y58052D01*
Y59049D01*
D02*
G37*
G36*
X95631Y61901D02*
X95145Y61700D01*
X94944Y61214D01*
X95145Y60728D01*
X95631Y60527D01*
X96117Y60728D01*
X96191Y60906D01*
X96439Y60931D01*
X96655Y60715D01*
Y59986D01*
X96655Y59951D01*
X96571Y59732D01*
X96528D01*
Y59055D01*
X97282D01*
X98036D01*
Y59732D01*
X97993D01*
X97909Y59951D01*
X97909Y59986D01*
Y60353D01*
X98687D01*
Y59986D01*
X98687Y59951D01*
X98603Y59732D01*
X98560D01*
Y59055D01*
X99314D01*
X100068D01*
Y59732D01*
X100025D01*
X99941Y59951D01*
X99941Y59986D01*
Y61305D01*
X98687D01*
Y60903D01*
X97909D01*
Y61305D01*
X96994D01*
X96890Y61408D01*
X96696Y61489D01*
X96696Y61489D01*
X96204D01*
X96117Y61700D01*
X95631Y61901D01*
D02*
G37*
G36*
X105283Y58547D02*
X104656D01*
Y57870D01*
X105283D01*
Y58547D01*
D02*
G37*
G36*
X106164D02*
X105537D01*
Y57870D01*
X106164D01*
Y58547D01*
D02*
G37*
G36*
X110200Y58293D02*
X109523D01*
Y57666D01*
X110200D01*
Y58293D01*
D02*
G37*
G36*
X97155Y58801D02*
X96528D01*
Y58124D01*
X97155D01*
Y58801D01*
D02*
G37*
G36*
X98036D02*
X97409D01*
Y58124D01*
X98036D01*
Y58801D01*
D02*
G37*
G36*
X102489Y58625D02*
X101862D01*
Y57948D01*
X102489D01*
Y58625D01*
D02*
G37*
G36*
X103370D02*
X102743D01*
Y57948D01*
X103370D01*
Y58625D01*
D02*
G37*
G36*
X98425Y63773D02*
X98152D01*
X97690Y63581D01*
X97551Y63246D01*
X98425D01*
Y63773D01*
D02*
G37*
G36*
X106668Y54979D02*
X104660D01*
Y52971D01*
X106668D01*
Y54979D01*
D02*
G37*
G36*
X59563Y67181D02*
X58980Y66939D01*
X58738Y66356D01*
Y63946D01*
X58980Y63363D01*
X59563Y63121D01*
X60146Y63363D01*
X60388Y63946D01*
Y66356D01*
X60146Y66939D01*
X59563Y67181D01*
D02*
G37*
G36*
X93980Y63754D02*
X93303D01*
Y63127D01*
X93980D01*
Y63754D01*
D02*
G37*
G36*
Y64635D02*
X93303D01*
Y64008D01*
X93980D01*
Y64635D01*
D02*
G37*
G36*
X66159Y64643D02*
X65532D01*
Y63966D01*
X66159D01*
Y64643D01*
D02*
G37*
G36*
X67564D02*
X66937D01*
Y63966D01*
X67564D01*
Y64643D01*
D02*
G37*
G36*
X62484Y61383D02*
X61857D01*
Y60706D01*
X62484D01*
Y61383D01*
D02*
G37*
G36*
X63365D02*
X62738D01*
Y60706D01*
X63365D01*
Y61383D01*
D02*
G37*
G36*
X52451Y55009D02*
Y54102D01*
X53358D01*
X53092Y54743D01*
X52451Y55009D01*
D02*
G37*
G36*
X110151Y61206D02*
X109474D01*
Y60579D01*
X110151D01*
Y61206D01*
D02*
G37*
G36*
X52197Y55009D02*
X51556Y54743D01*
X51290Y54102D01*
X52197D01*
Y55009D01*
D02*
G37*
G36*
X54737D02*
X54096Y54743D01*
X53830Y54102D01*
X54737D01*
Y55009D01*
D02*
G37*
G36*
X98425Y62992D02*
X97551D01*
X97690Y62657D01*
X98152Y62465D01*
X98425D01*
Y62992D01*
D02*
G37*
G36*
X58159Y82006D02*
X56812D01*
Y80659D01*
X58159D01*
Y82006D01*
D02*
G37*
G36*
X59760D02*
X58413D01*
Y80659D01*
X59760D01*
Y82006D01*
D02*
G37*
G36*
X54440D02*
X53093D01*
Y80659D01*
X54440D01*
Y82006D01*
D02*
G37*
G36*
X100742Y81026D02*
X99822D01*
Y80106D01*
X100473Y80375D01*
X100742Y81026D01*
D02*
G37*
G36*
X52839Y82006D02*
X51492D01*
Y80659D01*
X52839D01*
Y82006D01*
D02*
G37*
G36*
X110179D02*
X108832D01*
Y80659D01*
X110179D01*
Y82006D01*
D02*
G37*
G36*
X108578D02*
X107231D01*
Y80659D01*
X108578D01*
Y82006D01*
D02*
G37*
G36*
X103258D02*
X101911D01*
Y80659D01*
X103258D01*
Y82006D01*
D02*
G37*
G36*
X104859D02*
X103512D01*
Y80659D01*
X104859D01*
Y82006D01*
D02*
G37*
G36*
X89019Y79925D02*
X88392D01*
Y79248D01*
X89019D01*
Y79925D01*
D02*
G37*
G36*
X91178D02*
X90551D01*
Y79248D01*
X91178D01*
Y79925D01*
D02*
G37*
G36*
X86860D02*
X86233D01*
Y79248D01*
X86860D01*
Y79925D01*
D02*
G37*
G36*
X90297D02*
X89670D01*
Y79248D01*
X90297D01*
Y79925D01*
D02*
G37*
G36*
X92456D02*
X91829D01*
Y79248D01*
X92456D01*
Y79925D01*
D02*
G37*
G36*
X99568Y81026D02*
X98648D01*
X98917Y80375D01*
X99568Y80106D01*
Y81026D01*
D02*
G37*
G36*
X97528D02*
X96774D01*
X96020D01*
Y80349D01*
X96063D01*
X96147Y80130D01*
X96147Y80095D01*
Y79728D01*
X95242D01*
Y80095D01*
X95242Y80130D01*
X95326Y80349D01*
X95369D01*
Y81026D01*
X94615D01*
X93861D01*
Y80349D01*
X93904D01*
X93988Y80130D01*
X93988Y80095D01*
Y78776D01*
X94340D01*
Y78170D01*
X94129Y78083D01*
X93928Y77597D01*
X94129Y77111D01*
X94615Y76910D01*
X94877Y77018D01*
X95131Y76848D01*
Y76588D01*
X96385D01*
Y77068D01*
X97163D01*
Y76623D01*
X97163Y76588D01*
X97079Y76369D01*
X97036D01*
Y75692D01*
X97790D01*
X98544D01*
Y76369D01*
X98501D01*
X98417Y76588D01*
X98417Y76623D01*
Y77068D01*
X98836D01*
X99044Y76565D01*
X99822Y76243D01*
X100600Y76565D01*
X100808Y77068D01*
X101382D01*
Y76716D01*
X101784D01*
Y75176D01*
X101466D01*
X101431Y75176D01*
X101212Y75260D01*
Y75303D01*
X100535D01*
Y74549D01*
Y73795D01*
X101212D01*
Y73838D01*
X101431Y73922D01*
X101466Y73922D01*
X101784D01*
Y73144D01*
X101431D01*
Y71890D01*
X102785D01*
Y73144D01*
X102334D01*
Y73922D01*
X102785D01*
Y75176D01*
X102334D01*
Y76716D01*
X102736D01*
Y77970D01*
X101382D01*
Y77618D01*
X100808D01*
X100600Y78121D01*
X99822Y78443D01*
X99044Y78121D01*
X98836Y77618D01*
X98417D01*
Y77942D01*
X97163D01*
Y77618D01*
X96385D01*
Y77942D01*
X95159D01*
X95101Y78083D01*
X94890Y78170D01*
Y78776D01*
X95242D01*
Y79178D01*
X96147D01*
Y78776D01*
X97401D01*
Y80095D01*
X97401Y80130D01*
X97485Y80349D01*
X97528D01*
Y81026D01*
D02*
G37*
G36*
X93337Y79925D02*
X92710D01*
Y79248D01*
X93337D01*
Y79925D01*
D02*
G37*
G36*
X82719Y80256D02*
X82042D01*
Y79629D01*
X82719D01*
Y80256D01*
D02*
G37*
G36*
Y81407D02*
X82042D01*
Y80780D01*
X82719D01*
Y81407D01*
D02*
G37*
G36*
X54440Y85725D02*
X53093D01*
Y84378D01*
X54440D01*
Y85725D01*
D02*
G37*
G36*
X58159D02*
X56812D01*
Y84378D01*
X58159D01*
Y85725D01*
D02*
G37*
G36*
X52839D02*
X51492D01*
Y84378D01*
X52839D01*
Y85725D01*
D02*
G37*
G36*
X61976Y86317D02*
X61198Y85995D01*
X60876Y85217D01*
X61198Y84439D01*
X61976Y84117D01*
X62754Y84439D01*
X63076Y85217D01*
X62754Y85995D01*
X61976Y86317D01*
D02*
G37*
G36*
X108578Y85725D02*
X107231D01*
Y84378D01*
X108578D01*
Y85725D01*
D02*
G37*
G36*
X110179D02*
X108832D01*
Y84378D01*
X110179D01*
Y85725D01*
D02*
G37*
G36*
X104859D02*
X103512D01*
Y84378D01*
X104859D01*
Y85725D01*
D02*
G37*
G36*
X59760D02*
X58413D01*
Y84378D01*
X59760D01*
Y85725D01*
D02*
G37*
G36*
X103258D02*
X101911D01*
Y84378D01*
X103258D01*
Y85725D01*
D02*
G37*
G36*
X99822Y82200D02*
Y81280D01*
X100742D01*
X100473Y81931D01*
X99822Y82200D01*
D02*
G37*
G36*
X95369Y81957D02*
X94742D01*
Y81280D01*
X95369D01*
Y81957D01*
D02*
G37*
G36*
X99568Y82200D02*
X98917Y81931D01*
X98648Y81280D01*
X99568D01*
Y82200D01*
D02*
G37*
G36*
X94488Y81957D02*
X93861D01*
Y81280D01*
X94488D01*
Y81957D01*
D02*
G37*
G36*
X96647D02*
X96020D01*
Y81280D01*
X96647D01*
Y81957D01*
D02*
G37*
G36*
X86057Y83685D02*
X85380D01*
Y83058D01*
X86057D01*
Y83685D01*
D02*
G37*
G36*
X92928D02*
X92251D01*
Y83058D01*
X92928D01*
Y83685D01*
D02*
G37*
G36*
Y82804D02*
X92251D01*
Y82177D01*
X92928D01*
Y82804D01*
D02*
G37*
G36*
X97528Y81957D02*
X96901D01*
Y81280D01*
X97528D01*
Y81957D01*
D02*
G37*
G36*
X86057Y82804D02*
X85380D01*
Y82177D01*
X86057D01*
Y82804D01*
D02*
G37*
G36*
X52480Y76835D02*
X51626D01*
X50772D01*
Y76533D01*
Y76439D01*
X51626D01*
X52480D01*
Y76533D01*
Y76835D01*
D02*
G37*
G36*
Y77485D02*
X51626D01*
X50772D01*
Y77183D01*
Y77089D01*
X51626D01*
X52480D01*
Y77183D01*
Y77485D01*
D02*
G37*
G36*
Y76185D02*
X51626D01*
X50772D01*
Y75883D01*
Y75789D01*
X51626D01*
Y75662D01*
D01*
Y75789D01*
X52480D01*
Y75883D01*
Y76185D01*
D02*
G37*
G36*
X51499Y75535D02*
X50772D01*
Y75233D01*
X51499D01*
Y75535D01*
D02*
G37*
G36*
X52480D02*
X51753D01*
Y75233D01*
X52480D01*
Y75535D01*
D02*
G37*
G36*
X60833Y78528D02*
X60206D01*
Y77851D01*
X60833D01*
Y78528D01*
D02*
G37*
G36*
X52480Y78041D02*
X51753D01*
Y77739D01*
X52480D01*
Y78041D01*
D02*
G37*
G36*
X106045Y84439D02*
X105163Y84074D01*
X104798Y83192D01*
X105163Y82310D01*
X105770Y82059D01*
Y78020D01*
X105418D01*
Y77618D01*
X104436D01*
Y77970D01*
X103082D01*
Y76716D01*
X104436D01*
Y77068D01*
X105418D01*
Y76701D01*
X105418Y76666D01*
X105334Y76447D01*
X105291D01*
Y75770D01*
X106045D01*
X106799D01*
Y76447D01*
X106756D01*
X106672Y76666D01*
X106672Y76701D01*
Y78020D01*
X106320D01*
Y82059D01*
X106927Y82310D01*
X107292Y83192D01*
X106927Y84074D01*
X106045Y84439D01*
D02*
G37*
G36*
X51499Y78041D02*
X50772D01*
Y77739D01*
X51499D01*
Y78041D01*
D02*
G37*
G36*
X84573Y75671D02*
Y74663D01*
X84883D01*
Y75286D01*
X84755Y75595D01*
X84573Y75671D01*
D02*
G37*
G36*
X100281Y74422D02*
X99604D01*
Y73795D01*
X100281D01*
Y74422D01*
D02*
G37*
G36*
X96385Y76242D02*
X95131D01*
Y74888D01*
X95483D01*
Y73758D01*
X95056D01*
Y73235D01*
X94929D01*
Y72883D01*
X95758D01*
X96587D01*
Y73235D01*
X96460D01*
Y73758D01*
X96033D01*
Y74888D01*
X96385D01*
Y76242D01*
D02*
G37*
G36*
X84883Y74409D02*
X84573D01*
Y73401D01*
X84755Y73477D01*
X84883Y73786D01*
Y74409D01*
D02*
G37*
G36*
X105918Y75516D02*
X105291D01*
Y74839D01*
X105918D01*
Y75516D01*
D02*
G37*
G36*
X106799D02*
X106172D01*
Y74839D01*
X106799D01*
Y75516D01*
D02*
G37*
G36*
X98544Y75438D02*
X97917D01*
Y74761D01*
X98544D01*
Y75438D01*
D02*
G37*
G36*
X100281Y75303D02*
X99604D01*
Y74676D01*
X100281D01*
Y75303D01*
D02*
G37*
G36*
X97663Y75438D02*
X97036D01*
Y74761D01*
X97663D01*
Y75438D01*
D02*
G37*
G36*
X59760Y80405D02*
X58413D01*
Y79058D01*
X59760D01*
Y80405D01*
D02*
G37*
G36*
X103258D02*
X101911D01*
Y79058D01*
X103258D01*
Y80405D01*
D02*
G37*
G36*
X58159D02*
X56812D01*
Y79058D01*
X58159D01*
Y80405D01*
D02*
G37*
G36*
X52839D02*
X51492D01*
Y79058D01*
X52839D01*
Y80405D01*
D02*
G37*
G36*
X54440D02*
X53093D01*
Y79058D01*
X54440D01*
Y80405D01*
D02*
G37*
G36*
X85979Y79925D02*
X85352D01*
Y79248D01*
X85979D01*
Y79925D01*
D02*
G37*
G36*
X88138D02*
X87511D01*
Y79248D01*
X88138D01*
Y79925D01*
D02*
G37*
G36*
X110179Y80405D02*
X108832D01*
Y79058D01*
X110179D01*
Y80405D01*
D02*
G37*
G36*
X104859D02*
X103512D01*
Y79058D01*
X104859D01*
Y80405D01*
D02*
G37*
G36*
X108578D02*
X107231D01*
Y79058D01*
X108578D01*
Y80405D01*
D02*
G37*
G36*
X82719Y79375D02*
X82042D01*
Y78748D01*
X82719D01*
Y79375D01*
D02*
G37*
%LPD*%
D10*
X96774Y81153D02*
D03*
Y79453D02*
D03*
X67691Y71755D02*
D03*
Y70055D02*
D03*
X65405Y64770D02*
D03*
Y66470D02*
D03*
X69977Y78916D02*
D03*
Y77216D02*
D03*
X107188Y65913D02*
D03*
Y64213D02*
D03*
X109347Y65962D02*
D03*
Y64262D02*
D03*
X67818Y78916D02*
D03*
Y77216D02*
D03*
X86106Y79121D02*
D03*
Y77421D02*
D03*
X58547Y74373D02*
D03*
Y76073D02*
D03*
X90424Y79121D02*
D03*
Y77421D02*
D03*
X65405Y71755D02*
D03*
Y70055D02*
D03*
X109220Y69547D02*
D03*
Y71247D02*
D03*
X92583Y79121D02*
D03*
Y77421D02*
D03*
X65532Y78867D02*
D03*
Y77167D02*
D03*
X67691Y64770D02*
D03*
Y66470D02*
D03*
X88265Y79121D02*
D03*
Y77421D02*
D03*
X63246Y78916D02*
D03*
Y77216D02*
D03*
X94615Y81153D02*
D03*
Y79453D02*
D03*
X69977Y84201D02*
D03*
Y82501D02*
D03*
X67818Y84201D02*
D03*
Y82501D02*
D03*
X107188Y69547D02*
D03*
Y71247D02*
D03*
X97282Y58928D02*
D03*
Y60628D02*
D03*
X99314Y58928D02*
D03*
Y60628D02*
D03*
X102616Y58752D02*
D03*
Y60452D02*
D03*
X60960Y77724D02*
D03*
Y76024D02*
D03*
X62611Y58879D02*
D03*
Y60579D02*
D03*
X105410Y58674D02*
D03*
Y60374D02*
D03*
X60579Y58879D02*
D03*
Y60579D02*
D03*
X67691Y59260D02*
D03*
Y60960D02*
D03*
X65405Y59260D02*
D03*
Y60960D02*
D03*
X97917Y71755D02*
D03*
Y70055D02*
D03*
X106045Y75643D02*
D03*
Y77343D02*
D03*
X97790Y75565D02*
D03*
Y77265D02*
D03*
X95758Y75565D02*
D03*
Y77265D02*
D03*
D11*
X109347Y60452D02*
D03*
X107647D02*
D03*
X81915Y79502D02*
D03*
X80215D02*
D03*
X81915Y81534D02*
D03*
X80215D02*
D03*
X92124Y82931D02*
D03*
X90424D02*
D03*
X86184D02*
D03*
X87884D02*
D03*
X109396Y58420D02*
D03*
X107696D02*
D03*
X83615Y83947D02*
D03*
X81915D02*
D03*
Y86233D02*
D03*
X83615D02*
D03*
X75770Y80645D02*
D03*
X77470D02*
D03*
X102059Y77343D02*
D03*
X103759D02*
D03*
X94058Y70231D02*
D03*
X95758D02*
D03*
X94058Y68199D02*
D03*
X95758D02*
D03*
X100408Y74549D02*
D03*
X102108D02*
D03*
X100408Y72517D02*
D03*
X102108D02*
D03*
X94107Y66040D02*
D03*
X95807D02*
D03*
X94107Y63881D02*
D03*
X95807D02*
D03*
D12*
X62103Y70101D02*
D03*
D13*
X59563D02*
D03*
X57023D02*
D03*
X54483D02*
D03*
X51943D02*
D03*
X62103Y65151D02*
D03*
X59563D02*
D03*
X57023D02*
D03*
X54483D02*
D03*
X51943D02*
D03*
D14*
X98552Y65019D02*
D03*
Y63119D02*
D03*
X100952Y65019D02*
D03*
Y64069D02*
D03*
X88913Y72070D02*
D03*
Y70170D02*
D03*
X91313Y72070D02*
D03*
Y71120D02*
D03*
D15*
X100952Y63119D02*
D03*
X91313Y70170D02*
D03*
D16*
X84446Y74536D02*
D03*
X83946D02*
D03*
X83446D02*
D03*
X82946D02*
D03*
X82446D02*
D03*
X81946D02*
D03*
X81446D02*
D03*
X80946D02*
D03*
X80446D02*
D03*
X79946D02*
D03*
X79446D02*
D03*
X78946D02*
D03*
X78446D02*
D03*
X77946D02*
D03*
X77446D02*
D03*
X76946D02*
D03*
X76446D02*
D03*
X75946D02*
D03*
X75446D02*
D03*
X74946D02*
D03*
X74446D02*
D03*
X73946D02*
D03*
X73446D02*
D03*
X72946D02*
D03*
X72446D02*
D03*
Y59436D02*
D03*
X72946D02*
D03*
X73446D02*
D03*
X73946D02*
D03*
X74446D02*
D03*
X74946D02*
D03*
X75446D02*
D03*
X75946D02*
D03*
X76446D02*
D03*
X76946D02*
D03*
X77446D02*
D03*
X77946D02*
D03*
X78446D02*
D03*
X78946D02*
D03*
X79446D02*
D03*
X79946D02*
D03*
X80446D02*
D03*
X80946D02*
D03*
X81446D02*
D03*
X81946D02*
D03*
X82446D02*
D03*
X82946D02*
D03*
X83446D02*
D03*
X83946D02*
D03*
X84446D02*
D03*
D17*
X70896Y72986D02*
D03*
Y72486D02*
D03*
Y71986D02*
D03*
Y71486D02*
D03*
Y70986D02*
D03*
Y70486D02*
D03*
Y69986D02*
D03*
Y69486D02*
D03*
Y68986D02*
D03*
Y68486D02*
D03*
Y67986D02*
D03*
Y67486D02*
D03*
Y66986D02*
D03*
Y66486D02*
D03*
Y65986D02*
D03*
Y65486D02*
D03*
Y64986D02*
D03*
Y64486D02*
D03*
Y63986D02*
D03*
Y63486D02*
D03*
Y62986D02*
D03*
Y62486D02*
D03*
Y61986D02*
D03*
Y61486D02*
D03*
Y60986D02*
D03*
X85996D02*
D03*
Y61486D02*
D03*
Y61986D02*
D03*
Y62486D02*
D03*
Y62986D02*
D03*
Y63486D02*
D03*
Y63986D02*
D03*
Y64486D02*
D03*
Y64986D02*
D03*
Y65486D02*
D03*
Y65986D02*
D03*
Y66486D02*
D03*
Y66986D02*
D03*
Y67486D02*
D03*
Y67986D02*
D03*
Y68486D02*
D03*
Y68986D02*
D03*
Y69486D02*
D03*
Y69986D02*
D03*
Y70486D02*
D03*
Y70986D02*
D03*
Y71486D02*
D03*
Y71986D02*
D03*
Y72486D02*
D03*
Y72986D02*
D03*
D18*
X51626Y77612D02*
D03*
Y76962D02*
D03*
Y76312D02*
D03*
Y75662D02*
D03*
X55626Y77612D02*
D03*
Y76962D02*
D03*
Y76312D02*
D03*
Y75662D02*
D03*
D19*
Y83192D02*
D03*
X106045D02*
D03*
D20*
X58286Y80532D02*
D03*
Y85852D02*
D03*
X52966Y80532D02*
D03*
Y85852D02*
D03*
X108705Y80532D02*
D03*
Y85852D02*
D03*
X103385Y80532D02*
D03*
Y85852D02*
D03*
D21*
X51440Y58052D02*
D03*
X55626Y57925D02*
D03*
D22*
X52390Y58052D02*
D03*
X53340D02*
D03*
X51440Y60452D02*
D03*
X53340D02*
D03*
X56576Y57925D02*
D03*
X57526D02*
D03*
X55626Y60325D02*
D03*
X57526D02*
D03*
D23*
X93608Y73406D02*
D03*
Y72756D02*
D03*
Y72106D02*
D03*
X95758D02*
D03*
Y72756D02*
D03*
Y73406D02*
D03*
D24*
X76454Y78330D02*
D03*
X77454D02*
D03*
X76454Y78740D02*
D03*
X77454D02*
D03*
D25*
X100711Y68961D02*
D03*
D26*
X99949Y67886D02*
D03*
D27*
X100449D02*
D03*
X100949D02*
D03*
X101449D02*
D03*
X99949Y70036D02*
D03*
X100449D02*
D03*
X100949D02*
D03*
X101449D02*
D03*
D28*
X67691Y59260D02*
X68852D01*
X65405D02*
X67691D01*
X69311Y58801D02*
X69342D01*
X68852Y59260D02*
X69311Y58801D01*
X67818Y84201D02*
X69977D01*
X73787D01*
X92202Y56642D02*
Y58687D01*
X90043Y60846D02*
X92202Y58687D01*
X95631Y61214D02*
X96696D01*
X97282Y60628D01*
X77446Y74536D02*
X77455Y74545D01*
X78535Y83820D02*
X79883D01*
X80206Y83497D01*
X85996Y77311D02*
X86106Y77421D01*
X88265D01*
X90424D02*
X92583D01*
X94615Y77597D02*
Y79453D01*
X96774D01*
X87884Y82931D02*
X90424D01*
X77946Y74536D02*
Y75914D01*
X78740Y76708D01*
X83439D01*
X76446Y74536D02*
Y75827D01*
X75946Y76327D02*
X76446Y75827D01*
X70866Y76327D02*
X75946D01*
X69977Y77216D02*
X70866Y76327D01*
X67818Y77216D02*
X69977D01*
X75946Y74536D02*
Y75692D01*
X75692Y75946D02*
X75946Y75692D01*
X66753Y75946D02*
X75692D01*
X65532Y77167D02*
X66753Y75946D01*
X63295Y77167D02*
X65532D01*
X63246Y77216D02*
X63295Y77167D01*
X72946Y72494D02*
Y74536D01*
Y72494D02*
X72974Y72466D01*
X71423Y82501D02*
X71501Y82423D01*
X67818Y82501D02*
X69977D01*
X71423D01*
X65405Y66470D02*
X65421Y66486D01*
X67691Y68580D02*
X68785Y67486D01*
X67691Y68580D02*
Y70055D01*
X65405D02*
X67691D01*
X65405Y60960D02*
X65431Y60986D01*
X72946Y59436D02*
Y61420D01*
X72898Y61468D02*
X72946Y61420D01*
X74946Y59436D02*
Y61452D01*
X74930Y61468D02*
X74946Y61452D01*
X80946Y59436D02*
Y61388D01*
X97282Y60628D02*
X99314D01*
X101600Y61595D02*
X102108D01*
X102616Y61087D01*
Y60452D02*
Y61087D01*
X83946Y59436D02*
Y61340D01*
X62484Y53975D02*
X65659Y57150D01*
X79446Y57983D02*
Y59436D01*
X65024Y53975D02*
X67818Y56769D01*
X81446Y57570D02*
Y59436D01*
X67564Y53975D02*
X69977Y56388D01*
X81946Y57435D02*
Y59436D01*
X70104Y53975D02*
X72136Y56007D01*
X82446Y57396D02*
Y59436D01*
X72644Y53975D02*
X74295Y55626D01*
X81215D02*
X82946Y57357D01*
Y59436D01*
X75184Y53975D02*
X76454Y55245D01*
X65659Y57150D02*
X78613D01*
X79446Y57983D01*
X81407Y55245D02*
X83446Y57284D01*
Y59436D01*
X81057Y56007D02*
X82446Y57396D01*
X80899Y56388D02*
X81946Y57435D01*
X80645Y56769D02*
X81446Y57570D01*
X67818Y56769D02*
X80645D01*
X69977Y56388D02*
X80899D01*
X72136Y56007D02*
X81057D01*
X74295Y55626D02*
X81215D01*
X76454Y55245D02*
X81407D01*
X88011Y56642D02*
Y61976D01*
X85996Y62486D02*
X87501D01*
X87884Y53975D02*
Y55976D01*
X88392Y56484D01*
X87501Y62486D02*
X88011Y61976D01*
X82804Y53975D02*
X87630Y58801D01*
Y61595D01*
X87239Y61986D02*
X87630Y61595D01*
X85996Y61986D02*
X87239D01*
X85344Y53975D02*
X88011Y56642D01*
X88392Y56484D02*
Y62357D01*
X87763Y62986D02*
X88392Y62357D01*
X85996Y62986D02*
X87763D01*
X90424Y53975D02*
Y55118D01*
X88773Y56769D02*
X90424Y55118D01*
X88773Y56769D02*
Y62515D01*
X87802Y63486D02*
X88773Y62515D01*
X85996Y63486D02*
X87802D01*
X85996Y63986D02*
X87841D01*
X89154Y62673D01*
Y57150D02*
Y62673D01*
X85996Y64486D02*
X88362D01*
X88392Y64516D01*
X85996Y64986D02*
X87846D01*
X88392Y65532D01*
X87330Y65486D02*
X88392Y66548D01*
X79946Y74536D02*
Y76061D01*
X79934Y76073D02*
X79946Y76061D01*
X80264Y86233D02*
X81915D01*
Y83947D02*
Y86233D01*
X58547Y76073D02*
X60911D01*
X60960Y76024D01*
X79946Y59436D02*
Y64199D01*
X79121Y65024D02*
X79946Y64199D01*
X55626Y77612D02*
Y83192D01*
X82446Y71986D02*
X85996D01*
X82423Y72009D02*
X82446Y71986D01*
X55626Y76312D02*
X56911D01*
X107188Y71247D02*
X109220D01*
X105664D02*
X107188D01*
X89154Y57150D02*
X90551Y55753D01*
X107647Y58469D02*
Y60452D01*
Y58469D02*
X107696Y58420D01*
X55626Y60325D02*
Y61595D01*
X56007Y61976D01*
X69106Y61486D02*
X70896D01*
X69088Y61468D02*
X69106Y61486D01*
X65405Y60960D02*
X67691D01*
X57277Y67691D02*
X58293D01*
X57023Y67945D02*
X57277Y67691D01*
X57023Y67945D02*
Y70101D01*
X69586Y61986D02*
X70896D01*
X69088Y62484D02*
X69586Y61986D01*
X67945Y62484D02*
X69088D01*
X69848Y62486D02*
X70896D01*
X68961Y63373D02*
X69848Y62486D01*
X64770Y63373D02*
X68961D01*
X63881Y64262D02*
X64770Y63373D01*
X63881Y64262D02*
Y69342D01*
X63122Y70101D02*
X63881Y69342D01*
X62103Y70101D02*
X63122D01*
X73946Y58325D02*
Y59436D01*
X73787Y58166D02*
X73946Y58325D01*
X64770Y58166D02*
X73787D01*
X59563Y70101D02*
X60455D01*
X60960Y69596D01*
Y62992D02*
Y69596D01*
Y62992D02*
X61849Y62103D01*
X63500D01*
X64008Y61595D01*
Y58928D02*
Y61595D01*
Y58928D02*
X64770Y58166D01*
X74446Y58190D02*
Y59436D01*
X73914Y57658D02*
X74446Y58190D01*
X63627Y57658D02*
X73914D01*
X63246Y57277D02*
X63627Y57658D01*
X54610Y67691D02*
X55626D01*
X54483Y67564D02*
X54610Y67691D01*
X54483Y65151D02*
Y67564D01*
X60960Y76024D02*
X63246D01*
X65835D01*
X70896Y59847D02*
Y60986D01*
X70485Y59436D02*
X70896Y59847D01*
X69215Y59436D02*
X70485D01*
X67691Y60960D02*
X69215Y59436D01*
X56007Y61976D02*
X60198D01*
X60579Y61595D01*
Y60579D02*
Y61595D01*
Y58879D02*
X62611D01*
X55626Y60325D02*
X56642Y59309D01*
X59055Y59690D02*
Y60325D01*
X58674Y59309D02*
X59055Y59690D01*
X66675Y78359D02*
X67818Y77216D01*
X66675Y78359D02*
Y80264D01*
X71277Y59847D02*
X72898Y61468D01*
X70896Y59847D02*
X71277D01*
X72898Y61468D02*
X74930D01*
X77138Y85217D02*
X78535Y83820D01*
X64897Y85217D02*
X77138D01*
X83615Y86233D02*
X84836Y85012D01*
X80206Y82677D02*
Y83497D01*
X86360Y81407D02*
X87884Y82931D01*
X84963Y81407D02*
X86360D01*
X84379Y80823D02*
X84963Y81407D01*
X84379Y80264D02*
Y80823D01*
Y77648D02*
Y80264D01*
X83439Y76708D02*
X84379Y77648D01*
X90424Y75819D02*
Y77421D01*
X85996Y72986D02*
Y74041D01*
Y77311D01*
X90424Y74041D02*
Y75819D01*
X81089Y64199D02*
X83947Y61341D01*
X79946Y64199D02*
X81089D01*
X85996Y59580D02*
Y60986D01*
X85979Y59563D02*
X85996Y59580D01*
X84818Y61486D02*
X85996D01*
X80264Y65151D02*
X81153D01*
X84818Y61486D01*
X105410Y60374D02*
X107569D01*
X107647Y60452D01*
X82993Y66486D02*
X85996D01*
X82931Y66548D02*
X82993Y66486D01*
X84836Y83312D02*
Y85012D01*
X70879Y74536D02*
X72446D01*
X65835Y76024D02*
X68072Y73787D01*
X71501D01*
X72263Y73025D01*
X80206Y82677D02*
X84201D01*
X84836Y83312D01*
X83615Y83947D02*
Y85012D01*
X71374Y59055D02*
X72065D01*
X72446Y59436D01*
X69983Y62986D02*
X70896D01*
X68199Y64770D02*
X69983Y62986D01*
X67691Y64770D02*
X68199D01*
X80446Y57857D02*
Y59436D01*
Y57857D02*
X80518Y57785D01*
X57138Y59309D02*
X57139Y59310D01*
X57913D01*
X57914Y59309D01*
X58674D01*
X56642D02*
X57138D01*
X72263Y69850D02*
Y73025D01*
Y69850D02*
X77089Y65024D01*
X79121D01*
X70896Y66986D02*
X73730D01*
X84446Y57413D02*
Y59436D01*
Y57413D02*
X84455Y57404D01*
X56576Y57925D02*
Y58208D01*
X52390Y58052D02*
X53340D01*
X53861D01*
X54738Y58929D01*
X56483D01*
X56484Y58928D01*
X56576Y57925D02*
X57526D01*
X58433D01*
X59055Y58547D01*
X56484Y58928D02*
X58674D01*
X59055Y58547D01*
X106045Y77343D02*
Y83192D01*
X103759Y77343D02*
X106045D01*
X99822D02*
X102059D01*
X95758Y77265D02*
X95836Y77343D01*
X95758Y73406D02*
Y75565D01*
Y68199D02*
Y70231D01*
Y72106D01*
X77454Y77090D02*
Y78330D01*
Y77090D02*
X77455Y77089D01*
Y74545D02*
Y77089D01*
X77454Y78740D02*
Y80629D01*
X77470Y80645D01*
X79326D01*
X80206Y81525D01*
X80215Y81534D01*
X80206Y79511D02*
Y81525D01*
X102059Y72566D02*
X102108Y72517D01*
X95836Y77343D02*
X99822D01*
X102059Y72566D02*
Y77343D01*
X100449Y70036D02*
Y72476D01*
X100408Y72517D02*
X100449Y72476D01*
X97936Y70036D02*
X99949D01*
X97917Y70055D02*
X97936Y70036D01*
X91313Y72070D02*
X93572D01*
X93608Y72106D01*
X85996Y70986D02*
X87496D01*
X87884Y71374D01*
Y74041D01*
X85996D02*
X87884D01*
X90297Y71120D02*
X91313D01*
X90043Y71374D02*
X90297Y71120D01*
X90043Y71374D02*
Y74041D01*
X87884D02*
X90043D01*
X90424D01*
X97653Y67886D02*
X99949D01*
X95807Y66040D02*
X97653Y67886D01*
X95807Y63881D02*
Y66040D01*
X102992Y65019D02*
X105283Y67310D01*
X88913Y71615D02*
Y72070D01*
Y71615D02*
X90043Y70485D01*
X96266Y62484D02*
X96901Y63119D01*
X90678Y62484D02*
X96266D01*
X90043Y61849D02*
X90678Y62484D01*
X90043Y60846D02*
Y61849D01*
Y70485D01*
X94869Y55753D02*
X95504Y55118D01*
Y53975D02*
Y55118D01*
X90551Y55753D02*
X94869D01*
X85996Y65486D02*
X87330D01*
X85996Y65986D02*
X87195D01*
X87476Y66648D02*
X88392Y67564D01*
X87476Y66267D02*
Y66648D01*
X87195Y65986D02*
X87476Y66267D01*
X85996Y67486D02*
X87298D01*
X88392Y68580D01*
X100949Y65022D02*
X100952Y65019D01*
X100949Y65022D02*
Y67886D01*
X100952Y65019D02*
X102992D01*
X100952Y64069D02*
X102428D01*
X103124Y63373D01*
X106348D01*
X107188Y64213D01*
X96901Y64389D02*
X97536Y65024D01*
X97541Y65019D01*
X98552D01*
X96901Y63119D02*
Y64389D01*
X100952Y62344D02*
Y63119D01*
X100838Y62230D02*
X100952Y62344D01*
X99695Y62230D02*
X100838D01*
X78946Y59436D02*
Y61420D01*
X79248Y61722D01*
X100449Y66413D02*
Y67886D01*
X99822Y65786D02*
X100449Y66413D01*
X68785Y67486D02*
X70896D01*
X92202Y73406D02*
X93608D01*
X91313Y68453D02*
Y70170D01*
X78446Y62063D02*
X79248Y62865D01*
X78446Y59436D02*
Y62063D01*
X77946Y59436D02*
Y63722D01*
X77978Y63754D01*
X77446Y59436D02*
Y61619D01*
X76962Y62103D02*
X77446Y61619D01*
X76962Y62103D02*
Y63754D01*
X95758Y66089D02*
Y68199D01*
Y66089D02*
X95807Y66040D01*
X96901Y69342D02*
Y70358D01*
X95758Y68199D02*
X96901Y69342D01*
X91313Y72070D02*
Y74627D01*
X91567Y74881D01*
X88913Y69583D02*
Y70170D01*
Y69583D02*
X89408Y69088D01*
Y68326D02*
Y69088D01*
X69977Y78916D02*
X71452D01*
X65421Y66486D02*
X70896D01*
X102616Y60452D02*
X105410D01*
X104902Y64262D02*
X109347D01*
X80137Y79442D02*
X80206Y79511D01*
Y81525D02*
Y82677D01*
D29*
X57404Y53975D02*
Y56007D01*
X59944D01*
Y53975D02*
Y56007D01*
X51435D02*
Y57925D01*
X53335Y56012D02*
X53340Y56007D01*
X55626D01*
X57404D01*
X57526Y56129D01*
X51435Y56007D02*
X53340D01*
X50546Y72771D02*
X51816Y74041D01*
X55118D02*
X55626Y74549D01*
Y75662D01*
X51435Y62357D02*
X54991D01*
X57023Y64389D01*
Y65151D01*
X54483Y70101D02*
Y74041D01*
X51816D02*
X54483D01*
X55118D01*
X51943Y67945D02*
X52197Y67691D01*
X53213D01*
X51943Y67945D02*
Y70101D01*
X55626Y74549D02*
X57023D01*
Y73660D02*
Y74549D01*
Y73660D02*
X57531Y73152D01*
X62611D01*
X63246Y73787D01*
Y76024D01*
Y77216D01*
X62103Y78359D02*
X63246Y77216D01*
X62103Y78359D02*
Y82423D01*
X64897Y85217D01*
Y83566D02*
Y85217D01*
Y83566D02*
X65962Y82501D01*
X67818D01*
X55626Y56007D02*
Y57925D01*
X50546Y63246D02*
Y72771D01*
Y63246D02*
X51435Y62357D01*
Y60325D02*
Y62357D01*
D30*
X69342Y58801D02*
D03*
X73787Y84201D02*
D03*
X92202Y56642D02*
D03*
X94615Y77597D02*
D03*
X88392Y68580D02*
D03*
X71501Y82423D02*
D03*
X72974Y72466D02*
D03*
X104902Y64262D02*
D03*
X72898Y61468D02*
D03*
X74930D02*
D03*
X95631Y61214D02*
D03*
X80946Y61388D02*
D03*
X101600Y61595D02*
D03*
X83947Y61341D02*
D03*
X88392Y64516D02*
D03*
Y65532D02*
D03*
Y66548D02*
D03*
X79934Y76073D02*
D03*
X80264Y86233D02*
D03*
X82423Y72009D02*
D03*
X56911Y76312D02*
D03*
X105664Y71247D02*
D03*
X53213Y67691D02*
D03*
X55626D02*
D03*
X58293D02*
D03*
X67945Y62484D02*
D03*
X69088Y61468D02*
D03*
X63246Y57277D02*
D03*
X59055Y60325D02*
D03*
X66675Y80264D02*
D03*
X69037Y67513D02*
D03*
X69164Y66497D02*
D03*
X84379Y80264D02*
D03*
X90424Y75819D02*
D03*
X80264Y65151D02*
D03*
X85979Y59563D02*
D03*
X82931Y66548D02*
D03*
X70879Y74536D02*
D03*
X83615Y85012D02*
D03*
X71374Y59055D02*
D03*
X80518Y57785D02*
D03*
X59055Y58547D02*
D03*
X73730Y66986D02*
D03*
X84455Y57404D02*
D03*
X88392Y67564D02*
D03*
X79248Y62865D02*
D03*
X76962Y63754D02*
D03*
X77978D02*
D03*
X79248Y61722D02*
D03*
X99822Y65786D02*
D03*
X99695Y62230D02*
D03*
X92202Y73406D02*
D03*
X91313Y68453D02*
D03*
X79248Y67945D02*
D03*
X96901Y70358D02*
D03*
X89408Y68326D02*
D03*
X71374Y78916D02*
D03*
D31*
X105283Y67310D02*
D03*
X61976Y85217D02*
D03*
X64897D02*
D03*
X99822Y77343D02*
D03*
X99695Y81153D02*
D03*
X91567Y74881D02*
D03*
D32*
X105664Y53975D02*
D03*
D33*
X103124D02*
D03*
X100584D02*
D03*
X98044D02*
D03*
X95504D02*
D03*
X92964D02*
D03*
X90424D02*
D03*
X87884D02*
D03*
X85344D02*
D03*
X82804D02*
D03*
X80264D02*
D03*
X77724D02*
D03*
X75184D02*
D03*
X72644D02*
D03*
X70104D02*
D03*
X67564D02*
D03*
X65024D02*
D03*
X62484D02*
D03*
X59944D02*
D03*
X57404D02*
D03*
X54864D02*
D03*
X52324D02*
D03*
D34*
X109347Y83566D02*
D03*
X108458Y78232D02*
D03*
X109347Y76454D02*
D03*
X108458Y74676D02*
D03*
X109347Y72898D02*
D03*
X108458Y67564D02*
D03*
X109347Y62230D02*
D03*
X108458Y56896D02*
D03*
X109347Y55118D02*
D03*
X108458Y53340D02*
D03*
X106680Y85344D02*
D03*
X107569Y76454D02*
D03*
Y72898D02*
D03*
Y62230D02*
D03*
X106680Y56896D02*
D03*
X107569Y55118D02*
D03*
X104902Y78232D02*
D03*
X105791Y72898D02*
D03*
Y69342D02*
D03*
X104013Y83566D02*
D03*
Y72898D02*
D03*
Y62230D02*
D03*
Y58674D02*
D03*
X101346Y85344D02*
D03*
X102235Y83566D02*
D03*
X101346Y81788D02*
D03*
X99568Y85344D02*
D03*
X100457Y83566D02*
D03*
X99568Y56896D02*
D03*
X97790Y85344D02*
D03*
X98679Y83566D02*
D03*
X96012Y85344D02*
D03*
X96901Y83566D02*
D03*
X96012Y56896D02*
D03*
X96901Y55118D02*
D03*
X94234Y85344D02*
D03*
X95123Y83566D02*
D03*
Y58674D02*
D03*
X94234Y56896D02*
D03*
X92456Y85344D02*
D03*
X93345Y58674D02*
D03*
X90678Y85344D02*
D03*
Y56896D02*
D03*
X88900Y85344D02*
D03*
Y81788D02*
D03*
X87122Y85344D02*
D03*
Y56896D02*
D03*
X83566Y81788D02*
D03*
X84455Y76454D02*
D03*
X83566Y67564D02*
D03*
X81788D02*
D03*
X79121Y69342D02*
D03*
X77343Y83566D02*
D03*
Y72898D02*
D03*
X76454Y67564D02*
D03*
X75565Y83566D02*
D03*
Y72898D02*
D03*
X72898Y81788D02*
D03*
Y78232D02*
D03*
X73787Y65786D02*
D03*
X69342Y74676D02*
D03*
Y71120D02*
D03*
X65786Y74676D02*
D03*
X64008Y71120D02*
D03*
X62230Y74676D02*
D03*
X60452Y81788D02*
D03*
Y74676D02*
D03*
X61341Y55118D02*
D03*
X57785Y83566D02*
D03*
X56896Y78232D02*
D03*
X55118Y85344D02*
D03*
X56007Y72898D02*
D03*
X53340Y78232D02*
D03*
X54229Y76454D02*
D03*
X52451Y83566D02*
D03*
Y72898D02*
D03*
X50673Y83566D02*
D03*
Y80010D02*
D03*
Y55118D02*
D03*
M02*
