G04 Layer_Color=255*
%FSLAX43Y43*%
%MOMM*%
G71*
G01*
G75*
%ADD30C,0.762*%
%ADD31C,1.524*%
%ADD32R,1.500X1.500*%
%ADD33C,1.500*%
D30*
X69342Y58801D02*
D03*
X73787Y84201D02*
D03*
X92202Y56642D02*
D03*
X94615Y77597D02*
D03*
X88392Y68580D02*
D03*
X71501Y82423D02*
D03*
X72974Y72466D02*
D03*
X104902Y64262D02*
D03*
X72898Y61468D02*
D03*
X74930D02*
D03*
X95631Y61214D02*
D03*
X80946Y61388D02*
D03*
X101600Y61595D02*
D03*
X83947Y61341D02*
D03*
X88392Y64516D02*
D03*
Y65532D02*
D03*
Y66548D02*
D03*
X79934Y76073D02*
D03*
X80264Y86233D02*
D03*
X82423Y72009D02*
D03*
X56911Y76312D02*
D03*
X105664Y71247D02*
D03*
X53213Y67691D02*
D03*
X55626D02*
D03*
X58293D02*
D03*
X67945Y62484D02*
D03*
X69088Y61468D02*
D03*
X63246Y57277D02*
D03*
X59055Y60325D02*
D03*
X66675Y80264D02*
D03*
X69037Y67513D02*
D03*
X69164Y66497D02*
D03*
X84379Y80264D02*
D03*
X90424Y75819D02*
D03*
X80264Y65151D02*
D03*
X85979Y59563D02*
D03*
X82931Y66548D02*
D03*
X70879Y74536D02*
D03*
X83615Y85012D02*
D03*
X71374Y59055D02*
D03*
X80518Y57785D02*
D03*
X59055Y58547D02*
D03*
X73730Y66986D02*
D03*
X84455Y57404D02*
D03*
X88392Y67564D02*
D03*
X79248Y62865D02*
D03*
X76962Y63754D02*
D03*
X77978D02*
D03*
X79248Y61722D02*
D03*
X99822Y65786D02*
D03*
X99695Y62230D02*
D03*
X92202Y73406D02*
D03*
X91313Y68453D02*
D03*
X79248Y67945D02*
D03*
X96901Y70358D02*
D03*
X89408Y68326D02*
D03*
X71374Y78916D02*
D03*
D31*
X105283Y67310D02*
D03*
X61976Y85217D02*
D03*
X64897D02*
D03*
X99822Y77343D02*
D03*
X99695Y81153D02*
D03*
X91567Y74881D02*
D03*
D32*
X105664Y53975D02*
D03*
D33*
X103124D02*
D03*
X100584D02*
D03*
X98044D02*
D03*
X95504D02*
D03*
X92964D02*
D03*
X90424D02*
D03*
X87884D02*
D03*
X85344D02*
D03*
X82804D02*
D03*
X80264D02*
D03*
X77724D02*
D03*
X75184D02*
D03*
X72644D02*
D03*
X70104D02*
D03*
X67564D02*
D03*
X65024D02*
D03*
X62484D02*
D03*
X59944D02*
D03*
X57404D02*
D03*
X54864D02*
D03*
X52324D02*
D03*
M02*
