G04 Layer_Physical_Order=2*
G04 Layer_Color=36540*
%FSLAX43Y43*%
%MOMM*%
G71*
G01*
G75*
%ADD28C,0.254*%
%ADD30C,0.762*%
%ADD33C,1.500*%
D28*
X92202Y54737D02*
X92964Y53975D01*
X92202Y54737D02*
Y56642D01*
X94234Y63246D02*
X95631Y61849D01*
Y61214D02*
Y61849D01*
X71501Y82423D02*
X73660D01*
X74930Y81153D01*
Y73152D02*
Y81153D01*
X74244Y72466D02*
X74930Y73152D01*
X72974Y72466D02*
X74244D01*
X80946Y61388D02*
Y62404D01*
X81788Y63246D01*
X94234D01*
X78994Y86233D02*
X80264D01*
X78359Y85598D02*
X78994Y86233D01*
X78359Y77648D02*
Y85598D01*
Y77648D02*
X79934Y76073D01*
X82423Y71831D02*
Y72009D01*
X56911Y76312D02*
X61392Y71831D01*
X82423D01*
X59055Y61468D02*
X69088D01*
X58293Y62230D02*
X59055Y61468D01*
X58293Y62230D02*
Y67691D01*
X57658Y57277D02*
X63246D01*
X55626Y59309D02*
X57658Y57277D01*
X55626Y59309D02*
Y67691D01*
X78994Y59563D02*
X85979D01*
X77724Y58293D02*
X78994Y59563D01*
X77724Y53975D02*
Y58293D01*
X94615Y69596D02*
Y77597D01*
X88392Y68580D02*
X88900Y69088D01*
X94107D01*
X94615Y69596D01*
X77978Y63754D02*
X78740Y64516D01*
X87494D01*
X88129Y63881D01*
X97917D01*
X99822Y65786D01*
X76962Y63754D02*
Y69596D01*
X78232Y70866D01*
X89662D01*
X92202Y73406D01*
D30*
Y56642D02*
D03*
X94615Y77597D02*
D03*
X88392Y68580D02*
D03*
X71501Y82423D02*
D03*
X72974Y72466D02*
D03*
X95631Y61214D02*
D03*
X80946Y61388D02*
D03*
X79934Y76073D02*
D03*
X80264Y86233D02*
D03*
X82423Y72009D02*
D03*
X56911Y76312D02*
D03*
X55626Y67691D02*
D03*
X58293D02*
D03*
X69088Y61468D02*
D03*
X63246Y57277D02*
D03*
X85979Y59563D02*
D03*
X76962Y63754D02*
D03*
X77978D02*
D03*
X99822Y65786D02*
D03*
X92202Y73406D02*
D03*
D33*
X92964Y53975D02*
D03*
X77724D02*
D03*
M02*
