M48
;Layer_Color=9474304
;FILE_FORMAT=4:3
METRIC,LZ
;TYPE=PLATED
T1F00S00C0.254
T2F00S00C0.508
T3F00S00C0.762
T4F00S00C0.900
%
T01
X0087122Y0056896
X0090678
X0094234
X0096012
X0096901Y0055118
X0099568Y0056896
X0104013Y0058674
Y006223
X0107569
X0109347
X0108458Y0067564
X0105791Y0069342
Y0072898
X0107569
X0109347
X0108458Y0074676
X0109347Y0076454
X0107569
X0108458Y0078232
X0104902
X0104013Y0072898
X010668Y0056896
X0108458
X0109347Y0055118
X0107569
X0108458Y005334
X0095123Y0058674
X0093345
X0083566Y0067564
X0081788
X0084455Y0076454
X0077343Y0072898
X0075565
X0076454Y0067564
X0079121Y0069342
X0073787Y0065786
X0069342Y007112
Y0074676
X0065786
X006223
X0060452
X0056007Y0072898
X0052451
X0054229Y0076454
X005334Y0078232
X0056896
X0064008Y007112
X0072898Y0078232
X0061341Y0055118
X0050673
Y008001
Y0083566
X0052451
X0055118Y0085344
X0057785Y0083566
X0060452Y0081788
X0072898
X0075565Y0083566
X0077343
X0083566Y0081788
X00889
Y0085344
X0090678
X0092456
X0094234
X0096012
X009779
X0099568
X0101346
X0102235Y0083566
X0104013
X0100457
X0098679
X0096901
X0095123
X0101346Y0081788
X010668Y0085344
X0109347Y0083566
X0087122Y0085344
T02
X0080518Y0057785
X0080946Y0061388
X0083947Y0061341
X0085979Y0059563
X0084455Y0057404
X0092202Y0056642
X0095631Y0061214
X0099695Y006223
X01016Y0061595
X0104902Y0064262
X0099822Y0065786
X0096901Y0070358
X0091313Y0068453
X0089408Y0068326
X0088392Y006858
Y0067564
Y0066548
Y0065532
Y0064516
X0082931Y0066548
X0080264Y0065151
X0082423Y0072009
X0079934Y0076073
X0090424Y0075819
X0092202Y0073406
X0094615Y0077597
X0105664Y0071247
X0079248Y0067945
Y0062865
Y0061722
X0077978Y0063754
X0076962
X007493Y0061468
X0072898
X0069088
X0067945Y0062484
X0069342Y0058801
X0071374Y0059055
X0069164Y0066497
X0069037Y0067513
X007373Y0066986
X0072974Y0072466
X0070879Y0074536
X0071374Y0078916
X0056911Y0076312
X0055626Y0067691
X0053213
X0058293
X0059055Y0060325
Y0058547
X0063246Y0057277
X0066675Y0080264
X0071501Y0082423
X0073787Y0084201
X0080264Y0086233
X0083615Y0085012
X0084379Y0080264
T03
X0091567Y0074881
X0099822Y0077343
X0105283Y006731
X0064897Y0085217
X0061976
X0099695Y0081153
T04
X0080264Y0053975
X0082804
X0085344
X0087884
X0090424
X0092964
X0095504
X0098044
X0100584
X0103124
X0105664
X0077724
X0075184
X0072644
X0070104
X0067564
X0065024
X0062484
X0059944
X0057404
X0054864
X0052324
M30
