%FSTAX23Y23*%
%MOIN*%
%SFA1B1*%

%IPPOS*%
%ADD36C,0.010000*%
%ADD38C,0.020000*%
%ADD39C,0.030000*%
%ADD43C,0.059055*%
%LNmsp_mcu-1*%
%LPD*%
G54D36*
X02335Y02082D02*
X02835Y02582D01*
X02327Y02172D02*
X02837Y02682D01*
X03517Y02847D02*
X03547Y02817D01*
X03195Y02847D02*
X03517D01*
X0357Y02885D02*
X0364Y02815D01*
X03229Y02885D02*
X0357D01*
X03585Y02915D02*
X03687Y02812D01*
X03257Y02915D02*
X03585D01*
X03915Y02197D02*
X03972D01*
X03765Y02347D02*
X03915Y02197D01*
X03502Y03005D02*
Y0306D01*
X03442Y02945D02*
X03502Y03005D01*
X0264Y02042D02*
X02894Y02297D01*
X02814Y0185D02*
X02943Y0198D01*
X02737Y0185D02*
X02814D01*
X02943Y0198D02*
Y02727D01*
X02917Y019D02*
X03205D01*
X03234Y01927*
Y0246*
X03464Y02347D02*
X03765D01*
X03315Y02495D02*
X03464Y02347D01*
X03064Y02495D02*
X03315D01*
X0395Y02569D02*
X03975Y02594D01*
X03065Y02569D02*
X0395D01*
X02022Y02172D02*
X02327D01*
X02022Y02082D02*
X02335D01*
X0301Y02945D02*
X03442D01*
X02894Y02297D02*
Y028D01*
G54D38*
X04132Y02177D02*
X04133Y02007D01*
X04132Y02177D02*
X04229Y02274D01*
Y02787*
X04502Y0306*
G54D39*
X02562Y02407D03*
X02574Y0232D03*
X04135Y02007D03*
X03547Y02817D03*
X0364Y02815D03*
X03687Y02812D03*
X03195Y02847D03*
X03229Y02885D03*
X03257Y02915D03*
X0264Y02042D03*
X03234Y0246D03*
X02943Y02727D03*
X02917Y019D03*
X02737Y0185D03*
X02837Y02682D03*
X02835Y02582D03*
X03972Y02197D03*
X03975Y02594D03*
X03064Y02495D03*
X03065Y02569D03*
X02022Y02172D03*
Y02082D03*
X02892Y028D03*
X0301Y02945D03*
G54D43*
X03502Y0306D03*
X04502D03*
M02*