%FSTAX23Y23*%
%MOIN*%
%SFA1B1*%

%IPPOS*%
%ADD36C,0.010000*%
%ADD39C,0.030000*%
%ADD40C,0.060000*%
%ADD41C,0.033465*%
%ADD42R,0.059055X0.059055*%
%ADD43C,0.059055*%
%ADD44C,0.098425*%
%LNmsp_mcu-1*%
%LPD*%
G36*
X03601Y03102D02*
X03572Y03091D01*
X0356Y0306*
X03566Y03046*
X03563Y03044*
X03558Y03032*
Y02848*
X0355Y02842*
X03547Y02844*
X03527Y02836*
X03519Y02817*
X03523Y02807*
X03516Y02799*
X03502Y02805*
X03472Y02792*
X03459Y02762*
X03472Y02731*
X03502Y02718*
X03512Y02722*
X03518Y02714*
X03493Y02689*
X03483Y02691*
X03479Y02701*
X0346Y02709*
X0345Y02705*
X03442Y0271*
Y03037*
X03439Y03045*
X03445Y0306*
X03433Y03091*
X03404Y03102*
X03406Y03112*
X03499*
X03501Y03102*
X03495Y031*
X03472Y03091*
X0346Y0306*
X03472Y0303*
X03502Y03018*
X03533Y0303*
X03545Y0306*
X03533Y03091*
X0351Y031*
X03504Y03102*
X03506Y03112*
X03599*
X03601Y03102*
G37*
G36*
X03801D02*
X03772Y03091D01*
X0376Y0306*
X03772Y0303*
X03786Y03024*
Y02315*
X03791Y02304*
X03839Y02256*
X03839Y02252*
X03836Y02246*
X03787*
X03619Y02414*
Y02785*
X03629Y02792*
X0364Y02787*
X03657Y02795*
X03665Y02795*
X03669Y02793*
X03687Y02785*
X03707Y02793*
X03715Y02812*
X03707Y02832*
X03687Y0284*
X0367Y02832*
X03662Y02832*
X03658Y02834*
X0364Y02842*
X03629Y02837*
X03619Y02844*
Y03024*
X03633Y0303*
X03645Y0306*
X03633Y03091*
X03604Y03102*
X03606Y03112*
X03699*
X03701Y03102*
X03695Y031*
X03672Y03091*
X0366Y0306*
X03672Y0303*
X03702Y03018*
X03733Y0303*
X03745Y0306*
X03733Y03091*
X0371Y031*
X03704Y03102*
X03706Y03112*
X03799*
X03801Y03102*
G37*
G36*
X04401D02*
X04372Y03091D01*
X0436Y0306*
X04372Y0303*
X04386Y03024*
Y0272*
X04376Y02718*
X04372Y0273*
X04352Y02738*
X04333Y0273*
X04332Y02727*
X04273*
X04219Y02781*
Y03024*
X04233Y0303*
X04245Y0306*
X04233Y03091*
X04204Y03102*
X04206Y03112*
X04299*
X04301Y03102*
X04295Y031*
X04272Y03091*
X0426Y0306*
X04272Y0303*
X04302Y03018*
X04333Y0303*
X04345Y0306*
X04333Y03091*
X0431Y031*
X04304Y03102*
X04306Y03112*
X04399*
X04401Y03102*
G37*
G36*
X03901D02*
X03872Y03091D01*
X0386Y0306*
X03872Y0303*
X03886Y03024*
Y02741*
X03876Y02736*
X0386Y02743*
X03841Y02735*
X03833Y02715*
X03834Y02714*
X03828Y02707*
X03819Y02709*
Y03024*
X03833Y0303*
X03845Y0306*
X03833Y03091*
X03804Y03102*
X03806Y03112*
X03899*
X03901Y03102*
G37*
G36*
X03886Y0269D02*
Y02367D01*
X03891Y02356*
X03955Y02292*
X03951Y02283*
X03858*
X03847Y02294*
X03849Y02306*
X0386Y0231*
X03868Y0233*
X0386Y02349*
X03857Y0235*
Y02679*
X0386Y02688*
X03876Y02695*
X03886Y0269*
G37*
G36*
X03401Y03102D02*
X03372Y03091D01*
X0336Y0306*
X03372Y0303*
X03402Y03018*
X03409Y03013*
Y02831*
X03401Y02825*
X03399Y02827*
Y02802*
X03389*
Y02827*
X03374Y02821*
X0337Y0281*
X03364Y02803*
X03357Y02805*
X03345Y02811*
X03325Y02803*
X03324Y028*
X03225*
X03209Y02816*
X03211Y02826*
X03214Y02827*
X03222Y02847*
X0322Y02851*
X03227Y02858*
X03229Y02857*
X03248Y02865*
X03256Y02885*
X03264Y02891*
X03277Y02896*
X03285Y02915*
X03277Y02935*
X03257Y02943*
X03238Y02935*
X0323Y02915*
X03222Y02909*
X03209Y02904*
X03201Y02885*
X03203Y0288*
X03196Y02873*
X03195Y02874*
X03175Y02866*
X03174Y02863*
X03164Y02861*
X03094Y02931*
X03082Y02936*
X03042*
X03036Y02944*
X03037Y02945*
X03029Y02965*
X0301Y02973*
X0299Y02965*
X02982Y02945*
X02983Y02944*
X02977Y02936*
X02732*
X02731Y02939*
X02712Y02947*
X02692Y02939*
X02684Y0292*
X02692Y029*
X02702Y02896*
X02705Y02885*
X02675Y02855*
X0267Y02844*
Y02768*
X02668Y02767*
X02656Y02771*
X02653Y02777*
X02639Y02783*
Y02758*
X02634*
Y02753*
X02609*
X02615Y02739*
X02622Y02736*
Y02735*
X02622Y02725*
X02614Y02707*
X02622Y02688*
X02642Y0268*
X02661Y02688*
X02669Y02707*
X02667Y0271*
X02693Y02736*
X02703Y02732*
Y0267*
X02693Y02664*
X02684Y02668*
X02664Y0266*
X02656Y0264*
X0266Y02631*
X02659Y02629*
X02652Y02624*
X02632Y02632*
X02613Y02624*
X02605Y02605*
X02613Y02585*
X02632Y02577*
X02652Y02585*
X02653Y02588*
X02696*
X02707Y02593*
X02731Y02617*
X02736Y02629*
Y02802*
X02769Y02835*
X02885*
X02887Y02825*
X02873Y0282*
X02869Y02808*
X02858*
X02858Y02809*
X02844Y02815*
Y0279*
Y02765*
X02858Y0277*
X02862Y02782*
X02873*
X02873Y02781*
X02885Y02777*
X02893Y0277*
X02901Y02751*
X0292Y02743*
X02922Y02742*
X02916Y02727*
X02924Y02708*
X02943Y027*
X02962Y02708*
X0297Y02727*
X02962Y02746*
X02943Y02754*
X02941Y02755*
X02948Y0277*
X0294Y0279*
X02928Y02795*
X0292Y028*
X02912Y0282*
X02898Y02825*
X029Y02835*
X02985*
X02986Y02832*
X03005Y02824*
X03025Y02832*
X03033Y02852*
X03025Y02871*
X03027Y0288*
X03032Y02892*
X0303Y02895*
X03036Y02903*
X03076*
X03207Y02772*
X03219Y02767*
X03324*
X03325Y02764*
X03345Y02756*
X03347Y02758*
X03384Y02721*
Y02404*
X03339Y02359*
X03337Y02361*
X03317Y02353*
X03316Y02349*
X03306Y02351*
Y02635*
X03301Y02646*
X03283Y02664*
X03285Y02674*
X03292Y02676*
X03297Y0269*
X03272*
Y02695*
X03267*
Y0272*
X03253Y02715*
X03249Y02705*
X03245Y02696*
X03236*
X03081*
X0308Y02699*
X0306Y02707*
X03041Y02699*
X03036Y02685*
X03025*
X0302Y02699*
X03Y02707*
X02981Y02699*
X02973Y0268*
X02981Y0266*
X03Y02652*
X0302Y0266*
X03025Y02674*
X03036*
X03041Y0266*
X0306Y02652*
X0308Y0266*
X03081Y02663*
X03238*
X03273Y02628*
Y02571*
X03265Y02566*
X03259Y02569*
X03239Y02561*
X03238Y02558*
X03096*
X03091Y02566*
X03092Y02569*
X03084Y02588*
X03065Y02596*
X03045Y02588*
X03037Y02569*
X03038Y02566*
X03033Y02558*
X02861*
X02855Y02568*
X02862Y02582*
X02854Y02602*
X02846Y02605*
Y02616*
X0286Y02621*
X02868Y0264*
X0286Y0266*
X02859Y02671*
X02864Y02682*
X02856Y02701*
X02837Y02709*
X02817Y02701*
X02809Y02682*
X02817Y02662*
X02818Y02651*
X02813Y0264*
X02821Y02621*
X02829Y02618*
Y02607*
X02815Y02602*
X02807Y02582*
X02814Y02568*
X02808Y02558*
X02543*
X02519Y02582*
Y03024*
X02533Y0303*
X02545Y0306*
X02533Y03091*
X02504Y03102*
X02506Y03112*
X02599*
X02601Y03102*
X02595Y031*
X02572Y03091*
X0256Y0306*
X02572Y0303*
X02602Y03018*
X02633Y0303*
X02645Y0306*
X02633Y03091*
X0261Y031*
X02604Y03102*
X02606Y03112*
X02699*
X02701Y03102*
X02695Y031*
X02672Y03091*
X0266Y0306*
X02672Y0303*
X02702Y03018*
X02733Y0303*
X02745Y0306*
X02733Y03091*
X0271Y031*
X02704Y03102*
X02706Y03112*
X02799*
X02801Y03102*
X02795Y031*
X02772Y03091*
X0276Y0306*
X02772Y0303*
X02802Y03018*
X02833Y0303*
X02845Y0306*
X02833Y03091*
X0281Y031*
X02804Y03102*
X02806Y03112*
X02899*
X02901Y03102*
X02895Y031*
X02872Y03091*
X0286Y0306*
X02872Y0303*
X02902Y03018*
X02933Y0303*
X02945Y0306*
X02933Y03091*
X0291Y031*
X02904Y03102*
X02906Y03112*
X02999*
X03001Y03102*
X02995Y031*
X02972Y03091*
X0296Y0306*
X02972Y0303*
X03002Y03018*
X03033Y0303*
X03045Y0306*
X03033Y03091*
X0301Y031*
X03004Y03102*
X03006Y03112*
X03099*
X03101Y03102*
X03095Y031*
X03072Y03091*
X0306Y0306*
X03072Y0303*
X03102Y03018*
X03133Y0303*
X03145Y0306*
X03133Y03091*
X0311Y031*
X03104Y03102*
X03106Y03112*
X03199*
X03201Y03102*
X03195Y031*
X03172Y03091*
X0316Y0306*
X03172Y0303*
X03202Y03018*
X03233Y0303*
X03245Y0306*
X03233Y03091*
X0321Y031*
X03204Y03102*
X03206Y03112*
X03299*
X03301Y03102*
X03295Y031*
X03272Y03091*
X0326Y0306*
X03272Y0303*
X03302Y03018*
X03333Y0303*
X03345Y0306*
X03333Y03091*
X0331Y031*
X03304Y03102*
X03306Y03112*
X03399*
X03401Y03102*
G37*
G36*
X04864Y01737D02*
X04863Y01735D01*
X018*
Y03105*
X01803Y0311*
X01808Y03112*
X02499*
X02501Y03102*
X02472Y03091*
X0246Y0306*
X02472Y0303*
X02486Y03024*
Y02575*
X02491Y02564*
X02525Y0253*
X02537Y02525*
X02805*
X0281Y02517*
X02807Y0251*
X02815Y02491*
X02835Y02483*
X02854Y02491*
X02862Y0251*
X02859Y02517*
X02864Y02525*
X03044*
X03046Y02515*
X03044Y02515*
X03036Y02495*
X03042Y02481*
X03035Y02473*
X03035Y02474*
X03015Y02466*
X03007Y02447*
X03015Y02427*
X03035Y02419*
X03054Y02427*
X03064Y02428*
X0308Y02421*
X03099Y02429*
X03105*
X03105Y02427*
X03125Y02419*
X03144Y02427*
X03152Y02447*
X03144Y02466*
X03125Y02474*
X0311Y02467*
X03099Y02468*
X03096Y02469*
X0309Y02471*
X03086Y02484*
X03091Y02495*
X03083Y02515*
X03081Y02515*
X03083Y02525*
X03238*
X03239Y02522*
X03259Y02514*
X03265Y02517*
X03273Y02512*
Y02436*
X03265Y02431*
Y02405*
Y0238*
X03273Y02375*
Y0192*
X03278Y01908*
X03323Y01863*
X03335Y01858*
X03585*
X03586Y01855*
X03605Y01847*
X03625Y01855*
X03633Y01875*
X03625Y01894*
X03605Y01902*
X03586Y01894*
X03585Y01891*
X03341*
X03306Y01926*
Y0231*
X03316Y02314*
X0332Y0231*
Y02207*
X03325Y02195*
X03418Y02102*
X03412Y02093*
X03402Y02098*
X03383Y0209*
X03375Y0207*
X03383Y02051*
X03402Y02043*
X03422Y02051*
X0343Y0207*
X03425Y02083*
X03432Y0209*
X0344Y02087*
X04046*
X04052Y02073*
X04082Y0206*
X04113Y02073*
X04126Y02104*
X04113Y02134*
X04082Y02147*
X04052Y02134*
X04046Y0212*
X03446*
X03353Y02213*
Y02313*
X03356Y02314*
X03364Y02334*
X03362Y02336*
X03412Y02386*
X03417Y02397*
Y02491*
X03425Y02497*
X03429Y02495*
X03435Y02498*
X03443Y0249*
X03441Y02487*
X03446Y02476*
X03449Y02468*
X03447Y02459*
X03442Y02449*
X03447Y02438*
X0345Y02429*
X03447Y0242*
X03442Y0241*
X0345Y0239*
X0347Y02382*
X03489Y0239*
X03497Y0241*
X03492Y0242*
X03489Y02429*
X03492Y02438*
X03497Y02449*
X03492Y0246*
X03489Y02468*
X03491Y02477*
X03496Y02487*
X03488Y02507*
X03469Y02515*
X03462Y02512*
X03454Y0252*
X03456Y02522*
X03448Y02542*
X03429Y0255*
X03425Y02548*
X03417Y02554*
Y02569*
X03425Y02574*
X03427Y02573*
X03447Y02581*
X03455Y026*
X03453Y02603*
X03576Y02726*
X03586Y02722*
Y02407*
X03591Y02396*
X03769Y02218*
X0378Y02213*
X03942*
X03948Y02205*
X03944Y02197*
X03952Y02177*
X03972Y02169*
X03991Y02177*
X03999Y02197*
X03995Y02205*
X04001Y02213*
X04292*
X04293Y0221*
X04312Y02202*
X04332Y0221*
X0434Y0223*
X04335Y0224*
X04342Y0225*
X0454*
X04551Y02255*
X04596Y023*
X04601Y02312*
Y02488*
X04604Y02489*
X04612Y02509*
X04604Y02528*
X04585Y02536*
X04565Y02528*
X04557Y02509*
X04565Y02489*
X04568Y02488*
Y02318*
X04533Y02283*
X04478*
X04473Y02293*
X0448Y02309*
X04472Y02328*
X04452Y02336*
X04433Y02328*
X04425Y02309*
X04418Y02301*
X04064*
X04061Y0231*
X04069Y0233*
X04061Y02349*
X04042Y02357*
X04022Y02349*
X04014Y0233*
X04022Y0231*
X0402Y02301*
X03992*
X03919Y02374*
Y03024*
X03933Y0303*
X03945Y0306*
X03933Y03091*
X03904Y03102*
X03906Y03112*
X03999*
X04001Y03102*
X03995Y031*
X03972Y03091*
X0396Y0306*
X03972Y0303*
X04002Y03018*
X04033Y0303*
X04045Y0306*
X04033Y03091*
X0401Y031*
X04004Y03102*
X04006Y03112*
X04099*
X04101Y03102*
X04095Y031*
X04072Y03091*
X0406Y0306*
X04072Y0303*
X04102Y03018*
X04133Y0303*
X04145Y0306*
X04133Y03091*
X0411Y031*
X04104Y03102*
X04106Y03112*
X04199*
X04201Y03102*
X04172Y03091*
X0416Y0306*
X04172Y0303*
X04186Y03024*
Y02775*
X04191Y02763*
X04255Y02699*
X04267Y02694*
X04332*
X04333Y02691*
X04352Y02683*
X04372Y02691*
X04376Y02703*
X04386Y02701*
Y02691*
X04383Y0269*
X04375Y0267*
X04383Y02651*
X04402Y02643*
X04422Y02651*
X0443Y0267*
X04422Y0269*
X04419Y02691*
Y03024*
X04433Y0303*
X04445Y0306*
X04433Y03091*
X04404Y03102*
X04406Y03112*
X04499*
X04501Y03102*
X04495Y031*
X04472Y03091*
X0446Y0306*
X04472Y0303*
X04502Y03018*
X04533Y0303*
X04545Y0306*
X04533Y03091*
X0451Y031*
X04504Y03102*
X04506Y03112*
X04599*
X04601Y03102*
X04595Y031*
X04572Y03091*
X0456Y0306*
X04572Y0303*
X04602Y03018*
X04633Y0303*
X04645Y0306*
X04633Y03091*
X0461Y031*
X04604Y03102*
X04606Y03112*
X04699*
X04701Y03102*
X04695Y031*
X04672Y03091*
X04662Y03065*
X04702*
X04743*
X04733Y03091*
X0471Y031*
X04704Y03102*
X04706Y03112*
X04864*
Y01737*
G37*
%LNmsp_mcu-2*%
%LPC*%
G36*
X02834Y02785D02*
X02814D01*
X02819Y0277*
X02834Y02765*
Y02785*
G37*
G36*
X02629Y02783D02*
X02615Y02777D01*
X02609Y02763*
X02629*
Y02783*
G37*
G36*
X03277Y0272D02*
Y027D01*
X03297*
X03292Y02715*
X03277Y0272*
G37*
G36*
X02834Y02815D02*
X02819Y02809D01*
X02814Y02795*
X02834*
Y02815*
G37*
G36*
X03255Y024D02*
X03236D01*
X03241Y02386*
X03255Y02381*
Y024*
G37*
G36*
X0347Y02335D02*
X0345Y02327D01*
X03442Y02307*
X0345Y02288*
X0347Y0228*
X03489Y02288*
X03497Y02307*
X03489Y02327*
X0347Y02335*
G37*
G36*
X02565Y02272D02*
Y02252D01*
X02585*
X02579Y02267*
X02565Y02272*
G37*
G36*
X02022Y02284D02*
X02002Y02276D01*
X01994Y02257*
X02002Y02237*
X02022Y02229*
X02041Y02237*
X02049Y02257*
X02041Y02276*
X02022Y02284*
G37*
G36*
X02585Y02242D02*
X02565D01*
Y02222*
X02579Y02228*
X02585Y02242*
G37*
G36*
X02555Y02272D02*
X0254Y02267D01*
X02535Y02252*
X02555*
Y02272*
G37*
G36*
X0464Y02631D02*
X0425D01*
X04239Y02626*
X04205Y02592*
X042Y0258*
Y02495*
X04205Y02483*
X04243Y02445*
X04255Y0244*
X04287*
X04288Y02437*
X04307Y02429*
X04327Y02437*
X04335Y02457*
X04327Y02476*
X04307Y02484*
X04288Y02476*
X04287Y02473*
X04261*
X04233Y02501*
Y02574*
X04257Y02598*
X04633*
X0466Y02571*
Y02299*
X04657Y02298*
X04649Y02278*
X04657Y02259*
X04676Y02251*
X04695Y02259*
X04703Y02278*
X04695Y02298*
X04692Y02299*
Y02578*
X04687Y0259*
X04651Y02626*
X0464Y02631*
G37*
G36*
X02562Y02435D02*
X02542Y02427D01*
X02534Y02407*
X02542Y02388*
X02562Y0238*
X02581Y02388*
X02589Y02407*
X02581Y02427*
X02562Y02435*
G37*
G36*
X04385Y02392D02*
X04371Y02387D01*
X04366Y02372*
X04385*
Y02392*
G37*
G36*
X04415Y02362D02*
X04395D01*
Y02342*
X0441Y02348*
X04415Y02362*
G37*
G36*
X04385D02*
X04366D01*
X04371Y02348*
X04385Y02342*
Y02362*
G37*
G36*
X04395Y02392D02*
Y02372D01*
X04415*
X0441Y02387*
X04395Y02392*
G37*
G36*
X02574Y02347D02*
X02554Y02339D01*
X02546Y0232*
X02554Y023*
X02574Y02292*
X02593Y023*
X02601Y0232*
X02593Y02339*
X02574Y02347*
G37*
G36*
X02864Y02357D02*
X02845Y02349D01*
X02837Y02329*
X02845Y0231*
X02864Y02302*
X02884Y0231*
X02892Y02329*
X02884Y02349*
X02864Y02357*
G37*
G36*
X02669Y02391D02*
X02649Y02383D01*
X02641Y02364*
X02649Y02344*
X02669Y02336*
X02688Y02344*
X02696Y02364*
X02688Y02383*
X02669Y02391*
G37*
G36*
X04135Y02034D02*
X04115Y02026D01*
X04107Y02007*
X04115Y01987*
X04135Y01979*
X04154Y01987*
X04162Y02007*
X04154Y02026*
X04135Y02034*
G37*
G36*
X02672Y0184D02*
Y0182D01*
X02692*
X02687Y01834*
X02672Y0184*
G37*
G36*
X02727Y02042D02*
X02707D01*
Y02022*
X02721Y02027*
X02727Y02042*
G37*
G36*
X02852Y02068D02*
X02833Y0206D01*
X02825Y0204*
X02833Y02021*
X02852Y02013*
X02872Y02021*
X0288Y0204*
X02872Y0206*
X02852Y02068*
G37*
G36*
X02662Y0181D02*
X02642D01*
X02648Y01795*
X02662Y0179*
Y0181*
G37*
G36*
X02737Y01878D02*
X02717Y0187D01*
X02709Y0185*
X02717Y01831*
X02729Y01827*
X02736Y01824*
Y01814*
X02729Y01811*
X02717Y01807*
X02709Y01787*
X02717Y01768*
X02737Y0176*
X02756Y01768*
X02764Y01787*
X02756Y01807*
X02744Y01811*
X02737Y01814*
Y01824*
X02744Y01827*
X02756Y01831*
X02764Y0185*
X02756Y0187*
X02737Y01878*
G37*
G36*
X02662Y0184D02*
X02648Y01834D01*
X02642Y0182*
X02662*
Y0184*
G37*
G36*
X02692Y0181D02*
X02672D01*
Y0179*
X02687Y01795*
X02692Y0181*
G37*
G36*
X02022Y02199D02*
X02003Y02191D01*
X01995Y02172*
X02003Y02152*
X02022Y02144*
X02042Y02152*
X0205Y02172*
X02042Y02191*
X02022Y02199*
G37*
G36*
X04777Y02175D02*
X04746Y02162D01*
X04733Y02132*
X04746Y02101*
X04777Y02088*
X04807Y02101*
X0482Y02132*
X04807Y02162*
X04777Y02175*
G37*
G36*
X02555Y02242D02*
X02535D01*
X0254Y02228*
X02555Y02222*
Y02242*
G37*
G36*
X0458Y02259D02*
X04561Y02251D01*
X04553Y02232*
X04561Y02212*
X0458Y02204*
X046Y02212*
X04608Y02232*
X046Y02251*
X0458Y02259*
G37*
G36*
X02707Y02072D02*
Y02052D01*
X02727*
X02721Y02066*
X02707Y02072*
G37*
G36*
X02697D02*
X02682Y02066D01*
X02677Y02052*
X02675Y02048*
X02665Y02046*
X02663Y0205*
X02659Y02062*
X0264Y0207*
X0262Y02062*
X02612Y02042*
X0262Y02023*
X0264Y02015*
X02659Y02023*
X02664Y02037*
X02666Y02041*
X02676Y02043*
X02678Y02039*
X02682Y02027*
X02697Y02022*
Y02047*
Y02072*
G37*
G36*
X02587Y02123D02*
X02568Y02115D01*
X0256Y02095*
X02568Y02076*
X02587Y02068*
X02607Y02076*
X02615Y02095*
X02607Y02115*
X02587Y02123*
G37*
G36*
X02022Y0211D02*
X02003Y02102D01*
X01995Y02082*
X02003Y02063*
X02022Y02055*
X02042Y02063*
X0205Y02082*
X02042Y02102*
X02022Y0211*
G37*
G36*
X02749Y02424D02*
X02729D01*
X02734Y02409*
X02749Y02404*
Y02424*
G37*
G36*
X02249Y0276D02*
Y0274D01*
X02268*
X02263Y02755*
X02249Y0276*
G37*
G36*
X02239D02*
X02224Y02755D01*
X02219Y0274*
X02239*
Y0276*
G37*
G36*
X02195Y02648D02*
Y02629D01*
X02215*
X02209Y02643*
X02195Y02648*
G37*
G36*
X02268Y0273D02*
X02249D01*
Y02711*
X02263Y02716*
X02268Y0273*
G37*
G36*
X02239D02*
X02219D01*
X02224Y02716*
X02239Y02711*
Y0273*
G37*
G36*
X04842Y03055D02*
X04807D01*
Y03021*
X04842*
Y03055*
G37*
G36*
X04797D02*
X04763D01*
Y03021*
X04797*
Y03055*
G37*
G36*
X04842Y031D02*
X04807D01*
Y03065*
X04842*
Y031*
G37*
G36*
X04797D02*
X04763D01*
Y03065*
X04797*
Y031*
G37*
G36*
X02312Y03001D02*
X02292Y02993D01*
X02291Y0299*
X01965*
X01953Y02985*
X01916Y02948*
X01911Y02937*
Y0276*
X01916Y02748*
X0194Y02724*
X01952Y02719*
X01962*
X01963Y02716*
X01982Y02708*
X02002Y02716*
X0201Y02735*
X02002Y02754*
X01982Y02762*
X01963Y02754*
X01953Y02757*
X01944Y02766*
Y02812*
X01954Y02814*
X01959Y02801*
X0198Y02793*
X02Y02801*
X02008Y02822*
X02Y02842*
X0198Y02851*
X01959Y02842*
X01954Y02829*
X01944Y02831*
Y0293*
X01971Y02957*
X02291*
X02292Y02954*
X02312Y02946*
X02331Y02954*
X02339Y02974*
X02331Y02993*
X02312Y03001*
G37*
G36*
X04743Y03055D02*
X04707D01*
Y0302*
X04733Y0303*
X04743Y03055*
G37*
G36*
X04697D02*
X04662D01*
X04672Y0303*
X04697Y0302*
Y03055*
G37*
G36*
X04788Y02579D02*
X04742Y0256D01*
X04724Y02515*
X04742Y0247*
X04788Y02451*
X04833Y0247*
X04852Y02515*
X04833Y0256*
X04788Y02579*
G37*
G36*
X04079D02*
X04034Y0256D01*
X04015Y02515*
X04034Y0247*
X04079Y02451*
X04124Y0247*
X04143Y02515*
X04124Y0256*
X04079Y02579*
G37*
G36*
X0227Y0254D02*
X0225D01*
X02255Y02525*
X0227Y0252*
Y0254*
G37*
G36*
X03234Y02488D02*
X03214Y0248D01*
X0321Y02468*
X03207Y02463*
X03199Y0246*
X03198*
X03189Y02456*
X03178Y02452*
X03171Y02433*
X03178Y02413*
X03181Y02412*
Y01911*
X03137Y01867*
X02937*
X02936Y0187*
X02935Y0187*
Y01878*
X02936Y0188*
X02944Y019*
X02936Y01919*
X02917Y01927*
X02897Y01919*
X02889Y019*
X02897Y0188*
X02898Y01878*
Y01872*
X02897Y0187*
X02889Y0185*
X02897Y01831*
X02917Y01823*
X02936Y01831*
X02937Y01834*
X03144*
X03155Y01839*
X0321Y01894*
X03215Y01905*
X03214Y01908*
Y02412*
X03217Y02413*
X03225Y02433*
X03232Y02433*
X03234Y02433*
X03253Y02441*
X03261Y0246*
X03253Y0248*
X03234Y02488*
G37*
G36*
X03255Y0243D02*
X03241Y02425D01*
X03236Y0241*
X03255*
Y0243*
G37*
G36*
X02778Y02424D02*
X02759D01*
Y02404*
X02773Y02409*
X02778Y02424*
G37*
G36*
X02759Y02453D02*
Y02434D01*
X02778*
X02773Y02448*
X02759Y02453*
G37*
G36*
X02749D02*
X02734Y02448D01*
X02729Y02434*
X02749*
Y02453*
G37*
G36*
X02215Y02619D02*
X02195D01*
Y02599*
X02209Y02604*
X02215Y02619*
G37*
G36*
X02185D02*
X02165D01*
X0217Y02604*
X02185Y02599*
Y02619*
G37*
G36*
Y02648D02*
X0217Y02643D01*
X02165Y02629*
X02185*
Y02648*
G37*
G36*
X0198Y02677D02*
X01959Y02669D01*
X01951Y02649*
X01959Y02628*
X0198Y0262*
X02Y02628*
X02008Y02649*
X02Y02669*
X0198Y02677*
G37*
G36*
X0227Y0257D02*
X02255Y02564D01*
X0225Y0255*
X0227*
Y0257*
G37*
G36*
X023Y0254D02*
X0228D01*
Y0252*
X02294Y02525*
X023Y0254*
G37*
G36*
X03975Y02621D02*
X03956Y02613D01*
X03948Y02594*
X03956Y02574*
X03975Y02566*
X03995Y02574*
X04003Y02594*
X03995Y02613*
X03975Y02621*
G37*
G36*
X0228Y0257D02*
Y0255D01*
X023*
X02294Y02564*
X0228Y0257*
G37*
%LNmsp_mcu-3*%
%LPD*%
G54D36*
X03337Y02334D02*
X034Y02397D01*
Y02724*
X03402Y02725*
X04429Y02285D02*
X04452Y02309D01*
X03985Y02285D02*
X04429D01*
X03902Y02367D02*
X03985Y02285D01*
X03219Y02784D02*
X03345D01*
X02687Y02752D02*
Y02844D01*
X02642Y02707D02*
X02687Y02752D01*
X0344Y02104D02*
X04082D01*
X03337Y02207D02*
X0344Y02104D01*
X03337Y02207D02*
Y02334D01*
X03345Y02784D02*
X03402Y02725D01*
X0384Y0233D02*
Y02695D01*
X0386Y02715*
X0329Y0192D02*
Y02635D01*
Y0192D02*
X03335Y01875D01*
X03605*
X03427Y026D02*
X03575Y02747D01*
Y03032*
X0306Y0268D02*
X03245D01*
X0329Y02635*
X03198Y01906D02*
X03199Y01905D01*
X03198Y01906D02*
Y02433D01*
X03144Y0185D02*
X03199Y01905D01*
X02917Y0185D02*
X03144D01*
X02696Y02605D02*
X0272Y02629D01*
X02632Y02605D02*
X02696D01*
X0272Y02629D02*
Y02809D01*
X02762Y02852*
X03005*
X03402Y0306D02*
X03425Y03037D01*
Y02642D02*
Y03037D01*
X03575Y03032D02*
X03602Y0306D01*
X02502Y02575D02*
Y0306D01*
Y02575D02*
X02537Y02542D01*
X03259*
X0384Y0233D02*
X03842Y0233D01*
X03852Y02267D02*
X0454D01*
X03802Y02315D02*
X03852Y02267D01*
X03802Y02315D02*
Y0306D01*
X04585Y02312D02*
Y02509D01*
X0454Y02267D02*
X04585Y02312D01*
X04676Y02278D02*
Y02578D01*
X0464Y02615D02*
X04676Y02578D01*
X0425Y02615D02*
X0464D01*
X04217Y0258D02*
X0425Y02615D01*
X04217Y02495D02*
Y0258D01*
Y02495D02*
X04255Y02457D01*
X04307*
X0378Y0223D02*
X04312D01*
X03902Y02367D02*
Y0306D01*
X03602Y02407D02*
Y0306D01*
Y02407D02*
X0378Y0223D01*
X04202Y02775D02*
Y0306D01*
Y02775D02*
X04267Y0271D01*
X04352*
X04402Y0267D02*
Y0306D01*
X01965Y02974D02*
X02312D01*
X01927Y02937D02*
X01965Y02974D01*
X01927Y0276D02*
Y02937D01*
Y0276D02*
X01952Y02735D01*
X01982*
X02687Y02844D02*
X02735Y02892D01*
X03005*
X03082Y0292D02*
X03219Y02784D01*
X02712Y0292D02*
X03082D01*
G54D39*
X02634Y02758D03*
X02702Y02047D03*
X03394Y02802D03*
X02667Y01815D03*
X0326Y02405D03*
X02754Y02429D03*
X02839Y0279D03*
X0256Y02247D03*
X03272Y02695D03*
X02275Y02545D03*
X0219Y02624D03*
X02562Y02407D03*
X02669Y02364D03*
X02574Y0232D03*
X02587Y02095D03*
X02737Y01787D03*
X0346Y02682D03*
X04042Y0233D03*
X0284Y0264D03*
X02684D03*
X02712Y0292D03*
X03337Y02334D03*
X03345Y02784D03*
X04135Y02007D03*
X03605Y01875D03*
X03402Y0207D03*
X03547Y02817D03*
X0364Y02815D03*
X03687Y02812D03*
X03195Y02847D03*
X03229Y02885D03*
X03257Y02915D03*
X02244Y02735D03*
X0264Y02042D03*
X02852Y0204D03*
X0458Y02232D03*
X03234Y0246D03*
X03198Y02433D03*
X02943Y02727D03*
X02917Y0185D03*
Y019D03*
X02737Y0185D03*
X0306Y0268D03*
X03D03*
X02837Y02682D03*
X02835Y0251D03*
Y02582D03*
X0292Y0277D03*
X02864Y02329D03*
X03972Y02197D03*
X03975Y02594D03*
X03064Y02495D03*
X03065Y02569D03*
X03005Y02852D03*
X03005Y02892D03*
X02632Y02605D03*
X02642Y02707D03*
X03125Y02447D03*
X0308Y02449D03*
X03035Y02447D03*
X03425Y02642D03*
X03427Y026D03*
X03259Y02542D03*
X0347Y02307D03*
Y0241D03*
Y02449D03*
X03469Y02487D03*
X03429Y02522D03*
X0386Y02715D03*
X0384Y0233D03*
X04585Y02509D03*
X04452Y02309D03*
X0439Y02367D03*
X04312Y0223D03*
X04676Y02278D03*
X04307Y02457D03*
X04352Y0271D03*
X04402Y0267D03*
X01982Y02735D03*
X02312Y02974D03*
X02022Y02172D03*
Y02082D03*
X02022Y02257D03*
X02892Y028D03*
X0301Y02945D03*
G54D40*
X03502Y02762D03*
X04777Y02132D03*
X04082Y02104D03*
G54D41*
X0198Y02649D03*
Y02822D03*
G54D42*
X04802Y0306D03*
G54D43*
X02502Y0306D03*
X02602D03*
X02702D03*
X02802D03*
X02902D03*
X03002D03*
X03102D03*
X03202D03*
X03302D03*
X03402D03*
X03502D03*
X03602D03*
X03702D03*
X03802D03*
X03902D03*
X04002D03*
X04102D03*
X04202D03*
X04302D03*
X04402D03*
X04502D03*
X04602D03*
X04702D03*
G54D44*
X04788Y02515D03*
X04079D03*
M02*