G04 Layer_Physical_Order=1*
G04 Layer_Color=255*
%FSLAX43Y43*%
%MOMM*%
G71*
G01*
G75*
%ADD10C,0.254*%
%ADD11C,1.500*%
%ADD12R,1.500X1.500*%
G36*
X39751Y121793D02*
X117729D01*
Y86851D01*
X117717Y86602D01*
X117475Y86602D01*
X116840D01*
Y85598D01*
Y84594D01*
X117475D01*
X117717Y84594D01*
X117729Y84345D01*
Y52705D01*
X117475Y52451D01*
X39370D01*
Y121793D01*
X39497Y121920D01*
X39624D01*
X39751Y121793D01*
D02*
G37*
%LPC*%
G36*
X114046Y85471D02*
X113139D01*
X113405Y84830D01*
X114046Y84564D01*
Y85471D01*
D02*
G37*
G36*
X78613Y86685D02*
X77845Y86366D01*
X77526Y85598D01*
X77845Y84830D01*
X78613Y84511D01*
X79381Y84830D01*
X79700Y85598D01*
X79381Y86366D01*
X78613Y86685D01*
D02*
G37*
G36*
X76073D02*
X75305Y86366D01*
X74986Y85598D01*
X75305Y84830D01*
X76073Y84511D01*
X76841Y84830D01*
X77160Y85598D01*
X76841Y86366D01*
X76073Y86685D01*
D02*
G37*
G36*
X114046Y86632D02*
X113405Y86366D01*
X113139Y85725D01*
X114046D01*
Y86632D01*
D02*
G37*
G36*
X89027Y93289D02*
X88259Y92970D01*
X87940Y92202D01*
X88259Y91434D01*
X89027Y91115D01*
X89795Y91434D01*
X90114Y92202D01*
X89795Y92970D01*
X89027Y93289D01*
D02*
G37*
G36*
X76327D02*
X75559Y92970D01*
X75240Y92202D01*
X75559Y91434D01*
X76327Y91115D01*
X77095Y91434D01*
X77414Y92202D01*
X77095Y92970D01*
X76327Y93289D01*
D02*
G37*
G36*
X73787D02*
X73019Y92970D01*
X72700Y92202D01*
X73019Y91434D01*
X73787Y91115D01*
X74555Y91434D01*
X74874Y92202D01*
X74555Y92970D01*
X73787Y93289D01*
D02*
G37*
G36*
X63373Y86685D02*
X62605Y86366D01*
X62286Y85598D01*
X62605Y84830D01*
X63373Y84511D01*
X64141Y84830D01*
X64460Y85598D01*
X64141Y86366D01*
X63373Y86685D01*
D02*
G37*
G36*
X60833D02*
X60065Y86366D01*
X59746Y85598D01*
X60065Y84830D01*
X60833Y84511D01*
X61601Y84830D01*
X61920Y85598D01*
X61601Y86366D01*
X60833Y86685D01*
D02*
G37*
G36*
X58293D02*
X57525Y86366D01*
X57206Y85598D01*
X57525Y84830D01*
X58293Y84511D01*
X59061Y84830D01*
X59380Y85598D01*
X59061Y86366D01*
X58293Y86685D01*
D02*
G37*
G36*
X65913D02*
X65145Y86366D01*
X64826Y85598D01*
X65145Y84830D01*
X65913Y84511D01*
X66681Y84830D01*
X67000Y85598D01*
X66681Y86366D01*
X65913Y86685D01*
D02*
G37*
G36*
X73533D02*
X72765Y86366D01*
X72446Y85598D01*
X72765Y84830D01*
X73533Y84511D01*
X74301Y84830D01*
X74620Y85598D01*
X74301Y86366D01*
X73533Y86685D01*
D02*
G37*
G36*
X70993D02*
X70225Y86366D01*
X69906Y85598D01*
X70225Y84830D01*
X70993Y84511D01*
X71761Y84830D01*
X72080Y85598D01*
X71761Y86366D01*
X70993Y86685D01*
D02*
G37*
G36*
X68453D02*
X67685Y86366D01*
X67366Y85598D01*
X67685Y84830D01*
X68453Y84511D01*
X69221Y84830D01*
X69540Y85598D01*
X69221Y86366D01*
X68453Y86685D01*
D02*
G37*
G36*
X101473Y99853D02*
X80137D01*
X79845Y99733D01*
X78575Y98463D01*
X78455Y98171D01*
Y93118D01*
X78099Y92970D01*
X77780Y92202D01*
X78099Y91434D01*
X78867Y91115D01*
X79635Y91434D01*
X79954Y92202D01*
X79635Y92970D01*
X79279Y93118D01*
Y98000D01*
X80308Y99029D01*
X82221D01*
X82271Y98775D01*
X82131Y98717D01*
X81115Y97701D01*
X80995Y97409D01*
Y93118D01*
X80639Y92970D01*
X80320Y92202D01*
X80639Y91434D01*
X81407Y91115D01*
X82175Y91434D01*
X82494Y92202D01*
X82175Y92970D01*
X81819Y93118D01*
Y97238D01*
X82594Y98013D01*
X99524D01*
X100045Y97492D01*
Y93208D01*
X99791Y93039D01*
X99187Y93289D01*
X98583Y93039D01*
X98329Y93208D01*
Y95377D01*
X98209Y95669D01*
X96812Y97066D01*
X96520Y97186D01*
X85471D01*
X85179Y97066D01*
X83655Y95542D01*
X83535Y95250D01*
Y93118D01*
X83179Y92970D01*
X82860Y92202D01*
X83179Y91434D01*
X83947Y91115D01*
X84715Y91434D01*
X85034Y92202D01*
X84715Y92970D01*
X84359Y93118D01*
Y95079D01*
X85642Y96362D01*
X96349D01*
X97505Y95206D01*
Y93208D01*
X97251Y93039D01*
X96647Y93289D01*
X96043Y93039D01*
X95789Y93208D01*
Y94996D01*
X95669Y95288D01*
X95034Y95923D01*
X94742Y96043D01*
X87503D01*
X87211Y95923D01*
X86195Y94907D01*
X86075Y94615D01*
Y93118D01*
X85719Y92970D01*
X85400Y92202D01*
X85719Y91434D01*
X86487Y91115D01*
X87255Y91434D01*
X87574Y92202D01*
X87255Y92970D01*
X86899Y93118D01*
Y94444D01*
X87674Y95219D01*
X94571D01*
X94965Y94825D01*
Y93208D01*
X94711Y93039D01*
X94107Y93289D01*
X93339Y92970D01*
X93020Y92202D01*
X93339Y91434D01*
X94107Y91115D01*
X94711Y91365D01*
X94965Y91196D01*
Y86614D01*
X95085Y86322D01*
X95454Y85954D01*
X95306Y85598D01*
X95625Y84830D01*
X96393Y84511D01*
X97161Y84830D01*
X97480Y85598D01*
X97161Y86366D01*
X96393Y86685D01*
X96037Y86537D01*
X95789Y86785D01*
Y91196D01*
X96043Y91365D01*
X96647Y91115D01*
X97251Y91365D01*
X97505Y91196D01*
Y86614D01*
X97625Y86322D01*
X97994Y85954D01*
X97846Y85598D01*
X98165Y84830D01*
X98933Y84511D01*
X99701Y84830D01*
X100020Y85598D01*
X99701Y86366D01*
X98933Y86685D01*
X98577Y86537D01*
X98329Y86785D01*
Y91196D01*
X98583Y91365D01*
X99187Y91115D01*
X99791Y91365D01*
X100045Y91196D01*
Y86614D01*
X100165Y86322D01*
X100534Y85954D01*
X100386Y85598D01*
X100705Y84830D01*
X101473Y84511D01*
X102241Y84830D01*
X102560Y85598D01*
X102241Y86366D01*
X101473Y86685D01*
X101117Y86537D01*
X100869Y86785D01*
Y91196D01*
X101123Y91365D01*
X101727Y91115D01*
X102331Y91365D01*
X102585Y91196D01*
Y86614D01*
X102705Y86322D01*
X103074Y85954D01*
X102926Y85598D01*
X103245Y84830D01*
X104013Y84511D01*
X104617Y84761D01*
X104871Y84592D01*
Y79546D01*
X104096Y78771D01*
X89706D01*
X89185Y79292D01*
Y84682D01*
X89541Y84830D01*
X89860Y85598D01*
X89541Y86366D01*
X88773Y86685D01*
X88417Y86537D01*
X86955Y87999D01*
X87052Y88234D01*
X88094D01*
X90374Y85954D01*
X90226Y85598D01*
X90545Y84830D01*
X91313Y84511D01*
X92081Y84830D01*
X92400Y85598D01*
X92081Y86366D01*
X91313Y86685D01*
X90957Y86537D01*
X88987Y88507D01*
X89084Y88742D01*
X90126D01*
X92914Y85954D01*
X92766Y85598D01*
X93085Y84830D01*
X93853Y84511D01*
X94621Y84830D01*
X94940Y85598D01*
X94621Y86366D01*
X93853Y86685D01*
X93497Y86537D01*
X90589Y89446D01*
X90297Y89566D01*
X50082D01*
X49561Y90087D01*
Y90817D01*
X50153D01*
Y92825D01*
X48145D01*
Y90817D01*
X48737D01*
Y89916D01*
X48857Y89624D01*
X49189Y89293D01*
X49092Y89058D01*
X47669D01*
X47021Y89706D01*
Y90905D01*
X47377Y91053D01*
X47696Y91821D01*
X47377Y92589D01*
X46609Y92908D01*
X45841Y92589D01*
X45522Y91821D01*
X45841Y91053D01*
X46197Y90905D01*
Y89535D01*
X46317Y89243D01*
X46776Y88785D01*
X46679Y88550D01*
X45129D01*
X44481Y89198D01*
Y90905D01*
X44837Y91053D01*
X45156Y91821D01*
X44837Y92589D01*
X44069Y92908D01*
X43301Y92589D01*
X42982Y91821D01*
X43301Y91053D01*
X43657Y90905D01*
Y89027D01*
X43777Y88735D01*
X44236Y88277D01*
X44139Y88042D01*
X43224D01*
X41941Y89325D01*
Y90905D01*
X42297Y91053D01*
X42616Y91821D01*
X42297Y92589D01*
X41529Y92908D01*
X40761Y92589D01*
X40442Y91821D01*
X40761Y91053D01*
X41117Y90905D01*
Y89154D01*
X41237Y88862D01*
X42761Y87338D01*
X43053Y87218D01*
X84030D01*
X85294Y85954D01*
X85146Y85598D01*
X85465Y84830D01*
X85821Y84682D01*
Y78359D01*
X85941Y78067D01*
X87211Y76797D01*
X87503Y76677D01*
X106807D01*
X107099Y76797D01*
X108115Y77813D01*
X108235Y78105D01*
Y84592D01*
X108489Y84761D01*
X109093Y84511D01*
X109697Y84761D01*
X109951Y84592D01*
Y76879D01*
X109176Y76104D01*
X85007D01*
X84105Y77006D01*
Y84682D01*
X84461Y84830D01*
X84780Y85598D01*
X84461Y86366D01*
X83693Y86685D01*
X82925Y86366D01*
X82606Y85598D01*
X82925Y84830D01*
X83281Y84682D01*
Y76835D01*
X83401Y76543D01*
X84544Y75400D01*
X84836Y75280D01*
X109347D01*
X109639Y75400D01*
X110655Y76416D01*
X110775Y76708D01*
Y84592D01*
X111029Y84761D01*
X111633Y84511D01*
X112401Y84830D01*
X112720Y85598D01*
X112401Y86366D01*
X111633Y86685D01*
X111029Y86435D01*
X110775Y86604D01*
Y90989D01*
X110879Y91191D01*
X111024Y91198D01*
X112891D01*
Y91790D01*
X114129D01*
X114904Y91015D01*
Y86611D01*
X114692Y86470D01*
X114300Y86632D01*
Y85598D01*
Y84564D01*
X114692Y84726D01*
X114904Y84585D01*
Y76117D01*
X113494Y74707D01*
X83610D01*
X81565Y76752D01*
Y84682D01*
X81921Y84830D01*
X82240Y85598D01*
X81921Y86366D01*
X81153Y86685D01*
X80385Y86366D01*
X80066Y85598D01*
X80385Y84830D01*
X80741Y84682D01*
Y76581D01*
X80861Y76289D01*
X83147Y74003D01*
X83439Y73883D01*
X113665D01*
X113957Y74003D01*
X115608Y75654D01*
X115728Y75946D01*
Y84594D01*
X116586D01*
Y85598D01*
Y86602D01*
X115728D01*
Y91186D01*
X115608Y91478D01*
X114592Y92494D01*
X114300Y92614D01*
X112891D01*
Y93206D01*
X110883D01*
Y91581D01*
X110749Y91520D01*
X110629Y91503D01*
X110286Y91846D01*
X110434Y92202D01*
X110115Y92970D01*
X109347Y93289D01*
X108579Y92970D01*
X108260Y92202D01*
X108579Y91434D01*
X109347Y91115D01*
X109703Y91263D01*
X109951Y91015D01*
Y86604D01*
X109697Y86435D01*
X109093Y86685D01*
X108489Y86435D01*
X108235Y86604D01*
Y91186D01*
X108115Y91478D01*
X107746Y91846D01*
X107894Y92202D01*
X107575Y92970D01*
X106807Y93289D01*
X106039Y92970D01*
X105720Y92202D01*
X106039Y91434D01*
X106807Y91115D01*
X107163Y91263D01*
X107411Y91015D01*
Y86604D01*
X107157Y86435D01*
X106553Y86685D01*
X105949Y86435D01*
X105695Y86604D01*
Y91186D01*
X105575Y91478D01*
X105206Y91846D01*
X105354Y92202D01*
X105035Y92970D01*
X104267Y93289D01*
X103663Y93039D01*
X103409Y93208D01*
Y97917D01*
X103289Y98209D01*
X101765Y99733D01*
X101473Y99853D01*
D02*
G37*
G36*
X68834Y93236D02*
Y92329D01*
X69741D01*
X69475Y92970D01*
X68834Y93236D01*
D02*
G37*
G36*
X71374D02*
Y92329D01*
X72281D01*
X72015Y92970D01*
X71374Y93236D01*
D02*
G37*
G36*
X44196Y101671D02*
X43428Y101352D01*
X43109Y100584D01*
X43428Y99816D01*
X44196Y99497D01*
X44964Y99816D01*
X45283Y100584D01*
X44964Y101352D01*
X44196Y101671D01*
D02*
G37*
G36*
X42660Y101588D02*
X40652D01*
Y99580D01*
X42660D01*
Y101588D01*
D02*
G37*
G36*
X49276Y101671D02*
X48508Y101352D01*
X48189Y100584D01*
X48508Y99816D01*
X49276Y99497D01*
X50044Y99816D01*
X50363Y100584D01*
X50044Y101352D01*
X49276Y101671D01*
D02*
G37*
G36*
X46736D02*
X45968Y101352D01*
X45649Y100584D01*
X45968Y99816D01*
X46736Y99497D01*
X47504Y99816D01*
X47823Y100584D01*
X47504Y101352D01*
X46736Y101671D01*
D02*
G37*
G36*
X68580Y93236D02*
X67939Y92970D01*
X67673Y92329D01*
X68580D01*
Y93236D01*
D02*
G37*
G36*
X91567Y93289D02*
X90799Y92970D01*
X90480Y92202D01*
X90799Y91434D01*
X91567Y91115D01*
X92335Y91434D01*
X92654Y92202D01*
X92335Y92970D01*
X91567Y93289D01*
D02*
G37*
G36*
X71120Y92075D02*
X70213D01*
X70479Y91434D01*
X71120Y91168D01*
Y92075D01*
D02*
G37*
G36*
X68580D02*
X67673D01*
X67939Y91434D01*
X68580Y91168D01*
Y92075D01*
D02*
G37*
G36*
X72281D02*
X71374D01*
Y91168D01*
X72015Y91434D01*
X72281Y92075D01*
D02*
G37*
G36*
X71120Y93236D02*
X70479Y92970D01*
X70213Y92329D01*
X71120D01*
Y93236D01*
D02*
G37*
G36*
X69741Y92075D02*
X68834D01*
Y91168D01*
X69475Y91434D01*
X69741Y92075D01*
D02*
G37*
%LPD*%
G36*
X87834Y85954D02*
X87686Y85598D01*
X88005Y84830D01*
X88361Y84682D01*
Y79121D01*
X88481Y78829D01*
X89243Y78067D01*
X89535Y77947D01*
X104267D01*
X104559Y78067D01*
X105575Y79083D01*
X105695Y79375D01*
Y84592D01*
X105949Y84761D01*
X106553Y84511D01*
X107157Y84761D01*
X107411Y84592D01*
Y78276D01*
X106636Y77501D01*
X87674D01*
X86645Y78530D01*
Y84682D01*
X87001Y84830D01*
X87320Y85598D01*
X87001Y86366D01*
X86233Y86685D01*
X85877Y86537D01*
X84923Y87491D01*
X85020Y87726D01*
X86062D01*
X87834Y85954D01*
D02*
G37*
G36*
X102585Y97746D02*
Y93208D01*
X102331Y93039D01*
X101727Y93289D01*
X101123Y93039D01*
X100869Y93208D01*
Y97663D01*
X100749Y97955D01*
X99987Y98717D01*
X99847Y98775D01*
X99897Y99029D01*
X101302D01*
X102585Y97746D01*
D02*
G37*
G36*
X104267Y91115D02*
X104623Y91263D01*
X104871Y91015D01*
Y86604D01*
X104617Y86435D01*
X104013Y86685D01*
X103657Y86537D01*
X103409Y86785D01*
Y91196D01*
X103663Y91365D01*
X104267Y91115D01*
D02*
G37*
D10*
X49149Y89916D02*
Y91821D01*
Y89916D02*
X49911Y89154D01*
X90297D01*
X93853Y85598D01*
X46609Y89535D02*
Y91821D01*
Y89535D02*
X47498Y88646D01*
X88265D01*
X91313Y85598D01*
X44069Y89027D02*
Y91821D01*
Y89027D02*
X44958Y88138D01*
X86233D01*
X88773Y85598D01*
X41529Y89154D02*
Y91821D01*
Y89154D02*
X43053Y87630D01*
X84201D01*
X86233Y85598D01*
X83439Y74295D02*
X113665D01*
X115316Y75946D01*
Y91186D01*
X114300Y92202D02*
X115316Y91186D01*
X111887Y92202D02*
X114300D01*
X95377Y86614D02*
X96393Y85598D01*
X95377Y86614D02*
Y94996D01*
X94742Y95631D02*
X95377Y94996D01*
X87503Y95631D02*
X94742D01*
X86487Y94615D02*
X87503Y95631D01*
X86487Y92202D02*
Y94615D01*
X97917Y86614D02*
X98933Y85598D01*
X97917Y86614D02*
Y95377D01*
X96520Y96774D02*
X97917Y95377D01*
X85471Y96774D02*
X96520D01*
X83947Y95250D02*
X85471Y96774D01*
X83947Y92202D02*
Y95250D01*
X100457Y86614D02*
X101473Y85598D01*
X100457Y86614D02*
Y97663D01*
X99695Y98425D02*
X100457Y97663D01*
X82423Y98425D02*
X99695D01*
X81407Y97409D02*
X82423Y98425D01*
X81407Y92202D02*
Y97409D01*
X102997Y86614D02*
X104013Y85598D01*
X102997Y86614D02*
Y97917D01*
X101473Y99441D02*
X102997Y97917D01*
X80137Y99441D02*
X101473D01*
X78867Y98171D02*
X80137Y99441D01*
X78867Y92202D02*
Y98171D01*
X104267Y92202D02*
X105283Y91186D01*
Y79375D02*
Y91186D01*
X104267Y78359D02*
X105283Y79375D01*
X89535Y78359D02*
X104267D01*
X88773Y79121D02*
X89535Y78359D01*
X88773Y79121D02*
Y85598D01*
X106807Y92202D02*
X107823Y91186D01*
Y78105D02*
Y91186D01*
X106807Y77089D02*
X107823Y78105D01*
X87503Y77089D02*
X106807D01*
X86233Y78359D02*
X87503Y77089D01*
X86233Y78359D02*
Y85598D01*
X109347Y92202D02*
X110363Y91186D01*
Y76708D02*
Y91186D01*
X109347Y75692D02*
X110363Y76708D01*
X84836Y75692D02*
X109347D01*
X83693Y76835D02*
X84836Y75692D01*
X83693Y76835D02*
Y85598D01*
X81153Y76581D02*
X83439Y74295D01*
X81153Y76581D02*
Y85598D01*
D11*
X41529Y91821D02*
D03*
X44069D02*
D03*
X46609D02*
D03*
X49276Y100584D02*
D03*
X46736D02*
D03*
X44196D02*
D03*
X58293Y85598D02*
D03*
X60833D02*
D03*
X63373D02*
D03*
X65913D02*
D03*
X68453D02*
D03*
X70993D02*
D03*
X73533D02*
D03*
X76073D02*
D03*
X78613D02*
D03*
X81153D02*
D03*
X83693D02*
D03*
X86233D02*
D03*
X88773D02*
D03*
X91313D02*
D03*
X93853D02*
D03*
X96393D02*
D03*
X98933D02*
D03*
X101473D02*
D03*
X104013D02*
D03*
X106553D02*
D03*
X109093D02*
D03*
X111633D02*
D03*
X114173D02*
D03*
X68707Y92202D02*
D03*
X71247D02*
D03*
X73787D02*
D03*
X76327D02*
D03*
X78867D02*
D03*
X81407D02*
D03*
X83947D02*
D03*
X86487D02*
D03*
X89027D02*
D03*
X91567D02*
D03*
X94107D02*
D03*
X96647D02*
D03*
X99187D02*
D03*
X101727D02*
D03*
X104267D02*
D03*
X106807D02*
D03*
X109347D02*
D03*
D12*
X49149Y91821D02*
D03*
X41656Y100584D02*
D03*
X116713Y85598D02*
D03*
X111887Y92202D02*
D03*
M02*
