G04 Layer_Color=65535*
%FSLAX43Y43*%
%MOMM*%
G71*
G01*
G75*
%ADD10C,0.254*%
%ADD13C,0.200*%
%ADD14C,0.102*%
D10*
X39497Y87249D02*
X118237D01*
X39497Y51816D02*
Y87249D01*
Y51689D02*
X118237D01*
X118364D02*
Y87249D01*
X113284Y93345D02*
X117983D01*
X58420Y90678D02*
Y122428D01*
X118237D01*
Y90678D02*
Y122428D01*
X58420Y90678D02*
X118237D01*
X40411Y93955D02*
Y95478D01*
X41173D01*
X41427Y95224D01*
Y94716D01*
X41173Y94462D01*
X40411D01*
X42697Y93955D02*
Y95478D01*
X41935Y94716D01*
X42951D01*
X40538Y102718D02*
Y104241D01*
X41300D01*
X41554Y103987D01*
Y103479D01*
X41300Y103225D01*
X40538D01*
X42062Y103987D02*
X42316Y104241D01*
X42824D01*
X43078Y103987D01*
Y103733D01*
X42824Y103479D01*
X42570D01*
X42824D01*
X43078Y103225D01*
Y102972D01*
X42824Y102718D01*
X42316D01*
X42062Y102972D01*
X53467Y84836D02*
Y86360D01*
X54229D01*
X54483Y86106D01*
Y85598D01*
X54229Y85344D01*
X53467D01*
X56006Y84836D02*
X54991D01*
X56006Y85852D01*
Y86106D01*
X55752Y86360D01*
X55244D01*
X54991Y86106D01*
X65024Y91948D02*
Y93472D01*
X65786D01*
X66040Y93218D01*
Y92710D01*
X65786Y92456D01*
X65024D01*
X66548Y91948D02*
X67055D01*
X66801D01*
Y93472D01*
X66548Y93218D01*
D13*
X50419Y90551D02*
Y93091D01*
X40259Y90551D02*
X50419D01*
X40259Y93091D02*
X50419D01*
X40259Y90551D02*
Y93091D01*
X40386Y99314D02*
Y101854D01*
X50546D01*
X40386Y99314D02*
X50546D01*
Y101854D01*
X57023Y84328D02*
X116078D01*
X117983D01*
Y86868D01*
X57023D02*
X117983D01*
X57023Y84328D02*
Y86868D01*
X111252Y90932D02*
X113157D01*
Y93472D01*
X67437D02*
X113157D01*
X67437Y90932D02*
Y93472D01*
Y90932D02*
X111252D01*
D14*
X48641Y103886D02*
Y103378D01*
X49403D01*
Y103886D01*
X49022Y103378D02*
Y103632D01*
X48641Y104648D02*
Y104140D01*
X49403D01*
Y104648D01*
X49022Y104140D02*
Y104394D01*
X49403Y104902D02*
Y105155D01*
Y105028D01*
X48641D01*
X48768Y104902D01*
Y105536D02*
X48641Y105663D01*
Y105917D01*
X48768Y106044D01*
X49276D01*
X49403Y105917D01*
Y105663D01*
X49276Y105536D01*
X48768D01*
X48641Y106298D02*
Y106806D01*
X48768D01*
X49276Y106298D01*
X49403D01*
Y107822D02*
X48641D01*
X48895Y108075D01*
X48641Y108329D01*
X49403D01*
X48768Y109091D02*
X48641Y108964D01*
Y108710D01*
X48768Y108583D01*
X49276D01*
X49403Y108710D01*
Y108964D01*
X49276Y109091D01*
X48641Y109345D02*
X49276D01*
X49403Y109472D01*
Y109726D01*
X49276Y109853D01*
X48641D01*
X49403Y110869D02*
X48641D01*
Y111249D01*
X48768Y111376D01*
X49022D01*
X49149Y111249D01*
Y110869D01*
Y111122D02*
X49403Y111376D01*
X48895Y111757D02*
Y112011D01*
X49022Y112138D01*
X49403D01*
Y111757D01*
X49276Y111630D01*
X49149Y111757D01*
Y112138D01*
X48641Y112900D02*
X49403D01*
Y112519D01*
X49276Y112392D01*
X49022D01*
X48895Y112519D01*
Y112900D01*
X49403Y113154D02*
Y113408D01*
Y113281D01*
X48895D01*
Y113154D01*
X49403Y113916D02*
Y114170D01*
X49276Y114296D01*
X49022D01*
X48895Y114170D01*
Y113916D01*
X49022Y113789D01*
X49276D01*
X49403Y113916D01*
X48768Y115820D02*
X48641Y115693D01*
Y115439D01*
X48768Y115312D01*
X49276D01*
X49403Y115439D01*
Y115693D01*
X49276Y115820D01*
X49403Y116201D02*
Y116455D01*
X49276Y116582D01*
X49022D01*
X48895Y116455D01*
Y116201D01*
X49022Y116074D01*
X49276D01*
X49403Y116201D01*
Y116836D02*
X48895D01*
Y117217D01*
X49022Y117343D01*
X49403D01*
Y117597D02*
X48895D01*
Y117978D01*
X49022Y118105D01*
X49403D01*
Y118740D02*
Y118486D01*
X49276Y118359D01*
X49022D01*
X48895Y118486D01*
Y118740D01*
X49022Y118867D01*
X49149D01*
Y118359D01*
X48895Y119629D02*
Y119248D01*
X49022Y119121D01*
X49276D01*
X49403Y119248D01*
Y119629D01*
X48768Y120010D02*
X48895D01*
Y119883D01*
Y120137D01*
Y120010D01*
X49276D01*
X49403Y120137D01*
Y120644D02*
Y120898D01*
X49276Y121025D01*
X49022D01*
X48895Y120898D01*
Y120644D01*
X49022Y120517D01*
X49276D01*
X49403Y120644D01*
X48895Y121279D02*
X49403D01*
X49149D01*
X49022Y121406D01*
X48895Y121533D01*
Y121660D01*
X48641Y98806D02*
Y98044D01*
X49022D01*
X49149Y98171D01*
Y98679D01*
X49022Y98806D01*
X48641D01*
X49403Y98679D02*
X49530Y98806D01*
X49784D01*
X49911Y98679D01*
Y98552D01*
X49784Y98425D01*
X49657D01*
X49784D01*
X49911Y98298D01*
Y98171D01*
X49784Y98044D01*
X49530D01*
X49403Y98171D01*
X46101Y98806D02*
Y98044D01*
X46482D01*
X46609Y98171D01*
Y98679D01*
X46482Y98806D01*
X46101D01*
X47371Y98044D02*
X46863D01*
X47371Y98552D01*
Y98679D01*
X47244Y98806D01*
X46990D01*
X46863Y98679D01*
X43561Y98806D02*
Y98044D01*
X43942D01*
X44069Y98171D01*
Y98679D01*
X43942Y98806D01*
X43561D01*
X44323Y98044D02*
X44577D01*
X44450D01*
Y98806D01*
X44323Y98679D01*
X41148Y98806D02*
Y98044D01*
X41529D01*
X41656Y98171D01*
Y98679D01*
X41529Y98806D01*
X41148D01*
X41910Y98679D02*
X42037Y98806D01*
X42291D01*
X42418Y98679D01*
Y98171D01*
X42291Y98044D01*
X42037D01*
X41910Y98171D01*
Y98679D01*
X49022Y89154D02*
Y89916D01*
X49403D01*
X49530Y89789D01*
Y89535D01*
X49403Y89408D01*
X49022D01*
X50292Y89789D02*
X50165Y89916D01*
X49911D01*
X49784Y89789D01*
Y89281D01*
X49911Y89154D01*
X50165D01*
X50292Y89281D01*
X50546Y89916D02*
Y89154D01*
Y89408D01*
X51053Y89916D01*
X50672Y89535D01*
X51053Y89154D01*
X45847D02*
Y89916D01*
X46101Y89662D01*
X46355Y89916D01*
Y89154D01*
X47117Y89789D02*
X46990Y89916D01*
X46736D01*
X46609Y89789D01*
Y89281D01*
X46736Y89154D01*
X46990D01*
X47117Y89281D01*
X47371Y89916D02*
Y89154D01*
X47878D01*
X48132Y89916D02*
Y89154D01*
Y89408D01*
X48640Y89916D01*
X48259Y89535D01*
X48640Y89154D01*
X42799Y89916D02*
Y89154D01*
X43307D01*
X43561Y89916D02*
Y89408D01*
X43815Y89154D01*
X44069Y89408D01*
Y89916D01*
X44323D02*
Y89154D01*
X44830D01*
X45084Y89916D02*
Y89154D01*
X45465D01*
X45592Y89281D01*
Y89789D01*
X45465Y89916D01*
X45084D01*
X40005D02*
X39497D01*
Y89535D01*
X39751D01*
X39497D01*
Y89154D01*
X40259Y89916D02*
Y89408D01*
X40513Y89154D01*
X40767Y89408D01*
Y89916D01*
X41021D02*
Y89154D01*
X41528D01*
X41782Y89916D02*
Y89154D01*
X42163D01*
X42290Y89281D01*
Y89789D01*
X42163Y89916D01*
X41782D01*
X104521Y121158D02*
X104013D01*
Y120777D01*
X104267D01*
X104013D01*
Y120396D01*
X104775D02*
Y121158D01*
X105156D01*
X105283Y121031D01*
Y120777D01*
X105156Y120650D01*
X104775D01*
X106044Y121031D02*
X105917Y121158D01*
X105663D01*
X105537Y121031D01*
Y120523D01*
X105663Y120396D01*
X105917D01*
X106044Y120523D01*
Y120777D01*
X105790D01*
X106298Y120396D02*
Y120904D01*
X106552Y121158D01*
X106806Y120904D01*
Y120396D01*
Y120777D01*
X106298D01*
X107822Y120904D02*
Y120396D01*
Y120650D01*
X107949Y120777D01*
X108076Y120904D01*
X108203D01*
X108710D02*
X108964D01*
X109091Y120777D01*
Y120396D01*
X108710D01*
X108584Y120523D01*
X108710Y120650D01*
X109091D01*
X109853Y121158D02*
Y120396D01*
X109472D01*
X109345Y120523D01*
Y120777D01*
X109472Y120904D01*
X109853D01*
X110107Y120396D02*
X110361D01*
X110234D01*
Y120904D01*
X110107D01*
X110869Y120396D02*
X111123D01*
X111250Y120523D01*
Y120777D01*
X111123Y120904D01*
X110869D01*
X110742Y120777D01*
Y120523D01*
X110869Y120396D01*
X112265Y121158D02*
Y120396D01*
X112646D01*
X112773Y120523D01*
Y120650D01*
Y120777D01*
X112646Y120904D01*
X112265D01*
X113154Y120396D02*
X113408D01*
X113535Y120523D01*
Y120777D01*
X113408Y120904D01*
X113154D01*
X113027Y120777D01*
Y120523D01*
X113154Y120396D01*
X113916Y120904D02*
X114170D01*
X114297Y120777D01*
Y120396D01*
X113916D01*
X113789Y120523D01*
X113916Y120650D01*
X114297D01*
X114551Y120904D02*
Y120396D01*
Y120650D01*
X114678Y120777D01*
X114805Y120904D01*
X114931D01*
X115820Y121158D02*
Y120396D01*
X115439D01*
X115312Y120523D01*
Y120777D01*
X115439Y120904D01*
X115820D01*
X104521Y53975D02*
Y54737D01*
X104775Y54483D01*
X105029Y54737D01*
Y53975D01*
X105791Y54610D02*
X105664Y54737D01*
X105410D01*
X105283Y54610D01*
Y54102D01*
X105410Y53975D01*
X105664D01*
X105791Y54102D01*
X106045Y54737D02*
Y54102D01*
X106171Y53975D01*
X106425D01*
X106552Y54102D01*
Y54737D01*
X107568D02*
Y53975D01*
X107949D01*
X108076Y54102D01*
Y54229D01*
Y54356D01*
X107949Y54483D01*
X107568D01*
X108457Y53975D02*
X108711D01*
X108838Y54102D01*
Y54356D01*
X108711Y54483D01*
X108457D01*
X108330Y54356D01*
Y54102D01*
X108457Y53975D01*
X109218Y54483D02*
X109472D01*
X109599Y54356D01*
Y53975D01*
X109218D01*
X109092Y54102D01*
X109218Y54229D01*
X109599D01*
X109853Y54483D02*
Y53975D01*
Y54229D01*
X109980Y54356D01*
X110107Y54483D01*
X110234D01*
X111123Y54737D02*
Y53975D01*
X110742D01*
X110615Y54102D01*
Y54356D01*
X110742Y54483D01*
X111123D01*
X116459Y88392D02*
X116332Y88519D01*
X116078D01*
X115951Y88392D01*
Y87884D01*
X116078Y87757D01*
X116332D01*
X116459Y87884D01*
Y88138D01*
X116205D01*
X116713Y87757D02*
Y88519D01*
X117221Y87757D01*
Y88519D01*
X117475D02*
Y87757D01*
X117855D01*
X117982Y87884D01*
Y88392D01*
X117855Y88519D01*
X117475D01*
X108204D02*
Y88011D01*
X108458Y87757D01*
X108712Y88011D01*
Y88519D01*
X109474Y88392D02*
X109347Y88519D01*
X109093D01*
X108966Y88392D01*
Y87884D01*
X109093Y87757D01*
X109347D01*
X109474Y87884D01*
X110235Y88392D02*
X110108Y88519D01*
X109854D01*
X109728Y88392D01*
Y87884D01*
X109854Y87757D01*
X110108D01*
X110235Y87884D01*
X113792Y88392D02*
X113665Y88519D01*
X113411D01*
X113284Y88392D01*
Y87884D01*
X113411Y87757D01*
X113665D01*
X113792Y87884D01*
Y88138D01*
X113538D01*
X114046Y87757D02*
Y88519D01*
X114554Y87757D01*
Y88519D01*
X114808D02*
Y87757D01*
X115188D01*
X115315Y87884D01*
Y88392D01*
X115188Y88519D01*
X114808D01*
X110744D02*
Y88011D01*
X110998Y87757D01*
X111252Y88011D01*
Y88519D01*
X112014Y88392D02*
X111887Y88519D01*
X111633D01*
X111506Y88392D01*
Y87884D01*
X111633Y87757D01*
X111887D01*
X112014Y87884D01*
X112775Y88392D02*
X112648Y88519D01*
X112394D01*
X112268Y88392D01*
Y87884D01*
X112394Y87757D01*
X112648D01*
X112775Y87884D01*
X103378Y88519D02*
Y87757D01*
X103759D01*
X103886Y87884D01*
Y88392D01*
X103759Y88519D01*
X103378D01*
X104140Y88392D02*
X104267Y88519D01*
X104521D01*
X104648Y88392D01*
Y87884D01*
X104521Y87757D01*
X104267D01*
X104140Y87884D01*
Y88392D01*
X100965Y88519D02*
Y87757D01*
X101346D01*
X101473Y87884D01*
Y88392D01*
X101346Y88519D01*
X100965D01*
X101727Y87757D02*
X101981D01*
X101854D01*
Y88519D01*
X101727Y88392D01*
X98298Y88519D02*
Y87757D01*
X98679D01*
X98806Y87884D01*
Y88392D01*
X98679Y88519D01*
X98298D01*
X99568Y87757D02*
X99060D01*
X99568Y88265D01*
Y88392D01*
X99441Y88519D01*
X99187D01*
X99060Y88392D01*
X95631Y88519D02*
Y87757D01*
X96012D01*
X96139Y87884D01*
Y88392D01*
X96012Y88519D01*
X95631D01*
X96393Y88392D02*
X96520Y88519D01*
X96774D01*
X96901Y88392D01*
Y88265D01*
X96774Y88138D01*
X96647D01*
X96774D01*
X96901Y88011D01*
Y87884D01*
X96774Y87757D01*
X96520D01*
X96393Y87884D01*
X92837Y87757D02*
Y88519D01*
X93218D01*
X93345Y88392D01*
Y88138D01*
X93218Y88011D01*
X92837D01*
X94107Y88392D02*
X93980Y88519D01*
X93726D01*
X93599Y88392D01*
Y87884D01*
X93726Y87757D01*
X93980D01*
X94107Y87884D01*
X94361Y88519D02*
Y87757D01*
Y88011D01*
X94868Y88519D01*
X94487Y88138D01*
X94868Y87757D01*
X88519Y87503D02*
X89281D01*
Y88011D01*
X88519Y88265D02*
X89027D01*
X89281Y88519D01*
X89027Y88773D01*
X88519D01*
Y89027D02*
X89281D01*
Y89534D01*
X88519Y89788D02*
X89281D01*
Y90169D01*
X89154Y90296D01*
X88646D01*
X88519Y90169D01*
Y89788D01*
X85852Y88519D02*
X85344D01*
Y88138D01*
X85598D01*
X85344D01*
Y87757D01*
X86106Y88519D02*
Y88011D01*
X86360Y87757D01*
X86614Y88011D01*
Y88519D01*
X86868D02*
Y87757D01*
X87375D01*
X87629Y88519D02*
Y87757D01*
X88010D01*
X88137Y87884D01*
Y88392D01*
X88010Y88519D01*
X87629D01*
X83058Y87757D02*
Y88519D01*
X83439D01*
X83566Y88392D01*
Y88138D01*
X83439Y88011D01*
X83058D01*
X83312D02*
X83566Y87757D01*
X84328Y88519D02*
X83820D01*
Y87757D01*
X84328D01*
X83820Y88138D02*
X84074D01*
X85089Y88519D02*
X84582D01*
Y88138D01*
X84835D01*
X84582D01*
Y87757D01*
X80264Y88519D02*
X80137Y88646D01*
X79883D01*
X79756Y88519D01*
Y88011D01*
X79883Y87884D01*
X80137D01*
X80264Y88011D01*
X80645Y87884D02*
X80899D01*
X81026Y88011D01*
Y88265D01*
X80899Y88392D01*
X80645D01*
X80518Y88265D01*
Y88011D01*
X80645Y87884D01*
X81280D02*
Y88392D01*
X81406D01*
X81533Y88265D01*
Y87884D01*
Y88265D01*
X81660Y88392D01*
X81787Y88265D01*
Y87884D01*
X82041Y87630D02*
Y88392D01*
X82422D01*
X82549Y88265D01*
Y88011D01*
X82422Y87884D01*
X82041D01*
X111887Y89916D02*
X111760Y90043D01*
X111506D01*
X111379Y89916D01*
Y89408D01*
X111506Y89281D01*
X111760D01*
X111887Y89408D01*
X112268Y89281D02*
X112522D01*
X112649Y89408D01*
Y89662D01*
X112522Y89789D01*
X112268D01*
X112141Y89662D01*
Y89408D01*
X112268Y89281D01*
X112903D02*
Y89789D01*
X113029D01*
X113156Y89662D01*
Y89281D01*
Y89662D01*
X113283Y89789D01*
X113410Y89662D01*
Y89281D01*
X113664Y89027D02*
Y89789D01*
X114045D01*
X114172Y89662D01*
Y89408D01*
X114045Y89281D01*
X113664D01*
X108966D02*
Y90043D01*
X109347D01*
X109474Y89916D01*
Y89662D01*
X109347Y89535D01*
X108966D01*
X109220D02*
X109474Y89281D01*
X110236Y90043D02*
X109728D01*
Y89281D01*
X110236D01*
X109728Y89662D02*
X109982D01*
X110997Y90043D02*
X110490D01*
Y89662D01*
X110743D01*
X110490D01*
Y89281D01*
X106299Y90043D02*
X105791D01*
Y89662D01*
X106045D01*
X105791D01*
Y89281D01*
X106553Y90043D02*
Y89535D01*
X106807Y89281D01*
X107061Y89535D01*
Y90043D01*
X107315D02*
Y89281D01*
X107822D01*
X108076Y90043D02*
Y89281D01*
X108457D01*
X108584Y89408D01*
Y89916D01*
X108457Y90043D01*
X108076D01*
X102489D02*
Y89281D01*
X102997D01*
X103251Y90043D02*
Y89535D01*
X103505Y89281D01*
X103759Y89535D01*
Y90043D01*
X104013D02*
Y89281D01*
X104520D01*
X104774Y90043D02*
Y89281D01*
X105155D01*
X105282Y89408D01*
Y89916D01*
X105155Y90043D01*
X104774D01*
X98298Y89281D02*
Y90043D01*
X98679D01*
X98806Y89916D01*
Y89662D01*
X98679Y89535D01*
X98298D01*
X99568Y89916D02*
X99441Y90043D01*
X99187D01*
X99060Y89916D01*
Y89408D01*
X99187Y89281D01*
X99441D01*
X99568Y89408D01*
X99822Y90043D02*
Y89281D01*
Y89535D01*
X100329Y90043D01*
X99948Y89662D01*
X100329Y89281D01*
X85979Y90043D02*
Y89281D01*
X86360D01*
X86487Y89408D01*
Y89916D01*
X86360Y90043D01*
X85979D01*
X86741Y89916D02*
X86868Y90043D01*
X87122D01*
X87249Y89916D01*
Y89789D01*
X87122Y89662D01*
X86995D01*
X87122D01*
X87249Y89535D01*
Y89408D01*
X87122Y89281D01*
X86868D01*
X86741Y89408D01*
X83439Y90043D02*
Y89281D01*
X83820D01*
X83947Y89408D01*
Y89916D01*
X83820Y90043D01*
X83439D01*
X84709Y89281D02*
X84201D01*
X84709Y89789D01*
Y89916D01*
X84582Y90043D01*
X84328D01*
X84201Y89916D01*
X80899Y90043D02*
Y89281D01*
X81280D01*
X81407Y89408D01*
Y89916D01*
X81280Y90043D01*
X80899D01*
X81661Y89281D02*
X81915D01*
X81788D01*
Y90043D01*
X81661Y89916D01*
X78359Y90043D02*
Y89281D01*
X78740D01*
X78867Y89408D01*
Y89916D01*
X78740Y90043D01*
X78359D01*
X79121Y89916D02*
X79248Y90043D01*
X79502D01*
X79629Y89916D01*
Y89408D01*
X79502Y89281D01*
X79248D01*
X79121Y89408D01*
Y89916D01*
X75311Y90043D02*
Y89535D01*
X75565Y89281D01*
X75819Y89535D01*
Y90043D01*
X76581Y89916D02*
X76454Y90043D01*
X76200D01*
X76073Y89916D01*
Y89408D01*
X76200Y89281D01*
X76454D01*
X76581Y89408D01*
X77342Y89916D02*
X77215Y90043D01*
X76961D01*
X76835Y89916D01*
Y89408D01*
X76961Y89281D01*
X77215D01*
X77342Y89408D01*
X72771Y90043D02*
Y89535D01*
X73025Y89281D01*
X73279Y89535D01*
Y90043D01*
X74041Y89916D02*
X73914Y90043D01*
X73660D01*
X73533Y89916D01*
Y89408D01*
X73660Y89281D01*
X73914D01*
X74041Y89408D01*
X74802Y89916D02*
X74675Y90043D01*
X74421D01*
X74295Y89916D01*
Y89408D01*
X74421Y89281D01*
X74675D01*
X74802Y89408D01*
X70739Y89916D02*
X70612Y90043D01*
X70358D01*
X70231Y89916D01*
Y89408D01*
X70358Y89281D01*
X70612D01*
X70739Y89408D01*
Y89662D01*
X70485D01*
X70993Y89281D02*
Y90043D01*
X71501Y89281D01*
Y90043D01*
X71755D02*
Y89281D01*
X72135D01*
X72262Y89408D01*
Y89916D01*
X72135Y90043D01*
X71755D01*
X68326Y89916D02*
X68199Y90043D01*
X67945D01*
X67818Y89916D01*
Y89408D01*
X67945Y89281D01*
X68199D01*
X68326Y89408D01*
Y89662D01*
X68072D01*
X68580Y89281D02*
Y90043D01*
X69088Y89281D01*
Y90043D01*
X69342D02*
Y89281D01*
X69722D01*
X69849Y89408D01*
Y89916D01*
X69722Y90043D01*
X69342D01*
M02*
