M48
;Layer_Color=9474304
;FILE_FORMAT=4:3
METRIC,LZ
;TYPE=PLATED
T1F00S00C0.900
%
T01
X0041529Y0091821
X0044069
X0046609
X0049149
X0049276Y0100584
X0046736
X0044196
X0041656
X0058293Y0085598
X0060833
X0063373
X0065913
X0068453
X0070993
X0073533
X0076073
X0078613
X0078867Y0092202
X0076327
X0073787
X0071247
X0068707
X0081407
X0083947
X0086487
X0089027
X0091567
X0094107
X0096647
X0099187
X0101727
X0104267
X0106807
X0109347
X0111887
X0111633Y0085598
X0109093
X0106553
X0104013
X0101473
X0098933
X0096393
X0093853
X0091313
X0088773
X0086233
X0083693
X0081153
X0114173
X0116713
M30
