%FSTAX23Y23*%
%MOIN*%
%SFA1B1*%

%IPPOS*%
%ADD10C,0.010000*%
%ADD11C,0.059055*%
%ADD12R,0.059055X0.059055*%
%LNee107_mcu_fpga_connector_board-1*%
%LPD*%
G36*
X0463Y03409D02*
X04611D01*
Y03875*
X04606Y03886*
X04516Y03976*
X04505Y03981*
X02785*
X02773Y03976*
X02693Y03896*
X02688Y03885*
Y03666*
X02674Y0366*
X02664Y03635*
X02705*
X02745*
X02735Y0366*
X02721Y03666*
Y03878*
X02791Y03948*
X02832*
X02836Y03939*
X02793Y03896*
X02788Y03885*
Y03666*
X02774Y0366*
X02764Y03635*
X02805*
X02845*
X02835Y0366*
X02821Y03666*
Y03878*
X02891Y03948*
X04498*
X04572Y03875*
X04483Y03786*
X04478Y03775*
Y03406*
X04464Y034*
X04454Y03375*
X04495*
X04535*
X04525Y034*
X04511Y03406*
Y03768*
X04569Y03826*
X04578Y03822*
Y03409*
X04555*
Y03375*
X04595*
Y0337*
X046*
Y0333*
X0463*
Y02075*
X0463Y02074*
X04626Y02065*
X0156*
Y048*
X0463*
Y03409*
G37*
%LNee107_mcu_fpga_connector_board-2*%
%LPC*%
G36*
X03295Y03412D02*
X03264Y034D01*
X03252Y0337*
X03264Y03339*
X03295Y03327*
X03325Y03339*
X03337Y0337*
X03325Y034*
X03295Y03412*
G37*
G36*
X03395D02*
X03364Y034D01*
X03352Y0337*
X03364Y03339*
X03395Y03327*
X03425Y03339*
X03437Y0337*
X03425Y034*
X03395Y03412*
G37*
G36*
X03195D02*
X03164Y034D01*
X03152Y0337*
X03164Y03339*
X03195Y03327*
X03225Y03339*
X03237Y0337*
X03225Y034*
X03195Y03412*
G37*
G36*
X02995D02*
X02964Y034D01*
X02952Y0337*
X02964Y03339*
X02995Y03327*
X03025Y03339*
X03037Y0337*
X03025Y034*
X02995Y03412*
G37*
G36*
X03095D02*
X03064Y034D01*
X03052Y0337*
X03064Y03339*
X03095Y03327*
X03125Y03339*
X03137Y0337*
X03125Y034*
X03095Y03412*
G37*
G36*
X04195D02*
X04164Y034D01*
X04152Y0337*
X04164Y03339*
X04195Y03327*
X04225Y03339*
X04237Y0337*
X04225Y034*
X04195Y03412*
G37*
G36*
X0449Y03365D02*
X04454D01*
X04464Y03339*
X0449Y03329*
Y03365*
G37*
G36*
X03905Y03672D02*
X03874Y0366D01*
X03862Y0363*
X03874Y03599*
X03888Y03593*
Y03551*
X03863Y03526*
X03745*
X03733Y03521*
X03683Y03471*
X03678Y0346*
Y03406*
X03664Y034*
X03652Y0337*
X03664Y03339*
X03695Y03327*
X03725Y03339*
X03737Y0337*
X03725Y034*
X03711Y03406*
Y03453*
X03751Y03493*
X0387*
X03881Y03498*
X03916Y03533*
X03921Y03545*
Y03593*
X03935Y03599*
X03947Y0363*
X03935Y0366*
X03905Y03672*
G37*
G36*
X03495Y03412D02*
X03464Y034D01*
X03452Y0337*
X03464Y03339*
X03495Y03327*
X03525Y03339*
X03537Y0337*
X03525Y034*
X03495Y03412*
G37*
G36*
X03595D02*
X03564Y034D01*
X03552Y0337*
X03564Y03339*
X03595Y03327*
X03625Y03339*
X03637Y0337*
X03625Y034*
X03595Y03412*
G37*
G36*
X0194Y04002D02*
X01909Y0399D01*
X01897Y0396*
X01909Y03929*
X0194Y03917*
X0197Y03929*
X01976Y03943*
X02123*
X02173Y03893*
Y0314*
X02178Y03128*
X02263Y03043*
X02275Y03038*
X03705*
X03716Y03043*
X03806Y03133*
X03811Y03145*
Y03333*
X03825Y03339*
X03837Y0337*
X03825Y034*
X03795Y03412*
X03764Y034*
X03752Y0337*
X03764Y03339*
X03778Y03333*
Y03151*
X03698Y03071*
X02281*
X02206Y03146*
Y039*
X02201Y03911*
X02141Y03971*
X0213Y03976*
X01976*
X0197Y0399*
X0194Y04002*
G37*
G36*
X02295Y03412D02*
X02264Y034D01*
X02252Y0337*
X02264Y03339*
X02295Y03327*
X02325Y03339*
X02337Y0337*
X02325Y034*
X02295Y03412*
G37*
G36*
X0184Y04002D02*
X01809Y0399D01*
X01797Y0396*
X01809Y03929*
X01823Y03923*
Y03865*
X01828Y03853*
X01863Y03818*
X01875Y03813*
X02043*
X02118Y03738*
Y03115*
X02123Y03103*
X02258Y02968*
X0227Y02963*
X03785*
X03796Y02968*
X03906Y03078*
X03911Y0309*
Y03333*
X03925Y03339*
X03937Y0337*
X03925Y034*
X03895Y03412*
X03864Y034*
X03852Y0337*
X03864Y03339*
X03878Y03333*
Y03096*
X03778Y02996*
X02276*
X02151Y03121*
Y03745*
X02146Y03756*
X02061Y03841*
X0205Y03846*
X01881*
X01856Y03871*
Y03923*
X0187Y03929*
X01882Y0396*
X0187Y0399*
X0184Y04002*
G37*
G36*
X01679Y03999D02*
X016D01*
Y0392*
X01623*
Y0377*
X01628Y03758*
X01678Y03708*
X0169Y03703*
X01963*
X02018Y03648*
Y02945*
X02023Y02933*
X02153Y02803*
X02165Y02798*
X04*
X04011Y02803*
X04106Y02898*
X04111Y0291*
Y03333*
X04125Y03339*
X04137Y0337*
X04125Y034*
X04095Y03412*
X04064Y034*
X04052Y0337*
X04064Y03339*
X04078Y03333*
Y02916*
X03993Y02831*
X02171*
X02051Y02951*
Y03655*
X02046Y03666*
X01981Y03731*
X0197Y03736*
X01696*
X01656Y03776*
Y0392*
X01679*
Y03999*
G37*
G36*
X0174Y04002D02*
X01709Y0399D01*
X01697Y0396*
X01709Y03929*
X01723Y03923*
Y0381*
X01728Y03798*
X01773Y03753*
X01785Y03748*
X02013*
X02073Y03688*
Y03*
X02078Y02988*
X02183Y02883*
X02195Y02878*
X0393*
X03941Y02883*
X04006Y02948*
X04011Y0296*
Y03333*
X04025Y03339*
X04037Y0337*
X04025Y034*
X03995Y03412*
X03964Y034*
X03952Y0337*
X03964Y03339*
X03978Y03333*
Y02966*
X03923Y02911*
X02201*
X02106Y03006*
Y03695*
X02101Y03706*
X02031Y03776*
X0202Y03781*
X01791*
X01756Y03816*
Y03923*
X0177Y03929*
X01782Y0396*
X0177Y0399*
X0174Y04002*
G37*
G36*
X02395Y03412D02*
X02364Y034D01*
X02352Y0337*
X02364Y03339*
X02395Y03327*
X02425Y03339*
X02437Y0337*
X02425Y034*
X02395Y03412*
G37*
G36*
X02795D02*
X02764Y034D01*
X02752Y0337*
X02764Y03339*
X02795Y03327*
X02825Y03339*
X02837Y0337*
X02825Y034*
X02795Y03412*
G37*
G36*
X02895D02*
X02864Y034D01*
X02852Y0337*
X02864Y03339*
X02895Y03327*
X02925Y03339*
X02937Y0337*
X02925Y034*
X02895Y03412*
G37*
G36*
X02695D02*
X02664Y034D01*
X02652Y0337*
X02664Y03339*
X02695Y03327*
X02725Y03339*
X02737Y0337*
X02725Y034*
X02695Y03412*
G37*
G36*
X02495D02*
X02464Y034D01*
X02452Y0337*
X02464Y03339*
X02495Y03327*
X02525Y03339*
X02537Y0337*
X02525Y034*
X02495Y03412*
G37*
G36*
X02595D02*
X02564Y034D01*
X02552Y0337*
X02564Y03339*
X02595Y03327*
X02625Y03339*
X02637Y0337*
X02625Y034*
X02595Y03412*
G37*
G36*
X04535Y03365D02*
X045D01*
Y03329*
X04525Y03339*
X04535Y03365*
G37*
G36*
X04105Y03672D02*
X04074Y0366D01*
X04062Y0363*
X04074Y03599*
X04105Y03587*
X04135Y03599*
X04147Y0363*
X04135Y0366*
X04105Y03672*
G37*
G36*
X027Y03625D02*
X02664D01*
X02674Y03599*
X027Y03589*
Y03625*
G37*
G36*
X04005Y03672D02*
X03974Y0366D01*
X03962Y0363*
X03974Y03599*
X04005Y03587*
X04035Y03599*
X04047Y0363*
X04035Y0366*
X04005Y03672*
G37*
G36*
X03705D02*
X03674Y0366D01*
X03662Y0363*
X03674Y03599*
X03705Y03587*
X03735Y03599*
X03747Y0363*
X03735Y0366*
X03705Y03672*
G37*
G36*
X03805D02*
X03774Y0366D01*
X03762Y0363*
X03774Y03599*
X03805Y03587*
X03835Y03599*
X03847Y0363*
X03835Y0366*
X03805Y03672*
G37*
G36*
X04444Y03669D02*
X04365D01*
Y0359*
X04444*
Y03669*
G37*
G36*
X0418Y03886D02*
X02955D01*
X02943Y03881*
X02893Y03831*
X02888Y0382*
Y03666*
X02874Y0366*
X02862Y0363*
X02874Y03599*
X02905Y03587*
X02935Y03599*
X02947Y0363*
X02935Y0366*
X02921Y03666*
Y03813*
X02961Y03853*
X03022*
X03026Y03844*
X02993Y03811*
X02988Y038*
Y03666*
X02974Y0366*
X02962Y0363*
X02974Y03599*
X03005Y03587*
X03035Y03599*
X03047Y0363*
X03035Y0366*
X03021Y03666*
Y03793*
X03081Y03853*
X04173*
X04238Y03788*
Y03669*
X04228Y03662*
X04205Y03672*
X04174Y0366*
X04162Y0363*
X04174Y03599*
X04205Y03587*
X04228Y03597*
X04238Y0359*
Y0341*
X04243Y03398*
X04258Y03384*
X04252Y0337*
X04264Y03339*
X04278Y03333*
Y0327*
X04283Y03258*
X04328Y03213*
X0434Y03208*
X0438*
X04391Y03213*
X04406Y03228*
X04411Y0324*
Y03333*
X04425Y03339*
X04437Y0337*
X04425Y034*
X04395Y03412*
X04364Y034*
X04352Y0337*
X04364Y03339*
X04378Y03333*
Y03246*
X04373Y03241*
X04346*
X04311Y03276*
Y03333*
X04325Y03339*
X04337Y0337*
X04325Y034*
X04295Y03412*
X0428Y03406*
X04271Y03416*
Y0359*
X04281Y03597*
X04305Y03587*
X04335Y03599*
X04347Y0363*
X04335Y0366*
X04305Y03672*
X04281Y03662*
X04271Y03669*
Y03795*
X04266Y03806*
X04191Y03881*
X0418Y03886*
G37*
G36*
X02845Y03625D02*
X0281D01*
Y03589*
X02835Y03599*
X02845Y03625*
G37*
G36*
X028D02*
X02764D01*
X02774Y03599*
X028Y03589*
Y03625*
G37*
G36*
X02745D02*
X0271D01*
Y03589*
X02735Y03599*
X02745Y03625*
G37*
G36*
X03605Y03672D02*
X03574Y0366D01*
X03562Y0363*
X03574Y03599*
X03605Y03587*
X03635Y03599*
X03647Y0363*
X03635Y0366*
X03605Y03672*
G37*
G36*
X01835Y03657D02*
X01804Y03645D01*
X01792Y03615*
X01804Y03584*
X01835Y03572*
X01865Y03584*
X01877Y03615*
X01865Y03645*
X01835Y03657*
G37*
G36*
X01974Y03654D02*
X01895D01*
Y03575*
X01974*
Y03654*
G37*
G36*
X01735Y03657D02*
X01704Y03645D01*
X01692Y03615*
X01704Y03584*
X01735Y03572*
X01765Y03584*
X01777Y03615*
X01765Y03645*
X01735Y03657*
G37*
G36*
X0459Y03365D02*
X04555D01*
Y0333*
X0459*
Y03365*
G37*
G36*
X01635Y03657D02*
X01604Y03645D01*
X01592Y03615*
X01604Y03584*
X01635Y03572*
X01665Y03584*
X01677Y03615*
X01665Y03645*
X01635Y03657*
G37*
G36*
X03405Y03672D02*
X03374Y0366D01*
X03362Y0363*
X03374Y03599*
X03405Y03587*
X03435Y03599*
X03447Y0363*
X03435Y0366*
X03405Y03672*
G37*
G36*
X03505D02*
X03474Y0366D01*
X03462Y0363*
X03474Y03599*
X03505Y03587*
X03535Y03599*
X03547Y0363*
X03535Y0366*
X03505Y03672*
G37*
G36*
X03305D02*
X03274Y0366D01*
X03262Y0363*
X03274Y03599*
X03305Y03587*
X03335Y03599*
X03347Y0363*
X03335Y0366*
X03305Y03672*
G37*
G36*
X03105D02*
X03074Y0366D01*
X03062Y0363*
X03074Y03599*
X03105Y03587*
X03135Y03599*
X03147Y0363*
X03135Y0366*
X03105Y03672*
G37*
G36*
X03205D02*
X03174Y0366D01*
X03162Y0363*
X03174Y03599*
X03205Y03587*
X03235Y03599*
X03247Y0363*
X03235Y0366*
X03205Y03672*
G37*
%LNee107_mcu_fpga_connector_board-3*%
%LPD*%
G54D10*
X0164Y0377D02*
Y0396D01*
Y0377D02*
X0169Y0372D01*
X0197*
X02035Y03655*
Y02945D02*
Y03655D01*
Y02945D02*
X02165Y02815D01*
X04*
X04095Y0291*
Y0337*
X0174Y0381D02*
Y0396D01*
Y0381D02*
X01785Y03765D01*
X0202*
X0209Y03695*
Y03D02*
Y03695D01*
Y03D02*
X02195Y02895D01*
X0393*
X03995Y0296*
Y0337*
X0184Y03865D02*
Y0396D01*
Y03865D02*
X01875Y0383D01*
X0205*
X02135Y03745*
Y03115D02*
Y03745D01*
Y03115D02*
X0227Y0298D01*
X03785*
X02275Y03055D02*
X03705D01*
X0219Y0314D02*
X02275Y03055D01*
X0219Y0314D02*
Y039D01*
X0213Y0396D02*
X0219Y039D01*
X0194Y0396D02*
X0213D01*
X03785Y0298D02*
X03895Y0309D01*
Y0337*
X03705Y03055D02*
X03795Y03145D01*
Y0337*
X02885Y03965D02*
X04505D01*
X02785D02*
X02885D01*
X02805Y03885D02*
X02885Y03965D01*
X02805Y0363D02*
Y03885D01*
X04495Y03775D02*
X04595Y03875D01*
X04495Y0337D02*
Y03775D01*
X04595Y0337D02*
Y03875D01*
X04505Y03965D02*
X04595Y03875D01*
X02705Y03885D02*
X02785Y03965D01*
X02705Y0363D02*
Y03885D01*
X03075Y0387D02*
X0418D01*
X02955D02*
X03075D01*
X03005Y038D02*
X03075Y0387D01*
X03005Y0363D02*
Y038D01*
X04395Y0324D02*
Y0337D01*
X0438Y03225D02*
X04395Y0324D01*
X0434Y03225D02*
X0438D01*
X04295Y0327D02*
X0434Y03225D01*
X04295Y0327D02*
Y0337D01*
X04255Y0341D02*
X04295Y0337D01*
X04255Y0341D02*
Y03795D01*
X0418Y0387D02*
X04255Y03795D01*
X02905Y0382D02*
X02955Y0387D01*
X02905Y0363D02*
Y0382D01*
X03905Y03545D02*
Y0363D01*
X0387Y0351D02*
X03905Y03545D01*
X03745Y0351D02*
X0387D01*
X03695Y0346D02*
X03745Y0351D01*
X03695Y0337D02*
Y0346D01*
G54D11*
X01635Y03615D03*
X01735D03*
X01835D03*
X0194Y0396D03*
X0184D03*
X0174D03*
X02295Y0337D03*
X02395D03*
X02495D03*
X02595D03*
X02695D03*
X02795D03*
X02895D03*
X02995D03*
X03095D03*
X03195D03*
X03295D03*
X03395D03*
X03495D03*
X03595D03*
X03695D03*
X03795D03*
X03895D03*
X03995D03*
X04095D03*
X04195D03*
X04295D03*
X04395D03*
X04495D03*
X02705Y0363D03*
X02805D03*
X02905D03*
X03005D03*
X03105D03*
X03205D03*
X03305D03*
X03405D03*
X03505D03*
X03605D03*
X03705D03*
X03805D03*
X03905D03*
X04005D03*
X04105D03*
X04205D03*
X04305D03*
G54D12*
X01935Y03615D03*
X0164Y0396D03*
X04595Y0337D03*
X04405Y0363D03*
M02*