%FSTAX23Y23*%
%MOIN*%
%SFA1B1*%

%IPPOS*%
%ADD27C,0.030000*%
%ADD28C,0.059055*%
%ADD29R,0.059055X0.059055*%
%ADD30C,0.060000*%
%LNtwo_ant_fpga_board-1*%
%LPD*%
G54D27*
X01825Y022D03*
X03025Y0189D03*
X034Y019D03*
X02305Y0253D03*
X0349Y0242D03*
X02375Y0211D03*
X02205Y0241D03*
X03315Y0223D03*
Y0227D03*
Y0241D03*
X03535Y02495D03*
X03625Y0227D03*
X0325Y0278D03*
X02965Y02615D03*
X0294Y02845D03*
X0266Y02795D03*
Y02625D03*
X0255Y026D03*
X0216Y02715D03*
X02365Y02335D03*
X02605Y0223D03*
X0256Y02405D03*
X02155Y0199D03*
X03665Y0208D03*
X0352Y02095D03*
X034Y0207D03*
X0317Y02035D03*
X03055Y02125D03*
X03015Y02035D03*
X01805Y0179D03*
Y02085D03*
X02738Y02026D03*
X02545Y02D03*
X03252Y01917D03*
X02565Y021D03*
X028Y0204D03*
X02375Y02375D03*
X03126Y02427D03*
X03765Y02315D03*
X03565Y019D03*
X03665Y01905D03*
G54D28*
X0198Y0173D03*
X0208D03*
X0218D03*
X0228D03*
X0238D03*
X0248D03*
X0258D03*
X0268D03*
X0278D03*
X0288D03*
X0298D03*
X0308D03*
X0318D03*
X0328D03*
X0338D03*
X0348D03*
X0358D03*
G54D29*
X0368Y0173D03*
G54D30*
X021Y02485D03*
X0201D03*
X0384Y023D03*
M02*