%FSTAX23Y23*%
%MOIN*%
%SFA1B1*%

%IPPOS*%
%AMD34*
1,1,0.080000,0.000000,0.000000*
1,0,0.060000,0.000000,0.000000*
4,0,4,0.024700,0.031800,-0.031800,-0.024700,-0.024700,-0.031800,0.031800,0.024700,0.024700,0.031800,0.0*
4,0,4,-0.024700,0.031800,0.031800,-0.024700,0.024700,-0.031800,-0.031800,0.024700,-0.024700,0.031800,0.0*
%
%AMD35*
1,1,0.090000,0.000000,0.000000*
1,0,0.070000,0.000000,0.000000*
4,0,4,0.028300,0.035400,-0.035400,-0.028300,-0.028300,-0.035400,0.035400,0.028300,0.028300,0.035400,0.0*
4,0,4,-0.028300,0.035400,0.035400,-0.028300,0.028300,-0.035400,-0.035400,0.028300,-0.028300,0.035400,0.0*
%
%ADD30C,0.060000*%
%ADD32C,0.040000*%
%ADD33C,0.075433*%
G04~CAMADD=34~12~0.0~0.0~0.0~0.0~0.0~0.0~0~800.0~600.0~0.0~45.0~4~100.0~0.0~0.0~0.0~0~0.0~0.0~0.0~0.0~800.0~800.0*
%ADD34D34*%
G04~CAMADD=35~12~0.0~0.0~0.0~0.0~0.0~0.0~0~900.0~700.0~0.0~45.0~4~100.0~0.0~0.0~0.0~0~0.0~0.0~0.0~0.0~900.0~900.0*
%ADD35D35*%
%ADD36C,0.070000*%
%ADD37C,0.050000*%
%LNtwo_ant_fpga_board-1*%
%LPD*%
G54D30*
X01825Y022D03*
X03025Y0189D03*
X034Y019D03*
X0349Y0242D03*
X02375Y0211D03*
X02205Y0241D03*
X03315Y0227D03*
X03625D03*
X02965Y02615D03*
X0266Y02795D03*
X02365Y02335D03*
X0256Y02405D03*
X03665Y0208D03*
X03055Y02125D03*
X03252Y01917D03*
X02565Y021D03*
X028Y0204D03*
X02375Y02375D03*
X03126Y02427D03*
X03765Y02315D03*
X03565Y019D03*
X03665Y01905D03*
G54D32*
X016Y0168D02*
Y02905D01*
X03915*
Y0168D02*
Y02905D01*
X016Y0168D02*
X03915D01*
G54D33*
X0198Y0173D03*
X0208D03*
X0218D03*
X0228D03*
X0238D03*
X0248D03*
X0258D03*
X0268D03*
X0278D03*
X0288D03*
X0298D03*
X0308D03*
X0318D03*
X0328D03*
X0338D03*
X0348D03*
X0358D03*
X0368D03*
G54D34*
X02305Y0253D03*
X03315Y0223D03*
Y0241D03*
X03535Y02495D03*
X0325Y0278D03*
X0294Y02845D03*
X0266Y02625D03*
X0255Y026D03*
X0216Y02715D03*
X02605Y0223D03*
X02155Y0199D03*
X0352Y02095D03*
X034Y0207D03*
X0317Y02035D03*
X03015D03*
X01805Y0179D03*
Y02085D03*
X02738Y02026D03*
X02545Y02D03*
G54D35*
X021Y02485D03*
G54D36*
X0201Y02485D03*
X0384Y023D03*
G54D37*
X038Y028D03*
Y026D03*
Y024D03*
Y022D03*
X0385Y021D03*
X038Y02D03*
X0385Y019D03*
X038Y018D03*
X037Y028D03*
X0375Y027D03*
Y025D03*
X037Y022D03*
X036Y028D03*
X035D03*
Y022D03*
X034Y028D03*
X0345Y027D03*
Y019D03*
X034Y018D03*
X033Y028D03*
Y026D03*
X031Y028D03*
X0315Y023D03*
X031Y022D03*
X03Y028D03*
X0305Y023D03*
X03Y022D03*
X0295Y023D03*
X029Y022D03*
X0295Y021D03*
X0285Y023D03*
X028Y022D03*
X0285Y021D03*
X0275Y023D03*
X026Y028D03*
X025D03*
Y026D03*
X0255Y025D03*
X024Y028D03*
Y026D03*
X0245Y025D03*
X0235Y027D03*
X0225Y023D03*
X021Y028D03*
X02D03*
X0205Y027D03*
X019Y028D03*
X018D03*
X017D03*
Y026D03*
Y024D03*
Y022D03*
X0175Y021D03*
M02*