%FSTAX23Y23*%
%MOIN*%
%SFA1B1*%

%IPPOS*%
%ADD9500C,0.010000*%
%ADD9501C,0.020000*%
%ADD9502C,0.030000*%
%ADD9503C,0.035433*%
%LNtwo_ant_fpga_board-1*%
%LPD*%
G54D9500*
X034Y018D03*
X0345Y019D03*
X035Y022D03*
X037D03*
X038D03*
X0385Y021D03*
X038Y02D03*
X0385Y019D03*
X038Y018D03*
Y024D03*
X0375Y025D03*
X038Y026D03*
X0375Y027D03*
X038Y028D03*
X037D03*
X036D03*
X035D03*
X034D03*
X033D03*
Y026D03*
X0345Y027D03*
X0315Y023D03*
X0305D03*
X0295D03*
X0285D03*
X0275D03*
X028Y022D03*
X029D03*
X03D03*
X031D03*
X0295Y021D03*
X0285D03*
X0255Y025D03*
X0245D03*
X025Y026D03*
X024D03*
X0235Y027D03*
X024Y028D03*
X025D03*
X026D03*
X03D03*
X031D03*
X021D03*
X02D03*
X019D03*
X018D03*
X017D03*
Y026D03*
Y024D03*
Y022D03*
X0175Y021D03*
X0225Y023D03*
X0205Y027D03*
G54D9501*
X03252Y01917D03*
X034Y019D03*
X03565D03*
X03665Y01905D03*
Y0208D03*
X0352Y02095D03*
X034Y0207D03*
X03315Y0223D03*
Y0227D03*
Y0241D03*
X0349Y0242D03*
X03535Y02495D03*
X03625Y0227D03*
X03765Y02315D03*
X03126Y02427D03*
X0317Y02035D03*
X0325Y0278D03*
X0294Y02845D03*
X02965Y02615D03*
X0266Y02625D03*
X0255Y026D03*
X0256Y02405D03*
X02375Y02375D03*
X02365Y02335D03*
X02375Y0211D03*
X02565Y021D03*
X02545Y02D03*
X02738Y02026D03*
X028Y0204D03*
X03015Y02035D03*
X03055Y02125D03*
X03025Y0189D03*
X02605Y0223D03*
X02205Y0241D03*
X02305Y0253D03*
X0216Y02715D03*
X0266Y02795D03*
X02155Y0199D03*
X01805Y02085D03*
X01825Y022D03*
X01805Y0179D03*
G54D9502*
X0384Y023D03*
X021Y02485D03*
X0201D03*
G54D9503*
X0318Y0173D03*
X0328D03*
X0338D03*
X0348D03*
X0358D03*
X0368D03*
X0308D03*
X0298D03*
X0288D03*
X0278D03*
X0268D03*
X0258D03*
X0248D03*
X0238D03*
X0228D03*
X0218D03*
X0208D03*
X0198D03*
M02*