%FSTAX23Y23*%
%MOIN*%
%SFA1B1*%

%IPPOS*%
%ADD10R,0.096063X0.096063*%
%ADD11C,0.080709*%
%ADD12R,0.043307X0.066929*%
%ADD13R,0.039370X0.043307*%
%ADD14R,0.043307X0.039370*%
%ADD15O,0.050000X0.144882*%
%ADD16R,0.050000X0.144882*%
%ADD17R,0.047244X0.013780*%
%ADD18O,0.059055X0.023622*%
%ADD19R,0.059055X0.023622*%
%ADD20O,0.059055X0.027559*%
%ADD21R,0.059055X0.027559*%
%ADD22R,0.045275X0.017716*%
%ADD23O,0.070866X0.011811*%
%ADD24O,0.011811X0.070866*%
%LNtwo_ant_fpga_board-1*%
%LPD*%
G54D10*
X03625Y02709D03*
Y02499D03*
X03834Y02709D03*
Y02499D03*
X01675Y02709D03*
Y02499D03*
X01885Y02709D03*
Y02499D03*
G54D11*
X0373Y02604D03*
X0178D03*
G54D12*
X02915Y02685D03*
Y02775D03*
X0284Y02685D03*
Y02775D03*
G54D13*
X0255Y0273D03*
Y02663D03*
X02485Y0273D03*
Y02663D03*
X0306Y02731D03*
Y02665D03*
X02995Y02731D03*
Y02665D03*
X0346Y01953D03*
Y0202D03*
X0352Y01953D03*
Y0202D03*
X0262Y0273D03*
Y02663D03*
X0318Y02665D03*
Y02731D03*
X03585Y01953D03*
Y0202D03*
X0269Y02735D03*
Y02668D03*
X02755Y02735D03*
Y02668D03*
X0312Y02731D03*
Y02665D03*
X0168Y0233D03*
Y02263D03*
X02Y02656D03*
Y0259D03*
X03725Y01955D03*
Y02021D03*
X034Y01953D03*
Y0202D03*
X0242Y02731D03*
Y02665D03*
X03665Y01955D03*
Y02021D03*
G54D14*
X03061Y0285D03*
X02995D03*
X02495Y0233D03*
X02561D03*
X03195Y0285D03*
X03128D03*
X01735Y01975D03*
X01801D03*
X02495Y0227D03*
X02561D03*
X0332Y0273D03*
X03253D03*
X0343Y0215D03*
X03363D03*
X02493Y02205D03*
X0256D03*
X01738Y01905D03*
X01805D03*
X02135Y0259D03*
X02068D03*
X02493Y02145D03*
X0256D03*
X0174Y0184D03*
X01806D03*
X0343Y0221D03*
X03363D03*
X02286Y0278D03*
X0222D03*
X02285Y02715D03*
X02218D03*
X0343Y0227D03*
X03363D03*
X0332Y0267D03*
X03253D03*
X0343Y0233D03*
X03363D03*
X0343Y0245D03*
X03363D03*
X01735Y02035D03*
X01801D03*
X0343Y0239D03*
X03363D03*
G54D15*
X02305Y0211D03*
X02205D03*
X02105D03*
X02005D03*
X01905D03*
X02305Y01915D03*
X02205D03*
X02105D03*
X02005D03*
G54D16*
X01905Y01915D03*
G54D17*
X03377Y02606D03*
Y0258D03*
Y02555D03*
Y02529D03*
X03535Y02606D03*
Y0258D03*
Y02555D03*
Y02529D03*
G54D18*
X02079Y02257D03*
Y02332D03*
X01985Y02257D03*
Y02295D03*
X01869Y02255D03*
Y02329D03*
X01775Y02255D03*
Y02292D03*
G54D19*
X01985Y02332D03*
X01775Y02329D03*
G54D20*
X02205Y0245D03*
Y02375D03*
X023Y0245D03*
Y02412D03*
G54D21*
X023Y02375D03*
G54D22*
X02217Y02589D03*
Y02615D03*
Y0264D03*
X02302D03*
Y02615D03*
Y02589D03*
G54D23*
X03252Y02486D03*
Y02466D03*
Y02446D03*
Y02427D03*
Y02407D03*
Y02387D03*
Y02368D03*
Y02348D03*
Y02328D03*
Y02309D03*
Y02289D03*
Y02269D03*
Y0225D03*
Y0223D03*
Y0221D03*
Y0219D03*
Y02171D03*
Y02151D03*
Y02131D03*
Y02112D03*
Y02092D03*
Y02072D03*
Y02053D03*
Y02033D03*
Y02013D03*
X02657D03*
Y02033D03*
Y02053D03*
Y02072D03*
Y02092D03*
Y02112D03*
Y02131D03*
Y02151D03*
Y02171D03*
Y0219D03*
Y0221D03*
Y0223D03*
Y0225D03*
Y02269D03*
Y02289D03*
Y02309D03*
Y02328D03*
Y02348D03*
Y02368D03*
Y02387D03*
Y02407D03*
Y02427D03*
Y02446D03*
Y02466D03*
Y02486D03*
G54D24*
X03191Y01952D03*
X03171D03*
X03151D03*
X03132D03*
X03112D03*
X03092D03*
X03073D03*
X03053D03*
X03033D03*
X03014D03*
X02994D03*
X02974D03*
X02955D03*
X02935D03*
X02915D03*
X02895D03*
X02876D03*
X02856D03*
X02836D03*
X02817D03*
X02797D03*
X02777D03*
X02758D03*
X02738D03*
X02718D03*
Y02547D03*
X02738D03*
X02758D03*
X02777D03*
X02797D03*
X02817D03*
X02836D03*
X02856D03*
X02876D03*
X02895D03*
X02915D03*
X02935D03*
X02955D03*
X02974D03*
X02994D03*
X03014D03*
X03033D03*
X03053D03*
X03073D03*
X03092D03*
X03112D03*
X03132D03*
X03151D03*
X03171D03*
X03191D03*
M02*