%FSTAX23Y23*%
%MOIN*%
%SFA1B1*%

%IPPOS*%
%ADD10C,0.009843*%
%ADD11R,0.039370X0.043307*%
%ADD12O,0.023622X0.059055*%
%ADD13R,0.023622X0.059055*%
%ADD14R,0.043307X0.039370*%
%ADD15O,0.050000X0.144882*%
%ADD16R,0.050000X0.144882*%
%ADD17R,0.078740X0.021654*%
%ADD18O,0.078740X0.021654*%
%ADD19R,0.177165X0.019685*%
%ADD20R,0.098425X0.157480*%
%ADD21R,0.026772X0.039370*%
%ADD22C,0.020000*%
%ADD23O,0.059055X0.023622*%
%ADD24R,0.059055X0.023622*%
%ADD25C,0.007874*%
%ADD26R,0.008661X0.078740*%
%ADD27R,0.078740X0.008661*%
%ADD28O,0.078740X0.008661*%
%ADD29R,0.055118X0.074803*%
%ADD30R,0.047244X0.090551*%
%ADD31R,0.066929X0.011811*%
%ADD32O,0.066929X0.011811*%
%ADD33R,0.078740X0.059055*%
%ADD34R,0.098425X0.059055*%
%ADD35R,0.068898X0.031496*%
%ADD36C,0.010000*%
%ADD37C,0.002992*%
%ADD38C,0.020000*%
%ADD39C,0.030000*%
%ADD40C,0.060000*%
%ADD41C,0.033465*%
%ADD42R,0.059055X0.059055*%
%ADD43C,0.059055*%
%ADD44C,0.098425*%
%LNmsp_mcu-1*%
%LPD*%
G36*
X03181Y02453D02*
X03178Y02452D01*
X03171Y02433*
X03178Y02413*
X03198Y02406*
X03217Y02413*
X03225Y02433*
X03232Y02433*
X03234Y02433*
X03253Y02441*
X03261Y0246*
X03253Y0248*
X0325Y02481*
Y02509*
X03258Y02515*
X03259Y02514*
X03278Y02522*
X03279Y02526*
X03296*
Y02488*
Y02449*
Y02419*
X03294Y02417*
X03282Y02419*
X0328Y02425*
X03265Y0243*
Y02405*
X0326*
Y024*
X03236*
X03238Y02395*
X03231Y02385*
X03203*
Y02339*
X03201Y02335*
X03194*
X03193Y02339*
Y02385*
X03144*
Y02339*
X03142Y02335*
X03134*
Y02385*
X03115*
Y02414*
X03123Y0242*
X03125Y02419*
X03144Y02427*
X03152Y02447*
X03144Y02466*
X03125Y02474*
X0311Y02467*
X03099Y02468*
X0309Y02471*
X03086Y02484*
X03091Y02495*
X03083Y02515*
X03064Y02523*
X03044Y02515*
X03043Y02511*
X03033Y0251*
X03009Y02534*
X03006Y02535*
X03004Y02545*
X0301Y02552*
X03044*
X03045Y02549*
X03065Y02541*
X03084Y02549*
X03092Y02569*
X03084Y02588*
X03065Y02596*
X03045Y02588*
X03044Y02585*
X03*
X02989Y0258*
X02972Y02562*
X02962Y02567*
Y02587*
Y02626*
Y02666*
Y02708*
X02962Y02708*
X02963Y0271*
X02967Y02719*
X02985*
Y027*
X02981Y02699*
X02973Y0268*
X02981Y0266*
X03Y02652*
X0302Y0266*
X03025Y02674*
X03036*
X03041Y0266*
X0306Y02652*
X0308Y0266*
X03088Y0268*
X0308Y02699*
X03062Y02706*
X03059Y02709*
X03059Y0271*
X03065Y02719*
X03181*
Y02453*
G37*
G36*
X04042Y02698D02*
X04054Y02693D01*
X0426*
X04281Y02672*
X04277Y02663*
X04002*
Y02678*
Y02682*
Y02725*
X04011Y02729*
X04042Y02698*
G37*
G36*
X04326Y02713D02*
X04325Y0271D01*
X04333Y02691*
X04352Y02683*
X04371Y02691*
X04372Y02691*
X04373Y02691*
X0438Y0268*
X04375Y0267*
X04383Y02651*
X04402Y02643*
X04411Y02636*
Y02602*
X04401Y02598*
X04288Y02711*
X04292Y02721*
X04321*
X04326Y02713*
G37*
G36*
X04865Y01739D02*
X04865Y01737D01*
X02942*
X02934Y01743*
Y01747*
Y01767*
X02902*
Y01772*
X02897*
Y01802*
X02877*
X02871*
X02861*
X02804*
X02796Y01807*
X02794Y01809*
Y0184*
X02804Y01842*
X02807Y01835*
X02823Y01828*
X0288*
X02887Y01831*
X02897Y01831*
X02917Y01823*
X02936Y01831*
X02944Y0185*
X02936Y0187*
X02935Y01871*
X02935Y01876*
X02937Y01881*
X02937Y01881*
X02939Y01883*
X02946Y01886*
X02951*
X02969*
Y01915*
Y01945*
X02942*
Y01925*
X02932Y0192*
X02917Y01927*
X02897Y01919*
X02887Y0192*
X02887Y0192*
Y01931*
X02896Y01935*
X02901Y01945*
X02802*
X02807Y01935*
X02816Y01931*
Y0192*
X02807Y01916*
X028Y019*
X02807Y01885*
X02816Y01881*
Y0187*
X02807Y01866*
X02804Y01859*
X02794Y01861*
Y01885*
X02789Y01896*
X02758Y01927*
Y01966*
X02776Y01984*
X02808*
X02816Y01981*
Y0197*
X02807Y01966*
X02802Y01955*
X02901*
X02896Y01966*
X02887Y0197*
Y01981*
X02896Y01985*
X02903Y02*
X02896Y02016*
X0288Y02023*
X02875Y0203*
X0288Y0204*
X02872Y0206*
X02852Y02068*
X02833Y0206*
X02825Y0204*
X02829Y02031*
X02824Y02023*
X02823*
X02808Y02017*
X02785*
Y02069*
X028*
Y02107*
X0283Y02137*
X0284Y02133*
Y02122*
X0287*
X02899*
Y02143*
Y02149*
Y02159*
X029Y02169*
X02912*
Y0213*
X0298*
Y0224*
X02986Y0225*
X03059*
X03064Y0224*
X03045*
Y02185*
Y0213*
X03072*
Y02083*
X03007*
Y01972*
X03024*
Y01952*
X03017Y01945*
X03009*
X02999*
X02979*
Y01915*
Y01886*
X02999*
X03005*
X03015*
X03072*
Y01945*
X03057*
Y01972*
X03074*
Y02013*
X03082Y02016*
X031Y02034*
X03105Y02045*
Y02137*
X03105Y02147*
X03127*
Y02131*
X03115*
Y02074*
Y02068*
Y02058*
Y02038*
X03145*
X03174*
Y02058*
Y02064*
Y02074*
Y02131*
X03159*
Y02147*
X03181*
Y02209*
X03191Y02219*
X032Y02215*
Y02147*
X03221*
Y02131*
X03208*
Y02068*
Y02064*
Y02037*
X03237*
Y02032*
X03242*
Y02001*
X0326*
Y01954*
X03251Y01945*
X03204*
X03198*
X03188*
X03168*
Y01915*
Y01886*
X03188*
X03194*
X03203*
X03213Y01884*
Y01871*
X03206Y01864*
X03199*
X03189*
X03169*
Y01835*
Y01805*
X03189*
X03195*
X03205*
X03262*
Y01864*
X03246*
Y01886*
X03261*
Y01909*
X03288Y01936*
X03293Y01947*
Y02319*
X03315*
X03317Y02314*
X03337Y02306*
X03356Y02314*
X03362Y02331*
X03373Y02334*
X03411Y02296*
X03422Y02291*
X03449*
X0345Y02288*
X0347Y0228*
X03489Y02288*
X03497Y02307*
X03489Y02327*
X0347Y02335*
X0345Y02327*
X03449Y02324*
X03429*
X03373Y0238*
X03377Y02389*
X0338*
X03391Y02393*
X03394Y024*
X03396Y02404*
X03395Y0241*
Y02429*
X03397Y02431*
X03404Y02434*
X0344Y02398*
X03449Y02394*
X0345Y0239*
X0347Y02382*
X03489Y0239*
X03497Y0241*
X03492Y0242*
X03489Y02429*
X03492Y02438*
X03497Y02449*
X03492Y0246*
X03489Y02468*
X03491Y02477*
X03496Y02487*
X03488Y02507*
X03469Y02515*
X03462Y02512*
X03454Y0252*
X03456Y02522*
X03448Y02542*
X03429Y0255*
X03409Y02542*
X03408Y02539*
X03395*
Y02585*
X03407*
X03408Y02581*
X03427Y02573*
X03447Y02581*
X03455Y026*
X03447Y0262*
X03445Y0262*
Y02622*
X03453Y02642*
X0345Y02649*
X03457Y02656*
X0346Y02654*
X03469Y02658*
X03477Y02653*
Y0265*
X03484*
X0349Y02641*
X03481Y0262*
X03494Y02589*
X03509Y02582*
X0351Y02579*
X0352Y02575*
Y02594*
X0353*
Y02575*
X03541Y02579*
X03542Y02583*
X03556Y02589*
X03556Y02591*
X03566Y02589*
Y02552*
X03559Y02544*
X03546Y0255*
X03529Y02543*
X03522Y02526*
Y02491*
X03529Y02474*
X03546Y02467*
X03562Y02474*
X03569Y02491*
Y02509*
X03587Y02527*
X03597Y02523*
Y02491*
X03604Y02474*
X0362Y02467*
X03637Y02474*
X03644Y02491*
Y02526*
X03637Y02543*
X0362Y0255*
X03609Y02545*
X03599Y02551*
Y02645*
X03594Y02657*
X03572Y02679*
Y02709*
X03565*
Y02715*
X0356Y02727*
X0354Y02747*
X03546Y02762*
X03539Y02777*
X03546Y02787*
X03553Y02787*
X03667Y02673*
Y02243*
X03643Y02219*
X03638Y02207*
Y02157*
X03636Y02156*
X03626Y02162*
Y0219*
X03619Y02205*
X03607Y02217*
Y02248*
X03597*
Y02287*
X03591Y02302*
X03567Y02325*
Y02368*
X03577Y02375*
X03578Y02375*
Y02414*
Y02453*
X03572Y02451*
X03567Y02454*
X03524*
Y02375*
X03524*
Y02316*
X0353Y02301*
X03554Y02278*
Y02255*
X03547Y02248*
X03534*
X03477*
Y02234*
X03438*
Y02247*
X03381*
X03375*
X03365*
X03345*
Y02217*
Y02188*
X03365*
X03371*
X03381*
X03438*
X03438Y02178*
Y02148*
X03428Y02144*
X03417Y02117*
Y02101*
X03408Y02095*
X03402Y02098*
X03401Y02097*
X03392Y02102*
Y02117*
X03381Y02144*
X03355Y02155*
X03328Y02144*
X03317Y02117*
Y02022*
X03328Y01995*
X03355Y01984*
X03381Y01995*
X03392Y02022*
Y02039*
X03401Y02044*
X03402Y02043*
X03408Y02046*
X03417Y0204*
Y02022*
X03428Y01995*
X03455Y01984*
X03481Y01995*
X03492Y02022*
Y02117*
X03481Y02144*
X03471Y02148*
Y02181*
X03477Y02189*
X03534*
X0354*
X0355*
X03575*
X03582Y02181*
Y02154*
X03572Y02147*
X0356Y02153*
Y0207*
Y01986*
X03574Y01992*
X03587Y01988*
X03589Y01984*
X03619Y01953*
X03624Y0194*
X03617Y01922*
Y01906*
X03608Y019*
X03605Y01902*
X03601Y019*
X03592Y01905*
Y01922*
X03581Y01949*
X03555Y0196*
X03528Y01949*
X03517Y01922*
Y01827*
X03528Y018*
X03555Y01789*
X03581Y018*
X03592Y01827*
Y01844*
X03601Y01849*
X03605Y01847*
X03608Y01849*
X03617Y01843*
Y01827*
X03628Y018*
X03655Y01789*
X03681Y018*
X03692Y01827*
Y01922*
X03686Y01939*
X03691Y01947*
X03718*
X03723Y01939*
X03717Y01922*
Y01827*
X03728Y018*
X03755Y01789*
X03781Y018*
X03792Y01827*
Y01922*
X03786Y01939*
X03791Y01947*
X03818*
X03823Y01939*
X03817Y01922*
Y01827*
X03828Y018*
X03855Y01789*
X03881Y018*
X03892Y01827*
Y01922*
X0389Y01927*
X03899Y01932*
X03917Y01915*
Y01827*
X03928Y018*
X03955Y01789*
X03981Y018*
X03992Y01827*
Y01853*
X04065*
X04066Y01843*
Y01837*
Y01817*
X04095*
X04125*
Y01837*
Y01843*
X04126Y01853*
X04149*
X0415Y01843*
Y01837*
Y01817*
X0418*
X04209*
Y01837*
Y01843*
Y01853*
Y0191*
X04201*
Y01963*
X04211Y01969*
X04214Y01968*
Y02007*
X04224*
Y01968*
X04229Y01971*
X04237Y01973*
X04245Y01971*
X04251Y01968*
Y02007*
X04261*
Y01968*
X04273Y01973*
X0428Y0199*
Y02004*
X04289Y02008*
X04305Y01992*
Y01954*
X04364*
Y02011*
Y02017*
Y02021*
Y02036*
X04377*
X04384Y02029*
Y02022*
Y02012*
Y01992*
X04414*
X04443*
Y02012*
Y02018*
Y02028*
Y02085*
X04384*
Y02069*
X04364*
Y02084*
X04305*
Y02051*
X04296Y02047*
X04276Y02067*
X04273Y02068*
X0428Y02084*
Y0212*
X04273Y02136*
X04256Y02143*
X04239Y02136*
X04232Y0212*
Y02088*
X04223Y02083*
X04205Y02101*
Y0212*
X04198Y02136*
X04181Y02143*
X04164Y02136*
X04157Y0212*
Y02118*
X0412*
X04113Y02134*
X04082Y02147*
X04052Y02134*
X04039Y02104*
X04052Y02073*
X04082Y0206*
X04113Y02073*
X04118Y02086*
X04157*
Y02084*
X04164Y02068*
X04181Y02061*
X04194Y02066*
X04203Y02057*
X04199Y02047*
X04159*
Y02028*
X04148*
X04135Y02034*
X04115Y02026*
X04107Y02007*
X04115Y01987*
X04135Y01979*
X04148Y01985*
X04158*
Y0191*
X0415*
Y01896*
X04125*
Y0191*
X04066*
Y01896*
X03992*
Y01922*
X03981Y01949*
X03955Y0196*
X03939Y01954*
X03913Y0198*
X0392Y01987*
X0399*
Y02152*
X03959*
X03786Y02325*
Y02461*
X03795Y02465*
X03847Y02413*
X03859Y02408*
X03946*
X0395Y02398*
X03912Y0236*
X03874*
Y02346*
X03861*
X0386Y02349*
X0384Y02357*
X03821Y02349*
X03813Y0233*
X03821Y0231*
X0384Y02302*
X0386Y0231*
X03861Y02313*
X03874*
Y02301*
X03931*
X03937*
X03941*
X03956*
Y02217*
X03952Y02216*
X03944Y02197*
X03952Y02177*
X03972Y02169*
X03991Y02177*
X03999Y02197*
X03991Y02216*
X03989Y02216*
Y02301*
X04004*
Y02314*
X04021*
X04022Y0231*
X04042Y02302*
X04061Y0231*
X04062Y02314*
X04294*
X04305Y02319*
X04309Y02328*
X04356Y02375*
X04364Y0237*
X04363Y02367*
X04371Y02348*
X0439Y0234*
X04393Y02341*
X04398Y02333*
X04319Y02254*
X04312Y02257*
X04293Y02249*
X04285Y0223*
X04293Y0221*
X04312Y02202*
X04332Y0221*
X0434Y0223*
X04337Y02236*
X0435Y02249*
X04359Y02245*
Y02172*
X0434*
Y02113*
X04397*
X04403*
X04413*
X04434*
Y02142*
Y02172*
X04413*
X04407*
X04397*
X04384*
Y02262*
X0442Y02299*
X0443Y02297*
X04433Y02289*
X04452Y02281*
X04472Y02289*
X0448Y02309*
X04472Y02328*
X04465Y0233*
Y02459*
X04474Y02463*
X04652Y02285*
X04649Y02278*
X04657Y02259*
X0466Y02258*
Y02154*
X04643Y02147*
X04636Y0213*
X04643Y02114*
X0466Y02107*
X04695*
X04712Y02114*
X04712Y02114*
X0474*
X04746Y02101*
X0476Y02095*
Y01924*
X04747*
Y01909*
X04724*
Y01924*
X04665*
Y01909*
X04643*
Y01923*
X04584*
Y01909*
X04542*
X04531Y01904*
X04466Y01839*
X04428*
Y01826*
X04384*
Y0184*
X04327*
X04321*
X04311*
X04291*
Y0181*
Y01781*
X04311*
X04317*
X04327*
X04384*
Y01793*
X04428*
Y0178*
X04485*
X04491*
X04495*
X04521*
Y0181*
X04526*
Y01815*
X04558*
Y01839*
X04525*
X04521Y01848*
X04549Y01876*
X04577*
X04584Y01869*
Y0186*
Y0185*
Y0183*
X04614*
X04643*
Y0185*
Y01856*
Y01866*
X04643Y01876*
X04658*
X04665Y01869*
Y01861*
Y01851*
Y01831*
X04695*
X04724*
Y01851*
Y01857*
Y01866*
X04727Y01876*
X0474*
X04747Y01869*
Y01861*
Y01851*
Y0183*
X04777*
X04806*
Y01851*
Y01857*
Y01867*
Y01924*
X04793*
Y02095*
X04807Y02101*
X0482Y02132*
X04807Y02162*
X04777Y02175*
X04746Y02162*
X04739Y02147*
X04712*
X04712Y02147*
X04695Y02154*
X04692*
Y02258*
X04695Y02259*
X04703Y02278*
X04695Y02298*
X04676Y02305*
X04669Y02303*
X04486Y02486*
X0449Y02495*
X04563*
X04565Y02489*
X04585Y02481*
X04604Y02489*
X04612Y02509*
X04604Y02528*
X04585Y02536*
X04565Y02528*
X04562Y0252*
X04529*
X04525Y02529*
X04542Y02546*
X04551Y0255*
X04556Y02562*
Y02762*
X04551Y02773*
X04497Y02827*
X04485Y02832*
X04361*
X04319Y02874*
Y03024*
X04333Y0303*
X04345Y0306*
X04333Y03091*
X04302Y03103*
X04272Y03091*
X0426Y0306*
X04272Y0303*
X04286Y03024*
Y02867*
X04291Y02856*
X04343Y02804*
X04355Y02799*
X04479*
X04523Y02755*
Y02563*
X04496Y02535*
X0448*
X04478Y02539*
X04475Y02545*
Y02687*
X04479Y02696*
X04474Y02708*
X04408Y02774*
X04397Y02779*
X042*
X04119Y0286*
Y03024*
X04133Y0303*
X04145Y0306*
X04133Y03091*
X04102Y03103*
X04072Y03091*
X0406Y0306*
X04072Y0303*
X04086Y03024*
Y02854*
X04091Y02842*
X0417Y02763*
X04166Y02754*
X0409*
X04019Y02825*
Y03024*
X04033Y0303*
X04045Y0306*
X04033Y03091*
X04002Y03103*
X03972Y03091*
X0396Y0306*
X03972Y0303*
X03986Y03024*
Y02819*
X0399Y02811*
X03981Y02805*
X03973Y02813*
Y02947*
X03968Y02959*
X03926Y03001*
X03915Y03006*
X0378*
X03739Y03046*
X03745Y0306*
X03733Y03091*
X03702Y03103*
X03672Y03091*
X0366Y0306*
X03672Y0303*
X03702Y03018*
X03717Y03024*
X03762Y02978*
X03774Y02973*
X03908*
X0394Y02941*
Y02807*
X03945Y02795*
X03986Y02754*
X03982Y02745*
X03943*
Y0273*
X03882*
X0388Y02735*
X0386Y02743*
X03841Y02735*
X03833Y02715*
X03841Y02696*
X0386Y02688*
X0388Y02696*
X0388Y02697*
X03943*
Y02682*
Y02678*
Y02615*
X03946*
X03953Y02605*
X03948Y02594*
X03956Y02574*
X03975Y02566*
X03995Y02574*
X04003Y02594*
X03998Y02605*
X04002Y02615*
Y0263*
X04295*
X04391Y02534*
X04392Y02531*
X04389Y02523*
X04387Y0252*
X04241*
X04232Y02523*
X04221Y02519*
X04143Y02441*
X03865*
X03809Y02497*
Y02807*
X03804Y02818*
X03698Y02924*
X03687Y02929*
X03457*
X03339Y03046*
X03345Y0306*
X03333Y03091*
X03302Y03103*
X03272Y03091*
X0326Y0306*
X03272Y0303*
X03302Y03018*
X03317Y03024*
X03418Y02922*
X03414Y02913*
X03307*
X03296Y02908*
X0329Y02902*
X03281Y02907*
X03285Y02915*
X03277Y02935*
X03257Y02943*
X03238Y02935*
X0323Y02915*
X03222Y02909*
X03209Y02904*
X03201Y02885*
X03203Y0288*
X03196Y02873*
X03195Y02874*
X03175Y02866*
X03167Y02847*
X03175Y02827*
X03172Y02818*
X03155*
Y0299*
X03188Y03024*
X03202Y03018*
X03233Y0303*
X03245Y0306*
X03233Y03091*
X03202Y03103*
X03172Y03091*
X0316Y0306*
X03166Y03046*
X03129Y0301*
X03121Y03012*
X03119Y03013*
Y03024*
X03133Y0303*
X03145Y0306*
X03133Y03091*
X03102Y03103*
X03072Y03091*
X0306Y0306*
X03072Y0303*
X03086Y03024*
Y03014*
X03076Y0301*
X03039Y03046*
X03045Y0306*
X03033Y03091*
X03002Y03103*
X02972Y03091*
X0296Y0306*
X02972Y0303*
X0299Y03023*
X02988Y03013*
X02973*
X02939Y03046*
X02945Y0306*
X02933Y03091*
X02902Y03103*
X02872Y03091*
X0286Y0306*
X02872Y0303*
X02902Y03018*
X02917Y03024*
X02955Y02985*
X02967Y0298*
X03002*
X03004Y0297*
X0299Y02965*
X02989Y02962*
X02955*
Y02964*
X02892*
X02888*
X02862*
Y02935*
X02852*
Y02964*
X02825*
X02819Y02972*
Y03024*
X02833Y0303*
X02845Y0306*
X02833Y03091*
X02802Y03103*
X02772Y03091*
X0276Y0306*
X02772Y0303*
X02786Y03024*
Y03014*
X02776Y0301*
X02739Y03046*
X02745Y0306*
X02733Y03091*
X02702Y03103*
X02672Y03091*
X0266Y0306*
X02672Y0303*
X02702Y03018*
X02717Y03024*
X02756Y02984*
Y02966*
X02747Y02962*
X02705Y03004*
X02694Y03009*
X02677*
X02639Y03046*
X02645Y0306*
X02633Y03091*
X02602Y03103*
X02572Y03091*
X0256Y0306*
X02572Y0303*
X02602Y03018*
X02617Y03024*
X02659Y02981*
X0267Y02976*
X02687*
X02707Y02956*
X02705Y02944*
X02693Y02939*
X02683Y02943*
Y02951*
X02624*
Y02894*
Y02888*
Y02878*
Y02821*
X02637*
Y02807*
X02642Y02796*
X02648Y0279*
X02642Y02782*
X02639Y02783*
Y02758*
X02629*
Y02783*
X02623Y0278*
X02612Y02787*
X02612Y02788*
X02608Y02796*
X02612Y02805*
X02613Y02809*
X02612Y02813*
X02608Y02822*
X02612Y02831*
X02613Y02835*
X02612Y02839*
X02608Y02848*
X02611Y02855*
X02569*
X02526*
X02529Y02848*
X02525Y02839*
X02524Y02835*
X02525Y02831*
X02529Y02822*
X02525Y02813*
X02524Y02809*
X02525Y02805*
X02529Y02796*
X02525Y02788*
X02524Y02784*
X02525Y0278*
X02529Y02771*
X02526Y02763*
X02569*
Y02753*
X02526*
X02529Y02745*
X02525Y02737*
X02524Y02732*
X02525Y02729*
X02529Y0272*
X02525Y02711*
X02524Y02707*
X02525Y02703*
X02529Y02694*
X02525Y02685*
X02524Y02681*
X02525Y02677*
X02529Y02669*
X02525Y0266*
X02524Y02656*
X02525Y02652*
X02529Y02643*
X02525Y02634*
X02524Y0263*
X02527Y02623*
X02525Y0262*
Y02589*
X02568*
X02569Y02588*
X02612*
X02613Y02585*
X02632Y02577*
X02652Y02585*
X0266Y02605*
X02652Y02624*
X02632Y02632*
X02623Y02627*
X02612Y02634*
X02612Y02634*
X02608Y02643*
X02612Y02652*
X02613Y02656*
X02612Y0266*
X02608Y02669*
X02612Y02677*
X02613Y02681*
X02613Y02682*
X02614Y02684*
X02622Y02688*
X02642Y0268*
X02657Y02687*
X02667Y02681*
Y02666*
X02663Y02657*
X02656Y0264*
X02664Y02621*
X02684Y02613*
X02703Y02621*
X02711Y0264*
X02704Y02656*
X0271Y02666*
X02726*
X02729Y02657*
Y02537*
X02729Y02527*
X02719*
X0267*
Y02511*
X02643*
Y02527*
X02584*
Y02511*
X02419*
Y02557*
X02404*
Y02872*
X02399Y02883*
X02384Y02898*
X02373Y02902*
X02361*
X02355Y02911*
X02355Y02912*
X02354Y02916*
X02351Y02924*
X02354Y02933*
X02355Y02937*
X0235Y02949*
X02341Y02953*
X02335Y02964*
X02339Y02974*
X02331Y02993*
X02312Y03001*
X02292Y02993*
X02284Y02974*
X02289Y02963*
X02285Y02957*
X02282Y02954*
X02271Y02949*
X02266Y02937*
X02266Y02936*
X02261Y02928*
X02247*
X02235Y02923*
X02208Y02896*
X02203Y02885*
Y0282*
X02194Y02818*
X02153*
X02145Y02822*
Y02828*
Y02999*
X02026*
Y02828*
Y02822*
X02018Y02818*
X02011*
X02008Y02822*
X02Y02842*
X0198Y02851*
X01959Y02842*
X01951Y02822*
X01957Y02806*
X01946Y02801*
X01933Y02788*
X01928Y02777*
Y02649*
X01812*
Y02471*
X0193*
X0194Y02471*
X01971Y02441*
X01967Y02431*
X01918*
Y02352*
X02036*
Y02422*
X02225*
X02236Y02427*
X02287Y02478*
X02577*
X02584Y02471*
Y02464*
Y02454*
Y02436*
X02574Y02429*
X02562Y02435*
X02542Y02427*
X02534Y02407*
X02542Y0239*
X02538Y0238*
X02394*
X02382Y02375*
X02183Y02176*
X02178Y02165*
Y02105*
X02129Y02056*
X02047*
X02043Y02066*
X0205Y02082*
X02042Y02102*
X02022Y0211*
X02003Y02102*
X02002Y02099*
X01987*
Y02153*
X02003*
X02003Y02152*
X02022Y02144*
X02042Y02152*
X0205Y02172*
X02042Y02191*
X02022Y02199*
X02003Y02191*
X02001Y02186*
X01987*
Y02208*
X01942*
X01898*
Y02187*
Y02142*
X01885*
X01874Y02138*
X0185Y02114*
X01845Y02102*
Y01947*
X0185Y01935*
X01878Y01907*
X0189Y01902*
X02335*
X02346Y01907*
X02402Y01963*
X02407Y01975*
Y02123*
X02449Y02165*
X02555*
X02559Y02156*
X02545Y02142*
X0254Y0213*
Y01917*
Y0179*
X02545Y01779*
X02562Y01762*
X02569Y01759*
Y01747*
Y01744*
X02562Y01737*
X018*
Y03101*
Y03112*
X01809Y03114*
X04865*
Y01739*
G37*
G36*
X03251Y02709D02*
X03247Y027D01*
X03272*
Y02695*
X03277*
Y02668*
X03288Y02664*
X03296*
Y02626*
Y02578*
X0328*
X03269Y02583*
X03248*
X03237Y02578*
X03224Y02565*
X03215Y02567*
X03214Y02568*
Y02719*
X03245*
X03251Y02709*
G37*
G36*
X02992Y02923D02*
X0299Y02913D01*
X02985Y02911*
X02977Y02892*
X02985Y02872*
X02986Y02872*
Y02871*
X02978Y02852*
X02986Y02832*
X02997Y02828*
X02995Y02818*
X02967*
Y02785*
X02942*
X0294Y0279*
X02928Y02795*
X02924Y02797*
X02922Y02807*
X02935Y0282*
X02938Y02827*
X02955*
Y02886*
X0294*
Y02905*
X02955*
Y02929*
X02986*
X02992Y02923*
G37*
G36*
X02712Y02892D02*
X02721Y02896D01*
X02729Y02891*
Y02805*
X02726Y02796*
X02719*
X02688*
X02673Y02811*
X02677Y02821*
X02683*
Y02878*
Y02884*
Y02896*
X02693Y029*
X02712Y02892*
G37*
G36*
X02844Y02765D02*
X02858Y0277D01*
X02862Y02782*
X02873*
X02873Y02781*
X02885Y02777*
X02893Y0277*
X02901Y02751*
X02904Y0275*
Y0274*
X02901Y02738*
X02896Y02727*
Y02714*
X02863*
Y02707*
X02853Y02702*
X02837Y02709*
X02827Y02705*
X02819Y0271*
Y0276*
X02829Y02766*
X02834Y02765*
Y0279*
X02844*
Y02765*
G37*
G36*
X03315Y02867D02*
Y02833D01*
X03329*
Y02804*
X03325Y02803*
X03317Y02784*
X03325Y02764*
X03329Y02763*
Y02714*
X03299*
X03294Y02717*
X03291Y02722*
Y02764*
X03293Y02769*
Y02859*
X03305Y02871*
X03315Y02867*
G37*
G36*
X02259Y02893D02*
X02266Y02886D01*
X02267Y02882*
X02271Y02873*
X02268Y02865*
X02311*
Y02855*
X02268*
X02271Y02848*
X02267Y02839*
X02266Y02835*
X02267Y02831*
X02271Y02822*
X02267Y02813*
X02266Y02809*
X02267Y02805*
X02271Y02796*
X02268Y02789*
X02311*
Y02779*
X02268*
X02271Y02771*
X02268Y02763*
X02257Y02757*
X02249Y0276*
Y02735*
X02244*
Y0273*
X02219*
X02224Y02716*
X02227Y02715*
Y02704*
X02232Y02692*
X02254Y0267*
X02266Y02665*
X02268Y02661*
X02268Y02661*
X02311*
Y02651*
X02268*
X02271Y02643*
X02267Y02634*
X02266Y0263*
X02267Y02626*
X02271Y02617*
X02267Y02609*
X02266Y02605*
X02267Y02602*
X02262Y02592*
X0225Y02587*
X02232Y02569*
X02227Y02557*
Y02532*
X02232Y0252*
X02258Y02495*
X02218Y02455*
X02002*
X01961Y02496*
Y02618*
X01969Y02624*
X0198Y0262*
X02Y02628*
X02008Y02649*
X02011Y02652*
X02018*
X02026Y02649*
Y02642*
Y02471*
X02145*
Y02642*
Y02649*
X02153Y02652*
X02168*
X0217Y02643*
X02165Y02629*
X02215*
X02209Y02643*
X02206Y02644*
Y02669*
X02201Y0268*
X02197Y02684*
X02194Y02685*
Y02699*
X02095*
Y02709*
X02194*
Y02715*
Y0275*
X02209*
X02212Y02752*
X0222Y02744*
X02219Y0274*
X02239*
Y02761*
X02238Y02761*
X02232Y02769*
X02236Y02777*
Y02878*
X02252Y02894*
X02259Y02893*
G37*
G36*
X03838Y02176D02*
Y02148D01*
X03828Y02144*
X03817Y02117*
Y02022*
X03826Y02*
X0382Y0199*
X03789*
X03783Y02*
X03792Y02022*
Y02117*
X03781Y02144*
X03771Y02148*
Y02229*
X03781Y02233*
X03838Y02176*
G37*
G36*
X02805Y02158D02*
X02775Y02128D01*
X02743*
X02737*
X02727*
X02707*
Y02099*
X02702*
Y02094*
X0267*
Y02069*
X02673*
X0268Y02059*
X02675Y02048*
X02665Y02046*
X02659Y02062*
X0264Y0207*
X0262Y02062*
X02612Y02042*
X02617Y02031*
X0261Y02021*
X0259*
Y0198*
X026*
X02602Y0197*
X02594Y01966*
X0259Y01955*
X02688*
X02683Y01966*
X02676Y0197*
X02678Y0198*
X02688*
Y02014*
X02697Y0202*
Y02047*
X02702*
Y02052*
X02727*
X02723Y02059*
X0273Y02069*
X02742*
X02752Y02067*
Y02006*
X0273Y01984*
X02725Y01972*
Y01927*
X02715Y01917*
X02683*
X02675Y0192*
Y01931*
X02683Y01935*
X02688Y01945*
X0259*
X02594Y01935*
X02603Y01931*
Y01921*
X02595Y01917*
X0258*
X02573Y01924*
Y02066*
X02581Y02071*
X02587Y02068*
X02607Y02076*
X02615Y02095*
X02607Y02115*
X02587Y02123*
X02584Y02121*
X02579Y0213*
X02598Y02149*
X02636*
Y02165*
X02663*
Y0215*
X02723*
Y02165*
X02758*
X0277Y0217*
X02788Y02188*
X02793Y022*
Y02231*
X02805*
Y02158*
G37*
G36*
X03738Y02228D02*
Y02148D01*
X03728Y02144*
X03717Y02117*
Y02022*
X03726Y02*
X0372Y0199*
X03689*
X03683Y02*
X03692Y02022*
Y02117*
X03681Y02144*
X03671Y02148*
Y02201*
X03695Y02225*
X037Y02237*
Y02252*
X0371Y02256*
X03738Y02228*
G37*
G36*
X02603Y01881D02*
Y0187D01*
X02594Y01866*
X02588Y0185*
X02594Y01835*
X0261Y01828*
X02637*
X02643Y0182*
X02642Y0182*
X02692*
X02691Y01824*
X02697Y01834*
X02716*
X02717Y01831*
X0272Y0183*
Y01808*
X02717Y01807*
X02709Y01787*
X02717Y01768*
X02737Y0176*
X02756Y01768*
X02758Y01775*
X0277Y01777*
X02786Y01761*
X02797Y01756*
X02802Y01752*
X02802Y01741*
X02797Y01737*
X02706*
X02699Y01744*
Y01747*
Y01769*
X02667*
Y01779*
X02699*
Y01803*
X02699*
X02695Y0181*
X0264*
X02636Y01803*
X02632*
X02573*
Y01884*
X02574Y01884*
X02595*
X02603Y01881*
G37*
G36*
X0392Y02146D02*
Y01987D01*
X03912Y0198*
X03909Y01984*
X03894Y0199*
X03889*
X03883Y02*
X03892Y02022*
Y02117*
X03881Y02144*
X03871Y02148*
Y0218*
X03878Y02184*
X0388Y02185*
X0392Y02146*
G37*
G36*
X04379Y02434D02*
X04292Y02347D01*
X04061*
X04061Y02349*
X04042Y02357*
X04022Y02349*
X04022Y02347*
X04004*
Y0236*
X03977*
X03972Y0237*
X03976Y02374*
X04242*
X04253Y02379*
X04305Y02431*
X04307Y02429*
X04327Y02437*
X04328Y0244*
X04369*
X04373Y02442*
X04379Y02434*
G37*
G36*
X0438Y02486D02*
X04367Y02473D01*
X04328*
X04327Y02476*
X04307Y02484*
X04288Y02476*
X0428Y02457*
X04282Y02454*
X04235Y02407*
X04169*
X04165Y02417*
X04243Y02495*
X04376*
X0438Y02486*
G37*
G36*
X03015Y02482D02*
X03022Y02479D01*
Y02468*
X03015Y02466*
X03007Y02447*
X03015Y02427*
X03035Y02419*
X03036Y0242*
X03044Y02414*
Y02385*
X02969*
X02965Y02388*
X02962Y02393*
Y02399*
X02917*
Y0239*
X02959*
X02964Y02387*
X02967Y02382*
Y02352*
X02915*
X02904Y02347*
X02896Y02339*
X02887Y02341*
X02884Y02349*
X02864Y02357*
X02845Y02349*
X02844Y02346*
X02806*
Y02361*
X02747*
Y02346*
X0271*
X02695Y02361*
X02696Y02364*
X02688Y02383*
X02677Y02387*
X02679Y02397*
X02695*
Y02424*
X0267*
Y024*
X02669Y02396*
X02665Y02389*
X02649Y02383*
X02648Y0238*
X02587*
X02582Y02389*
X02587Y02397*
X02609*
Y02429*
X02614*
Y02434*
X02643*
Y02454*
Y0246*
Y02471*
X0265Y02478*
X02663*
X0267Y02471*
Y02464*
Y02454*
Y02434*
X027*
Y02429*
X02705*
Y02397*
X02729*
Y02401*
X02739Y02407*
X02749Y02404*
Y02429*
X02759*
Y02404*
X02773Y02409*
X02775Y02415*
X02785Y02417*
X0279Y02413*
X02801Y02408*
X02863*
Y0239*
X02907*
Y02404*
X02912*
Y02408*
X02916Y02409*
X02962*
Y02429*
Y02469*
Y02506*
X02991*
X03015Y02482*
G37*
G36*
X02967Y02286D02*
X02961Y02279D01*
X02959Y02278*
X02935Y02253*
X0293Y02242*
Y0224*
X02912*
Y02201*
X02899*
Y02216*
X0284*
X02838Y02225*
Y02235*
X02922Y02319*
X02967*
Y02286*
G37*
G36*
X02649Y02344D02*
X02669Y02336D01*
X02672Y02338*
X02692Y02318*
X02704Y02313*
X02747*
Y02298*
Y02294*
Y02231*
X0276*
Y02206*
X02751Y02197*
X0273*
X02723Y02204*
Y02213*
Y02223*
Y02243*
X02693*
X02663*
Y02223*
Y02216*
Y02207*
X02661Y02197*
X02643*
X02636Y02204*
Y02212*
Y02222*
Y02242*
X02607*
Y02247*
X02602*
Y02279*
X02577*
Y02276*
X02569Y02271*
X02565Y02272*
Y02247*
Y02222*
X02569Y02224*
X02577Y02219*
Y02207*
X02573Y02197*
X02442*
X02431Y02193*
X02379Y02141*
X02374Y0213*
Y01981*
X02328Y01935*
X01896*
X01878Y01953*
Y02096*
X01888Y02106*
X01898Y02102*
Y02057*
Y02014*
Y01971*
X01987*
Y02023*
X02136*
X02147Y02028*
X02206Y02087*
X02211Y02099*
Y02158*
X024Y02347*
X02417*
X02417Y02337*
Y02337*
Y02258*
X02516*
Y02337*
Y02337*
X02516Y02347*
X0255*
X02554Y02337*
X02546Y0232*
X02554Y023*
X02574Y02292*
X02593Y023*
X02601Y0232*
X02593Y02337*
X02597Y02347*
X02648*
X02649Y02344*
G37*
G36*
X03682Y02848D02*
X0368Y02836D01*
X0367Y02832*
X03662Y02832*
X03658Y02834*
X0364Y02842*
X0362Y02834*
X03612Y02815*
X0362Y02795*
X0364Y02787*
X03642Y02789*
X03698Y02733*
Y02702*
X03688Y02698*
X03572Y02814*
X03574Y02817*
X03566Y02836*
X03547Y02844*
X03527Y02836*
X03519Y02817*
X03523Y02807*
X03516Y02799*
X03502Y02805*
X03472Y02792*
X03459Y02762*
X03472Y02731*
X035Y02719*
X03498Y02709*
X03477*
X0347Y02704*
X0346Y02709*
X0344Y02701*
X03438Y02696*
X03419*
X03408Y02691*
X03405Y02688*
X03395Y02692*
Y02714*
X03361*
Y02763*
X03364Y02764*
X03368Y02775*
X03374Y02782*
X03381Y0278*
X03389Y02777*
Y02802*
X03394*
Y02807*
X03421*
X03425Y0281*
X0343Y02821*
Y02833*
X03445*
Y02857*
X03413*
Y02867*
X03445*
Y0288*
X0365*
X03682Y02848*
G37*
%LNmsp_mcu-2*%
%LPC*%
G36*
X03255Y0243D02*
X03241Y02425D01*
X03236Y0241*
X03255*
Y0243*
G37*
G36*
X04842Y031D02*
X04807D01*
Y03065*
X04842*
Y031*
G37*
G36*
X0298Y02022D02*
X02951D01*
Y01972*
X0298*
Y02022*
G37*
G36*
X0355Y02065D02*
X03517D01*
Y02022*
X03528Y01995*
X0355Y01986*
Y02065*
G37*
G36*
X04697Y03101D02*
X04672Y03091D01*
X04662Y03065*
X04697*
Y03101*
G37*
G36*
X04797Y031D02*
X04763D01*
Y03065*
X04797*
Y031*
G37*
G36*
X04409Y01982D02*
X04384D01*
Y01955*
X04409*
Y01982*
G37*
G36*
X03158Y01945D02*
X03131D01*
Y0192*
X03158*
Y01945*
G37*
G36*
X04443Y01982D02*
X04419D01*
Y01955*
X04443*
Y01982*
G37*
G36*
X02941Y02022D02*
X02912D01*
Y01972*
X02941*
Y02022*
G37*
G36*
X02516Y02034D02*
X02417D01*
Y01955*
X02516*
Y02034*
G37*
G36*
X03232Y02027D02*
X03208D01*
Y02001*
X03232*
Y02027*
G37*
G36*
X02941Y02083D02*
X02912D01*
Y02032*
X02941*
Y02083*
G37*
G36*
X04695Y02079D02*
X0466D01*
X04643Y02072*
X04636Y02055*
X04643Y02039*
X0466Y02032*
X04695*
X04712Y02039*
X04719Y02055*
X04712Y02072*
X04695Y02079*
G37*
G36*
X0298Y02083D02*
X02951D01*
Y02032*
X0298*
Y02083*
G37*
G36*
X0355Y02153D02*
X03528Y02144D01*
X03517Y02117*
Y02075*
X0355*
Y02153*
G37*
G36*
X04622Y02088D02*
X04544D01*
X04549Y02076*
Y02072*
X04544Y0206*
X04622*
X04617Y02072*
Y02076*
X04622Y02088*
G37*
G36*
X03174Y02028D02*
X0315D01*
Y02001*
X03174*
Y02028*
G37*
G36*
X0314D02*
X03115D01*
Y02001*
X0314*
Y02028*
G37*
G36*
X04622Y0205D02*
X04588D01*
Y02032*
X04601*
X04617Y02039*
X04622Y0205*
G37*
G36*
X04578D02*
X04544D01*
X04549Y02039*
X04565Y02032*
X04578*
Y0205*
G37*
G36*
X03158Y0191D02*
X03131D01*
Y01886*
X03158*
Y0191*
G37*
G36*
X04209Y01807D02*
X04185D01*
Y0178*
X04209*
Y01807*
G37*
G36*
X04175D02*
X0415D01*
Y0178*
X04175*
Y01807*
G37*
G36*
X04281Y01805D02*
X04254D01*
Y01781*
X04281*
Y01805*
G37*
G36*
X02483Y01865D02*
X02364D01*
Y01786*
X02483*
Y01865*
G37*
G36*
X02036D02*
X01918D01*
Y01786*
X02036*
Y01865*
G37*
G36*
X02907Y01802D02*
Y01777D01*
X02934*
Y01802*
X02907*
G37*
G36*
X04707Y03101D02*
Y03065D01*
X04743*
X04733Y03091*
X04707Y03101*
G37*
G36*
X04558Y01805D02*
X04531D01*
Y0178*
X04558*
Y01805*
G37*
G36*
X04125Y01807D02*
X041D01*
Y0178*
X04125*
Y01807*
G37*
G36*
X0409D02*
X04066D01*
Y0178*
X0409*
Y01807*
G37*
G36*
X03355Y0196D02*
X03328Y01949D01*
X03317Y01922*
Y01827*
X03328Y018*
X03355Y01789*
X03381Y018*
X03392Y01827*
Y01922*
X03381Y01949*
X03355Y0196*
G37*
G36*
X04724Y01821D02*
X047D01*
Y01794*
X04724*
Y01821*
G37*
G36*
X0469D02*
X04665D01*
Y01794*
X0469*
Y01821*
G37*
G36*
X03159Y0183D02*
X03132D01*
Y01805*
X03159*
Y0183*
G37*
G36*
Y01864D02*
X03132D01*
Y0184*
X03159*
Y01864*
G37*
G36*
X04281Y0184D02*
X04254D01*
Y01815*
X04281*
Y0184*
G37*
G36*
X04609Y0182D02*
X04584D01*
Y01793*
X04609*
Y0182*
G37*
G36*
X03455Y0196D02*
X03428Y01949D01*
X03417Y01922*
Y01827*
X03428Y018*
X03455Y01789*
X03481Y018*
X03492Y01827*
Y01922*
X03481Y01949*
X03455Y0196*
G37*
G36*
X04643Y0182D02*
X04619D01*
Y01793*
X04643*
Y0182*
G37*
G36*
X04806Y0182D02*
X04782D01*
Y01794*
X04806*
Y0182*
G37*
G36*
X04772D02*
X04747D01*
Y01794*
X04772*
Y0182*
G37*
G36*
X04502Y03103D02*
X04472Y03091D01*
X0446Y0306*
X04472Y0303*
X04502Y03018*
X04533Y0303*
X04545Y0306*
X04533Y03091*
X04502Y03103*
G37*
G36*
X04788Y02579D02*
X04742Y0256D01*
X04724Y02515*
X04742Y0247*
X04788Y02451*
X04833Y0247*
X04852Y02515*
X04833Y0256*
X04788Y02579*
G37*
G36*
X04402Y03103D02*
X04372Y03091D01*
X0436Y0306*
X04372Y0303*
X04402Y03018*
X04433Y0303*
X04445Y0306*
X04433Y03091*
X04402Y03103*
G37*
G36*
X03902D02*
X03872Y03091D01*
X0386Y0306*
X03872Y0303*
X03902Y03018*
X03933Y0303*
X03945Y0306*
X03933Y03091*
X03902Y03103*
G37*
G36*
X04202D02*
X04172Y03091D01*
X0416Y0306*
X04172Y0303*
X04202Y03018*
X04233Y0303*
X04245Y0306*
X04233Y03091*
X04202Y03103*
G37*
G36*
X03625Y02453D02*
Y02419D01*
X03644*
Y02432*
X03637Y02448*
X03625Y02453*
G37*
G36*
X04602Y03103D02*
X04572Y03091D01*
X0456Y0306*
X04572Y0303*
X04602Y03018*
X04633Y0303*
X04645Y0306*
X04633Y03091*
X04602Y03103*
G37*
G36*
X04079Y02579D02*
X04034Y0256D01*
X04015Y02515*
X04034Y0247*
X04079Y02451*
X04124Y0247*
X04143Y02515*
X04124Y0256*
X04079Y02579*
G37*
G36*
X03615Y02453D02*
X03604Y02448D01*
X036*
X03588Y02453*
Y02414*
Y02375*
X036Y0238*
X03604*
X03615Y02375*
Y02414*
Y02453*
G37*
G36*
X02502Y03103D02*
X02472Y03091D01*
X0246Y0306*
X02472Y0303*
X02502Y03018*
X02533Y0303*
X02545Y0306*
X02533Y03091*
X02502Y03103*
G37*
G36*
X03402D02*
X03372Y03091D01*
X0336Y0306*
X03372Y0303*
X03402Y03018*
X03433Y0303*
X03445Y0306*
X03433Y03091*
X03402Y03103*
G37*
G36*
X0193Y02999D02*
X01812D01*
Y02822*
X0193*
Y02999*
G37*
G36*
X02596Y02954D02*
X02541D01*
X02529Y02949*
X02524Y02937*
X02525Y02933*
X02529Y02924*
X02525Y02916*
X02524Y02912*
X02525Y02908*
X02529Y02899*
X02525Y0289*
X02524Y02886*
X02525Y02882*
X02529Y02873*
X02526Y02865*
X02569*
X02611*
X02608Y02873*
X02612Y02882*
X02613Y02886*
X02612Y0289*
X02608Y02899*
X02612Y02908*
X02613Y02912*
X02612Y02916*
X02608Y02924*
X02612Y02933*
X02613Y02937*
X02608Y02949*
X02596Y02954*
G37*
G36*
X03802Y03103D02*
X03772Y03091D01*
X0376Y0306*
X03772Y0303*
X03802Y03018*
X03833Y0303*
X03845Y0306*
X03833Y03091*
X03802Y03103*
G37*
G36*
X03602D02*
X03572Y03091D01*
X0356Y0306*
X03572Y0303*
X03602Y03018*
X03633Y0303*
X03645Y0306*
X03633Y03091*
X03602Y03103*
G37*
G36*
X03502D02*
X03472Y03091D01*
X0346Y0306*
X03472Y0303*
X03502Y03018*
X03533Y0303*
X03545Y0306*
X03533Y03091*
X03502Y03103*
G37*
G36*
X04444Y02172D02*
Y02147D01*
X0447*
Y02172*
X04444*
G37*
G36*
X03035Y0218D02*
X03007D01*
Y0213*
X03035*
Y0218*
G37*
G36*
X04842Y03055D02*
X04807D01*
Y03021*
X04842*
Y03055*
G37*
G36*
X03035Y0224D02*
X03007D01*
Y0219*
X03035*
Y0224*
G37*
G36*
X03335Y02212D02*
X03308D01*
Y02188*
X03335*
Y02212*
G37*
G36*
X02899Y02112D02*
X02875D01*
Y02086*
X02899*
Y02112*
G37*
G36*
X02865D02*
X0284D01*
Y02086*
X02865*
Y02112*
G37*
G36*
X0458Y02259D02*
X04561Y02251D01*
X04553Y02232*
X04559Y02218*
Y02152*
X04543*
Y02108*
X04546Y02104*
X04544Y02098*
X04622*
X0462Y02104*
X04623Y02108*
Y02152*
X04602*
Y02218*
X04608Y02232*
X046Y02251*
X0458Y02259*
G37*
G36*
X0447Y02137D02*
X04444D01*
Y02113*
X0447*
Y02137*
G37*
G36*
X04797Y03055D02*
X04763D01*
Y03021*
X04797*
Y03055*
G37*
G36*
X04743D02*
X04707D01*
Y0302*
X04733Y0303*
X04743Y03055*
G37*
G36*
X04697D02*
X04662D01*
X04672Y0303*
X04697Y0302*
Y03055*
G37*
G36*
X03644Y02409D02*
X03625D01*
Y02375*
X03637Y0238*
X03644Y02396*
Y02409*
G37*
G36*
X03335Y02247D02*
X03308D01*
Y02222*
X03335*
Y02247*
G37*
G36*
X01987Y02325D02*
X01898D01*
Y02274*
Y0223*
Y02218*
X01942*
X01987*
Y0224*
X02001*
X02002Y02237*
X02022Y02229*
X02041Y02237*
X02049Y02257*
X02041Y02276*
X02022Y02284*
X02002Y02276*
X02001Y02272*
X01987*
Y02325*
G37*
G36*
X03267Y0269D02*
X03247D01*
X03253Y02676*
X03267Y02671*
Y0269*
G37*
G36*
X02185Y02619D02*
X02165D01*
X0217Y02604*
X02185Y02599*
Y02619*
G37*
G36*
X02215D02*
X02195D01*
Y02599*
X02209Y02604*
X02215Y02619*
G37*
G36*
X02727Y02042D02*
X02707D01*
Y02022*
X02721Y02027*
X02727Y02042*
G37*
G36*
X02697Y02128D02*
X0267D01*
Y02104*
X02697*
Y02128*
G37*
G36*
X02643Y02424D02*
X02619D01*
Y02397*
X02643*
Y02424*
G37*
G36*
X02723Y0228D02*
X02698D01*
Y02253*
X02723*
Y0228*
G37*
G36*
X02688D02*
X02663D01*
Y02253*
X02688*
Y0228*
G37*
G36*
X02555Y02242D02*
X02535D01*
X0254Y02228*
X02555Y02222*
Y02242*
G37*
G36*
X02636Y02279D02*
X02612D01*
Y02252*
X02636*
Y02279*
G37*
G36*
X02555Y02272D02*
X0254Y02267D01*
X02535Y02252*
X02555*
Y02272*
G37*
G36*
X03418Y02797D02*
X03399D01*
Y02777*
X03413Y02782*
X03418Y02797*
G37*
%LNmsp_mcu-3*%
%LPD*%
G54D10*
X03525Y02645D02*
D01*
X03523Y02645*
X03521Y02645*
X03519Y02645*
X03517Y02644*
X03516Y02644*
X03514Y02643*
X03512Y02642*
X03511Y02641*
X03509Y0264*
X03508Y02639*
X03507Y02638*
X03505Y02637*
X03504Y02635*
X03503Y02634*
X03502Y02632*
X03501Y02631*
X03501Y02629*
X035Y02628*
X035Y02626*
X03499Y02624*
X03499Y02622*
X03499Y02621*
Y02619*
X03499Y02617*
X03499Y02615*
X035Y02613*
X035Y02612*
X03501Y0261*
X03501Y02608*
X03502Y02607*
X03503Y02605*
X03504Y02604*
X03505Y02602*
X03507Y02601*
X03508Y026*
X03509Y02599*
X03511Y02598*
X03512Y02597*
X03514Y02596*
X03516Y02596*
X03517Y02595*
X03519Y02595*
X03521Y02594*
X03523Y02594*
X03525Y02594*
X03526Y02594*
X03528Y02594*
X0353Y02595*
X03532Y02595*
X03533Y02596*
X03535Y02596*
X03537Y02597*
X03538Y02598*
X0354Y02599*
X03541Y026*
X03542Y02601*
X03544Y02602*
X03545Y02604*
X03546Y02605*
X03547Y02607*
X03548Y02608*
X03548Y0261*
X03549Y02612*
X03549Y02613*
X0355Y02615*
X0355Y02617*
X0355Y02619*
Y02621*
X0355Y02622*
X0355Y02624*
X03549Y02626*
X03549Y02628*
X03548Y02629*
X03548Y02631*
X03547Y02632*
X03546Y02634*
X03545Y02635*
X03544Y02637*
X03542Y02638*
X03541Y02639*
X0354Y0264*
X03538Y02641*
X03537Y02642*
X03535Y02643*
X03533Y02644*
X03532Y02644*
X0353Y02645*
X03528Y02645*
X03527Y02645*
G54D11*
X02777Y02329D03*
Y02262D03*
X02693Y02181D03*
Y02248D03*
X02607Y0218D03*
Y02247D03*
X02654Y02919D03*
Y02852D03*
X02697Y02697D03*
Y02764D03*
X04414Y01987D03*
Y02053D03*
X04335Y01985D03*
Y02052D03*
X0418Y01879D03*
Y01812D03*
X04095Y01879D03*
Y01812D03*
X02614Y02495D03*
Y02429D03*
X03972Y02713D03*
Y02647D03*
X04777Y01892D03*
Y01825D03*
X04695Y01892D03*
Y01826D03*
X04614Y01892D03*
Y01825D03*
X0287Y02184D03*
Y02117D03*
X03237Y02099D03*
Y02032D03*
X03145Y021D03*
Y02033D03*
X027Y02495D03*
Y02429D03*
G54D12*
X04256Y02102D03*
X04181D03*
X04256Y02007D03*
X04219D03*
X0362Y02509D03*
X03546D03*
X0362Y02414D03*
X03583D03*
G54D13*
X04181Y02007D03*
X03546Y02414D03*
G54D14*
X03575Y02219D03*
X03509D03*
X0323Y01835D03*
X03164D03*
X02769Y02099D03*
X02702D03*
X03407Y02217D03*
X0334D03*
X0232Y02527D03*
X02387D03*
X04372Y02142D03*
X04439D03*
X03905Y0233D03*
X03972D03*
X0323Y01915D03*
X03163D03*
X0446Y0181D03*
X04526D03*
X04352Y0181D03*
X04286D03*
X03347Y02862D03*
X03413D03*
X0304Y01915D03*
X02974D03*
X02857Y02857D03*
X02924D03*
X02857Y02935D03*
X02924D03*
X02667Y01774D03*
X026D03*
X02902Y01772D03*
X02836D03*
G54D15*
X03355Y01875D03*
X03455D03*
X03355Y0207D03*
X03555D03*
X03455D03*
X03555Y01875D03*
X03655D03*
X03755D03*
X03855D03*
X03955D03*
X03655Y0207D03*
X03755D03*
X03855D03*
G54D16*
X03955Y0207D03*
G54D17*
X02639Y02D03*
G54D18*
X02639Y0195D03*
Y019D03*
Y0185D03*
X02852Y02D03*
Y0195D03*
Y019D03*
Y0185D03*
G54D19*
X02095Y02798D03*
Y02767D03*
Y02672D03*
Y02704D03*
Y02735D03*
G54D20*
X02086Y0291D03*
X01871D03*
X02086Y0256D03*
X01871D03*
G54D21*
X03549Y02679D03*
X035D03*
G54D22*
X03525Y02594D03*
G54D23*
X04677Y02055D03*
Y0213D03*
X04583Y02055D03*
Y02093D03*
G54D24*
X04583Y0213D03*
G54D25*
X04404Y02539D03*
Y02523D03*
Y02507D03*
Y02492D03*
X04424Y02539D03*
Y02523D03*
Y02507D03*
Y02492D03*
X04443Y02539D03*
Y02523D03*
Y02507D03*
Y02492D03*
X04463Y02539D03*
Y02523D03*
Y02507D03*
Y02492D03*
G54D26*
X03276Y02335D03*
X03257D03*
X03237D03*
X03217D03*
X03198D03*
X03178D03*
X03158D03*
X03139D03*
X03119D03*
X03099D03*
X0308D03*
X0306D03*
X0304D03*
X0302D03*
X03001D03*
X02981D03*
Y02769D03*
X03001D03*
X0302D03*
X0304D03*
X0306D03*
X0308D03*
X03099D03*
X03119D03*
X03139D03*
X03158D03*
X03178D03*
X03198D03*
X03217D03*
X03237D03*
X03257D03*
X03276D03*
G54D27*
X02912Y02404D03*
Y02424D03*
Y02444D03*
Y02463D03*
Y02483D03*
Y02503D03*
Y02522D03*
Y02542D03*
Y02562D03*
Y02582D03*
Y02601D03*
Y02621D03*
Y02641D03*
Y0266D03*
Y0268D03*
Y027D03*
X03345D03*
Y0268D03*
Y0266D03*
Y02641D03*
Y02621D03*
Y02601D03*
Y02582D03*
Y02562D03*
Y02542D03*
Y02522D03*
Y02503D03*
Y02483D03*
Y02463D03*
Y02444D03*
Y02424D03*
G54D28*
X03345Y02404D03*
G54D29*
X03143Y02195D03*
X03237D03*
G54D30*
X02946Y02185D03*
Y02027D03*
X0304Y02185D03*
Y02027D03*
G54D31*
X02569Y02605D03*
G54D32*
X02569Y0263D03*
Y02656D03*
Y02681D03*
Y02707D03*
Y02732D03*
Y02758D03*
Y02784D03*
Y02809D03*
Y02835D03*
Y0286D03*
Y02886D03*
Y02912D03*
Y02937D03*
X02311Y02605D03*
Y0263D03*
Y02656D03*
Y02681D03*
Y02707D03*
Y02732D03*
Y02758D03*
Y02784D03*
Y02809D03*
Y02835D03*
Y0286D03*
Y02886D03*
Y02912D03*
Y02937D03*
G54D33*
X02467Y02298D03*
Y01995D03*
G54D34*
X01977Y02392D03*
X02423Y01825D03*
X01977D03*
G54D35*
X01942Y01996D03*
Y0204D03*
Y02083D03*
Y02126D03*
Y0217D03*
Y02213D03*
Y02256D03*
Y02299D03*
G54D36*
X02857Y02857D02*
Y02935D01*
X02569Y02758D02*
X02634D01*
X02702Y02047D02*
X02702Y02047D01*
Y02099*
X03394Y02802D02*
X03413Y02821D01*
Y02862*
X03027Y02494D02*
X03064D01*
X03984Y0233D02*
X04294D01*
X03975Y0234D02*
X03984Y0233D01*
X03Y02569D02*
X03065D01*
X02442Y02181D02*
X02693D01*
X03345Y027D02*
Y02861D01*
X03419Y02679D02*
X035D01*
X02667Y01814D02*
X02667Y01815D01*
X02667Y01774D02*
Y01814D01*
X03257Y02402D02*
X0326Y02405D01*
X03257Y02335D02*
Y02402D01*
X02753Y02429D02*
X02754Y02429D01*
X027Y02429D02*
X02753D01*
X02839Y0279D02*
X02857Y02807D01*
Y02857*
X03089Y02232D02*
X03107Y0225D01*
X03145*
X03178Y02283*
Y02335*
X0297Y02267D02*
X03142D01*
X02946Y02242D02*
X0297Y02267D01*
X03142D02*
X03158Y02283D01*
X0256Y02247D02*
X02607D01*
X03272Y02695D02*
X03288Y0268D01*
X03345*
X02275Y02545D02*
X02292Y02527D01*
X0232*
X0219Y02624D02*
Y02669D01*
X02186Y02672D02*
X0219Y02669D01*
X02095Y02672D02*
X02186D01*
X0228Y02495D02*
X02699D01*
X01957Y0279D02*
X02095D01*
Y02798*
X01945Y02777D02*
X01957Y0279D01*
X03274Y02562D02*
X03345D01*
X03269Y02567D02*
X03274Y02562D01*
X03248Y02567D02*
X03269D01*
X03234Y02552D02*
X03248Y02567D01*
X03234Y0246D02*
Y02552D01*
X04542Y01892D02*
X04777D01*
X02669Y02364D02*
X0267D01*
X02394D02*
X02669D01*
X02639Y0185D02*
X02737D01*
X03972Y02647D02*
X04296D01*
X02711Y02919D02*
X02712Y0292D01*
X02654Y02919D02*
X02711D01*
X02654Y02807D02*
X02697Y02764D01*
X02654Y02807D02*
Y02852D01*
X02684Y0264D02*
Y02685D01*
X02697Y02697*
X0284Y0264D02*
X02841Y02641D01*
X02912*
X03335Y02335D02*
X03337Y02334D01*
X03276Y02335D02*
X03335D01*
X04352Y0181D02*
X04354Y0181D01*
X0446*
X04542Y01892*
X04777D02*
Y02132D01*
X04775Y0213D02*
X04777Y02132D01*
X04677Y0213D02*
X04775D01*
X04676Y02132D02*
X04677Y0213D01*
X04676Y02132D02*
Y02278D01*
X0458Y02133D02*
X04583Y0213D01*
X04412Y02052D02*
X04414Y02053D01*
X04335Y02052D02*
X04412D01*
X04265Y02055D02*
X04335Y01985D01*
X04228Y02055D02*
X04265D01*
X04181Y02102D02*
X04228Y02055D01*
X04082Y02104D02*
X04084Y02102D01*
X04181*
X03455Y02217D02*
X03507D01*
X03407D02*
X03455D01*
X03507D02*
X03509Y02219D01*
X03455Y0207D02*
Y02217D01*
X03605Y01875D02*
X03606Y01875D01*
X03655*
X03402Y0207D02*
X03404Y0207D01*
X03455*
X03655D02*
Y02207D01*
X03684Y02237*
Y0268*
X03547Y02817D02*
X03684Y0268D01*
X03755Y0207D02*
Y02235D01*
X03715Y02275D02*
X03755Y02235D01*
X03715Y02275D02*
Y0274D01*
X0364Y02815D02*
X03715Y0274D01*
X03217Y02769D02*
Y02824D01*
X03229Y0285D02*
X03237Y02842D01*
X03195Y02847D02*
X03217Y02824D01*
X03237Y02769D02*
Y02842D01*
X03229Y0285D02*
Y02885D01*
X03855Y0207D02*
Y02182D01*
X03742Y02295D02*
X03855Y02182D01*
X03742Y02295D02*
Y02757D01*
X03687Y02812D02*
X03742Y02757D01*
X03257Y02769D02*
Y02915D01*
X03257Y02915*
X03955Y0207D02*
Y02134D01*
X0377Y02319D02*
X03955Y02134D01*
X0377Y02319D02*
Y02784D01*
X03657Y02897D02*
X0377Y02784D01*
X03307Y02897D02*
X03657D01*
X03276Y02865D02*
X03307Y02897D01*
X03276Y02769D02*
Y02865D01*
X03502Y02762D02*
X03549Y02715D01*
Y02679D02*
Y02715D01*
X03546Y02509D02*
X03582Y02545D01*
Y02645*
X03549Y02679D02*
X03582Y02645D01*
X03345Y02861D02*
X03347Y02862D01*
X0386Y02715D02*
X03863Y02713D01*
X03972*
X03702Y0306D02*
X03774Y0299D01*
X03915*
X03957Y02947*
Y02807D02*
Y02947D01*
Y02807D02*
X04054Y0271D01*
X04267*
X03792Y0249D02*
Y02807D01*
X03245Y01915D02*
X03276Y01947D01*
Y02335*
X0323Y01835D02*
X0323Y01835D01*
X0323Y01835D02*
Y01915D01*
X03245*
X02244Y02704D02*
Y02735D01*
Y02704D02*
X02266Y02681D01*
X02311*
X02639Y02042D02*
X0264Y02042D01*
X02639Y02D02*
Y02042D01*
X03345Y0266D02*
X034D01*
X03419Y02679*
X02769Y02002D02*
X0277Y02D01*
X02769Y02002D02*
Y02099D01*
X02852Y0204D02*
X02852Y0204D01*
X02852Y02D02*
Y0204D01*
X0277Y02D02*
X02852D01*
X0458Y02232D02*
X04582Y0223D01*
X02915Y02335D02*
X02981D01*
X02822Y02242D02*
X02915Y02335D01*
X02822Y02152D02*
Y02242D01*
X02769Y02099D02*
X02822Y02152D01*
X0287Y02184D02*
X0287Y02185D01*
X02946*
X03099Y02769D02*
Y02964D01*
Y02335D02*
Y02421D01*
X03125Y02447*
X03139Y02769D02*
Y02997D01*
X0308Y02769D02*
Y02957D01*
X0306Y02769D02*
Y02874D01*
X03119Y02769D02*
Y02984D01*
X0308Y02335D02*
Y02449D01*
X0306Y02335D02*
Y02421D01*
X02974Y02542D02*
X03Y02569D01*
X04242Y0239D02*
X04307Y02457D01*
X03965Y0239D02*
X04242D01*
X03905Y0233D02*
X03965Y0239D01*
X02912Y02542D02*
X02974D01*
X02742Y01972D02*
X0277Y02D01*
X02742Y0192D02*
Y01972D01*
X02722Y019D02*
X02742Y0192D01*
X02639Y019D02*
X02722D01*
X02557Y0213D02*
X02607Y0218D01*
X02557Y01917D02*
Y0213D01*
Y01917D02*
X02574Y019D01*
X03198Y02433D02*
Y02769D01*
X02912Y02727D02*
X02943D01*
X02912Y027D02*
Y02727D01*
X02852Y0185D02*
X02917D01*
X02915Y019D02*
X02917Y019D01*
X02852Y019D02*
X02915D01*
X0304Y01915D02*
Y02027D01*
X03237Y02099D02*
Y02195D01*
X03143Y02101D02*
X03145Y021D01*
X03143Y02101D02*
Y02195D01*
X0304Y02027D02*
X0307D01*
X03089Y02045*
Y02232*
X02946Y02185D02*
Y02242D01*
X03158Y02283D02*
Y02335D01*
X03143Y02195D02*
X03217Y02269D01*
Y02335*
X03237Y02195D02*
X03237Y02195D01*
X03237Y02195D02*
Y02335D01*
X0302Y0272D02*
X0306Y0268D01*
X0302Y0272D02*
Y02769D01*
X03Y0268D02*
X03001Y0268D01*
Y02769*
X02777Y022D02*
Y02262D01*
X02758Y02181D02*
X02777Y022D01*
X02693Y02181D02*
X02758D01*
X02777Y02329D02*
X02864D01*
X02704D02*
X02777D01*
X0267Y02364D02*
X02704Y02329D01*
X02195Y02165D02*
X02394Y02364D01*
X02837Y02682D02*
X02838Y0268D01*
X02912*
X02835Y0251D02*
Y02542D01*
X02855Y02562*
X02912*
X02836Y02582D02*
X02912D01*
X02835Y02582D02*
X02836Y02582D01*
X02922Y02769D02*
X02981D01*
X03972Y02197D02*
X03972Y02197D01*
Y0233*
X0415Y02425D02*
X04232Y02507D01*
X03859Y02425D02*
X0415D01*
X03792Y0249D02*
X03859Y02425D01*
X02998Y02522D02*
X03027Y02494D01*
X02912Y02522D02*
X02998D01*
X03972Y02647D02*
X03975Y02643D01*
Y02594D02*
Y02643D01*
X02699Y02495D02*
X027Y02495D01*
X02244Y02532D02*
X0228Y02495D01*
X02387Y02527D02*
Y02872D01*
X02373Y02886D02*
X02387Y02872D01*
X02311Y02886D02*
X02373D01*
X02569Y02605D02*
X02632D01*
X03005Y02852D02*
X03027D01*
X0304Y02838*
Y02769D02*
Y02838D01*
X03005Y02892D02*
X03042D01*
X0306Y02874*
X02641Y02707D02*
X02642Y02707D01*
X02569Y02707D02*
X02641D01*
X02602Y0306D02*
X0267Y02992D01*
X02694*
X02745Y0294*
Y0248D02*
Y0294D01*
Y0248D02*
X02801Y02424D01*
X02702Y0306D02*
X02772Y0299D01*
Y0249D02*
Y0299D01*
Y0249D02*
X02818Y02444D01*
X02801Y02424D02*
X02912D01*
X02818Y02444D02*
X02912D01*
X03422Y02307D02*
X0347D01*
X03035Y02447D02*
X0306Y02421D01*
X03425Y02641D02*
X03425Y02642D01*
X03345Y02641D02*
X03425D01*
X03427Y02601D02*
X03427Y026D01*
X03345Y02601D02*
X03427D01*
X03259Y02542D02*
X03259Y02542D01*
X03345*
Y02385D02*
X03422Y02307D01*
X03345Y02385D02*
Y02404D01*
X03452Y0241D02*
X0347D01*
X03398Y02463D02*
X03452Y0241D01*
X03345Y02463D02*
X03398D01*
X03437Y02449D02*
X0347D01*
X03403Y02483D02*
X03437Y02449D01*
X03345Y02483D02*
X03403D01*
X03427Y02487D02*
X03469D01*
X03412Y02503D02*
X03427Y02487D01*
X03345Y02503D02*
X03412D01*
X03428Y02522D02*
X03429Y02522D01*
X03345Y02522D02*
X03428D01*
X03139Y02997D02*
X03202Y0306D01*
X03102Y03D02*
Y0306D01*
Y03D02*
X03119Y02984D01*
X0304Y02997D02*
X0308Y02957D01*
X02802Y02492D02*
X02831Y02463D01*
X02912*
X02802Y02492D02*
Y0306D01*
X03002D02*
X03099Y02964D01*
X02902Y0306D02*
X02967Y02997D01*
X0304*
X03905Y0233D02*
X03905Y0233D01*
X0384Y0233D02*
X03905D01*
X04307Y02457D02*
X04369D01*
X04267Y0271D02*
X04394Y02582D01*
X04002Y02819D02*
Y0306D01*
Y02819D02*
X04084Y02737D01*
X04389*
X04443Y02683*
X04302Y02867D02*
Y0306D01*
Y02867D02*
X04355Y02815D01*
X04485*
X0454Y02762*
Y02562D02*
Y02762D01*
X04102Y02854D02*
Y0306D01*
Y02854D02*
X04194Y02762D01*
X04397*
X04463Y02696*
X02247Y02912D02*
X02311D01*
X0222Y02885D02*
X02247Y02912D01*
X0222Y02777D02*
Y02885D01*
X02209Y02767D02*
X0222Y02777D01*
X02095Y02767D02*
X02209D01*
X02311Y02809D02*
X02353D01*
X02362Y028*
Y0259D02*
Y028D01*
X02347Y02575D02*
X02362Y0259D01*
X01945Y0249D02*
Y02777D01*
Y0249D02*
X01995Y02439D01*
X02225*
X0228Y02495*
X02244Y02532D02*
Y02557D01*
X02262Y02575*
X02347*
X01976Y02735D02*
X01982D01*
X02095*
X02311Y02937D02*
Y02973D01*
X02312Y02974*
X01942Y0204D02*
X02136D01*
X01942Y0217D02*
X0202D01*
X02022Y02172*
X01942Y02126D02*
X01943Y02127D01*
X01942Y02083D02*
X02022D01*
X02022Y02082*
X01942Y02256D02*
X02021D01*
X02022Y02257*
X02136Y0204D02*
X02195Y02099D01*
Y02165*
X01885Y02126D02*
X01942D01*
X01862Y02102D02*
X01885Y02126D01*
X01862Y01947D02*
Y02102D01*
Y01947D02*
X0189Y01919D01*
X02335*
X0239Y01975*
Y0213*
X02442Y02181*
X03302Y0306D02*
X0345Y02912D01*
X03687*
X03792Y02807*
X02892Y028D02*
X02924Y02832D01*
Y02857*
Y02935*
X02935Y02945*
X0301*
X02574Y01774D02*
X026D01*
X02557Y0179D02*
X02574Y01774D01*
X02742Y0192D02*
X02777Y01885D01*
Y01792D02*
Y01885D01*
Y01792D02*
X02797Y01772D01*
X02836*
X02737Y01787D02*
Y0185D01*
X02574Y019D02*
X02639D01*
X02557Y0179D02*
Y01917D01*
G54D37*
X04462Y02507D02*
X04589D01*
X04452Y02496D02*
Y02498D01*
Y02496D02*
X04453Y02495D01*
Y02488D02*
Y02495D01*
X04452Y02487D02*
X04453Y02488D01*
X04452Y02309D02*
Y02487D01*
X04443Y02507D02*
X04452Y02498D01*
X04414Y02513D02*
X04424Y02523D01*
X04414Y0245D02*
Y02513D01*
X04294Y0233D02*
X04414Y0245D01*
X04372Y02142D02*
Y02268D01*
X04369Y02457D02*
X04404Y02492D01*
X04312Y0223D02*
X04434Y0235D01*
X04372Y02268D02*
X04443Y02339D01*
Y02492*
X04232Y02507D02*
X04404D01*
X04296Y02647D02*
X04404Y02539D01*
X04463Y02492D02*
X04676Y02278D01*
X04397Y0271D02*
X04434Y02673D01*
Y02532D02*
X04443Y02523D01*
X04434Y02532D02*
Y02673D01*
X04394Y02582D02*
X04414Y02562D01*
Y02533D02*
Y02562D01*
X04404Y02523D02*
X04414Y02533D01*
X04434Y0235D02*
Y02497D01*
X0439Y024D02*
X04424Y02434D01*
X0439Y02367D02*
Y024D01*
Y02367D02*
Y02367D01*
X04424Y02434D02*
Y02491D01*
X04424Y02492D02*
X04424Y02491D01*
X04424Y02507D02*
X04434Y02497D01*
X04352Y0271D02*
X04397D01*
X04352D02*
X04352D01*
X04402Y0267D02*
X04424Y0265D01*
Y02539D02*
Y0265D01*
X04443Y02539D02*
Y02683D01*
X04501Y02523D02*
X0454Y02562D01*
X04463Y02523D02*
X04501D01*
X04463Y02539D02*
Y02696D01*
G54D38*
X0418Y02007D02*
Y0201D01*
X03955Y01875D02*
X04176D01*
X03955D02*
Y01907D01*
X03894Y01969D02*
X03955Y01907D01*
X03635Y01969D02*
X03894D01*
X0418Y01879D02*
Y02007D01*
X0418*
X04135D02*
X0418D01*
X0418D02*
X04181Y02007D01*
X0458Y02133D02*
Y02232D01*
X04176Y01875D02*
X0418Y01879D01*
X03604Y01999D02*
Y0219D01*
X03575Y02219D02*
X03604Y0219D01*
X03575Y02219D02*
Y02287D01*
X03546Y02316D02*
X03575Y02287D01*
X03546Y02316D02*
Y02414D01*
X03604Y01999D02*
X03635Y01969D01*
G54D39*
X02634Y02758D03*
X02702Y02047D03*
X03394Y02802D03*
X02667Y01815D03*
X0326Y02405D03*
X02754Y02429D03*
X02839Y0279D03*
X0256Y02247D03*
X03272Y02695D03*
X02275Y02545D03*
X0219Y02624D03*
X02562Y02407D03*
X02669Y02364D03*
X02574Y0232D03*
X02587Y02095D03*
X02737Y01787D03*
X0346Y02682D03*
X04042Y0233D03*
X0284Y0264D03*
X02684D03*
X02712Y0292D03*
X03337Y02334D03*
X03345Y02784D03*
X04135Y02007D03*
X03605Y01875D03*
X03402Y0207D03*
X03547Y02817D03*
X0364Y02815D03*
X03687Y02812D03*
X03195Y02847D03*
X03229Y02885D03*
X03257Y02915D03*
X02244Y02735D03*
X0264Y02042D03*
X02852Y0204D03*
X0458Y02232D03*
X03234Y0246D03*
X03198Y02433D03*
X02943Y02727D03*
X02917Y0185D03*
Y019D03*
X02737Y0185D03*
X0306Y0268D03*
X03D03*
X02837Y02682D03*
X02835Y0251D03*
Y02582D03*
X0292Y0277D03*
X02864Y02329D03*
X03972Y02197D03*
X03975Y02594D03*
X03064Y02495D03*
X03065Y02569D03*
X03005Y02852D03*
X03005Y02892D03*
X02632Y02605D03*
X02642Y02707D03*
X03125Y02447D03*
X0308Y02449D03*
X03035Y02447D03*
X03425Y02642D03*
X03427Y026D03*
X03259Y02542D03*
X0347Y02307D03*
Y0241D03*
Y02449D03*
X03469Y02487D03*
X03429Y02522D03*
X0386Y02715D03*
X0384Y0233D03*
X04585Y02509D03*
X04452Y02309D03*
X0439Y02367D03*
X04312Y0223D03*
X04676Y02278D03*
X04307Y02457D03*
X04352Y0271D03*
X04402Y0267D03*
X01982Y02735D03*
X02312Y02974D03*
X02022Y02172D03*
Y02082D03*
X02022Y02257D03*
X02892Y028D03*
X0301Y02945D03*
G54D40*
X03502Y02762D03*
X04777Y02132D03*
X04082Y02104D03*
G54D41*
X0198Y02649D03*
Y02822D03*
G54D42*
X04802Y0306D03*
G54D43*
X02502Y0306D03*
X02602D03*
X02702D03*
X02802D03*
X02902D03*
X03002D03*
X03102D03*
X03202D03*
X03302D03*
X03402D03*
X03502D03*
X03602D03*
X03702D03*
X03802D03*
X03902D03*
X04002D03*
X04102D03*
X04202D03*
X04302D03*
X04402D03*
X04502D03*
X04602D03*
X04702D03*
G54D44*
X04788Y02515D03*
X04079D03*
M02*