%FSTAX23Y23*%
%MOIN*%
%SFA1B1*%

%IPPOS*%
%ADD36C,0.010000*%
%ADD45C,0.007874*%
%ADD46C,0.015748*%
%ADD47C,0.005000*%
%ADD48C,0.004016*%
%ADD49C,0.005984*%
%LNmsp_mcu-1*%
%LPD*%
G54D36*
X04118Y022D02*
X04748D01*
Y0283*
X04118D02*
X04748D01*
X04118Y022D02*
Y0283D01*
X01812Y02443D02*
X01825D01*
X01809Y02384D02*
Y0244D01*
X02497Y01772D02*
X02547Y01821D01*
X01809Y01772D02*
X02497D01*
X02547Y01821D02*
Y02387D01*
X0249Y02443D02*
X02547Y02387D01*
X0185Y02443D02*
X0249D01*
X01809Y01772D02*
Y02384D01*
X01825Y02443D02*
X0185D01*
G54D45*
X02733Y02025D02*
D01*
X02733Y02025*
X02733Y02024*
X02733Y02023*
X02733Y02022*
X02733Y02021*
X02734Y0202*
X02734Y0202*
X02735Y02019*
X02735Y02018*
X02736Y02017*
X02736Y02017*
X02737Y02016*
X02737Y02016*
X02738Y02015*
X02739Y02015*
X0274Y02014*
X0274Y02014*
X02741Y02014*
X02742Y02013*
X02743Y02013*
X02744Y02013*
X02745Y02013*
X02746*
X02746Y02013*
X02747Y02013*
X02748Y02013*
X02749Y02014*
X0275Y02014*
X02751Y02014*
X02751Y02015*
X02752Y02015*
X02753Y02016*
X02754Y02016*
X02754Y02017*
X02755Y02017*
X02755Y02018*
X02756Y02019*
X02756Y0202*
X02757Y0202*
X02757Y02021*
X02757Y02022*
X02757Y02023*
X02758Y02024*
X02758Y02025*
X02758Y02025*
X02446Y02592D02*
D01*
X02446Y02592*
X02446Y02593*
X02446Y02593*
X02446Y02594*
X02446Y02594*
X02445Y02594*
X02445Y02595*
X02445Y02595*
X02445Y02595*
X02444Y02596*
X02444Y02596*
X02444Y02596*
X02444Y02597*
X02443Y02597*
X02443Y02597*
X02442Y02597*
X02442Y02598*
X02442Y02598*
X02441Y02598*
X02441Y02598*
X0244Y02598*
X0244Y02598*
X02439*
X02439Y02598*
X02438Y02598*
X02438Y02598*
X02438Y02598*
X02437Y02598*
X02437Y02597*
X02436Y02597*
X02436Y02597*
X02436Y02597*
X02435Y02596*
X02435Y02596*
X02435Y02596*
X02434Y02595*
X02434Y02595*
X02434Y02595*
X02434Y02594*
X02434Y02594*
X02433Y02594*
X02433Y02593*
X02433Y02593*
X02433Y02592*
X02433Y02592*
X04154Y01961D02*
Y02147D01*
X04283*
Y01961D02*
Y02147D01*
X04154Y01961D02*
X04283D01*
X033Y01783D02*
X04005D01*
X033D02*
Y02166D01*
X04005*
Y01947D02*
Y02166D01*
Y01783D02*
Y01997D01*
X02711Y02025D02*
X02733D01*
X02758D02*
X02779D01*
Y01825D02*
Y02025D01*
X02711Y01825D02*
X02779D01*
X02711D02*
Y02025D01*
X01805Y02464D02*
Y03014D01*
Y02464D02*
X02213D01*
Y03014*
X01805D02*
X02213D01*
X02452Y0301D02*
X04777D01*
X04852*
Y0311*
X02452D02*
X04852D01*
X02452Y0301D02*
Y0311D01*
X04537Y02158D02*
X04723D01*
Y02028D02*
Y02158D01*
X04537Y02028D02*
X04723D01*
X04537D02*
Y02158D01*
X04385Y02469D02*
X04482D01*
Y02561*
X04385D02*
X04482D01*
X04385Y02469D02*
Y02561D01*
X03518Y02368D02*
Y02554D01*
X03648*
Y02368D02*
Y02554D01*
X03518Y02368D02*
X03648D01*
X03224Y02396D02*
X03285Y02456D01*
X02973Y02396D02*
X03224D01*
X02973D02*
Y02708D01*
X03285*
Y02456D02*
Y02708D01*
X02446Y02592D02*
X02502D01*
X02377D02*
X02433D01*
X02377D02*
Y0295D01*
X02502*
Y02592D02*
Y0295D01*
G54D46*
X04364Y02549D03*
G54D47*
X02745Y02227D02*
Y02365D01*
X02808*
Y02227D02*
Y02365D01*
X02745Y02227D02*
X02808D01*
X02725Y02146D02*
Y02284D01*
X02662Y02146D02*
X02725D01*
X02662D02*
Y02284D01*
X02725*
X02638Y02145D02*
Y02283D01*
X02575Y02145D02*
X02638D01*
X02575D02*
Y02283D01*
X02638*
X02622Y02817D02*
Y02955D01*
X02685*
Y02817D02*
Y02955D01*
X02622Y02817D02*
X02685D01*
X02728Y02662D02*
Y028D01*
X02665Y02662D02*
X02728D01*
X02665D02*
Y028D01*
X02728*
X03473Y0225D02*
X03611D01*
Y02187D02*
Y0225D01*
X03473Y02187D02*
X03611D01*
X03473D02*
Y0225D01*
X04445Y01951D02*
Y02089D01*
X04382Y01951D02*
X04445D01*
X04382D02*
Y02089D01*
X04445*
X04366Y0195D02*
Y02088D01*
X04303Y0195D02*
X04366D01*
X04303D02*
Y02088D01*
X04366*
X03128Y01866D02*
X03266D01*
Y01803D02*
Y01866D01*
X03128Y01803D02*
X03266D01*
X03128D02*
Y01866D01*
X02666Y0213D02*
X02804D01*
Y02067D02*
Y0213D01*
X02666Y02067D02*
X02804D01*
X02666D02*
Y0213D01*
X03304Y02249D02*
X03442D01*
Y02186D02*
Y02249D01*
X03304Y02186D02*
X03442D01*
X03304D02*
Y02249D01*
X04148Y01776D02*
Y01914D01*
X04211*
Y01776D02*
Y01914D01*
X04148Y01776D02*
X04211D01*
X04064D02*
Y01914D01*
X04127*
Y01776D02*
Y01914D01*
X04064Y01776D02*
X04127D01*
X02582Y02393D02*
Y02531D01*
X02645*
Y02393D02*
Y02531D01*
X02582Y02393D02*
X02645D01*
X02285Y02496D02*
X02423D01*
X02285D02*
Y02559D01*
X02423*
Y02496D02*
Y02559D01*
X04336Y02111D02*
X04474D01*
X04336D02*
Y02174D01*
X04474*
Y02111D02*
Y02174D01*
X03941Y02611D02*
Y02749D01*
X04004*
Y02611D02*
Y02749D01*
X03941Y02611D02*
X04004D01*
X0387Y02299D02*
X04008D01*
X0387D02*
Y02362D01*
X04008*
Y02299D02*
Y02362D01*
X03127Y01947D02*
X03265D01*
Y01884D02*
Y01947D01*
X03127Y01884D02*
X03265D01*
X03127D02*
Y01947D01*
X04745Y0179D02*
Y01928D01*
X04808*
Y0179D02*
Y01928D01*
X04745Y0179D02*
X04808D01*
X04663Y0179D02*
Y01928D01*
X04726*
Y0179D02*
Y01928D01*
X04663Y0179D02*
X04726D01*
X04582Y01789D02*
Y01927D01*
X04645*
Y01789D02*
Y01927D01*
X04582Y01789D02*
X04645D01*
X04424Y01778D02*
X04562D01*
X04424D02*
Y01841D01*
X04562*
Y01778D02*
Y01841D01*
X0425Y01842D02*
X04388D01*
Y01779D02*
Y01842D01*
X0425Y01779D02*
X04388D01*
X0425D02*
Y01842D01*
X03311Y02831D02*
X03449D01*
X03311D02*
Y02894D01*
X03449*
Y02831D02*
Y02894D01*
X02938Y01947D02*
X03076D01*
Y01884D02*
Y01947D01*
X02938Y01884D02*
X03076D01*
X02938D02*
Y01947D01*
X02838Y02082D02*
Y0222D01*
X02901*
Y02082D02*
Y0222D01*
X02838Y02082D02*
X02901D01*
X03206Y01997D02*
Y02135D01*
X03269*
Y01997D02*
Y02135D01*
X03206Y01997D02*
X03269D01*
X03113Y01997D02*
Y02135D01*
X03176*
Y01997D02*
Y02135D01*
X03113Y01997D02*
X03176D01*
X02668Y02393D02*
Y02531D01*
X02731*
Y02393D02*
Y02531D01*
X02668Y02393D02*
X02731D01*
X02821Y02825D02*
Y02888D01*
Y02825D02*
X02959D01*
Y02888*
X02821D02*
X02959D01*
X02821Y02903D02*
Y02966D01*
Y02903D02*
X02959D01*
Y02966*
X02821D02*
X02959D01*
X02703Y01742D02*
Y01805D01*
X02565D02*
X02703D01*
X02565Y01742D02*
Y01805D01*
Y01742D02*
X02703D01*
X02938Y01741D02*
Y01804D01*
X028D02*
X02938D01*
X028Y01741D02*
Y01804D01*
Y01741D02*
X02938D01*
G54D48*
X02762Y0238D02*
Y024D01*
X02772*
X02775Y02396*
Y0239*
X02772Y02386*
X02762*
X02768D02*
X02775Y0238D01*
X02795Y024D02*
X02782D01*
Y0239*
X02788Y02393*
X02792*
X02795Y0239*
Y02383*
X02792Y0238*
X02785*
X02782Y02383*
X027Y02872D02*
Y02892D01*
X0271*
X02713Y02889*
Y02882*
X0271Y02879*
X027*
X02706D02*
X02713Y02872D01*
X02733Y02892D02*
X02726Y02889D01*
X0272Y02882*
Y02876*
X02723Y02872*
X0273*
X02733Y02876*
Y02879*
X0273Y02882*
X0272*
X02742Y02743D02*
Y02724D01*
X02755*
X02775Y02743D02*
X02762D01*
Y02724*
X02775*
X02762Y02734D02*
X02768D01*
X02781Y02743D02*
Y02724D01*
X02791*
X02795Y02727*
Y0274*
X02791Y02743*
X02781*
X02815Y02724D02*
X02801D01*
X02815Y02737*
Y0274*
X02811Y02743*
X02805*
X02801Y0274*
X037Y02185D02*
Y02205D01*
X0371*
X03714Y02201*
Y02195*
X0371Y02191*
X037*
X03734Y02185D02*
X0372D01*
X03734Y02198*
Y02201*
X0373Y02205*
X03724*
X0372Y02201*
X0353Y0226D02*
Y0228D01*
X0354*
X03544Y02277*
Y0227*
X0354Y02267*
X0353*
X03537D02*
X03544Y0226D01*
X0356D02*
Y0228D01*
X0355Y0227*
X03564*
X04064Y02763D02*
Y02747D01*
X04067Y02744*
X04074*
X04077Y02747*
Y02763*
X04083Y0276D02*
X04087Y02763D01*
X04093*
X04097Y0276*
Y02757*
X04093Y02754*
X0409*
X04093*
X04097Y0275*
Y02747*
X04093Y02744*
X04087*
X04083Y02747*
X0359Y02655D02*
Y02639D01*
X03593Y02635*
X036*
X03603Y02639*
Y02655*
X03623D02*
X03616Y02652D01*
X0361Y02645*
Y02639*
X03613Y02635*
X0362*
X03623Y02639*
Y02642*
X0362Y02645*
X0361*
X01974Y0305D02*
X01967D01*
X0197*
Y03034*
X01967Y0303*
X01964*
X0196Y03034*
X0198Y0303D02*
X01987D01*
X01984*
Y0305*
X0198Y03047*
X02285Y0302D02*
Y03004D01*
X02288Y03*
X02295*
X02298Y03004*
Y0302*
X02305Y03017D02*
X02308Y0302D01*
X02315*
X02318Y03017*
Y03014*
X02315Y0301*
X02318Y03007*
Y03004*
X02315Y03*
X02308*
X02305Y03004*
Y03007*
X02308Y0301*
X02305Y03014*
Y03017*
X02308Y0301D02*
X02315D01*
X02735Y02053D02*
Y02037D01*
X02739Y02034*
X02745*
X02749Y02037*
Y02053*
X02755D02*
X02769D01*
Y0205*
X02755Y02037*
Y02034*
X04115Y0218D02*
Y02164D01*
X04119Y0216*
X04125*
X04129Y02164*
Y0218*
X04149D02*
X04135D01*
Y0217*
X04142Y02174*
X04145*
X04149Y0217*
Y02164*
X04145Y0216*
X04139*
X04135Y02164*
X03683Y02482D02*
X03666D01*
X03663Y02478*
Y02472*
X03666Y02468*
X03683*
X03663Y02452D02*
X03683D01*
X03673Y02462*
Y02448*
X03332Y02762D02*
Y02746D01*
X03335Y02742*
X03342*
X03345Y02746*
Y02762*
X03365Y02742D02*
X03352D01*
X03365Y02756*
Y02759*
X03362Y02762*
X03355*
X03352Y02759*
X04495Y02148D02*
Y02132D01*
X04498Y02129*
X04505*
X04508Y02132*
Y02148*
X04515Y02129D02*
X04521D01*
X04518*
Y02148*
X04515Y02145*
X0432Y01914D02*
Y01933D01*
X0433*
X04334Y0193*
Y01924*
X0433Y0192*
X0432*
X04327D02*
X04334Y01914D01*
X0434Y0193D02*
X04344Y01933D01*
X0435*
X04354Y0193*
Y01927*
X0435Y01924*
X04347*
X0435*
X04354Y0192*
Y01917*
X0435Y01914*
X04344*
X0434Y01917*
X03927Y02265D02*
Y02285D01*
X03937*
X0394Y02281*
Y02275*
X03937Y02271*
X03927*
X03933D02*
X0394Y02265D01*
X0396D02*
X03947D01*
X0396Y02278*
Y02281*
X03957Y02285*
X0395*
X03947Y02281*
X04011Y02792D02*
X04031D01*
Y02782*
X04028Y02779*
X04021*
X04018Y02782*
Y02792*
Y02786D02*
X04011Y02779D01*
Y02772D02*
Y02766D01*
Y02769*
X04031*
X04028Y02772*
X02888Y02247D02*
Y0226D01*
X02885Y02263*
X02878*
X02875Y0226*
Y02247*
X02878Y02244*
X02885*
X02881Y0225D02*
X02888Y02244D01*
X02885D02*
X02888Y02247D01*
X02908Y02244D02*
X02895D01*
X02908Y02257*
Y0226*
X02905Y02263*
X02898*
X02895Y0226*
X03294Y02219D02*
Y02232D01*
X0329Y02235*
X03284*
X0328Y02232*
Y02219*
X03284Y02215*
X0329*
X03287Y02222D02*
X03294Y02215D01*
X0329D02*
X03294Y02219D01*
X033Y02215D02*
X03307D01*
X03304*
Y02235*
X033Y02232*
X02397Y03029D02*
Y03048D01*
X02407*
X0241Y03045*
Y03039*
X02407Y03035*
X02397*
X02417Y03029D02*
X02423D01*
X0242*
Y03048*
X02417Y03045*
X04379Y01932D02*
Y01912D01*
X04392*
X04412Y01932D02*
X04398D01*
Y01912*
X04412*
X04398Y01922D02*
X04405D01*
X04418Y01932D02*
Y01912D01*
X04428*
X04432Y01916*
Y01929*
X04428Y01932*
X04418*
X04438Y01912D02*
X04445D01*
X04442*
Y01932*
X04438Y01929*
X02683Y02574D02*
X0268Y02578D01*
X02673*
X0267Y02574*
Y02561*
X02673Y02558*
X0268*
X02683Y02561*
X02703Y02558D02*
X0269D01*
X02703Y02571*
Y02574*
X027Y02578*
X02693*
X0269Y02574*
X02723Y02558D02*
X0271D01*
X02723Y02571*
Y02574*
X0272Y02578*
X02713*
X0271Y02574*
X02599Y02564D02*
X02595Y02567D01*
X02589*
X02585Y02564*
Y02551*
X02589Y02547*
X02595*
X02599Y02551*
X02619Y02547D02*
X02605D01*
X02619Y02561*
Y02564*
X02615Y02567*
X02609*
X02605Y02564*
X02625Y02547D02*
X02632D01*
X02629*
Y02567*
X02625Y02564*
X0246Y02539D02*
X02457Y02542D01*
X0245*
X02447Y02539*
Y02526*
X0245Y02522*
X02457*
X0246Y02526*
X0248Y02522D02*
X02467D01*
X0248Y02536*
Y02539*
X02477Y02542*
X0247*
X02467Y02539*
X02486D02*
X0249Y02542D01*
X02496*
X025Y02539*
Y02526*
X02496Y02522*
X0249*
X02486Y02526*
Y02539*
X02688Y02308D02*
X02685Y02312D01*
X02678*
X02675Y02308*
Y02295*
X02678Y02292*
X02685*
X02688Y02295*
X02695Y02292D02*
X02701D01*
X02698*
Y02312*
X02695Y02308*
X02711Y02295D02*
X02715Y02292D01*
X02721*
X02725Y02295*
Y02308*
X02721Y02312*
X02715*
X02711Y02308*
Y02305*
X02715Y02302*
X02725*
X02618Y02308D02*
X02615Y02312D01*
X02608*
X02605Y02308*
Y02295*
X02608Y02292*
X02615*
X02618Y02295*
X02625Y02292D02*
X02631D01*
X02628*
Y02312*
X02625Y02308*
X02641D02*
X02645Y02312D01*
X02651*
X02655Y02308*
Y02305*
X02651Y02302*
X02655Y02298*
Y02295*
X02651Y02292*
X02645*
X02641Y02295*
Y02298*
X02645Y02302*
X02641Y02305*
Y02308*
X02645Y02302D02*
X02651D01*
X03363Y02276D02*
X0336Y0228D01*
X03353*
X0335Y02276*
Y02263*
X03353Y0226*
X0336*
X03363Y02263*
X0337Y0226D02*
X03376D01*
X03373*
Y0228*
X0337Y02276*
X03386Y0228D02*
X034D01*
Y02276*
X03386Y02263*
Y0226*
X04083Y01945D02*
X0408Y01949D01*
X04073*
X0407Y01945*
Y01932*
X04073Y01929*
X0408*
X04083Y01932*
X0409Y01929D02*
X04096D01*
X04093*
Y01949*
X0409Y01945*
X0412Y01949D02*
X04113Y01945D01*
X04106Y01939*
Y01932*
X0411Y01929*
X04116*
X0412Y01932*
Y01935*
X04116Y01939*
X04106*
X04166Y01944D02*
X04162Y01948D01*
X04156*
X04152Y01944*
Y01931*
X04156Y01928*
X04162*
X04166Y01931*
X04172Y01928D02*
X04179D01*
X04176*
Y01948*
X04172Y01944*
X04202Y01948D02*
X04189D01*
Y01938*
X04196Y01941*
X04199*
X04202Y01938*
Y01931*
X04199Y01928*
X04192*
X04189Y01931*
X0476Y01971D02*
X04757Y01975D01*
X0475*
X04747Y01971*
Y01958*
X0475Y01955*
X04757*
X0476Y01958*
X04767Y01955D02*
X04773D01*
X0477*
Y01975*
X04767Y01971*
X04793Y01955D02*
Y01975D01*
X04783Y01965*
X04796*
X04678Y01971D02*
X04675Y01975D01*
X04668*
X04665Y01971*
Y01958*
X04668Y01955*
X04675*
X04678Y01958*
X04685Y01955D02*
X04691D01*
X04688*
Y01975*
X04685Y01971*
X04701D02*
X04705Y01975D01*
X04711*
X04715Y01971*
Y01968*
X04711Y01965*
X04708*
X04711*
X04715Y01961*
Y01958*
X04711Y01955*
X04705*
X04701Y01958*
X04597Y0197D02*
X04594Y01974D01*
X04587*
X04584Y0197*
Y01957*
X04587Y01954*
X04594*
X04597Y01957*
X04603Y01954D02*
X0461D01*
X04607*
Y01974*
X04603Y0197*
X04633Y01954D02*
X0462D01*
X04633Y01967*
Y0197*
X0463Y01974*
X04623*
X0462Y0197*
X04439Y01884D02*
X04435Y01887D01*
X04429*
X04425Y01884*
Y01871*
X04429Y01867*
X04435*
X04439Y01871*
X04445Y01867D02*
X04452D01*
X04449*
Y01887*
X04445Y01884*
X04462Y01867D02*
X04469D01*
X04465*
Y01887*
X04462Y01884*
X04265Y01885D02*
X04262Y01888D01*
X04255*
X04252Y01885*
Y01872*
X04255Y01869*
X04262*
X04265Y01872*
X04272Y01869D02*
X04278D01*
X04275*
Y01888*
X04272Y01885*
X04288D02*
X04291Y01888D01*
X04298*
X04301Y01885*
Y01872*
X04298Y01869*
X04291*
X04288Y01872*
Y01885*
X03098Y01843D02*
X03095Y01847D01*
X03088*
X03085Y01843*
Y0183*
X03088Y01827*
X03095*
X03098Y0183*
X03105D02*
X03108Y01827D01*
X03115*
X03118Y0183*
Y01843*
X03115Y01847*
X03108*
X03105Y01843*
Y0184*
X03108Y01837*
X03118*
X03097Y01908D02*
X03094Y01912D01*
X03087*
X03084Y01908*
Y01895*
X03087Y01892*
X03094*
X03097Y01895*
X03103Y01908D02*
X03107Y01912D01*
X03113*
X03117Y01908*
Y01905*
X03113Y01902*
X03117Y01898*
Y01895*
X03113Y01892*
X03107*
X03103Y01895*
Y01898*
X03107Y01902*
X03103Y01905*
Y01908*
X03107Y01902D02*
X03113D01*
X02633Y02103D02*
X0263Y02107D01*
X02623*
X0262Y02103*
Y0209*
X02623Y02087*
X0263*
X02633Y0209*
X0264Y02107D02*
X02653D01*
Y02103*
X0264Y0209*
Y02087*
X03326Y02937D02*
X03322Y0294D01*
X03316*
X03312Y02937*
Y02924*
X03316Y0292*
X03322*
X03326Y02924*
X03346Y0294D02*
X03339Y02937D01*
X03332Y0293*
Y02924*
X03336Y0292*
X03342*
X03346Y02924*
Y02927*
X03342Y0293*
X03332*
X04304Y02178D02*
X043Y02182D01*
X04294*
X0429Y02178*
Y02165*
X04294Y02162*
X043*
X04304Y02165*
X04324Y02182D02*
X0431D01*
Y02172*
X04317Y02175*
X0432*
X04324Y02172*
Y02165*
X0432Y02162*
X04314*
X0431Y02165*
X03009Y01862D02*
X03005Y01865D01*
X02999*
X02995Y01862*
Y01849*
X02999Y01845*
X03005*
X03009Y01849*
X03025Y01845D02*
Y01865D01*
X03015Y01855*
X03029*
X02806Y02161D02*
X02802Y02164D01*
X02796*
X02792Y02161*
Y02148*
X02796Y02144*
X02802*
X02806Y02148*
X02812Y02161D02*
X02816Y02164D01*
X02822*
X02826Y02161*
Y02158*
X02822Y02154*
X02819*
X02822*
X02826Y02151*
Y02148*
X02822Y02144*
X02816*
X02812Y02148*
X03231Y0198D02*
X03227Y01983D01*
X03221*
X03217Y0198*
Y01967*
X03221Y01964*
X03227*
X03231Y01967*
X03251Y01964D02*
X03237D01*
X03251Y01977*
Y0198*
X03247Y01983*
X03241*
X03237Y0198*
X03104Y01986D02*
X031Y0199D01*
X03094*
X0309Y01986*
Y01973*
X03094Y0197*
X031*
X03104Y01973*
X0311Y0197D02*
X03117D01*
X03114*
Y0199*
X0311Y01986*
X02382Y02482D02*
Y02465D01*
X02385Y02462*
X02392*
X02395Y02465*
Y02482*
X02402Y02465D02*
X02405Y02462D01*
X02412*
X02415Y02465*
Y02478*
X02412Y02482*
X02405*
X02402Y02478*
Y02475*
X02405Y02472*
X02415*
X02768Y02863D02*
X02765Y02867D01*
X02758*
X02755Y02863*
Y0285*
X02758Y02847*
X02765*
X02768Y0285*
X02788Y02847D02*
X02775D01*
X02788Y0286*
Y02863*
X02785Y02867*
X02778*
X02775Y02863*
X02795D02*
X02798Y02867D01*
X02805*
X02808Y02863*
Y0286*
X02805Y02857*
X02801*
X02805*
X02808Y02853*
Y0285*
X02805Y02847*
X02798*
X02795Y0285*
X02768Y02944D02*
X02765Y02947D01*
X02758*
X02755Y02944*
Y02931*
X02758Y02927*
X02765*
X02768Y02931*
X02788Y02927D02*
X02775D01*
X02788Y02941*
Y02944*
X02785Y02947*
X02778*
X02775Y02944*
X02805Y02927D02*
Y02947D01*
X02795Y02937*
X02808*
X02969Y01776D02*
X02965Y0178D01*
X02959*
X02955Y01776*
Y01763*
X02959Y0176*
X02965*
X02969Y01763*
X02989Y0176D02*
X02975D01*
X02989Y01773*
Y01776*
X02985Y0178*
X02979*
X02975Y01776*
X03009Y0178D02*
X02995D01*
Y0177*
X03002Y01773*
X03005*
X03009Y0177*
Y01763*
X03005Y0176*
X02999*
X02995Y01763*
X02569Y01837D02*
X02566Y01834D01*
Y01827*
X02569Y01824*
X02582*
X02585Y01827*
Y01834*
X02582Y01837*
X02585Y01857D02*
Y01843D01*
X02572Y01857*
X02569*
X02566Y01853*
Y01847*
X02569Y01843*
X02566Y01877D02*
X02569Y0187D01*
X02575Y01863*
X02582*
X02585Y01867*
Y01873*
X02582Y01877*
X02579*
X02575Y01873*
Y01863*
X02665Y02595D02*
Y02615D01*
X02675*
X02678Y02611*
Y02605*
X02675Y02601*
X02665*
X02671D02*
X02678Y02595D01*
X02685Y02615D02*
X02698Y02595D01*
Y02615D02*
X02685Y02595D01*
X02619Y02682D02*
X02632D01*
X02625*
Y02662*
X02638Y02682D02*
X02652Y02662D01*
Y02682D02*
X02638Y02662D01*
X02532Y0245D02*
X02529Y02453D01*
X02522*
X02519Y0245*
Y02437*
X02522Y02434*
X02529*
X02532Y02437*
X02538Y02453D02*
Y02434D01*
X02552*
X02558Y02453D02*
Y02434D01*
Y0244*
X02572Y02453*
X02562Y02444*
X02572Y02434*
X02711Y02373D02*
X02707Y02377D01*
X02701*
X02697Y02373*
Y0236*
X02701Y02357*
X02707*
X02711Y0236*
X02731Y02373D02*
X02727Y02377D01*
X02721*
X02717Y02373*
Y0237*
X02721Y02367*
X02727*
X02731Y02363*
Y0236*
X02727Y02357*
X02721*
X02717Y0236*
X02557Y02345D02*
Y02365D01*
X02564Y02358*
X02571Y02365*
Y02345*
X02587Y02365D02*
X02581D01*
X02577Y02361*
Y02348*
X02581Y02345*
X02587*
X02591Y02348*
Y02361*
X02587Y02365*
X02611Y02361D02*
X02607Y02365D01*
X02601*
X02597Y02361*
Y02358*
X02601Y02355*
X02607*
X02611Y02351*
Y02348*
X02607Y02345*
X02601*
X02597Y02348*
X02617Y02365D02*
X02624D01*
X02621*
Y02345*
X02617*
X02624*
X02585Y02002D02*
X02566D01*
X02572Y02008*
X02566Y02015*
X02585*
X02566Y02022D02*
Y02028D01*
Y02025*
X02585*
Y02022*
Y02028*
X02569Y02051D02*
X02566Y02048D01*
Y02041*
X02569Y02038*
X02572*
X02575Y02041*
Y02048*
X02579Y02051*
X02582*
X02585Y02048*
Y02041*
X02582Y02038*
X02566Y02068D02*
Y02061D01*
X02569Y02058*
X02582*
X02585Y02061*
Y02068*
X02582Y02071*
X02569*
X02566Y02068*
X02763Y01765D02*
X0276Y01768D01*
X02753*
X0275Y01765*
Y01752*
X02753Y01749*
X0276*
X02763Y01752*
X02783Y01765D02*
X0278Y01768D01*
X02773*
X0277Y01765*
Y01762*
X02773Y01759*
X0278*
X02783Y01755*
Y01752*
X0278Y01749*
X02773*
X0277Y01752*
X02909Y01941D02*
X02906Y01937D01*
Y01931*
X02909Y01927*
X02912*
X02915Y01931*
Y01937*
X02919Y01941*
X02922*
X02925Y01937*
Y01931*
X02922Y01927*
X02906Y01947D02*
X02925D01*
Y01957*
X02922Y01961*
X02909*
X02906Y01957*
Y01947*
Y01967D02*
Y01974D01*
Y01971*
X02925*
Y01967*
Y01974*
X0297Y01821D02*
X02967Y01825D01*
X0296*
X02957Y01821*
Y01818*
X0296Y01815*
X02967*
X0297Y01811*
Y01808*
X02967Y01805*
X0296*
X02957Y01808*
X0299Y01821D02*
X02987Y01825D01*
X0298*
X02977Y01821*
Y01808*
X0298Y01805*
X02987*
X0299Y01808*
X02996Y01825D02*
Y01805D01*
X0301*
X03016Y01825D02*
Y01805D01*
Y01811*
X0303Y01825*
X0302Y01815*
X0303Y01805*
X03427Y0271D02*
Y0273D01*
X03434Y02723*
X03441Y0273*
Y0271*
X03447Y0273D02*
X03454D01*
X03451*
Y0271*
X03447*
X03454*
X03477Y02726D02*
X03474Y0273D01*
X03467*
X03464Y02726*
Y02713*
X03467Y0271*
X03474*
X03477Y02713*
X04041Y02375D02*
X04037Y02378D01*
X04031*
X04027Y02375*
Y02372*
X04031Y02369*
X04037*
X04041Y02365*
Y02362*
X04037Y02359*
X04031*
X04027Y02362*
X04061Y02375D02*
X04057Y02378D01*
X04051*
X04047Y02375*
Y02362*
X04051Y02359*
X04057*
X04061Y02362*
X04067Y02378D02*
Y02359D01*
X04081*
X03964Y02562D02*
X0396Y02565D01*
X03954*
X0395Y02562*
Y02559*
X03954Y02555*
X0396*
X03964Y02552*
Y02549*
X0396Y02545*
X03954*
X0395Y02549*
X0397Y02565D02*
Y02545D01*
X0398*
X03984Y02549*
Y02562*
X0398Y02565*
X0397*
X0399Y02545D02*
Y02559D01*
X03997Y02565*
X04004Y02559*
Y02545*
Y02555*
X0399*
G54D49*
X04034Y02082D02*
X04044D01*
X04039*
Y02112*
X04034Y02107*
X04787Y02982D02*
X04782Y02987D01*
X04772*
X04767Y02982*
Y02962*
X04772Y02957*
X04782*
X04787Y02962*
Y02972*
X04777*
X04797Y02957D02*
Y02987D01*
X04817Y02957*
Y02987*
X04827D02*
Y02957D01*
X04842*
X04847Y02962*
Y02982*
X04842Y02987*
X04827*
X04687Y02983D02*
X04682Y02988D01*
X04672*
X04667Y02983*
Y02964*
X04672Y02959*
X04682*
X04687Y02964*
Y02973*
X04677*
X04697Y02959D02*
Y02988D01*
X04716Y02959*
Y02988*
X04726D02*
Y02959D01*
X04741*
X04746Y02964*
Y02983*
X04741Y02988*
X04726*
X04565Y02987D02*
Y02967D01*
X04575Y02957*
X04585Y02967*
Y02987*
X04615Y02982D02*
X0461Y02987D01*
X046*
X04595Y02982*
Y02962*
X046Y02957*
X0461*
X04615Y02962*
X04645Y02982D02*
X0464Y02987D01*
X0463*
X04625Y02982*
Y02962*
X0463Y02957*
X0464*
X04645Y02962*
X04465Y0299D02*
Y0297D01*
X04475Y0296*
X04485Y0297*
Y0299*
X04515Y02985D02*
X0451Y0299D01*
X045*
X04495Y02985*
Y02965*
X045Y0296*
X0451*
X04515Y02965*
X04544Y02985D02*
X04539Y0299D01*
X04529*
X04525Y02985*
Y02965*
X04529Y0296*
X04539*
X04544Y02965*
X04365Y02992D02*
X04375D01*
X0437*
Y02962*
X04365*
X04375*
X0439D02*
Y02992D01*
X0441Y02962*
Y02992*
X0442D02*
X0444D01*
X0443*
Y02962*
X04283Y02992D02*
X04264D01*
Y02977*
X04274*
X04264*
Y02962*
X04293Y02992D02*
Y02962D01*
X04308*
X04313Y02967*
Y02987*
X04308Y02992*
X04293*
X04323Y02987D02*
X04328Y02992D01*
X04338*
X04343Y02987*
Y02967*
X04338Y02962*
X04328*
X04323Y02967*
Y02987*
X0418Y02992D02*
X0416D01*
Y02977*
X0417*
X0416*
Y02962*
X0419Y02992D02*
Y02962D01*
X04205*
X0421Y02967*
Y02987*
X04205Y02992*
X0419*
X0422Y02962D02*
X0423D01*
X04225*
Y02992*
X0422Y02987*
X04082Y02992D02*
X04062D01*
Y02977*
X04072*
X04062*
Y02962*
X04092Y02992D02*
Y02962D01*
X04107*
X04112Y02967*
Y02987*
X04107Y02992*
X04092*
X04142Y02962D02*
X04122D01*
X04142Y02982*
Y02987*
X04137Y02992*
X04127*
X04122Y02987*
X0398Y02992D02*
X0396D01*
Y02977*
X0397*
X0396*
Y02962*
X0399Y02992D02*
Y02962D01*
X04005*
X0401Y02967*
Y02987*
X04005Y02992*
X0399*
X0402Y02987D02*
X04024Y02992D01*
X04034*
X04039Y02987*
Y02982*
X04034Y02977*
X04029*
X04034*
X04039Y02972*
Y02967*
X04034Y02962*
X04024*
X0402Y02967*
X03917Y0288D02*
X03887D01*
Y02895*
X03892Y029*
X03902*
X03907Y02895*
Y0288*
X03892Y0293D02*
X03887Y02925D01*
Y02915*
X03892Y0291*
X03912*
X03917Y02915*
Y02925*
X03912Y0293*
X03887Y0294D02*
X03917D01*
Y02959*
X03887Y02969D02*
X03917D01*
X03907*
X03887Y02989*
X03902Y02974*
X03917Y02989*
X03747Y0296D02*
Y0299D01*
X03757Y0298*
X03767Y0299*
Y0296*
X03796Y02985D02*
X03791Y0299D01*
X03782*
X03777Y02985*
Y02965*
X03782Y0296*
X03791*
X03796Y02965*
X03806Y0299D02*
Y0296D01*
X03826*
X03836Y0299D02*
Y0296D01*
Y0297*
X03856Y0299*
X03841Y02975*
X03856Y0296*
X03687Y02885D02*
X03717D01*
Y02905*
X03687Y02915D02*
X03707D01*
X03717Y02925*
X03707Y02935*
X03687*
Y02945D02*
X03717D01*
Y02965*
X03687Y02975D02*
X03717D01*
Y0299*
X03712Y02995*
X03692*
X03687Y0299*
Y02975*
X03562Y02992D02*
X03542D01*
Y02977*
X03552*
X03542*
Y02962*
X03572Y02992D02*
Y02962D01*
X03592*
X03602Y02992D02*
Y02972D01*
X03612Y02962*
X03622Y02972*
Y02992*
X03632D02*
Y02962D01*
X03647*
X03652Y02967*
Y02987*
X03647Y02992*
X03632*
X03519Y02917D02*
X03489D01*
Y02932*
X03494Y02937*
X03504*
X03509Y02932*
Y02917*
Y02927D02*
X03519Y02937D01*
X03489Y02967D02*
Y02947D01*
X03519*
Y02967*
X03504Y02947D02*
Y02957D01*
X03489Y02997D02*
Y02977D01*
X03504*
Y02987*
Y02977*
X03519*
X0338Y02988D02*
X03375Y02993D01*
X03365*
X0336Y02988*
Y02969*
X03365Y02964*
X03375*
X0338Y02969*
X03395Y02964D02*
X03405D01*
X0341Y02969*
Y02978*
X03405Y02983*
X03395*
X0339Y02978*
Y02969*
X03395Y02964*
X0342D02*
Y02983D01*
X03424*
X03429Y02978*
Y02964*
Y02978*
X03434Y02983*
X03439Y02978*
Y02964*
X03449Y02954D02*
Y02983D01*
X03464*
X03469Y02978*
Y02969*
X03464Y02964*
X03449*
X03242Y02993D02*
X03262D01*
X03252*
Y02964*
X03272D02*
Y02993D01*
X03286*
X03291Y02988*
Y02978*
X03286Y02974*
X03272*
X03281D02*
X03291Y02964D01*
X03301Y02993D02*
X03311D01*
X03306*
Y02964*
X03301*
X03311*
X03346Y02988D02*
X03341Y02993D01*
X03331*
X03326Y02988*
Y02969*
X03331Y02964*
X03341*
X03346Y02969*
Y02978*
X03336*
X03177Y02993D02*
Y02964D01*
X03192*
X03197Y02969*
Y02988*
X03192Y02993*
X03177*
X03207Y02988D02*
X03212Y02993D01*
X03222*
X03227Y02988*
Y02969*
X03222Y02964*
X03212*
X03207Y02969*
Y02988*
X03079Y02995D02*
Y02965D01*
X03093*
X03098Y0297*
Y0299*
X03093Y02995*
X03079*
X03108Y02965D02*
X03118D01*
X03113*
Y02995*
X03108Y0299*
X02982Y02997D02*
Y02967D01*
X02997*
X03002Y02972*
Y02992*
X02997Y02997*
X02982*
X03032Y02967D02*
X03012D01*
X03032Y02987*
Y02992*
X03027Y02997*
X03017*
X03012Y02992*
X02879Y03005D02*
Y02975D01*
X02893*
X02898Y0298*
Y03*
X02893Y03005*
X02879*
X02908Y03D02*
X02913Y03005D01*
X02923*
X02928Y03*
Y02995*
X02923Y0299*
X02918*
X02923*
X02928Y02985*
Y0298*
X02923Y02975*
X02913*
X02908Y0298*
X02769Y02997D02*
Y02967D01*
X02783*
X02788Y02972*
Y02992*
X02783Y02997*
X02769*
X02813Y02967D02*
Y02997D01*
X02798Y02982*
X02818*
X02679Y02997D02*
Y02967D01*
X02693*
X02698Y02972*
Y02992*
X02693Y02997*
X02679*
X02728D02*
X02708D01*
Y02982*
X02718Y02987*
X02723*
X02728Y02982*
Y02972*
X02723Y02967*
X02713*
X02708Y02972*
X02577Y02995D02*
Y02965D01*
X02592*
X02597Y0297*
Y0299*
X02592Y02995*
X02577*
X02626D02*
X02616Y0299D01*
X02607Y0298*
Y0297*
X02612Y02965*
X02621*
X02626Y0297*
Y02975*
X02621Y0298*
X02607*
X0238Y02967D02*
Y02997D01*
X0239Y02987*
X024Y02997*
Y02967*
X0241Y02997D02*
X0242D01*
X02415*
Y02967*
X0241*
X0242*
X02454Y02992D02*
X02449Y02997D01*
X0244*
X02435Y02992*
Y02972*
X0244Y02967*
X02449*
X02454Y02972*
X02464Y02962D02*
X02484D01*
X02494Y02997D02*
Y02967D01*
X02509*
X02514Y02972*
Y02992*
X02509Y02997*
X02494*
X02524D02*
X02544D01*
Y02992*
X02524Y02972*
Y02967*
X04062Y02155D02*
X04057Y0216D01*
Y0217*
X04062Y02175*
X04067*
X04072Y0217*
Y02165*
Y0217*
X04077Y02175*
X04082*
X04087Y0217*
Y0216*
X04082Y02155*
X04087Y02185D02*
X04082D01*
Y0219*
X04087*
Y02185*
X04062Y0221D02*
X04057Y02215D01*
Y02224*
X04062Y02229*
X04067*
X04072Y02224*
Y02219*
Y02224*
X04077Y02229*
X04082*
X04087Y02224*
Y02215*
X04082Y0221*
X04057Y02239D02*
X04077D01*
X04087Y02249*
X04077Y02259*
X04057*
X04812Y02215D02*
Y02195D01*
X04792Y02215*
X04787*
X04782Y0221*
Y022*
X04787Y02195*
X04812Y02225D02*
X04807D01*
Y0223*
X04812*
Y02225*
X04787Y0225D02*
X04782Y02255D01*
Y02265*
X04787Y0227*
X04792*
X04797Y02265*
X04802Y0227*
X04807*
X04812Y02265*
Y02255*
X04807Y0225*
X04802*
X04797Y02255*
X04792Y0225*
X04787*
X04797Y02255D02*
Y02265D01*
X04782Y0228D02*
X04802D01*
X04812Y0229*
X04802Y023*
X04782*
X0355Y02747D02*
X0356D01*
X03555*
Y02777*
X0355Y02772*
X03575Y02747D02*
Y02752D01*
X0358*
Y02747*
X03575*
X0362D02*
X036D01*
X0362Y02767*
Y02772*
X03615Y02777*
X03605*
X036Y02772*
X0363Y02777D02*
Y02757D01*
X0364Y02747*
X0365Y02757*
Y02777*
X04382Y02902D02*
X04377Y02907D01*
X04367*
X04362Y02902*
Y02897*
X04367Y02892*
X04377*
X04382Y02887*
Y02882*
X04377Y02877*
X04367*
X04362Y02882*
X04397Y02902D02*
Y02897D01*
X04392*
X04401*
X04397*
Y02882*
X04401Y02877*
X04421Y02897D02*
X04431D01*
X04436Y02892*
Y02877*
X04421*
X04416Y02882*
X04421Y02887*
X04436*
X04446Y02877D02*
Y02897D01*
X04461*
X04466Y02892*
Y02877*
X04481D02*
Y02902D01*
Y02892*
X04476*
X04486*
X04481*
Y02902*
X04486Y02907*
X04506Y02877D02*
X04516D01*
X04521Y02882*
Y02892*
X04516Y02897*
X04506*
X04501Y02892*
Y02882*
X04506Y02877*
X04531Y02897D02*
Y02877D01*
Y02887*
X04536Y02892*
X04541Y02897*
X04546*
X04581Y02907D02*
Y02877D01*
X04566*
X04561Y02882*
Y02892*
X04566Y02897*
X04581*
X04641Y02907D02*
X04621D01*
Y02877*
X04641*
X04621Y02892D02*
X04631D01*
X04671Y02907D02*
X04651D01*
Y02877*
X04671*
X04651Y02892D02*
X04661D01*
X04681Y02877D02*
X04691D01*
X04686*
Y02907*
X04681Y02902*
X04706D02*
X04711Y02907D01*
X04721*
X04726Y02902*
Y02882*
X04721Y02877*
X04711*
X04706Y02882*
Y02902*
X04736Y02907D02*
X04756D01*
Y02902*
X04736Y02882*
Y02877*
M02*