%FSTAX23Y23*%
%MOIN*%
%SFA1B1*%

%IPPOS*%
%ADD39C,0.030000*%
%ADD40C,0.060000*%
%ADD41C,0.033465*%
%ADD42R,0.059055X0.059055*%
%ADD43C,0.059055*%
%ADD44C,0.098425*%
%LNmsp_mcu-1*%
%LPD*%
G54D39*
X02634Y02758D03*
X02702Y02047D03*
X03394Y02802D03*
X02667Y01815D03*
X0326Y02405D03*
X02754Y02429D03*
X02839Y0279D03*
X0256Y02247D03*
X03272Y02695D03*
X02275Y02545D03*
X0219Y02624D03*
X02562Y02407D03*
X02669Y02364D03*
X02574Y0232D03*
X02587Y02095D03*
X02737Y01787D03*
X0346Y02682D03*
X04042Y0233D03*
X0284Y0264D03*
X02684D03*
X02712Y0292D03*
X03337Y02334D03*
X03345Y02784D03*
X04135Y02007D03*
X03605Y01875D03*
X03402Y0207D03*
X03547Y02817D03*
X0364Y02815D03*
X03687Y02812D03*
X03195Y02847D03*
X03229Y02885D03*
X03257Y02915D03*
X02244Y02735D03*
X0264Y02042D03*
X02852Y0204D03*
X0458Y02232D03*
X03234Y0246D03*
X03198Y02433D03*
X02943Y02727D03*
X02917Y0185D03*
Y019D03*
X02737Y0185D03*
X0306Y0268D03*
X03D03*
X02837Y02682D03*
X02835Y0251D03*
Y02582D03*
X0292Y0277D03*
X02864Y02329D03*
X03972Y02197D03*
X03975Y02594D03*
X03064Y02495D03*
X03065Y02569D03*
X03005Y02852D03*
X03005Y02892D03*
X02632Y02605D03*
X02642Y02707D03*
X03125Y02447D03*
X0308Y02449D03*
X03035Y02447D03*
X03425Y02642D03*
X03427Y026D03*
X03259Y02542D03*
X0347Y02307D03*
Y0241D03*
Y02449D03*
X03469Y02487D03*
X03429Y02522D03*
X0386Y02715D03*
X0384Y0233D03*
X04585Y02509D03*
X04452Y02309D03*
X0439Y02367D03*
X04312Y0223D03*
X04676Y02278D03*
X04307Y02457D03*
X04352Y0271D03*
X04402Y0267D03*
X01982Y02735D03*
X02312Y02974D03*
X02022Y02172D03*
Y02082D03*
X02022Y02257D03*
X02892Y028D03*
X0301Y02945D03*
G54D40*
X03502Y02762D03*
X04777Y02132D03*
X04082Y02104D03*
G54D41*
X0198Y02649D03*
Y02822D03*
G54D42*
X04802Y0306D03*
G54D43*
X02502Y0306D03*
X02602D03*
X02702D03*
X02802D03*
X02902D03*
X03002D03*
X03102D03*
X03202D03*
X03302D03*
X03402D03*
X03502D03*
X03602D03*
X03702D03*
X03802D03*
X03902D03*
X04002D03*
X04102D03*
X04202D03*
X04302D03*
X04402D03*
X04502D03*
X04602D03*
X04702D03*
G54D44*
X04788Y02515D03*
X04079D03*
M02*