M48
;Layer_Color=9474304
;FILE_FORMAT=4:3
METRIC,LZ
;TYPE=PLATED
T1F00S00C0.508
T2F00S00C0.762
T3F00S00C0.850
T4F00S00C0.900
T5F00S00C2.000
%
T01
X0086436Y0052603
X0088138Y0058623
Y0061214
Y0062205
X0088113Y0063195
X0087097Y0064084
X0087071Y0066065
X008702Y0067107
X0087884Y0068123
X0086208Y0071171
X0084963Y0070714
X0083134Y0068478
X0082779Y0064567
X0082144Y0062509
X0081232Y0061801
X0079375Y0062154
X0082829Y0061112
X008476Y0059284
X0097561Y0059182
X0102667
X0100889Y0055804
X0105029Y0050978
X010955Y0056642
X0111531Y0060147
X0113106Y0058649
X0116357Y0056693
X0118783Y0057884
X0116459Y0063729
X0109423Y0062408
X0110566Y0068859
X0111836Y0067843
X010099Y0065888
X0098069Y0068986
X0093675Y007145
X0092456Y0071501
X0090094Y0071552
X0081153Y0072314
X0082017Y0073279
X0082753Y0074066
X0091592Y0047625
X0074092Y0047015
Y004826
X0072466Y0051841
X0068631Y0051994
X0067056Y0051892
X0065735Y0053238
X0065024Y0057097
X006538Y0058928
X0065075Y0061163
X0067793Y0060046
X0069952Y0061697
X0072009Y0063779
Y0065608
X0072161Y0067081
X007206Y0068123
X0072111Y0070866
X0073482Y0071145
X0074193Y0070383
X007476Y0069274
X0076225Y0068072
X0077749
X0077851Y0065253
X0077826Y0063398
X0078232Y0062205
X0077089Y0062154
X0072769Y005918
X0068174Y0067081
X0066877Y0066168
X0067107Y0068783
X0066919Y0070068
X0068885Y0074168
X0076327Y0073457
X0076352Y0072441
X0076454Y0074828
X0058725Y007554
X0056998Y0069494
X0055626Y006665
X0057785Y0064643
X0050368Y0069485
X0051359Y0057328
X0051384Y0055169
Y0052908
X0067767Y0046101
X006952Y0045415
Y0047015
T02
X0121336Y0054153
X0103708Y0053442
X0088976Y0070155
T03
X0050292Y0067285
Y0071685
T04
X0119456Y0077749
X0121996
X0116916
X0114376
X0111836
X0109296
X0106756
X0104216
X0101676
X0099136
X0096596
X0094056
X0091516
X0088976
X0086436
X0083896
X0081356
X0078816
X0076276
X0073736
X0071196
X0068656
X0066116
X0063576
T05
X012162Y0063897
X010362
M30
