G04 Layer_Physical_Order=4*
G04 Layer_Color=16711680*
%FSLAX43Y43*%
%MOMM*%
G71*
G01*
G75*
%ADD36C,0.254*%
%ADD39C,0.762*%
%ADD40C,1.524*%
%ADD41C,0.850*%
%ADD42R,1.500X1.500*%
%ADD43C,1.500*%
%ADD44C,2.500*%
G36*
X91468Y78816D02*
X90748Y78518D01*
X90429Y77749D01*
X90577Y77393D01*
X90513Y77330D01*
X90393Y77038D01*
Y72344D01*
X90181Y72203D01*
X90094Y72239D01*
X89608Y72038D01*
X89406Y71552D01*
X89507Y71310D01*
X89312Y71115D01*
X88976Y71255D01*
X88199Y70932D01*
X87876Y70155D01*
X88199Y69377D01*
X88976Y69055D01*
X89219Y69156D01*
X89363Y68940D01*
X88725Y68303D01*
X88476Y68352D01*
X88370Y68609D01*
X87884Y68810D01*
X87644Y68711D01*
X87433Y68852D01*
Y77165D01*
X87357Y77349D01*
X87523Y77749D01*
X87205Y78518D01*
X86484Y78816D01*
X86535Y79070D01*
X88878D01*
X88928Y78816D01*
X88796Y78761D01*
X88208Y78518D01*
X87889Y77749D01*
X88208Y76981D01*
X88976Y76663D01*
X89745Y76981D01*
X90063Y77749D01*
X89745Y78518D01*
X89156Y78761D01*
X89024Y78816D01*
X89075Y79070D01*
X91418D01*
X91468Y78816D01*
D02*
G37*
G36*
X96548D02*
X95828Y78518D01*
X95509Y77749D01*
X95828Y76981D01*
X96184Y76834D01*
Y58826D01*
X96305Y58535D01*
X97531Y57308D01*
X97522Y57223D01*
X97455Y57054D01*
X96208D01*
X91929Y61334D01*
Y70757D01*
X92183Y70927D01*
X92456Y70814D01*
X92900Y70998D01*
X93098Y70995D01*
X93195Y70962D01*
X93675Y70763D01*
X94161Y70964D01*
X94363Y71450D01*
X94161Y71936D01*
X93675Y72138D01*
X93231Y71953D01*
X93033Y71956D01*
X92936Y71989D01*
X92456Y72188D01*
X92183Y72075D01*
X91929Y72245D01*
Y76834D01*
X92285Y76981D01*
X92603Y77749D01*
X92285Y78518D01*
X91564Y78816D01*
X91615Y79070D01*
X93958D01*
X94008Y78816D01*
X93876Y78761D01*
X93288Y78518D01*
X92969Y77749D01*
X93288Y76981D01*
X94056Y76663D01*
X94825Y76981D01*
X95143Y77749D01*
X94825Y78518D01*
X94236Y78761D01*
X94104Y78816D01*
X94155Y79070D01*
X96498D01*
X96548Y78816D01*
D02*
G37*
G36*
X111788D02*
X111068Y78518D01*
X110749Y77749D01*
X111068Y76981D01*
X111424Y76834D01*
Y69112D01*
X111170Y69062D01*
X111052Y69345D01*
X110566Y69547D01*
X110080Y69345D01*
X110050Y69272D01*
X108553D01*
X107169Y70656D01*
Y76834D01*
X107525Y76981D01*
X107843Y77749D01*
X107525Y78518D01*
X106804Y78816D01*
X106855Y79070D01*
X109198D01*
X109248Y78816D01*
X109116Y78761D01*
X108528Y78518D01*
X108209Y77749D01*
X108528Y76981D01*
X109296Y76663D01*
X110065Y76981D01*
X110383Y77749D01*
X110065Y78518D01*
X109476Y78761D01*
X109344Y78816D01*
X109395Y79070D01*
X111738D01*
X111788Y78816D01*
D02*
G37*
G36*
X99088D02*
X98368Y78518D01*
X98049Y77749D01*
X98368Y76981D01*
X98724Y76834D01*
Y69636D01*
X98470Y69508D01*
X98069Y69674D01*
X97583Y69472D01*
X97382Y68986D01*
X97400Y68943D01*
X97251Y68776D01*
X97009Y68820D01*
Y76834D01*
X97365Y76981D01*
X97683Y77749D01*
X97365Y78518D01*
X96644Y78816D01*
X96695Y79070D01*
X99038D01*
X99088Y78816D01*
D02*
G37*
G36*
X98724Y68337D02*
Y60147D01*
X98845Y59856D01*
X100471Y58229D01*
X100374Y57994D01*
X98012D01*
X97720Y58286D01*
X97780Y58585D01*
X98047Y58696D01*
X98249Y59182D01*
X98047Y59668D01*
X97974Y59699D01*
Y68064D01*
X98069Y68299D01*
X98470Y68465D01*
X98724Y68337D01*
D02*
G37*
G36*
X86388Y78816D02*
X85668Y78518D01*
X85349Y77749D01*
X85668Y76981D01*
X86436Y76663D01*
X86608Y76548D01*
Y71921D01*
X86397Y71780D01*
X86335Y71806D01*
Y71171D01*
X86081D01*
Y71806D01*
X85722Y71657D01*
X85605Y71375D01*
X85449Y71200D01*
X85286Y71267D01*
X84963Y71401D01*
X84477Y71200D01*
X84447Y71126D01*
X81933D01*
X81513Y71547D01*
X81562Y71796D01*
X81639Y71828D01*
X81840Y72314D01*
X81792Y72431D01*
X81971Y72610D01*
X82017Y72592D01*
X82503Y72793D01*
X82704Y73279D01*
X82910Y73444D01*
X83239Y73580D01*
X83441Y74066D01*
X83239Y74552D01*
X82753Y74754D01*
X82267Y74552D01*
X82066Y74066D01*
X81859Y73901D01*
X81531Y73765D01*
X81329Y73279D01*
X81378Y73162D01*
X81198Y72982D01*
X81153Y73001D01*
X80667Y72800D01*
X80635Y72723D01*
X80386Y72673D01*
X78600Y74460D01*
X78308Y74580D01*
X77267D01*
X77126Y74792D01*
X77141Y74828D01*
X76940Y75314D01*
X76454Y75516D01*
X75968Y75314D01*
X75767Y74828D01*
X75782Y74792D01*
X75641Y74580D01*
X69401D01*
X69371Y74654D01*
X68885Y74855D01*
X68399Y74654D01*
X68197Y74168D01*
X68399Y73682D01*
X68648Y73579D01*
X68708Y73279D01*
X67958Y72529D01*
X67837Y72238D01*
Y70320D01*
X67788Y70291D01*
X67469Y70399D01*
X67405Y70554D01*
X67046Y70703D01*
Y70068D01*
X66919D01*
Y69941D01*
X66284D01*
X66433Y69582D01*
X66621Y69504D01*
Y69488D01*
X66607Y69235D01*
X66419Y68783D01*
X66621Y68297D01*
X67107Y68096D01*
X67593Y68297D01*
X67794Y68783D01*
X67764Y68857D01*
X68422Y69515D01*
X68676Y69410D01*
Y67836D01*
X68422Y67666D01*
X68174Y67769D01*
X67688Y67567D01*
X67486Y67081D01*
X67589Y66835D01*
X67559Y66790D01*
X67363Y66654D01*
X66877Y66856D01*
X66391Y66654D01*
X66190Y66168D01*
X66391Y65682D01*
X66877Y65481D01*
X67363Y65682D01*
X67394Y65756D01*
X68480D01*
X68771Y65877D01*
X69380Y66485D01*
X69500Y66777D01*
Y71178D01*
X70351Y72028D01*
X73291D01*
X73341Y71774D01*
X72996Y71631D01*
X72876Y71341D01*
X72601D01*
X72597Y71352D01*
X72238Y71501D01*
Y70866D01*
Y70231D01*
X72597Y70380D01*
X72717Y70670D01*
X72992D01*
X72996Y70659D01*
X73294Y70536D01*
X73506Y70383D01*
X73707Y69897D01*
X74193Y69696D01*
X74232Y69658D01*
X74073Y69274D01*
X74274Y68788D01*
X74760Y68587D01*
X75246Y68788D01*
X75448Y69274D01*
X75246Y69760D01*
X74760Y69961D01*
X74722Y70000D01*
X74881Y70383D01*
X74679Y70869D01*
X74381Y70993D01*
X74170Y71145D01*
X73968Y71631D01*
X73623Y71774D01*
X73674Y72028D01*
X75836D01*
X75866Y71955D01*
X76352Y71753D01*
X76838Y71955D01*
X77040Y72441D01*
X76838Y72927D01*
X76898Y73177D01*
X77014Y73457D01*
X76978Y73544D01*
X77119Y73756D01*
X78137D01*
X81471Y70422D01*
X81763Y70301D01*
X84447D01*
X84477Y70228D01*
X84963Y70026D01*
X85037Y70057D01*
X85973Y69120D01*
Y61080D01*
X84833Y59940D01*
X84760Y59971D01*
X84274Y59770D01*
X84232Y59670D01*
X83978Y59720D01*
Y66929D01*
X83858Y67221D01*
X83404Y67674D01*
X83454Y67923D01*
X83620Y67992D01*
X83769Y68351D01*
X83134D01*
Y68478D01*
X83007D01*
Y69113D01*
X82648Y68964D01*
X82543Y68710D01*
X82423Y68484D01*
X82212Y68484D01*
X78266D01*
X78235Y68558D01*
X77749Y68759D01*
X77263Y68558D01*
X77125Y68224D01*
X76850D01*
X76711Y68558D01*
X76225Y68759D01*
X75739Y68558D01*
X75538Y68072D01*
X75739Y67586D01*
X76225Y67385D01*
X76711Y67586D01*
X76850Y67920D01*
X77125D01*
X77263Y67586D01*
X77749Y67385D01*
X78235Y67586D01*
X78266Y67660D01*
X82252D01*
X83154Y66758D01*
Y65327D01*
X82942Y65186D01*
X82779Y65254D01*
X82293Y65053D01*
X82262Y64979D01*
X78654D01*
X78513Y65190D01*
X78538Y65253D01*
X78337Y65739D01*
X77851Y65940D01*
X77365Y65739D01*
X77164Y65253D01*
X77189Y65190D01*
X77048Y64979D01*
X72684D01*
X72541Y65233D01*
X72696Y65608D01*
X72495Y66094D01*
X72298Y66176D01*
Y66451D01*
X72647Y66595D01*
X72849Y67081D01*
X72647Y67567D01*
X72633Y67848D01*
X72747Y68123D01*
X72546Y68609D01*
X72060Y68810D01*
X71574Y68609D01*
X71372Y68123D01*
X71574Y67637D01*
X71588Y67356D01*
X71474Y67081D01*
X71675Y66595D01*
X71872Y66514D01*
Y66239D01*
X71523Y66094D01*
X71322Y65608D01*
X71477Y65233D01*
X71334Y64979D01*
X64611D01*
X63989Y65601D01*
Y76834D01*
X64345Y76981D01*
X64663Y77749D01*
X64345Y78518D01*
X63624Y78816D01*
X63675Y79070D01*
X66018D01*
X66068Y78816D01*
X65936Y78761D01*
X65348Y78518D01*
X65029Y77749D01*
X65348Y76981D01*
X66116Y76663D01*
X66885Y76981D01*
X67203Y77749D01*
X66885Y78518D01*
X66296Y78761D01*
X66164Y78816D01*
X66215Y79070D01*
X68558D01*
X68608Y78816D01*
X68476Y78761D01*
X67888Y78518D01*
X67569Y77749D01*
X67888Y76981D01*
X68656Y76663D01*
X69425Y76981D01*
X69743Y77749D01*
X69425Y78518D01*
X68836Y78761D01*
X68704Y78816D01*
X68755Y79070D01*
X71098D01*
X71148Y78816D01*
X71016Y78761D01*
X70428Y78518D01*
X70109Y77749D01*
X70428Y76981D01*
X71196Y76663D01*
X71965Y76981D01*
X72283Y77749D01*
X71965Y78518D01*
X71376Y78761D01*
X71244Y78816D01*
X71295Y79070D01*
X73638D01*
X73688Y78816D01*
X73556Y78761D01*
X72968Y78518D01*
X72649Y77749D01*
X72968Y76981D01*
X73736Y76663D01*
X74505Y76981D01*
X74823Y77749D01*
X74505Y78518D01*
X73916Y78761D01*
X73784Y78816D01*
X73835Y79070D01*
X76178D01*
X76228Y78816D01*
X76096Y78761D01*
X75508Y78518D01*
X75189Y77749D01*
X75508Y76981D01*
X76276Y76663D01*
X77045Y76981D01*
X77363Y77749D01*
X77045Y78518D01*
X76456Y78761D01*
X76324Y78816D01*
X76375Y79070D01*
X78718D01*
X78768Y78816D01*
X78636Y78761D01*
X78048Y78518D01*
X77729Y77749D01*
X78048Y76981D01*
X78816Y76663D01*
X79585Y76981D01*
X79903Y77749D01*
X79585Y78518D01*
X78996Y78761D01*
X78864Y78816D01*
X78915Y79070D01*
X81258D01*
X81308Y78816D01*
X81176Y78761D01*
X80588Y78518D01*
X80269Y77749D01*
X80588Y76981D01*
X81356Y76663D01*
X82125Y76981D01*
X82443Y77749D01*
X82125Y78518D01*
X81536Y78761D01*
X81404Y78816D01*
X81455Y79070D01*
X83798D01*
X83848Y78816D01*
X83716Y78761D01*
X83128Y78518D01*
X82809Y77749D01*
X83128Y76981D01*
X83896Y76663D01*
X84665Y76981D01*
X84983Y77749D01*
X84665Y78518D01*
X84076Y78761D01*
X83944Y78816D01*
X83995Y79070D01*
X86338D01*
X86388Y78816D01*
D02*
G37*
G36*
X123546Y44120D02*
X123525Y44069D01*
X45720D01*
Y78869D01*
X45810Y79012D01*
X45932Y79070D01*
X63478D01*
X63528Y78816D01*
X62808Y78518D01*
X62489Y77749D01*
X62808Y76981D01*
X63164Y76834D01*
Y65430D01*
X63285Y65139D01*
X64148Y64275D01*
X64440Y64154D01*
X71248D01*
X71390Y63943D01*
X71322Y63779D01*
X71523Y63293D01*
X72009Y63092D01*
X72495Y63293D01*
X72696Y63779D01*
X72628Y63943D01*
X72770Y64154D01*
X77328D01*
X77378Y63900D01*
X77340Y63884D01*
X77138Y63398D01*
X77290Y63033D01*
X77095Y62839D01*
X77089Y62841D01*
X76603Y62640D01*
X76402Y62154D01*
X76603Y61668D01*
X77089Y61466D01*
X77575Y61668D01*
X77831Y61683D01*
X78232Y61517D01*
X78718Y61719D01*
X78868D01*
X78889Y61668D01*
X79375Y61466D01*
X79861Y61668D01*
X80062Y62154D01*
X79861Y62640D01*
X79375Y62841D01*
X78996Y62684D01*
X78737Y62690D01*
X78647Y62720D01*
X78508Y62777D01*
X78390Y63101D01*
X78513Y63398D01*
X78312Y63884D01*
X78273Y63900D01*
X78324Y64154D01*
X82262D01*
X82293Y64081D01*
X82779Y63879D01*
X82942Y63947D01*
X83154Y63806D01*
Y61894D01*
X82956Y61762D01*
Y61112D01*
Y60463D01*
X83154Y60331D01*
Y48768D01*
X83274Y48476D01*
X84417Y47333D01*
X84709Y47213D01*
X91076D01*
X91106Y47139D01*
X91592Y46938D01*
X92078Y47139D01*
X92280Y47625D01*
X92078Y48111D01*
X91592Y48312D01*
X91106Y48111D01*
X91076Y48037D01*
X84880D01*
X83978Y48939D01*
Y58683D01*
X84232Y58796D01*
X84347Y58692D01*
Y56058D01*
X84468Y55766D01*
X86833Y53401D01*
X86689Y53186D01*
X86436Y53291D01*
X85950Y53089D01*
X85749Y52603D01*
X85950Y52117D01*
X86436Y51916D01*
X86922Y52117D01*
X87124Y52603D01*
X86996Y52912D01*
X87190Y53106D01*
X87376Y53029D01*
X102779D01*
X102931Y52664D01*
X103708Y52342D01*
X104486Y52664D01*
X104808Y53442D01*
X104486Y54219D01*
X103708Y54541D01*
X102931Y54219D01*
X102779Y53854D01*
X87547D01*
X85172Y56229D01*
Y58767D01*
X85246Y58798D01*
X85447Y59284D01*
X85417Y59357D01*
X86677Y60618D01*
X86798Y60909D01*
Y63292D01*
X87009Y63433D01*
X87097Y63397D01*
X87262Y63466D01*
X87457Y63271D01*
X87425Y63195D01*
X87542Y62913D01*
X87627Y62709D01*
X87558Y62463D01*
X87451Y62205D01*
X87561Y61937D01*
X87648Y61709D01*
X87561Y61481D01*
X87451Y61214D01*
X87652Y60728D01*
X88138Y60527D01*
X88624Y60728D01*
X88825Y61214D01*
X88715Y61481D01*
X88628Y61709D01*
X88715Y61937D01*
X88825Y62205D01*
X88708Y62487D01*
X88624Y62691D01*
X88693Y62937D01*
X88800Y63195D01*
X88599Y63681D01*
X88113Y63883D01*
X87947Y63814D01*
X87752Y64008D01*
X87784Y64084D01*
X87583Y64570D01*
X87097Y64772D01*
X87009Y64735D01*
X86798Y64876D01*
Y65263D01*
X87009Y65404D01*
X87071Y65378D01*
X87557Y65579D01*
X87759Y66065D01*
X87728Y66139D01*
X90850Y69261D01*
X91104Y69156D01*
Y61163D01*
X91225Y60872D01*
X95746Y56350D01*
X96037Y56230D01*
X100149D01*
X100290Y56018D01*
X100201Y55804D01*
X100403Y55318D01*
X100889Y55116D01*
X101375Y55318D01*
X101576Y55804D01*
X101487Y56018D01*
X101628Y56230D01*
X109034D01*
X109064Y56156D01*
X109550Y55955D01*
X110036Y56156D01*
X110238Y56642D01*
X110124Y56915D01*
X110294Y57169D01*
X115316D01*
X115608Y57290D01*
X116751Y58433D01*
X116871Y58725D01*
Y63212D01*
X116945Y63243D01*
X117146Y63729D01*
X116945Y64215D01*
X116459Y64416D01*
X115973Y64215D01*
X115772Y63729D01*
X115973Y63243D01*
X116047Y63212D01*
Y58896D01*
X115145Y57994D01*
X113756D01*
X113628Y58248D01*
X113794Y58649D01*
X113592Y59135D01*
X113106Y59336D01*
X112620Y59135D01*
X112419Y58649D01*
X112241Y58451D01*
X103226D01*
X103153Y58696D01*
X103354Y59182D01*
X103153Y59668D01*
X102667Y59869D01*
X102181Y59668D01*
X101979Y59182D01*
X102181Y58696D01*
X102108Y58451D01*
X101415D01*
X99549Y60318D01*
Y76834D01*
X99905Y76981D01*
X100223Y77749D01*
X99905Y78518D01*
X99184Y78816D01*
X99235Y79070D01*
X101578D01*
X101628Y78816D01*
X101496Y78761D01*
X100908Y78518D01*
X100589Y77749D01*
X100908Y76981D01*
X101676Y76663D01*
X102445Y76981D01*
X102763Y77749D01*
X102445Y78518D01*
X101856Y78761D01*
X101724Y78816D01*
X101775Y79070D01*
X104118D01*
X104168Y78816D01*
X104036Y78761D01*
X103448Y78518D01*
X103129Y77749D01*
X103448Y76981D01*
X104216Y76663D01*
X104985Y76981D01*
X105303Y77749D01*
X104985Y78518D01*
X104396Y78761D01*
X104264Y78816D01*
X104315Y79070D01*
X106658D01*
X106708Y78816D01*
X105988Y78518D01*
X105669Y77749D01*
X105988Y76981D01*
X106344Y76834D01*
Y70485D01*
X106465Y70193D01*
X108090Y68568D01*
X108382Y68447D01*
X110050D01*
X110080Y68373D01*
X110566Y68172D01*
X111052Y68373D01*
X111170Y68657D01*
X111424Y68607D01*
Y68360D01*
X111350Y68329D01*
X111149Y67843D01*
X111350Y67357D01*
X111836Y67156D01*
X112322Y67357D01*
X112524Y67843D01*
X112322Y68329D01*
X112249Y68360D01*
Y76834D01*
X112605Y76981D01*
X112923Y77749D01*
X112605Y78518D01*
X111884Y78816D01*
X111935Y79070D01*
X114278D01*
X114328Y78816D01*
X114196Y78761D01*
X113608Y78518D01*
X113289Y77749D01*
X113608Y76981D01*
X114376Y76663D01*
X115145Y76981D01*
X115463Y77749D01*
X115145Y78518D01*
X114556Y78761D01*
X114424Y78816D01*
X114475Y79070D01*
X116818D01*
X116868Y78816D01*
X116736Y78761D01*
X116148Y78518D01*
X115829Y77749D01*
X116148Y76981D01*
X116916Y76663D01*
X117685Y76981D01*
X118003Y77749D01*
X117685Y78518D01*
X117096Y78761D01*
X116964Y78816D01*
X117015Y79070D01*
X119358D01*
X119408Y78816D01*
X119276Y78761D01*
X118688Y78518D01*
X118422Y77876D01*
X119456D01*
X120490D01*
X120225Y78518D01*
X119636Y78761D01*
X119504Y78816D01*
X119555Y79070D01*
X123546D01*
Y44120D01*
D02*
G37*
%LPC*%
G36*
X71984Y70739D02*
X71476D01*
X71625Y70380D01*
X71984Y70231D01*
Y70739D01*
D02*
G37*
G36*
X66792Y70703D02*
X66433Y70554D01*
X66284Y70195D01*
X66792D01*
Y70703D01*
D02*
G37*
G36*
X83261Y69113D02*
Y68605D01*
X83769D01*
X83620Y68964D01*
X83261Y69113D01*
D02*
G37*
G36*
X71984Y71501D02*
X71625Y71352D01*
X71476Y70993D01*
X71984D01*
Y71501D01*
D02*
G37*
G36*
X82702Y60985D02*
X82195D01*
X82343Y60626D01*
X82702Y60478D01*
Y60985D01*
D02*
G37*
G36*
X88138Y59311D02*
X87652Y59109D01*
X87451Y58623D01*
X87652Y58137D01*
X88138Y57936D01*
X88624Y58137D01*
X88825Y58623D01*
X88624Y59109D01*
X88138Y59311D01*
D02*
G37*
G36*
X65151Y57732D02*
Y57224D01*
X65659D01*
X65510Y57583D01*
X65151Y57732D01*
D02*
G37*
G36*
X51359Y58015D02*
X50873Y57814D01*
X50671Y57328D01*
X50873Y56842D01*
X51359Y56640D01*
X51845Y56842D01*
X52046Y57328D01*
X51845Y57814D01*
X51359Y58015D01*
D02*
G37*
G36*
X65659Y56970D02*
X65151D01*
Y56463D01*
X65510Y56611D01*
X65659Y56970D01*
D02*
G37*
G36*
X64897Y57732D02*
X64538Y57583D01*
X64389Y57224D01*
X64897D01*
Y57732D01*
D02*
G37*
G36*
X117856Y66833D02*
X107975D01*
X107684Y66713D01*
X106820Y65849D01*
X106699Y65557D01*
Y63373D01*
X106820Y63081D01*
X107785Y62116D01*
X108077Y61995D01*
X108907D01*
X108937Y61922D01*
X109423Y61720D01*
X109909Y61922D01*
X110111Y62408D01*
X109909Y62894D01*
X109423Y63095D01*
X108937Y62894D01*
X108907Y62820D01*
X108248D01*
X107524Y63544D01*
Y65387D01*
X108146Y66009D01*
X117685D01*
X118370Y65323D01*
Y58400D01*
X118297Y58370D01*
X118095Y57884D01*
X118297Y57398D01*
X118783Y57196D01*
X119269Y57398D01*
X119470Y57884D01*
X119269Y58370D01*
X119195Y58400D01*
Y65494D01*
X119074Y65786D01*
X118148Y66713D01*
X117856Y66833D01*
D02*
G37*
G36*
X65075Y61851D02*
X64589Y61649D01*
X64387Y61163D01*
X64589Y60677D01*
X65075Y60476D01*
X65561Y60677D01*
X65762Y61163D01*
X65561Y61649D01*
X65075Y61851D01*
D02*
G37*
G36*
X111404Y60782D02*
X111045Y60633D01*
X110897Y60274D01*
X111404D01*
Y60782D01*
D02*
G37*
G36*
X112166Y60020D02*
X111658D01*
Y59512D01*
X112017Y59661D01*
X112166Y60020D01*
D02*
G37*
G36*
X111404D02*
X110897D01*
X111045Y59661D01*
X111404Y59512D01*
Y60020D01*
D02*
G37*
G36*
X111658Y60782D02*
Y60274D01*
X112166D01*
X112017Y60633D01*
X111658Y60782D01*
D02*
G37*
G36*
X65380Y59615D02*
X64894Y59414D01*
X64692Y58928D01*
X64894Y58442D01*
X65380Y58241D01*
X65866Y58442D01*
X66067Y58928D01*
X65866Y59414D01*
X65380Y59615D01*
D02*
G37*
G36*
X72769Y59868D02*
X72283Y59666D01*
X72082Y59180D01*
X72283Y58694D01*
X72769Y58493D01*
X73255Y58694D01*
X73457Y59180D01*
X73255Y59666D01*
X72769Y59868D01*
D02*
G37*
G36*
X67793Y60733D02*
X67307Y60532D01*
X67105Y60046D01*
X67307Y59560D01*
X67793Y59358D01*
X68279Y59560D01*
X68480Y60046D01*
X68279Y60532D01*
X67793Y60733D01*
D02*
G37*
G36*
X105029Y51665D02*
X104543Y51464D01*
X104342Y50978D01*
X104543Y50492D01*
X105029Y50290D01*
X105515Y50492D01*
X105716Y50978D01*
X105515Y51464D01*
X105029Y51665D01*
D02*
G37*
G36*
X67894Y46736D02*
Y46228D01*
X68402D01*
X68253Y46587D01*
X67894Y46736D01*
D02*
G37*
G36*
X69266Y51867D02*
X68758D01*
Y51359D01*
X69117Y51508D01*
X69266Y51867D01*
D02*
G37*
G36*
X72466Y52529D02*
X71980Y52327D01*
X71779Y51841D01*
X71980Y51355D01*
X72466Y51154D01*
X72952Y51355D01*
X73154Y51841D01*
X72952Y52327D01*
X72466Y52529D01*
D02*
G37*
G36*
X67640Y45974D02*
X67132D01*
X67281Y45615D01*
X67640Y45466D01*
Y45974D01*
D02*
G37*
G36*
X69520Y47703D02*
X69034Y47501D01*
X68832Y47015D01*
X69034Y46529D01*
X69319Y46411D01*
X69498Y46337D01*
Y46093D01*
X69319Y46019D01*
X69034Y45901D01*
X68832Y45415D01*
X69034Y44929D01*
X69520Y44728D01*
X70006Y44929D01*
X70207Y45415D01*
X70006Y45901D01*
X69721Y46019D01*
X69542Y46093D01*
Y46337D01*
X69721Y46411D01*
X70006Y46529D01*
X70207Y47015D01*
X70006Y47501D01*
X69520Y47703D01*
D02*
G37*
G36*
X67640Y46736D02*
X67281Y46587D01*
X67132Y46228D01*
X67640D01*
Y46736D01*
D02*
G37*
G36*
X68402Y45974D02*
X67894D01*
Y45466D01*
X68253Y45615D01*
X68402Y45974D01*
D02*
G37*
G36*
X51384Y55856D02*
X50898Y55655D01*
X50697Y55169D01*
X50898Y54683D01*
X51384Y54481D01*
X51870Y54683D01*
X52072Y55169D01*
X51870Y55655D01*
X51384Y55856D01*
D02*
G37*
G36*
X121336Y55253D02*
X120558Y54930D01*
X120236Y54153D01*
X120558Y53375D01*
X121336Y53053D01*
X122113Y53375D01*
X122436Y54153D01*
X122113Y54930D01*
X121336Y55253D01*
D02*
G37*
G36*
X64897Y56970D02*
X64389D01*
X64538Y56611D01*
X64897Y56463D01*
Y56970D01*
D02*
G37*
G36*
X116357Y57380D02*
X115871Y57179D01*
X115670Y56693D01*
X115871Y56207D01*
X116357Y56005D01*
X116843Y56207D01*
X117045Y56693D01*
X116843Y57179D01*
X116357Y57380D01*
D02*
G37*
G36*
X68758Y52629D02*
Y52121D01*
X69266D01*
X69117Y52480D01*
X68758Y52629D01*
D02*
G37*
G36*
X68504D02*
X68145Y52480D01*
X68006Y52144D01*
X67960Y52033D01*
X67709Y51975D01*
X67660Y52093D01*
X67542Y52378D01*
X67056Y52580D01*
X66570Y52378D01*
X66369Y51892D01*
X66570Y51406D01*
X67056Y51205D01*
X67542Y51406D01*
X67681Y51742D01*
X67727Y51853D01*
X67978Y51910D01*
X68027Y51793D01*
X68145Y51508D01*
X68504Y51359D01*
Y51994D01*
Y52629D01*
D02*
G37*
G36*
X65735Y53926D02*
X65249Y53724D01*
X65048Y53238D01*
X65249Y52752D01*
X65735Y52551D01*
X66221Y52752D01*
X66423Y53238D01*
X66221Y53724D01*
X65735Y53926D01*
D02*
G37*
G36*
X51384Y53596D02*
X50898Y53394D01*
X50697Y52908D01*
X50898Y52422D01*
X51384Y52221D01*
X51870Y52422D01*
X52072Y52908D01*
X51870Y53394D01*
X51384Y53596D01*
D02*
G37*
G36*
X69825Y61570D02*
X69317D01*
X69466Y61211D01*
X69825Y61062D01*
Y61570D01*
D02*
G37*
G36*
X57125Y70129D02*
Y69621D01*
X57632D01*
X57484Y69980D01*
X57125Y70129D01*
D02*
G37*
G36*
X56871D02*
X56512Y69980D01*
X56363Y69621D01*
X56871D01*
Y70129D01*
D02*
G37*
G36*
X55753Y67284D02*
Y66777D01*
X56261D01*
X56112Y67136D01*
X55753Y67284D01*
D02*
G37*
G36*
X57632Y69367D02*
X57125D01*
Y68860D01*
X57484Y69008D01*
X57632Y69367D01*
D02*
G37*
G36*
X56871D02*
X56363D01*
X56512Y69008D01*
X56871Y68860D01*
Y69367D01*
D02*
G37*
G36*
X123000Y77622D02*
X122123D01*
Y76745D01*
X123000D01*
Y77622D01*
D02*
G37*
G36*
X121869D02*
X120992D01*
Y76745D01*
X121869D01*
Y77622D01*
D02*
G37*
G36*
X123000Y78753D02*
X122123D01*
Y77876D01*
X123000D01*
Y78753D01*
D02*
G37*
G36*
X121869D02*
X120992D01*
Y77876D01*
X121869D01*
Y78753D01*
D02*
G37*
G36*
X58725Y76227D02*
X58239Y76026D01*
X58208Y75952D01*
X49911D01*
X49619Y75831D01*
X48680Y74891D01*
X48559Y74600D01*
Y70104D01*
X48680Y69812D01*
X49299Y69193D01*
X49591Y69072D01*
X49852D01*
X49882Y68999D01*
X50368Y68797D01*
X50854Y68999D01*
X51056Y69485D01*
X50854Y69971D01*
X50368Y70172D01*
X49882Y69971D01*
X49631Y70028D01*
X49384Y70275D01*
Y71440D01*
X49638Y71490D01*
X49772Y71165D01*
X50292Y70950D01*
X50812Y71165D01*
X51027Y71685D01*
X50812Y72204D01*
X50292Y72420D01*
X49772Y72204D01*
X49638Y71879D01*
X49384Y71930D01*
Y74429D01*
X50082Y75127D01*
X58208D01*
X58239Y75054D01*
X58725Y74852D01*
X59211Y75054D01*
X59412Y75540D01*
X59211Y76026D01*
X58725Y76227D01*
D02*
G37*
G36*
X120490Y77622D02*
X119583D01*
Y76715D01*
X120225Y76981D01*
X120490Y77622D01*
D02*
G37*
G36*
X119329D02*
X118422D01*
X118688Y76981D01*
X119329Y76715D01*
Y77622D01*
D02*
G37*
G36*
X121620Y65525D02*
X120468Y65048D01*
X119992Y63897D01*
X120468Y62746D01*
X121620Y62269D01*
X122771Y62746D01*
X123248Y63897D01*
X122771Y65048D01*
X121620Y65525D01*
D02*
G37*
G36*
X103620D02*
X102468Y65048D01*
X101992Y63897D01*
X102468Y62746D01*
X103620Y62269D01*
X104771Y62746D01*
X105248Y63897D01*
X104771Y65048D01*
X103620Y65525D01*
D02*
G37*
G36*
X57658Y64516D02*
X57150D01*
X57299Y64157D01*
X57658Y64008D01*
Y64516D01*
D02*
G37*
G36*
X82144Y63197D02*
X81658Y62995D01*
X81534Y62696D01*
X81470Y62565D01*
X81257Y62488D01*
X81232Y62488D01*
X81018Y62400D01*
X80746Y62287D01*
X80545Y61801D01*
X80746Y61315D01*
X80820Y61284D01*
Y48561D01*
X79687Y47428D01*
X74608D01*
X74578Y47501D01*
X74555Y47511D01*
Y47716D01*
X74579Y47776D01*
X74779Y48260D01*
X74578Y48746D01*
X74092Y48947D01*
X73606Y48746D01*
X73404Y48260D01*
X73605Y47776D01*
X73628Y47716D01*
Y47559D01*
X73605Y47499D01*
X73404Y47015D01*
X73606Y46529D01*
X74092Y46328D01*
X74578Y46529D01*
X74608Y46603D01*
X79858D01*
X80149Y46724D01*
X81546Y48121D01*
X81546Y48121D01*
X81667Y48412D01*
X81644Y48467D01*
Y61284D01*
X81718Y61315D01*
X81919Y61801D01*
X82118Y61823D01*
X82144Y61822D01*
X82144Y61822D01*
X82630Y62023D01*
X82831Y62509D01*
X82630Y62995D01*
X82144Y63197D01*
D02*
G37*
G36*
X82702Y61747D02*
X82343Y61598D01*
X82195Y61239D01*
X82702D01*
Y61747D01*
D02*
G37*
G36*
X70586Y61570D02*
X70079D01*
Y61062D01*
X70438Y61211D01*
X70586Y61570D01*
D02*
G37*
G36*
X70079Y62331D02*
Y61824D01*
X70586D01*
X70438Y62183D01*
X70079Y62331D01*
D02*
G37*
G36*
X69825D02*
X69466Y62183D01*
X69317Y61824D01*
X69825D01*
Y62331D01*
D02*
G37*
G36*
X56261Y66523D02*
X55753D01*
Y66015D01*
X56112Y66164D01*
X56261Y66523D01*
D02*
G37*
G36*
X55499D02*
X54991D01*
X55140Y66164D01*
X55499Y66015D01*
Y66523D01*
D02*
G37*
G36*
Y67284D02*
X55140Y67136D01*
X54991Y66777D01*
X55499D01*
Y67284D01*
D02*
G37*
G36*
X50292Y68020D02*
X49772Y67804D01*
X49557Y67285D01*
X49772Y66765D01*
X50292Y66550D01*
X50812Y66765D01*
X51027Y67285D01*
X50812Y67804D01*
X50292Y68020D01*
D02*
G37*
G36*
X57658Y65278D02*
X57299Y65129D01*
X57150Y64770D01*
X57658D01*
Y65278D01*
D02*
G37*
G36*
X58420Y64516D02*
X57912D01*
Y64008D01*
X58271Y64157D01*
X58420Y64516D01*
D02*
G37*
G36*
X100990Y66575D02*
X100504Y66374D01*
X100303Y65888D01*
X100504Y65402D01*
X100990Y65200D01*
X101476Y65402D01*
X101678Y65888D01*
X101476Y66374D01*
X100990Y66575D01*
D02*
G37*
G36*
X57912Y65278D02*
Y64770D01*
X58420D01*
X58271Y65129D01*
X57912Y65278D01*
D02*
G37*
%LPD*%
D36*
X84760Y59284D02*
X86385Y60909D01*
Y69190D01*
X86436Y69240D01*
X112497Y58039D02*
X113106Y58649D01*
X101244Y58039D02*
X112497D01*
X99136Y60147D02*
X101244Y58039D01*
X81763Y70714D02*
X84963D01*
X68250Y69926D02*
Y72238D01*
X67107Y68783D02*
X68250Y69926D01*
X87376Y53442D02*
X103708D01*
X84760Y56058D02*
X87376Y53442D01*
X84760Y56058D02*
Y59284D01*
X84963Y70714D02*
X86436Y69240D01*
X97561Y59182D02*
Y68478D01*
X98069Y68986D01*
X83566Y48768D02*
Y66929D01*
Y48768D02*
X84709Y47625D01*
X91592D01*
X87071Y66065D02*
X90805Y69799D01*
Y77038D01*
X77749Y68072D02*
X82423D01*
X83566Y66929D01*
X81232Y48435D02*
X81255Y48412D01*
X81232Y48435D02*
Y61801D01*
X79858Y47015D02*
X81255Y48412D01*
X74092Y47015D02*
X79858D01*
X68480Y66168D02*
X69088Y66777D01*
X66877Y66168D02*
X68480D01*
X69088Y66777D02*
Y71349D01*
X70180Y72441D01*
X76352D01*
X86436Y77749D02*
X87020Y77165D01*
Y67107D02*
Y77165D01*
X90805Y77038D02*
X91516Y77749D01*
X63576Y65430D02*
Y77749D01*
Y65430D02*
X64440Y64567D01*
X82779D01*
X97561Y59182D02*
X97587Y59207D01*
X97841Y57582D02*
X115316D01*
X96596Y58826D02*
X97841Y57582D01*
X96596Y58826D02*
Y77749D01*
X116459Y58725D02*
Y63729D01*
X115316Y57582D02*
X116459Y58725D01*
X118783Y57884D02*
Y65494D01*
X117856Y66421D02*
X118783Y65494D01*
X107975Y66421D02*
X117856D01*
X107112Y65557D02*
X107975Y66421D01*
X107112Y63373D02*
Y65557D01*
Y63373D02*
X108077Y62408D01*
X109423D01*
X96037Y56642D02*
X109550D01*
X99136Y60147D02*
Y77749D01*
X91516Y61163D02*
Y77749D01*
Y61163D02*
X96037Y56642D01*
X106756Y70485D02*
Y77749D01*
Y70485D02*
X108382Y68859D01*
X110566D01*
X111836Y67843D02*
Y77749D01*
X49911Y75540D02*
X58725D01*
X48971Y74600D02*
X49911Y75540D01*
X48971Y70104D02*
Y74600D01*
Y70104D02*
X49591Y69485D01*
X50368D01*
X68250Y72238D02*
X69469Y73457D01*
X76327D01*
X78308Y74168D02*
X81763Y70714D01*
X68885Y74168D02*
X78308D01*
D39*
X66919Y70068D02*
D03*
X68631Y51994D02*
D03*
X86208Y71171D02*
D03*
X67767Y46101D02*
D03*
X82829Y61112D02*
D03*
X69952Y61697D02*
D03*
X72111Y70866D02*
D03*
X65024Y57097D02*
D03*
X83134Y68478D02*
D03*
X57785Y64643D02*
D03*
X55626Y66650D02*
D03*
X65075Y61163D02*
D03*
X67793Y60046D02*
D03*
X65380Y58928D02*
D03*
X65735Y53238D02*
D03*
X69520Y45415D02*
D03*
X87884Y68123D02*
D03*
X102667Y59182D02*
D03*
X72161Y67081D02*
D03*
X68174D02*
D03*
X68885Y74168D02*
D03*
X84760Y59284D02*
D03*
X84963Y70714D02*
D03*
X105029Y50978D02*
D03*
X91592Y47625D02*
D03*
X86436Y52603D02*
D03*
X90094Y71552D02*
D03*
X92456Y71501D02*
D03*
X93675Y71450D02*
D03*
X81153Y72314D02*
D03*
X82017Y73279D02*
D03*
X82753Y74066D02*
D03*
X56998Y69494D02*
D03*
X67056Y51892D02*
D03*
X72466Y51841D02*
D03*
X116357Y56693D02*
D03*
X82144Y62509D02*
D03*
X81232Y61801D02*
D03*
X74760Y69274D02*
D03*
X74092Y47015D02*
D03*
Y48260D02*
D03*
X69520Y47015D02*
D03*
X77749Y68072D02*
D03*
X76225D02*
D03*
X72060Y68123D02*
D03*
X72009Y63779D02*
D03*
Y65608D02*
D03*
X74193Y70383D02*
D03*
X72769Y59180D02*
D03*
X100889Y55804D02*
D03*
X100990Y65888D02*
D03*
X77826Y63398D02*
D03*
X77851Y65253D02*
D03*
X76352Y72441D02*
D03*
X76327Y73457D02*
D03*
X66877Y66168D02*
D03*
X67107Y68783D02*
D03*
X79375Y62154D02*
D03*
X78232Y62205D02*
D03*
X77089Y62154D02*
D03*
X87020Y67107D02*
D03*
X87071Y66065D02*
D03*
X82779Y64567D02*
D03*
X88138Y58623D02*
D03*
Y61214D02*
D03*
Y62205D02*
D03*
X88113Y63195D02*
D03*
X87097Y64084D02*
D03*
X98069Y68986D02*
D03*
X97561Y59182D02*
D03*
X116459Y63729D02*
D03*
X113106Y58649D02*
D03*
X111531Y60147D02*
D03*
X109550Y56642D02*
D03*
X118783Y57884D02*
D03*
X109423Y62408D02*
D03*
X110566Y68859D02*
D03*
X111836Y67843D02*
D03*
X50368Y69485D02*
D03*
X58725Y75540D02*
D03*
X51384Y55169D02*
D03*
Y52908D02*
D03*
X51359Y57328D02*
D03*
X73482Y71145D02*
D03*
X76454Y74828D02*
D03*
D40*
X88976Y70155D02*
D03*
X121336Y54153D02*
D03*
X103708Y53442D02*
D03*
D41*
X50292Y67285D02*
D03*
Y71685D02*
D03*
D42*
X121996Y77749D02*
D03*
D43*
X63576D02*
D03*
X66116D02*
D03*
X68656D02*
D03*
X71196D02*
D03*
X73736D02*
D03*
X76276D02*
D03*
X78816D02*
D03*
X81356D02*
D03*
X83896D02*
D03*
X86436D02*
D03*
X88976D02*
D03*
X91516D02*
D03*
X94056D02*
D03*
X96596D02*
D03*
X99136D02*
D03*
X101676D02*
D03*
X104216D02*
D03*
X106756D02*
D03*
X109296D02*
D03*
X111836D02*
D03*
X114376D02*
D03*
X116916D02*
D03*
X119456D02*
D03*
D44*
X121620Y63897D02*
D03*
X103620D02*
D03*
M02*
