G04 Layer_Color=255*
%FSLAX43Y43*%
%MOMM*%
G71*
G01*
G75*
%ADD39C,0.762*%
%ADD40C,1.524*%
%ADD41C,0.850*%
%ADD42R,1.500X1.500*%
%ADD43C,1.500*%
%ADD44C,2.500*%
D39*
X66919Y70068D02*
D03*
X68631Y51994D02*
D03*
X86208Y71171D02*
D03*
X67767Y46101D02*
D03*
X82829Y61112D02*
D03*
X69952Y61697D02*
D03*
X72111Y70866D02*
D03*
X65024Y57097D02*
D03*
X83134Y68478D02*
D03*
X57785Y64643D02*
D03*
X55626Y66650D02*
D03*
X65075Y61163D02*
D03*
X67793Y60046D02*
D03*
X65380Y58928D02*
D03*
X65735Y53238D02*
D03*
X69520Y45415D02*
D03*
X87884Y68123D02*
D03*
X102667Y59182D02*
D03*
X72161Y67081D02*
D03*
X68174D02*
D03*
X68885Y74168D02*
D03*
X84760Y59284D02*
D03*
X84963Y70714D02*
D03*
X105029Y50978D02*
D03*
X91592Y47625D02*
D03*
X86436Y52603D02*
D03*
X90094Y71552D02*
D03*
X92456Y71501D02*
D03*
X93675Y71450D02*
D03*
X81153Y72314D02*
D03*
X82017Y73279D02*
D03*
X82753Y74066D02*
D03*
X56998Y69494D02*
D03*
X67056Y51892D02*
D03*
X72466Y51841D02*
D03*
X116357Y56693D02*
D03*
X82144Y62509D02*
D03*
X81232Y61801D02*
D03*
X74760Y69274D02*
D03*
X74092Y47015D02*
D03*
Y48260D02*
D03*
X69520Y47015D02*
D03*
X77749Y68072D02*
D03*
X76225D02*
D03*
X72060Y68123D02*
D03*
X72009Y63779D02*
D03*
Y65608D02*
D03*
X74193Y70383D02*
D03*
X72769Y59180D02*
D03*
X100889Y55804D02*
D03*
X100990Y65888D02*
D03*
X77826Y63398D02*
D03*
X77851Y65253D02*
D03*
X76352Y72441D02*
D03*
X76327Y73457D02*
D03*
X66877Y66168D02*
D03*
X67107Y68783D02*
D03*
X79375Y62154D02*
D03*
X78232Y62205D02*
D03*
X77089Y62154D02*
D03*
X87020Y67107D02*
D03*
X87071Y66065D02*
D03*
X82779Y64567D02*
D03*
X88138Y58623D02*
D03*
Y61214D02*
D03*
Y62205D02*
D03*
X88113Y63195D02*
D03*
X87097Y64084D02*
D03*
X98069Y68986D02*
D03*
X97561Y59182D02*
D03*
X116459Y63729D02*
D03*
X113106Y58649D02*
D03*
X111531Y60147D02*
D03*
X109550Y56642D02*
D03*
X118783Y57884D02*
D03*
X109423Y62408D02*
D03*
X110566Y68859D02*
D03*
X111836Y67843D02*
D03*
X50368Y69485D02*
D03*
X58725Y75540D02*
D03*
X51384Y55169D02*
D03*
Y52908D02*
D03*
X51359Y57328D02*
D03*
X73482Y71145D02*
D03*
X76454Y74828D02*
D03*
D40*
X88976Y70155D02*
D03*
X121336Y54153D02*
D03*
X103708Y53442D02*
D03*
D41*
X50292Y67285D02*
D03*
Y71685D02*
D03*
D42*
X121996Y77749D02*
D03*
D43*
X63576D02*
D03*
X66116D02*
D03*
X68656D02*
D03*
X71196D02*
D03*
X73736D02*
D03*
X76276D02*
D03*
X78816D02*
D03*
X81356D02*
D03*
X83896D02*
D03*
X86436D02*
D03*
X88976D02*
D03*
X91516D02*
D03*
X94056D02*
D03*
X96596D02*
D03*
X99136D02*
D03*
X101676D02*
D03*
X104216D02*
D03*
X106756D02*
D03*
X109296D02*
D03*
X111836D02*
D03*
X114376D02*
D03*
X116916D02*
D03*
X119456D02*
D03*
D44*
X121620Y63897D02*
D03*
X103620D02*
D03*
M02*
