G04 Layer_Physical_Order=1*
G04 Layer_Color=255*
%FSLAX43Y43*%
%MOMM*%
G71*
G01*
G75*
%ADD10C,0.250*%
%ADD11R,1.000X1.100*%
%ADD12O,0.600X1.500*%
%ADD13R,0.600X1.500*%
%ADD14R,1.100X1.000*%
%ADD15O,1.270X3.680*%
%ADD16R,1.270X3.680*%
%ADD17R,2.000X0.550*%
%ADD18O,2.000X0.550*%
%ADD19R,4.500X0.500*%
%ADD20R,2.500X4.000*%
%ADD21R,0.680X1.000*%
%ADD22C,0.508*%
%ADD23O,1.500X0.600*%
%ADD24R,1.500X0.600*%
%ADD25C,0.200*%
%ADD26R,0.220X2.000*%
%ADD27R,2.000X0.220*%
%ADD28O,2.000X0.220*%
%ADD29R,1.400X1.900*%
%ADD30R,1.200X2.300*%
%ADD31R,1.700X0.300*%
%ADD32O,1.700X0.300*%
%ADD33R,2.000X1.500*%
%ADD34R,2.500X1.500*%
%ADD35R,1.750X0.800*%
%ADD36C,0.254*%
%ADD37C,0.076*%
%ADD38C,0.508*%
%ADD39C,0.762*%
%ADD40C,1.524*%
%ADD41C,0.850*%
%ADD42R,1.500X1.500*%
%ADD43C,1.500*%
%ADD44C,2.500*%
G36*
X80820Y62318D02*
X80746Y62287D01*
X80545Y61801D01*
X80746Y61315D01*
X81232Y61114D01*
X81718Y61315D01*
X81919Y61801D01*
X82118Y61823D01*
X82144Y61822D01*
X82144Y61822D01*
X82630Y62023D01*
X82831Y62509D01*
X82630Y62995D01*
X82556Y63026D01*
Y63743D01*
X82767Y63884D01*
X82779Y63879D01*
X83265Y64081D01*
X83302Y64170D01*
X83728D01*
Y63219D01*
Y62219D01*
Y61465D01*
X83670Y61406D01*
X83371Y61464D01*
X83315Y61598D01*
X82956Y61747D01*
Y61112D01*
X82829D01*
Y60985D01*
X82195D01*
X82255Y60841D01*
X82085Y60587D01*
X81359D01*
Y59428D01*
X81320Y59333D01*
X81144D01*
X81105Y59428D01*
Y60587D01*
X79859D01*
Y59428D01*
X79820Y59333D01*
X79605D01*
Y60587D01*
X79144D01*
Y61322D01*
X79340Y61481D01*
X79375Y61466D01*
X79861Y61668D01*
X80062Y62154D01*
X79861Y62640D01*
X79375Y62841D01*
X78996Y62684D01*
X78718Y62691D01*
X78508Y62777D01*
X78390Y63101D01*
X78513Y63398D01*
X78312Y63884D01*
X77826Y64086D01*
X77340Y63884D01*
X77299Y63787D01*
X77053Y63763D01*
X76442Y64374D01*
X76368Y64405D01*
X76314Y64654D01*
X76476Y64840D01*
X77335D01*
X77365Y64767D01*
X77851Y64565D01*
X78337Y64767D01*
X78538Y65253D01*
X78337Y65739D01*
X77851Y65940D01*
X77365Y65739D01*
X77335Y65665D01*
X76225D01*
X75934Y65544D01*
X75490Y65100D01*
X75236Y65206D01*
Y65719D01*
Y66719D01*
Y67719D01*
Y68784D01*
X75246Y68788D01*
X75275Y68857D01*
X75368Y69079D01*
Y69079D01*
X75368Y69079D01*
X75820D01*
Y68591D01*
X75739Y68558D01*
X75538Y68072D01*
X75739Y67586D01*
X76225Y67385D01*
X76711Y67586D01*
X76850Y67920D01*
X77125D01*
X77263Y67586D01*
X77749Y67385D01*
X78235Y67586D01*
X78437Y68072D01*
X78235Y68558D01*
X77791Y68742D01*
X77714Y68825D01*
X77716Y68856D01*
X77853Y69079D01*
X80820D01*
Y62318D01*
D02*
G37*
G36*
X102680Y68542D02*
X102972Y68422D01*
X108211D01*
X108752Y67881D01*
X108655Y67646D01*
X101666D01*
Y68038D01*
X101666D01*
Y68130D01*
X101666D01*
Y69224D01*
X101901Y69321D01*
X102680Y68542D01*
D02*
G37*
G36*
X109905Y68922D02*
X109879Y68859D01*
X110080Y68373D01*
X110566Y68172D01*
X111030Y68364D01*
X111071Y68371D01*
X111091Y68368D01*
X111252Y68092D01*
X111149Y67843D01*
X111350Y67357D01*
X111836Y67156D01*
X112053Y66971D01*
Y66105D01*
X111799Y66000D01*
X108920Y68879D01*
X109025Y69133D01*
X109764D01*
X109905Y68922D01*
D02*
G37*
G36*
X123596Y44171D02*
X123575Y44120D01*
X74728D01*
X74540Y44280D01*
X74540Y44374D01*
Y44907D01*
X73736D01*
Y45034D01*
X73609D01*
Y45788D01*
X73094D01*
X72932Y45788D01*
X72678Y45788D01*
X71232D01*
X71031Y45916D01*
X70974Y45954D01*
Y46761D01*
X71228Y46812D01*
X71311Y46611D01*
X71716Y46443D01*
X73166D01*
X73341Y46515D01*
X73606Y46529D01*
X74092Y46328D01*
X74578Y46529D01*
X74779Y47015D01*
X74579Y47499D01*
X74562Y47541D01*
X74573Y47653D01*
X74608Y47779D01*
X74625Y47801D01*
X74667Y47840D01*
X74837Y47912D01*
X74959Y47912D01*
X75414D01*
Y48666D01*
Y49420D01*
X74737D01*
Y48918D01*
X74483Y48785D01*
X74092Y48947D01*
X73606Y48746D01*
X73351Y48781D01*
X73347Y48783D01*
Y49058D01*
X73571Y49151D01*
X73686Y49428D01*
X71196D01*
X71311Y49151D01*
X71535Y49058D01*
Y48783D01*
X71311Y48690D01*
X71143Y48285D01*
X71311Y47881D01*
X71535Y47788D01*
Y47513D01*
X71311Y47420D01*
X71228Y47219D01*
X70974Y47270D01*
Y47879D01*
X70853Y48171D01*
X70059Y48964D01*
Y49943D01*
X70529Y50413D01*
X71329D01*
X71535Y50328D01*
Y50053D01*
X71311Y49960D01*
X71196Y49682D01*
X73686D01*
X73571Y49960D01*
X73347Y50053D01*
Y50328D01*
X73571Y50421D01*
X73738Y50825D01*
X73571Y51230D01*
X73166Y51398D01*
X73045Y51579D01*
X73154Y51841D01*
X72952Y52327D01*
X72466Y52529D01*
X71980Y52327D01*
X71779Y51841D01*
X71875Y51609D01*
X71734Y51398D01*
X71716D01*
X71329Y51238D01*
X70745D01*
Y52561D01*
X71137D01*
Y53535D01*
X71890Y54289D01*
X72144Y54184D01*
Y53924D01*
X72898D01*
X73652D01*
Y54439D01*
X73652Y54601D01*
X73652Y54845D01*
X73677Y55099D01*
X73987D01*
Y54107D01*
X75695D01*
Y56915D01*
X75695D01*
X75695Y56915D01*
X75865Y57169D01*
X77700D01*
X77843Y56915D01*
X77843Y56915D01*
X77368D01*
Y55511D01*
Y54107D01*
X78048D01*
Y52915D01*
X76387D01*
Y50107D01*
X76829D01*
Y49600D01*
X76649Y49420D01*
X76437Y49420D01*
X76183Y49420D01*
X75668D01*
Y48666D01*
Y47912D01*
X76183D01*
X76345Y47912D01*
X76599Y47912D01*
X78045D01*
Y49420D01*
X77654D01*
Y50107D01*
X78095D01*
Y51137D01*
X78295Y51220D01*
X78752Y51677D01*
X78873Y51968D01*
Y54303D01*
X78891Y54549D01*
X79433D01*
Y54144D01*
X79129D01*
Y52698D01*
X79129Y52536D01*
X79129Y52282D01*
Y51767D01*
X79883D01*
X80637D01*
Y52282D01*
X80637Y52444D01*
X80637Y52698D01*
Y54144D01*
X80258D01*
Y54549D01*
X80799D01*
Y56124D01*
X81057Y56381D01*
X81291Y56284D01*
Y54549D01*
X81833D01*
Y54142D01*
X81491D01*
Y52534D01*
X81491D01*
Y52442D01*
X81491D01*
Y51765D01*
X82245D01*
Y51638D01*
X82372D01*
Y50834D01*
X82820D01*
Y49646D01*
X82594Y49420D01*
X81400D01*
X81238Y49420D01*
X80984Y49420D01*
X80469D01*
Y48666D01*
Y47912D01*
X80984D01*
X81146Y47912D01*
X81376Y47912D01*
X81630Y47854D01*
Y47543D01*
X81450Y47363D01*
X81263Y47363D01*
X81009Y47363D01*
X80494D01*
Y46609D01*
Y45855D01*
X81009D01*
X81171Y45855D01*
X81425Y45855D01*
X82871D01*
Y47363D01*
X82454D01*
Y47912D01*
X82846D01*
Y48506D01*
X83524Y49184D01*
X83644Y49475D01*
Y58920D01*
X84223D01*
X84274Y58798D01*
X84760Y58596D01*
X85246Y58798D01*
X85416Y59209D01*
X85682Y59302D01*
X86653Y58332D01*
X86944Y58211D01*
X87621D01*
X87652Y58137D01*
X88138Y57936D01*
X88624Y58137D01*
X88825Y58623D01*
X88624Y59109D01*
X88138Y59311D01*
X87652Y59109D01*
X87621Y59036D01*
X87115D01*
X85697Y60454D01*
X85794Y60689D01*
X85872D01*
X86151Y60804D01*
X86220Y60971D01*
X86266Y61083D01*
X86236Y61219D01*
X86236D01*
Y61716D01*
X86284Y61764D01*
X86471Y61841D01*
X87389Y60922D01*
X87609Y60831D01*
X87652Y60728D01*
X88138Y60527D01*
X88624Y60728D01*
X88825Y61214D01*
X88715Y61481D01*
X88628Y61709D01*
X88715Y61937D01*
X88825Y62205D01*
X88708Y62487D01*
X88624Y62691D01*
X88693Y62937D01*
X88800Y63195D01*
X88599Y63681D01*
X88113Y63883D01*
X87947Y63814D01*
X87752Y64008D01*
X87784Y64084D01*
X87583Y64570D01*
X87097Y64772D01*
X86611Y64570D01*
X86579Y64495D01*
X86236D01*
Y65670D01*
X86548D01*
X86585Y65579D01*
X87071Y65378D01*
X87557Y65579D01*
X87759Y66065D01*
X87557Y66551D01*
X87506Y66572D01*
X87506Y66621D01*
X87708Y67107D01*
X87634Y67285D01*
X87813Y67465D01*
X87884Y67435D01*
X88120Y67533D01*
X88331Y67392D01*
Y67317D01*
X88510D01*
X88651Y67106D01*
X88422Y66551D01*
X88748Y65764D01*
X89139Y65602D01*
X89172Y65523D01*
X89433Y65415D01*
Y65912D01*
X89687D01*
Y65415D01*
X89949Y65523D01*
X89992Y65627D01*
X90323Y65764D01*
X90347Y65821D01*
X90596Y65771D01*
Y64834D01*
X90403Y64642D01*
X90073Y64778D01*
X89649Y64603D01*
X89474Y64179D01*
Y63279D01*
X89649Y62855D01*
X90073Y62679D01*
X90497Y62855D01*
X90673Y63279D01*
Y63745D01*
X91129Y64201D01*
X91374Y64087D01*
Y63279D01*
X91549Y62855D01*
X91973Y62679D01*
X92397Y62855D01*
X92573Y63279D01*
Y64179D01*
X92397Y64603D01*
X91973Y64778D01*
X91670Y64653D01*
X91421Y64806D01*
Y67208D01*
X91300Y67500D01*
X90739Y68060D01*
Y68825D01*
X90558D01*
Y68986D01*
X90437Y69277D01*
X89925Y69790D01*
X90076Y70155D01*
X89909Y70557D01*
X90083Y70792D01*
X90267Y70795D01*
X93161Y67901D01*
Y56991D01*
X92545Y56375D01*
X92425Y56083D01*
Y54808D01*
X92358Y54772D01*
X92104Y54925D01*
Y55637D01*
X91943Y56026D01*
X91633Y56336D01*
Y57117D01*
X91378D01*
Y58092D01*
X91217Y58480D01*
X90623Y59075D01*
Y60170D01*
X90870Y60343D01*
X90896Y60332D01*
Y61329D01*
Y62326D01*
X90737Y62260D01*
X90627Y62333D01*
Y62333D01*
X89519D01*
Y60325D01*
X89524D01*
Y58847D01*
X89685Y58458D01*
X90279Y57864D01*
Y57296D01*
X90099Y57117D01*
X89771Y57117D01*
X88325D01*
Y56750D01*
X87342D01*
Y57091D01*
X85896D01*
X85734Y57091D01*
X85480Y57091D01*
X84965D01*
Y56337D01*
Y55583D01*
X85480D01*
X85642Y55583D01*
X85896Y55583D01*
X87342D01*
X87345Y55330D01*
Y54574D01*
X87077Y54463D01*
X86795Y53783D01*
Y53371D01*
X86584Y53230D01*
X86436Y53291D01*
X86390Y53272D01*
X86179Y53413D01*
Y53783D01*
X85897Y54463D01*
X85217Y54745D01*
X84537Y54463D01*
X84255Y53783D01*
Y51373D01*
X84537Y50693D01*
X85217Y50411D01*
X85897Y50693D01*
X86179Y51373D01*
Y51794D01*
X86390Y51935D01*
X86436Y51916D01*
X86584Y51977D01*
X86795Y51836D01*
Y51373D01*
X87077Y50693D01*
X87757Y50411D01*
X88437Y50693D01*
X88719Y51373D01*
Y53783D01*
X88437Y54463D01*
X88169Y54574D01*
Y55419D01*
X88325Y55609D01*
X89771D01*
X89933Y55609D01*
X90187Y55609D01*
X90805D01*
X91004Y55409D01*
Y54727D01*
X90750Y54557D01*
X90424Y54693D01*
Y52578D01*
Y50463D01*
X90799Y50619D01*
X91121Y50505D01*
X91165Y50398D01*
X91940Y49624D01*
X92067Y49296D01*
X91875Y48833D01*
Y48424D01*
X91664Y48283D01*
X91592Y48312D01*
X91470Y48262D01*
X91259Y48403D01*
Y48833D01*
X90977Y49513D01*
X90297Y49795D01*
X89617Y49513D01*
X89335Y48833D01*
Y46423D01*
X89617Y45743D01*
X90297Y45461D01*
X90977Y45743D01*
X91259Y46423D01*
Y46847D01*
X91470Y46988D01*
X91592Y46938D01*
X91664Y46967D01*
X91875Y46826D01*
Y46423D01*
X92157Y45743D01*
X92837Y45461D01*
X93517Y45743D01*
X93799Y46423D01*
Y48833D01*
X93626Y49252D01*
X93767Y49463D01*
X94447D01*
X94588Y49252D01*
X94415Y48833D01*
Y46423D01*
X94697Y45743D01*
X95377Y45461D01*
X96057Y45743D01*
X96339Y46423D01*
Y48833D01*
X96166Y49252D01*
X96307Y49463D01*
X96987D01*
X97128Y49252D01*
X96955Y48833D01*
Y46423D01*
X97237Y45743D01*
X97917Y45461D01*
X98597Y45743D01*
X98879Y46423D01*
Y48833D01*
X98829Y48954D01*
X99044Y49098D01*
X99495Y48648D01*
Y46423D01*
X99777Y45743D01*
X100457Y45461D01*
X101137Y45743D01*
X101419Y46423D01*
Y47078D01*
X103269D01*
X103284Y46831D01*
X103284Y46669D01*
Y46154D01*
X104038D01*
X104792D01*
Y46669D01*
X104792Y46831D01*
X104808Y47078D01*
X105402D01*
X105418Y46831D01*
X105418Y46669D01*
Y46154D01*
X106172D01*
X106926D01*
Y46669D01*
X106926Y46831D01*
X106926Y47085D01*
Y48531D01*
X106722D01*
Y49861D01*
X106960Y50037D01*
X107036Y50006D01*
Y51003D01*
X107290D01*
Y50006D01*
X107439Y50068D01*
X107638Y50117D01*
X107836Y50068D01*
X107986Y50006D01*
Y51003D01*
X108240D01*
Y50006D01*
X108537Y50129D01*
X108712Y50553D01*
Y50926D01*
X108947Y51023D01*
X109355Y50615D01*
Y49640D01*
X110863D01*
Y51086D01*
X110863Y51248D01*
X110863D01*
Y51340D01*
X110863D01*
Y51732D01*
X111182D01*
X111362Y51552D01*
X111362Y51366D01*
X111362Y51112D01*
Y50597D01*
X112116D01*
X112870D01*
Y51112D01*
X112870Y51274D01*
X112870Y51528D01*
Y52974D01*
X111362D01*
Y52557D01*
X110863D01*
Y52948D01*
X109355D01*
Y52113D01*
X109120Y52016D01*
X108623Y52514D01*
X108544Y52547D01*
X108712Y52953D01*
Y53853D01*
X108537Y54277D01*
X108113Y54453D01*
X107689Y54277D01*
X107513Y53853D01*
Y53045D01*
X107268Y52931D01*
X106812Y53387D01*
Y53853D01*
X106637Y54277D01*
X106213Y54453D01*
X105789Y54277D01*
X105613Y53853D01*
Y53816D01*
X104653D01*
X104486Y54219D01*
X103708Y54541D01*
X102931Y54219D01*
X102608Y53442D01*
X102931Y52664D01*
X103708Y52342D01*
X104486Y52664D01*
X104621Y52991D01*
X105613D01*
Y52953D01*
X105789Y52529D01*
X106213Y52354D01*
X106542Y52490D01*
X106775Y52258D01*
X106666Y52007D01*
X105659D01*
Y51528D01*
X105361D01*
X105029Y51665D01*
X104543Y51464D01*
X104342Y50978D01*
X104543Y50492D01*
X105029Y50290D01*
X105361Y50428D01*
X105622D01*
Y48531D01*
X105418D01*
Y48178D01*
X104792D01*
Y48531D01*
X103284D01*
Y48178D01*
X101419D01*
Y48833D01*
X101137Y49513D01*
X100457Y49795D01*
X100065Y49633D01*
X99397Y50301D01*
X99573Y50484D01*
X101346D01*
Y54672D01*
X100572D01*
X96170Y59073D01*
Y62528D01*
X96405Y62625D01*
X97727Y61303D01*
X98019Y61183D01*
X100245D01*
X100350Y60929D01*
X99383Y59961D01*
X98408D01*
Y59594D01*
X98078D01*
X98047Y59668D01*
X97561Y59869D01*
X97075Y59668D01*
X96874Y59182D01*
X97075Y58696D01*
X97561Y58495D01*
X98047Y58696D01*
X98078Y58770D01*
X98408D01*
Y58453D01*
X99854D01*
X100016Y58453D01*
Y58453D01*
X100108D01*
Y58453D01*
X100500D01*
Y56330D01*
X100403Y56290D01*
X100201Y55804D01*
X100403Y55318D01*
X100889Y55116D01*
X101375Y55318D01*
X101576Y55804D01*
X101375Y56290D01*
X101325Y56311D01*
Y58453D01*
X101716D01*
Y58795D01*
X102140D01*
X102181Y58696D01*
X102667Y58495D01*
X103153Y58696D01*
X103194Y58795D01*
X109068D01*
X109359Y58916D01*
X109455Y59148D01*
X110650Y60343D01*
X110866Y60199D01*
X110844Y60147D01*
X111045Y59661D01*
X111531Y59460D01*
X111583Y59481D01*
X111727Y59266D01*
X109720Y57259D01*
X109550Y57329D01*
X109064Y57128D01*
X108863Y56642D01*
X109064Y56156D01*
X109550Y55955D01*
X110036Y56156D01*
X110238Y56642D01*
X110167Y56812D01*
X110500Y57144D01*
X110734Y57047D01*
Y55186D01*
X110247D01*
Y53678D01*
X111693D01*
X111855Y53678D01*
X112109Y53678D01*
X112624D01*
Y54432D01*
Y55186D01*
X112109D01*
X111947Y55186D01*
X111693Y55186D01*
X111367D01*
Y57478D01*
X112292Y58403D01*
X112541Y58354D01*
X112620Y58163D01*
X113106Y57961D01*
X113592Y58163D01*
X113794Y58649D01*
X113592Y59135D01*
X113422Y59205D01*
Y62465D01*
X113657Y62562D01*
X118166Y58053D01*
X118095Y57884D01*
X118297Y57398D01*
X118370Y57367D01*
Y54722D01*
X117947Y54546D01*
X117772Y54122D01*
X117947Y53698D01*
X118371Y53523D01*
X119271D01*
X119695Y53698D01*
X119700Y53710D01*
X120420D01*
X120558Y53375D01*
X120923Y53224D01*
Y48884D01*
X120582D01*
Y48493D01*
X120007D01*
Y48886D01*
X118499D01*
Y48493D01*
X117950D01*
Y48861D01*
X116442D01*
Y48493D01*
X115390D01*
X115099Y48372D01*
X113455Y46728D01*
X112480D01*
Y46386D01*
X111370D01*
Y46753D01*
X109924D01*
X109762Y46753D01*
X109508Y46753D01*
X108993D01*
Y45999D01*
Y45245D01*
X109508D01*
X109670Y45245D01*
X109924Y45245D01*
X111370D01*
Y45562D01*
X112480D01*
Y45220D01*
X113926D01*
X114088Y45220D01*
Y45220D01*
X114180D01*
Y45220D01*
X114857D01*
Y45974D01*
X114984D01*
Y46101D01*
X115788D01*
Y46728D01*
X114953D01*
X114856Y46963D01*
X115561Y47668D01*
X116262D01*
X116442Y47488D01*
X116442Y47253D01*
X116442Y46999D01*
Y46484D01*
X117196D01*
X117950D01*
Y46999D01*
X117950Y47161D01*
X117950Y47414D01*
X117952Y47668D01*
X118319D01*
X118499Y47488D01*
X118499Y47278D01*
X118499Y47024D01*
Y46509D01*
X119253D01*
X120007D01*
Y47024D01*
X120007Y47186D01*
X120007Y47414D01*
X120070Y47668D01*
X120402D01*
X120582Y47488D01*
X120582Y47276D01*
X120582Y47022D01*
Y46507D01*
X121336D01*
X122090D01*
Y47022D01*
X122090Y47184D01*
X122090Y47438D01*
Y48884D01*
X121748D01*
Y53224D01*
X122113Y53375D01*
X122436Y54153D01*
X122113Y54930D01*
X121336Y55253D01*
X120558Y54930D01*
X120394Y54535D01*
X119700D01*
X119695Y54546D01*
X119271Y54722D01*
X119195D01*
Y57367D01*
X119269Y57398D01*
X119470Y57884D01*
X119269Y58370D01*
X118783Y58571D01*
X118613Y58501D01*
X113961Y63152D01*
X114058Y63387D01*
X115913D01*
X115973Y63243D01*
X116459Y63041D01*
X116945Y63243D01*
X117146Y63729D01*
X116945Y64215D01*
X116459Y64416D01*
X115973Y64215D01*
X115892Y64019D01*
X115040D01*
X114942Y64254D01*
X115375Y64687D01*
X115608Y64783D01*
X115728Y65075D01*
Y70155D01*
X115608Y70446D01*
X114236Y71818D01*
X113944Y71939D01*
X110788D01*
X109709Y73018D01*
Y76834D01*
X110065Y76981D01*
X110383Y77749D01*
X110065Y78518D01*
X109296Y78836D01*
X108528Y78518D01*
X108209Y77749D01*
X108528Y76981D01*
X108884Y76834D01*
Y72847D01*
X109005Y72556D01*
X110325Y71235D01*
X110617Y71114D01*
X113774D01*
X114904Y69984D01*
Y65110D01*
X114207Y64413D01*
X113809D01*
X113753Y64497D01*
X113686Y64659D01*
Y68262D01*
X113782Y68494D01*
X113661Y68786D01*
X111975Y70472D01*
X111684Y70593D01*
X106698D01*
X104629Y72662D01*
Y76834D01*
X104985Y76981D01*
X105303Y77749D01*
X104985Y78518D01*
X104216Y78836D01*
X103448Y78518D01*
X103129Y77749D01*
X103448Y76981D01*
X103804Y76834D01*
Y72492D01*
X103925Y72200D01*
X105932Y70192D01*
X105835Y69958D01*
X103904D01*
X102089Y71773D01*
Y76834D01*
X102445Y76981D01*
X102763Y77749D01*
X102445Y78518D01*
X101676Y78836D01*
X100908Y78518D01*
X100589Y77749D01*
X100908Y76981D01*
X101264Y76834D01*
Y71603D01*
X101348Y71400D01*
X101132Y71257D01*
X100920Y71469D01*
Y74879D01*
X100799Y75171D01*
X99733Y76238D01*
X99441Y76358D01*
X96030D01*
X94995Y77393D01*
X95143Y77749D01*
X94825Y78518D01*
X94056Y78836D01*
X93288Y78518D01*
X92969Y77749D01*
X93288Y76981D01*
X94056Y76663D01*
X94412Y76810D01*
X95568Y75654D01*
X95860Y75534D01*
X99270D01*
X100095Y74708D01*
Y71298D01*
X100216Y71006D01*
X101250Y69972D01*
X101153Y69738D01*
X100158D01*
Y69346D01*
X98608D01*
X98555Y69472D01*
X98069Y69674D01*
X97583Y69472D01*
X97382Y68986D01*
X97583Y68500D01*
X98069Y68299D01*
X98555Y68500D01*
X98564Y68521D01*
X100158D01*
Y68130D01*
X100158D01*
Y68038D01*
X100158D01*
Y66430D01*
X100253D01*
X100422Y66176D01*
X100303Y65888D01*
X100504Y65402D01*
X100990Y65200D01*
X101476Y65402D01*
X101678Y65888D01*
X101558Y66176D01*
X101666Y66430D01*
X101666D01*
Y66821D01*
X109098D01*
X111532Y64388D01*
X111569Y64297D01*
X111486Y64097D01*
X111430Y64013D01*
X107744D01*
X107512Y64109D01*
X107220Y63988D01*
X105239Y62007D01*
X98189D01*
X96755Y63442D01*
Y71298D01*
X96634Y71589D01*
X93941Y74282D01*
X93650Y74403D01*
X87826D01*
X84835Y77393D01*
X84983Y77749D01*
X84665Y78518D01*
X83896Y78836D01*
X83128Y78518D01*
X82809Y77749D01*
X83128Y76981D01*
X83896Y76663D01*
X84252Y76810D01*
X86832Y74231D01*
X86734Y73996D01*
X84023D01*
X83732Y73875D01*
X83569Y73713D01*
X83354Y73857D01*
X83441Y74066D01*
X83239Y74552D01*
X82753Y74754D01*
X82267Y74552D01*
X82066Y74066D01*
X81859Y73901D01*
X81531Y73765D01*
X81329Y73279D01*
X81378Y73162D01*
X81198Y72982D01*
X81153Y73001D01*
X80667Y72800D01*
X80466Y72314D01*
X80667Y71828D01*
X80586Y71587D01*
X80144D01*
Y75954D01*
X81000Y76810D01*
X81356Y76663D01*
X82125Y76981D01*
X82443Y77749D01*
X82125Y78518D01*
X81356Y78836D01*
X80588Y78518D01*
X80269Y77749D01*
X80417Y77393D01*
X79483Y76459D01*
X79283Y76506D01*
X79229Y76537D01*
Y76834D01*
X79585Y76981D01*
X79903Y77749D01*
X79585Y78518D01*
X78816Y78836D01*
X78048Y78518D01*
X77729Y77749D01*
X78048Y76981D01*
X78404Y76834D01*
Y76564D01*
X78150Y76459D01*
X77215Y77393D01*
X77363Y77749D01*
X77045Y78518D01*
X76276Y78836D01*
X75508Y78518D01*
X75189Y77749D01*
X75508Y76981D01*
X75968Y76790D01*
X75918Y76536D01*
X75533D01*
X74675Y77393D01*
X74823Y77749D01*
X74505Y78518D01*
X73736Y78836D01*
X72968Y78518D01*
X72649Y77749D01*
X72968Y76981D01*
X73736Y76663D01*
X74092Y76810D01*
X75070Y75832D01*
X75362Y75711D01*
X76263D01*
X76313Y75457D01*
X75968Y75314D01*
X75938Y75241D01*
X75074D01*
Y75303D01*
X73466D01*
Y75303D01*
X73374D01*
Y75303D01*
X72697D01*
Y74549D01*
X72443D01*
Y75303D01*
X71766D01*
X71609Y75492D01*
Y76834D01*
X71965Y76981D01*
X72283Y77749D01*
X71965Y78518D01*
X71196Y78836D01*
X70428Y78518D01*
X70109Y77749D01*
X70428Y76981D01*
X70784Y76834D01*
Y76564D01*
X70530Y76459D01*
X69595Y77393D01*
X69743Y77749D01*
X69425Y78518D01*
X68656Y78836D01*
X67888Y78518D01*
X67569Y77749D01*
X67888Y76981D01*
X68656Y76663D01*
X69012Y76810D01*
X70022Y75801D01*
Y75343D01*
X69787Y75246D01*
X68719Y76314D01*
X68428Y76435D01*
X68014D01*
X67055Y77393D01*
X67203Y77749D01*
X66885Y78518D01*
X66116Y78836D01*
X65348Y78518D01*
X65029Y77749D01*
X65348Y76981D01*
X66116Y76663D01*
X66472Y76810D01*
X67552Y75731D01*
X67843Y75610D01*
X68257D01*
X68780Y75087D01*
X68720Y74787D01*
X68420Y74663D01*
X68166Y74753D01*
Y74970D01*
X66658D01*
Y73524D01*
X66658Y73362D01*
X66658Y73108D01*
Y71662D01*
X66999D01*
Y71321D01*
X67120Y71030D01*
X67261Y70888D01*
X67117Y70673D01*
X67046Y70703D01*
Y70068D01*
X66792D01*
Y70703D01*
X66625Y70634D01*
X66357Y70798D01*
X66348Y70820D01*
X66267Y71043D01*
X66348Y71267D01*
X66390Y71368D01*
X66348Y71470D01*
X66267Y71693D01*
X66348Y71917D01*
X66390Y72018D01*
X66348Y72120D01*
X66267Y72343D01*
X66339Y72541D01*
X65253D01*
X64167D01*
X64238Y72343D01*
X64157Y72120D01*
X64115Y72018D01*
X64157Y71917D01*
X64238Y71693D01*
X64157Y71470D01*
X64115Y71368D01*
X64157Y71267D01*
X64238Y71043D01*
X64157Y70820D01*
X64115Y70718D01*
X64157Y70617D01*
X64238Y70393D01*
X64167Y70195D01*
X65253D01*
Y69941D01*
X64167D01*
X64238Y69743D01*
X64157Y69520D01*
X64115Y69418D01*
X64157Y69317D01*
X64238Y69093D01*
X64157Y68870D01*
X64115Y68768D01*
X64157Y68667D01*
X64238Y68443D01*
X64157Y68220D01*
X64115Y68118D01*
X64157Y68017D01*
X64238Y67793D01*
X64157Y67570D01*
X64115Y67468D01*
X64157Y67367D01*
X64238Y67143D01*
X64157Y66920D01*
X64115Y66818D01*
X64191Y66636D01*
X64149Y66572D01*
X64149D01*
Y65764D01*
X65232D01*
X65253Y65756D01*
X66360D01*
X66391Y65682D01*
X66877Y65481D01*
X67363Y65682D01*
X67564Y66168D01*
X67363Y66654D01*
X66877Y66856D01*
X66625Y66751D01*
X66351Y66912D01*
X66348Y66920D01*
X66267Y67143D01*
X66348Y67367D01*
X66390Y67468D01*
X66348Y67570D01*
X66267Y67793D01*
X66348Y68017D01*
X66390Y68118D01*
X66379Y68145D01*
X66404Y68182D01*
X66621Y68297D01*
X67107Y68096D01*
X67496Y68257D01*
X67750Y68122D01*
Y67725D01*
X67750D01*
X67663Y67507D01*
X67486Y67081D01*
X67688Y66595D01*
X68174Y66394D01*
X68660Y66595D01*
X68861Y67081D01*
X68699Y67471D01*
X68834Y67725D01*
X69258Y67725D01*
X69336Y67504D01*
Y64456D01*
X69334Y64202D01*
X69082Y64202D01*
X67826D01*
Y63785D01*
X67150D01*
Y64202D01*
X65642D01*
Y63785D01*
X61457D01*
Y64965D01*
X61066D01*
Y72951D01*
X60945Y73242D01*
X60577Y73610D01*
X60286Y73731D01*
X59970D01*
X59829Y73942D01*
X59840Y73968D01*
X59798Y74070D01*
X59717Y74293D01*
X59798Y74517D01*
X59840Y74618D01*
X59712Y74927D01*
X59474Y75026D01*
X59309Y75290D01*
X59412Y75540D01*
X59211Y76026D01*
X58725Y76227D01*
X58239Y76026D01*
X58037Y75540D01*
X58151Y75267D01*
X58046Y75110D01*
X57969Y75042D01*
X57693Y74927D01*
X57565Y74618D01*
X57576Y74592D01*
X57435Y74381D01*
X57077D01*
X56786Y74260D01*
X56096Y73571D01*
X55976Y73279D01*
Y71635D01*
X55741Y71589D01*
Y71589D01*
X54707D01*
X54491Y71681D01*
X54491Y71843D01*
Y76189D01*
X51483D01*
Y71843D01*
X51483Y71681D01*
X51267Y71589D01*
X51091D01*
X51027Y71685D01*
X50812Y72204D01*
X50292Y72420D01*
X49772Y72204D01*
X49557Y71685D01*
X49726Y71276D01*
X49442Y71158D01*
X49111Y70827D01*
X48991Y70536D01*
Y67289D01*
X46033D01*
Y62781D01*
X49041D01*
Y62781D01*
X49292Y62774D01*
X50064Y62002D01*
X49967Y61767D01*
X48723D01*
Y59759D01*
X51731D01*
Y61538D01*
X56515D01*
X56807Y61659D01*
X58108Y62961D01*
X65462D01*
X65642Y62781D01*
X65642Y62594D01*
X65642Y62340D01*
Y61891D01*
X65388Y61721D01*
X65075Y61851D01*
X64589Y61649D01*
X64387Y61163D01*
X64574Y60712D01*
X64476Y60458D01*
X60808D01*
X60516Y60337D01*
X55461Y55283D01*
X55341Y54991D01*
Y53485D01*
X54086Y52230D01*
X52010D01*
X51896Y52484D01*
X52072Y52908D01*
X51870Y53394D01*
X51384Y53596D01*
X50898Y53394D01*
X50872Y53330D01*
X50481D01*
Y54706D01*
X50889D01*
X50898Y54683D01*
X51384Y54481D01*
X51870Y54683D01*
X52072Y55169D01*
X51870Y55655D01*
X51384Y55856D01*
X50898Y55655D01*
X50847Y55530D01*
X50481D01*
Y56091D01*
X49352D01*
X48223D01*
Y55564D01*
Y54430D01*
X47897D01*
X47605Y54310D01*
X47003Y53708D01*
X46882Y53416D01*
Y49454D01*
X47003Y49162D01*
X47714Y48451D01*
X48006Y48330D01*
X59309D01*
X59601Y48451D01*
X61023Y49873D01*
X61144Y50165D01*
Y53931D01*
X62214Y55002D01*
X64907D01*
X65004Y54767D01*
X64656Y54419D01*
X64535Y54127D01*
Y48717D01*
Y45491D01*
X64656Y45200D01*
X65088Y44768D01*
X65261Y44696D01*
Y44374D01*
X65261Y44306D01*
X65097Y44120D01*
X45720D01*
Y78786D01*
X45720Y79045D01*
X45953Y79096D01*
X123596D01*
Y44171D01*
D02*
G37*
G36*
X82590Y68825D02*
X82499Y68605D01*
X83134D01*
Y68478D01*
X83261D01*
Y67782D01*
X83530Y67670D01*
X83728D01*
Y66719D01*
Y65495D01*
X83329D01*
X83042Y65614D01*
X82516D01*
X82224Y65493D01*
X81898Y65168D01*
X81680Y65224D01*
X81644Y65246D01*
Y69079D01*
X82431D01*
X82590Y68825D01*
D02*
G37*
G36*
X75999Y74266D02*
X75965Y73994D01*
X75841Y73943D01*
X75640Y73457D01*
X75841Y72971D01*
X75866Y72960D01*
X75866Y72927D01*
X75665Y72441D01*
X75866Y71955D01*
X76142Y71841D01*
X76092Y71587D01*
X75368D01*
Y70745D01*
X74731D01*
X74679Y70869D01*
X74381Y70993D01*
X74286Y71062D01*
X74225Y71305D01*
X74561Y71641D01*
X74633Y71814D01*
X75074D01*
Y73322D01*
X74682D01*
Y73795D01*
X75074D01*
Y74416D01*
X75846D01*
X75999Y74266D01*
D02*
G37*
G36*
X68885Y73481D02*
X69125Y73580D01*
X69336Y73439D01*
Y71255D01*
X69258Y71033D01*
X69082Y71033D01*
X68283D01*
X67908Y71408D01*
X68013Y71662D01*
X68166D01*
Y73108D01*
X68166Y73270D01*
X68166Y73583D01*
X68420Y73673D01*
X68885Y73481D01*
D02*
G37*
G36*
X72238Y70231D02*
X72597Y70380D01*
X72717Y70670D01*
X72992D01*
X72996Y70659D01*
X73294Y70536D01*
X73506Y70383D01*
X73707Y69897D01*
X73768Y69872D01*
Y69598D01*
X73690Y69566D01*
X73570Y69274D01*
Y68947D01*
X72728D01*
Y68758D01*
X72474Y68639D01*
X72060Y68810D01*
X71820Y68711D01*
X71609Y68852D01*
Y70112D01*
X71863Y70281D01*
X71984Y70231D01*
Y70866D01*
X72238D01*
Y70231D01*
D02*
G37*
G36*
X84210Y72828D02*
Y71966D01*
X84570D01*
Y71238D01*
X84477Y71200D01*
X84276Y70714D01*
X84477Y70228D01*
X84570Y70189D01*
Y68947D01*
X83795D01*
X83675Y69026D01*
X83596Y69146D01*
Y70216D01*
X83644Y70333D01*
Y72622D01*
X83956Y72933D01*
X84210Y72828D01*
D02*
G37*
G36*
X57399Y73499D02*
X57565Y73318D01*
X57607Y73217D01*
X57688Y72993D01*
X57617Y72795D01*
X58703D01*
Y72541D01*
X57617D01*
X57688Y72343D01*
X57607Y72120D01*
X57565Y72018D01*
X57607Y71917D01*
X57688Y71693D01*
X57607Y71470D01*
X57565Y71368D01*
X57607Y71267D01*
X57688Y71043D01*
X57617Y70845D01*
X58703D01*
Y70591D01*
X57617D01*
X57688Y70393D01*
X57612Y70183D01*
X57331Y70044D01*
X57125Y70129D01*
Y69494D01*
X56998D01*
Y69367D01*
X56363D01*
X56512Y69008D01*
X56585Y68978D01*
Y68682D01*
X56706Y68390D01*
X57269Y67827D01*
X57561Y67706D01*
X57624Y67611D01*
X57618Y67595D01*
X58703D01*
Y67341D01*
X57617D01*
X57688Y67143D01*
X57607Y66920D01*
X57565Y66818D01*
X57607Y66717D01*
X57688Y66493D01*
X57607Y66270D01*
X57565Y66168D01*
X57595Y66097D01*
X57455Y65843D01*
X57163Y65722D01*
X56706Y65265D01*
X56585Y64973D01*
Y64313D01*
X56706Y64021D01*
X57354Y63373D01*
X56344Y62363D01*
X50869D01*
X49815Y63417D01*
Y66518D01*
X50027Y66660D01*
X50292Y66550D01*
X50812Y66765D01*
X51027Y67285D01*
X51091Y67381D01*
X51267D01*
X51483Y67289D01*
X51483Y67127D01*
Y62781D01*
X54491D01*
Y67127D01*
X54491Y67289D01*
X54707Y67381D01*
X55068D01*
X55140Y67136D01*
X54991Y66777D01*
X56261D01*
X56112Y67136D01*
X56038Y67166D01*
Y67793D01*
X55918Y68084D01*
X55826Y68176D01*
X55741Y68211D01*
Y68558D01*
X53237D01*
Y68812D01*
X55741D01*
Y68981D01*
Y69872D01*
X56111D01*
X56209Y69912D01*
X56403Y69718D01*
X56363Y69621D01*
X56871D01*
Y70136D01*
X56861Y70142D01*
X56707Y70336D01*
X56800Y70561D01*
Y73108D01*
X57205Y73512D01*
X57399Y73499D01*
D02*
G37*
G36*
X97505Y55277D02*
Y54574D01*
X97237Y54463D01*
X96955Y53783D01*
Y51373D01*
X97185Y50816D01*
X97035Y50562D01*
X96259D01*
X96109Y50816D01*
X96339Y51373D01*
Y53783D01*
X96057Y54463D01*
X95789Y54574D01*
Y56633D01*
X96043Y56739D01*
X97505Y55277D01*
D02*
G37*
G36*
X71266Y54832D02*
X70503Y54069D01*
X69691D01*
X69529Y54069D01*
X69275Y54069D01*
X68760D01*
Y53315D01*
X68633D01*
Y53188D01*
X67829D01*
Y52561D01*
X67903D01*
X68073Y52307D01*
X67960Y52033D01*
X67709Y51975D01*
X67542Y52378D01*
X67056Y52580D01*
X66570Y52378D01*
X66369Y51892D01*
X66486Y51608D01*
X66317Y51354D01*
X65787D01*
Y50296D01*
X66059D01*
X66109Y50042D01*
X65911Y49960D01*
X65796Y49682D01*
X68286D01*
X68171Y49960D01*
X67972Y50042D01*
X68023Y50296D01*
X68295D01*
Y51171D01*
X68504Y51310D01*
Y51994D01*
X68631D01*
Y52121D01*
X69266D01*
X69189Y52307D01*
X69358Y52561D01*
X69666Y52561D01*
X69920Y52502D01*
Y50971D01*
X69355Y50406D01*
X69234Y50114D01*
Y48964D01*
X68968Y48698D01*
X68153D01*
X67947Y48783D01*
Y49058D01*
X68171Y49151D01*
X68286Y49428D01*
X65796D01*
X65911Y49151D01*
X66135Y49058D01*
Y48815D01*
X65916Y48698D01*
X65550D01*
X65360Y48888D01*
Y52478D01*
X65571Y52619D01*
X65735Y52551D01*
X66221Y52752D01*
X66423Y53238D01*
X66221Y53724D01*
X65735Y53926D01*
X65656Y53893D01*
X65512Y54108D01*
X65997Y54593D01*
X66972D01*
Y55002D01*
X67663D01*
Y54610D01*
X69171D01*
Y55002D01*
X70070D01*
X70361Y55122D01*
X70827Y55588D01*
X70948Y55880D01*
Y56676D01*
X71266D01*
Y54832D01*
D02*
G37*
G36*
X94965Y56598D02*
Y54574D01*
X94697Y54463D01*
X94415Y53783D01*
Y51373D01*
X94645Y50816D01*
X94495Y50562D01*
X93719D01*
X93569Y50816D01*
X93799Y51373D01*
Y53783D01*
X93517Y54463D01*
X93249Y54574D01*
Y55912D01*
X93865Y56528D01*
X93986Y56820D01*
Y57218D01*
X94240Y57323D01*
X94965Y56598D01*
D02*
G37*
G36*
X66135Y47788D02*
Y47513D01*
X65911Y47420D01*
X65743Y47015D01*
X65911Y46611D01*
X66316Y46443D01*
X66993D01*
X67134Y46232D01*
X67132Y46228D01*
X68402D01*
X68352Y46349D01*
X68522Y46603D01*
X69003D01*
X69034Y46529D01*
X69107Y46499D01*
Y45932D01*
X69034Y45901D01*
X68832Y45415D01*
X69034Y44929D01*
X69520Y44728D01*
X70006Y44929D01*
X70077Y45102D01*
X70372Y45149D01*
X70778Y44743D01*
X71069Y44622D01*
X71181Y44510D01*
X71173Y44229D01*
X71045Y44120D01*
X68734D01*
X68569Y44306D01*
X68569Y44374D01*
Y44933D01*
X67765D01*
Y45187D01*
X68569D01*
Y45814D01*
X68564D01*
X68457Y45974D01*
X67076D01*
X66961Y45814D01*
X66869D01*
Y45814D01*
X65360D01*
Y47860D01*
X65380Y47873D01*
X65929D01*
X66135Y47788D01*
D02*
G37*
G36*
X99568Y54509D02*
Y50489D01*
X99385Y50313D01*
X99296Y50401D01*
X98908Y50562D01*
X98799D01*
X98649Y50816D01*
X98879Y51373D01*
Y53783D01*
X98597Y54463D01*
X98329Y54574D01*
Y55389D01*
X98502Y55496D01*
X98564Y55513D01*
X99568Y54509D01*
D02*
G37*
G36*
X111242Y61829D02*
X109033Y59620D01*
X103173D01*
X103153Y59668D01*
X102667Y59869D01*
X102181Y59668D01*
X102161Y59620D01*
X101716D01*
Y59961D01*
X101039D01*
X100914Y60215D01*
X100993Y60319D01*
X107747D01*
X108038Y60440D01*
X109350Y61751D01*
X109423Y61720D01*
X109909Y61922D01*
X109940Y61995D01*
X110981D01*
X111098Y62044D01*
X111242Y61829D01*
D02*
G37*
G36*
X111272Y63146D02*
X110946Y62820D01*
X109940D01*
X109909Y62894D01*
X109423Y63095D01*
X108937Y62894D01*
X108736Y62408D01*
X108766Y62334D01*
X107576Y61144D01*
X105901D01*
X105796Y61398D01*
X107779Y63381D01*
X111174D01*
X111272Y63146D01*
D02*
G37*
G36*
X76594Y63056D02*
X76769Y62984D01*
Y62709D01*
X76603Y62640D01*
X76402Y62154D01*
X76603Y61668D01*
X77089Y61466D01*
X77124Y61481D01*
X77320Y61322D01*
Y60587D01*
X75435D01*
X75315Y60666D01*
X75236Y60786D01*
Y60956D01*
X74109D01*
Y60719D01*
X75169D01*
X75289Y60639D01*
X75368Y60519D01*
Y59745D01*
X74065D01*
X73773Y59624D01*
X73581Y59432D01*
X73332Y59482D01*
X73255Y59666D01*
X72769Y59868D01*
X72283Y59666D01*
X72253Y59593D01*
X71290D01*
Y59984D01*
X69782D01*
Y59593D01*
X68854D01*
X68457Y59990D01*
X68480Y60046D01*
X68279Y60532D01*
X68016Y60640D01*
X68066Y60894D01*
X68453D01*
Y61571D01*
X67826D01*
Y60968D01*
X67813Y60873D01*
X67698Y60694D01*
X67307Y60532D01*
X67276Y60458D01*
X65711D01*
X65605Y60684D01*
X65726Y60894D01*
X66269D01*
Y61698D01*
X66396D01*
Y61825D01*
X67150D01*
Y62340D01*
X67150Y62502D01*
X67150Y62781D01*
X67329Y62961D01*
X67646D01*
X67826Y62781D01*
X67826Y62594D01*
X67826Y62340D01*
Y61825D01*
X68580D01*
Y61698D01*
X68707D01*
Y60894D01*
X69334D01*
Y61010D01*
X69588Y61160D01*
X69825Y61062D01*
Y61697D01*
X70079D01*
Y61062D01*
X70438Y61211D01*
X70499Y61359D01*
X70748Y61409D01*
X70866Y61291D01*
X71158Y61170D01*
X72728D01*
Y60719D01*
X73855D01*
Y61083D01*
X73982D01*
Y61170D01*
X74077Y61210D01*
X75236D01*
Y61719D01*
Y62719D01*
Y63670D01*
X75980D01*
X76594Y63056D01*
D02*
G37*
G36*
X75368Y58079D02*
X75211Y57890D01*
X75172Y57873D01*
X74550Y57251D01*
X74429Y56960D01*
Y56915D01*
X73987D01*
Y55924D01*
X73652D01*
Y56301D01*
X72144D01*
X72091Y56533D01*
Y56776D01*
X74235Y58920D01*
X75368D01*
Y58079D01*
D02*
G37*
G36*
X67307Y59560D02*
X67793Y59358D01*
X67884Y59396D01*
X68392Y58889D01*
X68683Y58768D01*
X69782D01*
Y58376D01*
X69782D01*
Y58284D01*
X69782D01*
Y56676D01*
X70123D01*
Y56051D01*
X69899Y55826D01*
X69351D01*
X69171Y56006D01*
X69171Y56218D01*
X69171Y56472D01*
Y56987D01*
X68417D01*
X67663D01*
Y56472D01*
X67663Y56310D01*
X67663Y56080D01*
X67604Y55826D01*
X67151D01*
X66972Y56006D01*
X66972Y56201D01*
X66972Y56455D01*
Y56970D01*
X66218D01*
Y57097D01*
X66091D01*
Y57901D01*
X65464D01*
Y57831D01*
X65253Y57690D01*
X65151Y57732D01*
Y57097D01*
Y56463D01*
X65253Y56505D01*
X65464Y56364D01*
X65464Y56080D01*
X65365Y55826D01*
X62043D01*
X61752Y55706D01*
X60440Y54394D01*
X60319Y54102D01*
Y50336D01*
X59138Y49155D01*
X48177D01*
X47707Y49625D01*
Y53245D01*
X47969Y53507D01*
X48223Y53402D01*
Y52264D01*
Y51164D01*
Y50064D01*
X50481D01*
Y51406D01*
X54256D01*
X54548Y51526D01*
X56045Y53023D01*
X56165Y53315D01*
Y54820D01*
X60978Y59633D01*
X61405D01*
X61412Y59382D01*
X61412Y59379D01*
Y57374D01*
X63920D01*
Y59379D01*
X63920Y59382D01*
X63927Y59633D01*
X64781D01*
X64879Y59379D01*
X64692Y58928D01*
X64894Y58442D01*
X65380Y58241D01*
X65866Y58442D01*
X66067Y58928D01*
X65880Y59379D01*
X65978Y59633D01*
X67276D01*
X67307Y59560D01*
D02*
G37*
G36*
X93534Y72354D02*
X93475Y72054D01*
X93231Y71953D01*
X93033Y71956D01*
X92936Y71989D01*
X92456Y72188D01*
X91970Y71987D01*
X91769Y71501D01*
X91970Y71015D01*
X92456Y70814D01*
X92530Y70844D01*
X93949Y69425D01*
Y68639D01*
X93695Y68534D01*
X90751Y71478D01*
X90781Y71552D01*
X90580Y72038D01*
X90094Y72239D01*
X89608Y72038D01*
X89406Y71552D01*
X89507Y71310D01*
X89312Y71115D01*
X88976Y71255D01*
X88199Y70932D01*
X87876Y70155D01*
X88199Y69377D01*
X88918Y69079D01*
X88867Y68825D01*
X88331D01*
Y68825D01*
X88146Y68701D01*
X87884Y68810D01*
X87398Y68609D01*
X87346Y68484D01*
X86867D01*
X86576Y68363D01*
X86490Y68277D01*
X86236Y68382D01*
Y68947D01*
X85394D01*
Y70205D01*
X85449Y70228D01*
X85566Y70509D01*
X85721Y70684D01*
X85885Y70617D01*
X86081Y70536D01*
Y71171D01*
X86208D01*
Y71298D01*
X86918D01*
X87005Y71385D01*
X87126Y71677D01*
Y71966D01*
X87518D01*
Y72593D01*
X86714D01*
Y72847D01*
X87518D01*
Y73171D01*
X92717D01*
X93534Y72354D01*
D02*
G37*
%LPC*%
G36*
X82702Y61747D02*
X82343Y61598D01*
X82195Y61239D01*
X82702D01*
Y61747D01*
D02*
G37*
G36*
X123000Y78753D02*
X122123D01*
Y77876D01*
X123000D01*
Y78753D01*
D02*
G37*
G36*
X75695Y51384D02*
X74968D01*
Y50107D01*
X75695D01*
Y51384D01*
D02*
G37*
G36*
X90170Y52451D02*
X89335D01*
Y51373D01*
X89617Y50693D01*
X90170Y50463D01*
Y52451D01*
D02*
G37*
G36*
X119329Y78784D02*
X118688Y78518D01*
X118422Y77876D01*
X119329D01*
Y78784D01*
D02*
G37*
G36*
X121869Y78753D02*
X120992D01*
Y77876D01*
X121869D01*
Y78753D01*
D02*
G37*
G36*
X111989Y50343D02*
X111362D01*
Y49666D01*
X111989D01*
Y50343D01*
D02*
G37*
G36*
X80215Y49420D02*
X79538D01*
Y48793D01*
X80215D01*
Y49420D01*
D02*
G37*
G36*
X112870Y50343D02*
X112243D01*
Y49666D01*
X112870D01*
Y50343D01*
D02*
G37*
G36*
X74714Y51384D02*
X73987D01*
Y50107D01*
X74714D01*
Y51384D01*
D02*
G37*
G36*
X63920Y51682D02*
X61412D01*
Y49674D01*
X63920D01*
Y51682D01*
D02*
G37*
G36*
X82118Y51511D02*
X81491D01*
Y50834D01*
X82118D01*
Y51511D01*
D02*
G37*
G36*
X74714Y52915D02*
X73987D01*
Y51638D01*
X74714D01*
Y52915D01*
D02*
G37*
G36*
X119271Y52822D02*
X118371D01*
X117947Y52646D01*
X117772Y52222D01*
X117947Y51798D01*
X118371Y51623D01*
X119271D01*
X119695Y51798D01*
X119871Y52222D01*
X119695Y52646D01*
X119271Y52822D01*
D02*
G37*
G36*
X75695Y52915D02*
X74968D01*
Y51638D01*
X75695D01*
Y52915D01*
D02*
G37*
G36*
X90170Y54693D02*
X89617Y54463D01*
X89335Y53783D01*
Y52705D01*
X90170D01*
Y54693D01*
D02*
G37*
G36*
X117418Y53045D02*
X115424D01*
X115547Y52748D01*
X115547Y52646D01*
X115424Y52349D01*
X117418D01*
X117295Y52646D01*
X117295Y52748D01*
X117418Y53045D01*
D02*
G37*
G36*
X80637Y51513D02*
X80010D01*
Y50836D01*
X80637D01*
Y51513D01*
D02*
G37*
G36*
X79756D02*
X79129D01*
Y50836D01*
X79756D01*
Y51513D01*
D02*
G37*
G36*
X117418Y52095D02*
X116548D01*
Y51623D01*
X116871D01*
X117295Y51798D01*
X117418Y52095D01*
D02*
G37*
G36*
X116294D02*
X115424D01*
X115547Y51798D01*
X115971Y51623D01*
X116294D01*
Y52095D01*
D02*
G37*
G36*
X80215Y48539D02*
X79538D01*
Y47912D01*
X80215D01*
Y48539D01*
D02*
G37*
G36*
X106926Y45900D02*
X106299D01*
Y45223D01*
X106926D01*
Y45900D01*
D02*
G37*
G36*
X106045D02*
X105418D01*
Y45223D01*
X106045D01*
Y45900D01*
D02*
G37*
G36*
X108739Y45872D02*
X108062D01*
Y45245D01*
X108739D01*
Y45872D01*
D02*
G37*
G36*
X63070Y47377D02*
X60062D01*
Y45369D01*
X63070D01*
Y47377D01*
D02*
G37*
G36*
X51731D02*
X48723D01*
Y45369D01*
X51731D01*
Y47377D01*
D02*
G37*
G36*
X73863Y45788D02*
Y45161D01*
X74540D01*
Y45788D01*
X73863D01*
D02*
G37*
G36*
X119583Y78784D02*
Y77876D01*
X120490D01*
X120225Y78518D01*
X119583Y78784D01*
D02*
G37*
G36*
X115788Y45847D02*
X115111D01*
Y45220D01*
X115788D01*
Y45847D01*
D02*
G37*
G36*
X104792Y45900D02*
X104165D01*
Y45223D01*
X104792D01*
Y45900D01*
D02*
G37*
G36*
X103911D02*
X103284D01*
Y45223D01*
X103911D01*
Y45900D01*
D02*
G37*
G36*
X85217Y49795D02*
X84537Y49513D01*
X84255Y48833D01*
Y46423D01*
X84537Y45743D01*
X85217Y45461D01*
X85897Y45743D01*
X86179Y46423D01*
Y48833D01*
X85897Y49513D01*
X85217Y49795D01*
D02*
G37*
G36*
X120007Y46255D02*
X119380D01*
Y45578D01*
X120007D01*
Y46255D01*
D02*
G37*
G36*
X119126D02*
X118499D01*
Y45578D01*
X119126D01*
Y46255D01*
D02*
G37*
G36*
X80240Y46482D02*
X79563D01*
Y45855D01*
X80240D01*
Y46482D01*
D02*
G37*
G36*
Y47363D02*
X79563D01*
Y46736D01*
X80240D01*
Y47363D01*
D02*
G37*
G36*
X108739Y46753D02*
X108062D01*
Y46126D01*
X108739D01*
Y46753D01*
D02*
G37*
G36*
X117069Y46230D02*
X116442D01*
Y45553D01*
X117069D01*
Y46230D01*
D02*
G37*
G36*
X87757Y49795D02*
X87077Y49513D01*
X86795Y48833D01*
Y46423D01*
X87077Y45743D01*
X87757Y45461D01*
X88437Y45743D01*
X88719Y46423D01*
Y48833D01*
X88437Y49513D01*
X87757Y49795D01*
D02*
G37*
G36*
X117950Y46230D02*
X117323D01*
Y45553D01*
X117950D01*
Y46230D01*
D02*
G37*
G36*
X122090Y46253D02*
X121463D01*
Y45576D01*
X122090D01*
Y46253D01*
D02*
G37*
G36*
X121209D02*
X120582D01*
Y45576D01*
X121209D01*
Y46253D01*
D02*
G37*
G36*
X114376Y78836D02*
X113608Y78518D01*
X113289Y77749D01*
X113608Y76981D01*
X114376Y76663D01*
X115145Y76981D01*
X115463Y77749D01*
X115145Y78518D01*
X114376Y78836D01*
D02*
G37*
G36*
X121620Y65525D02*
X120468Y65048D01*
X119992Y63897D01*
X120468Y62746D01*
X121620Y62269D01*
X122771Y62746D01*
X123248Y63897D01*
X122771Y65048D01*
X121620Y65525D01*
D02*
G37*
G36*
X111836Y78836D02*
X111068Y78518D01*
X110749Y77749D01*
X111068Y76981D01*
X111836Y76663D01*
X112605Y76981D01*
X112923Y77749D01*
X112605Y78518D01*
X111836Y78836D01*
D02*
G37*
G36*
X99136D02*
X98368Y78518D01*
X98049Y77749D01*
X98368Y76981D01*
X99136Y76663D01*
X99905Y76981D01*
X100223Y77749D01*
X99905Y78518D01*
X99136Y78836D01*
D02*
G37*
G36*
X106756D02*
X105988Y78518D01*
X105669Y77749D01*
X105988Y76981D01*
X106756Y76663D01*
X107525Y76981D01*
X107843Y77749D01*
X107525Y78518D01*
X106756Y78836D01*
D02*
G37*
G36*
X92100Y62326D02*
Y61456D01*
X92573D01*
Y61779D01*
X92397Y62203D01*
X92100Y62326D01*
D02*
G37*
G36*
X116916Y78836D02*
X116148Y78518D01*
X115829Y77749D01*
X116148Y76981D01*
X116916Y76663D01*
X117685Y76981D01*
X118003Y77749D01*
X117685Y78518D01*
X116916Y78836D01*
D02*
G37*
G36*
X103620Y65525D02*
X102468Y65048D01*
X101992Y63897D01*
X102468Y62746D01*
X103620Y62269D01*
X104771Y62746D01*
X105248Y63897D01*
X104771Y65048D01*
X103620Y65525D01*
D02*
G37*
G36*
X91846Y62326D02*
X91549Y62203D01*
X91447Y62203D01*
X91150Y62326D01*
Y61329D01*
Y60332D01*
X91447Y60455D01*
X91549Y60455D01*
X91846Y60332D01*
Y61329D01*
Y62326D01*
D02*
G37*
G36*
X63576Y78836D02*
X62808Y78518D01*
X62489Y77749D01*
X62808Y76981D01*
X63576Y76663D01*
X64345Y76981D01*
X64663Y77749D01*
X64345Y78518D01*
X63576Y78836D01*
D02*
G37*
G36*
X86436D02*
X85668Y78518D01*
X85349Y77749D01*
X85668Y76981D01*
X86436Y76663D01*
X87205Y76981D01*
X87523Y77749D01*
X87205Y78518D01*
X86436Y78836D01*
D02*
G37*
G36*
X49041Y76189D02*
X46033D01*
Y71681D01*
X49041D01*
Y76189D01*
D02*
G37*
G36*
X65953Y75055D02*
X64553D01*
X64243Y74927D01*
X64115Y74618D01*
X64157Y74517D01*
X64238Y74293D01*
X64157Y74070D01*
X64115Y73968D01*
X64157Y73867D01*
X64238Y73643D01*
X64157Y73420D01*
X64115Y73318D01*
X64157Y73217D01*
X64238Y72993D01*
X64167Y72795D01*
X65253D01*
X66339D01*
X66267Y72993D01*
X66348Y73217D01*
X66390Y73318D01*
X66348Y73420D01*
X66267Y73643D01*
X66348Y73867D01*
X66390Y73968D01*
X66348Y74070D01*
X66267Y74293D01*
X66348Y74517D01*
X66390Y74618D01*
X66262Y74927D01*
X65953Y75055D01*
D02*
G37*
G36*
X96596Y78836D02*
X95828Y78518D01*
X95509Y77749D01*
X95828Y76981D01*
X96596Y76663D01*
X97365Y76981D01*
X97683Y77749D01*
X97365Y78518D01*
X96596Y78836D01*
D02*
G37*
G36*
X91516D02*
X90748Y78518D01*
X90429Y77749D01*
X90748Y76981D01*
X91516Y76663D01*
X92285Y76981D01*
X92603Y77749D01*
X92285Y78518D01*
X91516Y78836D01*
D02*
G37*
G36*
X88976D02*
X88208Y78518D01*
X87889Y77749D01*
X88208Y76981D01*
X88976Y76663D01*
X89745Y76981D01*
X90063Y77749D01*
X89745Y78518D01*
X88976Y78836D01*
D02*
G37*
G36*
X112878Y55186D02*
Y54559D01*
X113555D01*
Y55186D01*
X112878D01*
D02*
G37*
G36*
X77114Y55384D02*
X76387D01*
Y54107D01*
X77114D01*
Y55384D01*
D02*
G37*
G36*
X123000Y77622D02*
X122123D01*
Y76745D01*
X123000D01*
Y77622D01*
D02*
G37*
G36*
X77114Y56915D02*
X76387D01*
Y55638D01*
X77114D01*
Y56915D01*
D02*
G37*
G36*
X84711Y56210D02*
X84034D01*
Y55583D01*
X84711D01*
Y56210D01*
D02*
G37*
G36*
X73652Y53670D02*
X73025D01*
Y52993D01*
X73652D01*
Y53670D01*
D02*
G37*
G36*
X72771D02*
X72144D01*
Y52993D01*
X72771D01*
Y53670D01*
D02*
G37*
G36*
X116357Y57380D02*
X115871Y57179D01*
X115670Y56693D01*
X115808Y56361D01*
Y54676D01*
X115417D01*
Y53568D01*
X115417D01*
X115490Y53459D01*
X115424Y53299D01*
X117418D01*
X117352Y53459D01*
X117425Y53568D01*
X117425D01*
Y54676D01*
X116907D01*
Y56361D01*
X117045Y56693D01*
X116843Y57179D01*
X116357Y57380D01*
D02*
G37*
G36*
X113555Y54305D02*
X112878D01*
Y53678D01*
X113555D01*
Y54305D01*
D02*
G37*
G36*
X121869Y77622D02*
X120992D01*
Y76745D01*
X121869D01*
Y77622D01*
D02*
G37*
G36*
X120490D02*
X119583D01*
Y76715D01*
X120225Y76981D01*
X120490Y77622D01*
D02*
G37*
G36*
X119329D02*
X118422D01*
X118688Y76981D01*
X119329Y76715D01*
Y77622D01*
D02*
G37*
G36*
X92573Y61202D02*
X92100D01*
Y60332D01*
X92397Y60455D01*
X92573Y60879D01*
Y61202D01*
D02*
G37*
G36*
X84711Y57091D02*
X84034D01*
Y56464D01*
X84711D01*
Y57091D01*
D02*
G37*
G36*
X50481Y59072D02*
X48223D01*
Y57764D01*
Y56664D01*
Y56345D01*
X49352D01*
X50481D01*
Y56906D01*
X50846D01*
X50873Y56842D01*
X51359Y56640D01*
X51845Y56842D01*
X52046Y57328D01*
X51845Y57814D01*
X51359Y58015D01*
X50873Y57814D01*
X50838Y57730D01*
X50481D01*
Y59072D01*
D02*
G37*
G36*
X83007Y68351D02*
X82499D01*
X82648Y67992D01*
X83007Y67844D01*
Y68351D01*
D02*
G37*
G36*
X55499Y66523D02*
X54991D01*
X55140Y66164D01*
X55499Y66015D01*
Y66523D01*
D02*
G37*
G36*
X56261D02*
X55753D01*
Y66015D01*
X56112Y66164D01*
X56261Y66523D01*
D02*
G37*
G36*
X69266Y51867D02*
X68758D01*
Y51359D01*
X69117Y51508D01*
X69266Y51867D01*
D02*
G37*
G36*
X68506Y54069D02*
X67829D01*
Y53442D01*
X68506D01*
Y54069D01*
D02*
G37*
G36*
X67150Y61571D02*
X66523D01*
Y60894D01*
X67150D01*
Y61571D01*
D02*
G37*
G36*
X69171Y57918D02*
X68544D01*
Y57241D01*
X69171D01*
Y57918D01*
D02*
G37*
G36*
X68290D02*
X67663D01*
Y57241D01*
X68290D01*
Y57918D01*
D02*
G37*
G36*
X64897Y56970D02*
X64389D01*
X64538Y56611D01*
X64897Y56463D01*
Y56970D01*
D02*
G37*
G36*
X66972Y57901D02*
X66345D01*
Y57224D01*
X66972D01*
Y57901D01*
D02*
G37*
G36*
X64897Y57732D02*
X64538Y57583D01*
X64389Y57224D01*
X64897D01*
Y57732D01*
D02*
G37*
G36*
X86842Y71044D02*
X86335D01*
Y70536D01*
X86694Y70685D01*
X86842Y71044D01*
D02*
G37*
%LPD*%
D10*
X89535Y67201D02*
G03*
X89605Y67198I0J-650D01*
G01*
D11*
X70536Y59180D02*
D03*
Y57480D02*
D03*
X68417Y55414D02*
D03*
Y57114D02*
D03*
X66218Y55397D02*
D03*
Y57097D02*
D03*
X67412Y74166D02*
D03*
Y72466D02*
D03*
X68504Y68529D02*
D03*
Y70229D02*
D03*
X112116Y50470D02*
D03*
Y52170D02*
D03*
X110109Y50444D02*
D03*
Y52144D02*
D03*
X106172Y47727D02*
D03*
Y46027D02*
D03*
X104038Y47727D02*
D03*
Y46027D02*
D03*
X66396Y63398D02*
D03*
Y61698D02*
D03*
X100912Y68934D02*
D03*
Y67234D02*
D03*
X121336Y48080D02*
D03*
Y46380D02*
D03*
X119253Y48082D02*
D03*
Y46382D02*
D03*
X117196Y48057D02*
D03*
Y46357D02*
D03*
X72898Y55497D02*
D03*
Y53797D02*
D03*
X82245Y53338D02*
D03*
Y51638D02*
D03*
X79883Y53340D02*
D03*
Y51640D02*
D03*
X68580Y63398D02*
D03*
Y61698D02*
D03*
D12*
X108113Y53403D02*
D03*
X106213D02*
D03*
X108113Y51003D02*
D03*
X107163D02*
D03*
X91973Y63729D02*
D03*
X90073D02*
D03*
X91973Y61329D02*
D03*
X91023D02*
D03*
D13*
X106213Y51003D02*
D03*
X90073Y61329D02*
D03*
D14*
X90829Y56363D02*
D03*
X89129D02*
D03*
X82067Y46609D02*
D03*
X80367D02*
D03*
X70333Y53315D02*
D03*
X68633D02*
D03*
X86538Y56337D02*
D03*
X84838D02*
D03*
X58953Y64211D02*
D03*
X60653D02*
D03*
X111051Y54432D02*
D03*
X112751D02*
D03*
X99212Y59207D02*
D03*
X100912D02*
D03*
X82042Y48666D02*
D03*
X80342D02*
D03*
X113284Y45974D02*
D03*
X114984D02*
D03*
X110566Y45999D02*
D03*
X108866D02*
D03*
X85014Y72720D02*
D03*
X86714D02*
D03*
X77241Y48666D02*
D03*
X75541D02*
D03*
X72570Y72568D02*
D03*
X74270D02*
D03*
X72570Y74549D02*
D03*
X74270D02*
D03*
X67765Y45060D02*
D03*
X66065D02*
D03*
X73736Y45034D02*
D03*
X72036D02*
D03*
D15*
X85217Y47628D02*
D03*
X87757D02*
D03*
X85217Y52578D02*
D03*
X90297D02*
D03*
X87757D02*
D03*
X90297Y47628D02*
D03*
X92837D02*
D03*
X95377D02*
D03*
X97917D02*
D03*
X100457D02*
D03*
X92837Y52578D02*
D03*
X95377D02*
D03*
X97917D02*
D03*
D16*
X100457D02*
D03*
D17*
X67041Y50825D02*
D03*
D18*
Y49555D02*
D03*
Y48285D02*
D03*
Y47015D02*
D03*
X72441Y50825D02*
D03*
Y49555D02*
D03*
Y48285D02*
D03*
Y47015D02*
D03*
D19*
X53237Y71085D02*
D03*
Y70285D02*
D03*
Y67885D02*
D03*
Y68685D02*
D03*
Y69485D02*
D03*
D20*
X52987Y73935D02*
D03*
X47537D02*
D03*
X52987Y65035D02*
D03*
X47537D02*
D03*
D21*
X90145Y68071D02*
D03*
X88925D02*
D03*
D22*
X89560Y65912D02*
D03*
D23*
X118821Y52222D02*
D03*
Y54122D02*
D03*
X116421Y52222D02*
D03*
Y53172D02*
D03*
D24*
Y54122D02*
D03*
D25*
X111870Y64497D02*
D03*
Y64097D02*
D03*
Y63697D02*
D03*
Y63297D02*
D03*
X112370Y64497D02*
D03*
Y64097D02*
D03*
Y63697D02*
D03*
Y63297D02*
D03*
X112870Y64497D02*
D03*
Y64097D02*
D03*
Y63697D02*
D03*
Y63297D02*
D03*
X113370Y64497D02*
D03*
Y64097D02*
D03*
Y63697D02*
D03*
Y63297D02*
D03*
D26*
X83232Y59333D02*
D03*
X82732D02*
D03*
X82232D02*
D03*
X81732D02*
D03*
X81232D02*
D03*
X80732D02*
D03*
X80232D02*
D03*
X79732D02*
D03*
X79232D02*
D03*
X78732D02*
D03*
X78232D02*
D03*
X77732D02*
D03*
X77232D02*
D03*
X76732D02*
D03*
X76232D02*
D03*
X75732D02*
D03*
Y70333D02*
D03*
X76232D02*
D03*
X76732D02*
D03*
X77232D02*
D03*
X77732D02*
D03*
X78232D02*
D03*
X78732D02*
D03*
X79232D02*
D03*
X79732D02*
D03*
X80232D02*
D03*
X80732D02*
D03*
X81232D02*
D03*
X81732D02*
D03*
X82232D02*
D03*
X82732D02*
D03*
X83232D02*
D03*
D27*
X73982Y61083D02*
D03*
Y61583D02*
D03*
Y62083D02*
D03*
Y62583D02*
D03*
Y63083D02*
D03*
Y63583D02*
D03*
Y64083D02*
D03*
Y64583D02*
D03*
Y65083D02*
D03*
Y65583D02*
D03*
Y66083D02*
D03*
Y66583D02*
D03*
Y67083D02*
D03*
Y67583D02*
D03*
Y68083D02*
D03*
Y68583D02*
D03*
X84982D02*
D03*
Y68083D02*
D03*
Y67583D02*
D03*
Y67083D02*
D03*
Y66583D02*
D03*
Y66083D02*
D03*
Y65583D02*
D03*
Y65083D02*
D03*
Y64583D02*
D03*
Y64083D02*
D03*
Y63583D02*
D03*
Y63083D02*
D03*
Y62583D02*
D03*
Y62083D02*
D03*
Y61583D02*
D03*
D28*
Y61083D02*
D03*
D29*
X79845Y55753D02*
D03*
X82245D02*
D03*
D30*
X74841Y55511D02*
D03*
Y51511D02*
D03*
X77241Y55511D02*
D03*
Y51511D02*
D03*
D31*
X65253Y66168D02*
D03*
D32*
Y66818D02*
D03*
Y67468D02*
D03*
Y68118D02*
D03*
Y68768D02*
D03*
Y69418D02*
D03*
Y70068D02*
D03*
Y70718D02*
D03*
Y71368D02*
D03*
Y72018D02*
D03*
Y72668D02*
D03*
Y73318D02*
D03*
Y73968D02*
D03*
Y74618D02*
D03*
X58703Y66168D02*
D03*
Y66818D02*
D03*
Y67468D02*
D03*
Y68118D02*
D03*
Y68768D02*
D03*
Y69418D02*
D03*
Y70068D02*
D03*
Y70718D02*
D03*
Y71368D02*
D03*
Y72018D02*
D03*
Y72668D02*
D03*
Y73318D02*
D03*
Y73968D02*
D03*
Y74618D02*
D03*
D33*
X62666Y58378D02*
D03*
Y50678D02*
D03*
D34*
X50227Y60763D02*
D03*
X61566Y46373D02*
D03*
X50227D02*
D03*
D35*
X49352Y50718D02*
D03*
Y51818D02*
D03*
Y52918D02*
D03*
Y54018D02*
D03*
Y55118D02*
D03*
Y56218D02*
D03*
Y57318D02*
D03*
Y58418D02*
D03*
D36*
X72570Y72568D02*
Y74549D01*
X65253Y70068D02*
X66919D01*
X68631Y51994D02*
X68633Y51996D01*
Y53315D01*
X86208Y71171D02*
X86714Y71677D01*
Y72720D01*
X76886Y63348D02*
X77826D01*
X101194Y59207D02*
X109068D01*
X100965Y59436D02*
X101194Y59207D01*
X76225Y65253D02*
X77851D01*
X62043Y55414D02*
X68417D01*
X84982Y68583D02*
Y72688D01*
X86867Y68071D02*
X88925D01*
X67765Y46099D02*
X67767Y46101D01*
X67765Y45060D02*
Y46099D01*
X82732Y61015D02*
X82829Y61112D01*
X82732Y59333D02*
Y61015D01*
X69950Y61698D02*
X69952Y61697D01*
X68580Y61698D02*
X69950D01*
X72111Y70866D02*
X72570Y71300D01*
Y72568D01*
X78461Y56718D02*
X78918Y57175D01*
X79903D01*
X80732Y58004D01*
Y59333D01*
X75463Y57582D02*
X79807D01*
X74841Y56960D02*
X75463Y57582D01*
X79807D02*
X80232Y58007D01*
X65024Y57097D02*
X66218D01*
X83134Y68478D02*
X83530Y68083D01*
X84982D01*
X57785Y64643D02*
X58217Y64211D01*
X58953D01*
X55626Y66650D02*
Y67793D01*
X55534Y67885D02*
X55626Y67793D01*
X53237Y67885D02*
X55534D01*
X57937Y63373D02*
X68555D01*
X49733Y70866D02*
X53237D01*
Y71085D01*
X49403Y70536D02*
X49733Y70866D01*
X83161Y65083D02*
X84982D01*
X83042Y65202D02*
X83161Y65083D01*
X82516Y65202D02*
X83042D01*
X82144Y64830D02*
X82516Y65202D01*
X82144Y62509D02*
Y64830D01*
X115390Y48080D02*
X121336D01*
X67793Y60046D02*
X67818D01*
X60808D02*
X67793D01*
X67041Y47015D02*
X69520D01*
X100912Y67234D02*
X109133D01*
X68883Y74166D02*
X68885Y74168D01*
X67412Y74166D02*
X68883D01*
X67412Y71321D02*
X68504Y70229D01*
X67412Y71321D02*
Y72466D01*
X68174Y67081D02*
Y68199D01*
X68504Y68529D01*
X72161Y67081D02*
X72163Y67083D01*
X73982D01*
X84711Y59333D02*
X84760Y59284D01*
X83232Y59333D02*
X84711D01*
X110566Y45999D02*
X110592Y45974D01*
X113284D01*
X115390Y48080D01*
X121336D02*
Y54153D01*
X121305Y54122D02*
X121336Y54153D01*
X118821Y54122D02*
X121305D01*
X118783Y54161D02*
X118821Y54122D01*
X118783Y54161D02*
Y57884D01*
X116357Y54186D02*
X116421Y54122D01*
X112090Y52144D02*
X112116Y52170D01*
X110109Y52144D02*
X112090D01*
X108331Y52222D02*
X110109Y50444D01*
X107393Y52222D02*
X108331D01*
X106213Y53403D02*
X107393Y52222D01*
X103708Y53442D02*
X103747Y53403D01*
X106213D01*
X87757Y56337D02*
X89103D01*
X86538D02*
X87757D01*
X89103D02*
X89129Y56363D01*
X87757Y52578D02*
Y56337D01*
X91592Y47625D02*
X91595Y47628D01*
X92837D01*
X86436Y52603D02*
X86462Y52578D01*
X87757D01*
X92837D02*
Y56083D01*
X93574Y56820D01*
Y68072D01*
X90094Y71552D02*
X93574Y68072D01*
X95377Y52578D02*
Y56769D01*
X94361Y57785D02*
X95377Y56769D01*
X94361Y57785D02*
Y69596D01*
X92456Y71501D02*
X94361Y69596D01*
X81732Y70333D02*
Y71735D01*
X82017Y72415D02*
X82232Y72200D01*
X81153Y72314D02*
X81732Y71735D01*
X82232Y70333D02*
Y72200D01*
X82017Y72415D02*
Y73279D01*
X97917Y52578D02*
Y55448D01*
X95072Y58293D02*
X97917Y55448D01*
X95072Y58293D02*
Y70053D01*
X93675Y71450D02*
X95072Y70053D01*
X82732Y70333D02*
Y74045D01*
X82753Y74066D01*
X100457Y52578D02*
Y54204D01*
X95758Y58903D02*
X100457Y54204D01*
X95758Y58903D02*
Y70714D01*
X92888Y73584D02*
X95758Y70714D01*
X84023Y73584D02*
X92888D01*
X83232Y72793D02*
X84023Y73584D01*
X83232Y70333D02*
Y72793D01*
X88976Y70155D02*
X90145Y68986D01*
Y68071D02*
Y68986D01*
X90073Y63729D02*
X91008Y64663D01*
Y67208D01*
X90145Y68071D02*
X91008Y67208D01*
X84982Y72688D02*
X85014Y72720D01*
X98069Y68986D02*
X98122Y68934D01*
X100912D01*
X94056Y77749D02*
X95860Y75946D01*
X99441D01*
X100508Y74879D01*
Y71298D02*
Y74879D01*
Y71298D02*
X102972Y68834D01*
X108382D01*
X96342Y63271D02*
Y71298D01*
X82423Y48666D02*
X83232Y49475D01*
Y59333D01*
X82042Y46634D02*
X82067Y46609D01*
X82042Y46634D02*
Y48666D01*
X82423D01*
X56998Y68682D02*
Y69494D01*
Y68682D02*
X57561Y68118D01*
X58703D01*
X67041Y51877D02*
X67056Y51892D01*
X67041Y50825D02*
Y51877D01*
X84982Y67583D02*
X86379D01*
X86867Y68071D01*
X70333Y50851D02*
X70358Y50825D01*
X70333Y50851D02*
Y53315D01*
X72441Y51816D02*
X72466Y51841D01*
X72441Y50825D02*
Y51816D01*
X70358Y50825D02*
X72441D01*
X116357Y56693D02*
X116383Y56667D01*
X74065Y59333D02*
X75732D01*
X71679Y56947D02*
X74065Y59333D01*
X71679Y54661D02*
Y56947D01*
X70333Y53315D02*
X71679Y54661D01*
X72898Y55497D02*
X72912Y55511D01*
X74841D01*
X78732Y70333D02*
Y75294D01*
Y59333D02*
Y61511D01*
X79375Y62154D01*
X79732Y70333D02*
Y76125D01*
X78232Y70333D02*
Y75124D01*
X77732Y70333D02*
Y73017D01*
X79232Y70333D02*
Y75810D01*
X78232Y59333D02*
Y62205D01*
X77732Y59333D02*
Y61511D01*
X75555Y64583D02*
X76225Y65253D01*
X107747Y60731D02*
X109423Y62408D01*
X100736Y60731D02*
X107747D01*
X99212Y59207D02*
X100736Y60731D01*
X73982Y64583D02*
X75555D01*
X69647Y50114D02*
X70358Y50825D01*
X69647Y48793D02*
Y50114D01*
X69139Y48285D02*
X69647Y48793D01*
X67041Y48285D02*
X69139D01*
X64948Y54127D02*
X66218Y55397D01*
X64948Y48717D02*
Y54127D01*
Y48717D02*
X65380Y48285D01*
X81232Y61801D02*
Y70333D01*
X73982Y69274D02*
X74760D01*
X73982Y68583D02*
Y69274D01*
X72441Y47015D02*
X74092D01*
X74066Y48285D02*
X74092Y48260D01*
X72441Y48285D02*
X74066D01*
X77241Y48666D02*
Y51511D01*
X82245Y53338D02*
Y55753D01*
X79845Y53378D02*
X79883Y53340D01*
X79845Y53378D02*
Y55753D01*
X77241Y51511D02*
X78003D01*
X78461Y51968D01*
Y56718D01*
X74841Y55511D02*
Y56960D01*
X80232Y58007D02*
Y59333D01*
X79845Y55753D02*
X81732Y57640D01*
Y59333D01*
X82232Y55766D02*
X82245Y55753D01*
X82232Y55766D02*
Y59333D01*
X76732Y69089D02*
X77749Y68072D01*
X76732Y69089D02*
Y70333D01*
X76225Y68072D02*
X76232Y68079D01*
Y70333D01*
X70536Y55880D02*
Y57480D01*
X70070Y55414D02*
X70536Y55880D01*
X68417Y55414D02*
X70070D01*
X70536Y59180D02*
X72769D01*
X68683D02*
X70536D01*
X67818Y60046D02*
X68683Y59180D01*
X55753Y54991D02*
X60808Y60046D01*
X72060Y68123D02*
X72100Y68083D01*
X73982D01*
X72009Y63779D02*
Y64567D01*
X72525Y65083D01*
X73982D01*
X72035Y65583D02*
X73982D01*
X72009Y65608D02*
X72035Y65583D01*
X74219Y70333D02*
X75732D01*
X100889Y55804D02*
X100912Y55827D01*
Y59207D01*
X105410Y61595D02*
X107512Y63697D01*
X98019Y61595D02*
X105410D01*
X96342Y63271D02*
X98019Y61595D01*
X76151Y64083D02*
X76886Y63348D01*
X73982Y64083D02*
X76151D01*
X100912Y67234D02*
X100990Y67156D01*
Y65888D02*
Y67156D01*
X68555Y63373D02*
X68580Y63398D01*
X56998Y64313D02*
X57937Y63373D01*
X60653Y64211D02*
Y72951D01*
X60286Y73318D02*
X60653Y72951D01*
X58703Y73318D02*
X60286D01*
X65253Y66168D02*
X66877D01*
X76352Y72441D02*
X76886D01*
X77232Y72095D01*
Y70333D02*
Y72095D01*
X76327Y73457D02*
X77292D01*
X77732Y73017D01*
X67092Y68768D02*
X67107Y68783D01*
X65253Y68768D02*
X67092D01*
X66116Y77749D02*
X67843Y76022D01*
X68428D01*
X69748Y74701D01*
Y62992D02*
Y74701D01*
Y62992D02*
X71158Y61583D01*
X68656Y77749D02*
X70434Y75971D01*
Y63246D02*
Y75971D01*
Y63246D02*
X71598Y62083D01*
X71158Y61583D02*
X73982D01*
X71598Y62083D02*
X73982D01*
X86944Y58623D02*
X88138D01*
X77089Y62154D02*
X77732Y61511D01*
X86996Y67083D02*
X87020Y67107D01*
X84982Y67083D02*
X86996D01*
X87054Y66083D02*
X87071Y66065D01*
X84982Y66083D02*
X87054D01*
X82779Y64567D02*
X82794Y64583D01*
X84982D01*
Y60585D02*
X86944Y58623D01*
X84982Y60585D02*
Y61083D01*
X87681Y61214D02*
X88138D01*
X86312Y62583D02*
X87681Y61214D01*
X84982Y62583D02*
X86312D01*
X87325Y62205D02*
X88138D01*
X86447Y63083D02*
X87325Y62205D01*
X84982Y63083D02*
X86447D01*
X87071Y63195D02*
X88113D01*
X86684Y63583D02*
X87071Y63195D01*
X84982Y63583D02*
X86684D01*
X87095Y64083D02*
X87097Y64084D01*
X84982Y64083D02*
X87095D01*
X79732Y76125D02*
X81356Y77749D01*
X78816Y76225D02*
Y77749D01*
Y76225D02*
X79232Y75810D01*
X77232Y76124D02*
X78232Y75124D01*
X71196Y63297D02*
X71910Y62583D01*
X73982D01*
X71196Y63297D02*
Y77749D01*
X76276D02*
X78732Y75294D01*
X73736Y77749D02*
X75362Y76124D01*
X77232D01*
X99187Y59182D02*
X99212Y59207D01*
X97561Y59182D02*
X99187D01*
X109423Y62408D02*
X110981D01*
X108382Y68834D02*
X111608Y65608D01*
X101676Y71603D02*
Y77749D01*
Y71603D02*
X103734Y69545D01*
X111481D01*
X112870Y68156D01*
X109296Y72847D02*
Y77749D01*
Y72847D02*
X110617Y71526D01*
X113944D01*
X115316Y70155D01*
Y65075D02*
Y70155D01*
X104216Y72492D02*
Y77749D01*
Y72492D02*
X106528Y70180D01*
X111684D01*
X113370Y68494D01*
X57077Y73968D02*
X58703D01*
X56388Y73279D02*
X57077Y73968D01*
X56388Y70561D02*
Y73279D01*
X56111Y70285D02*
X56388Y70561D01*
X53237Y70285D02*
X56111D01*
X58703Y71368D02*
X59772D01*
X59995Y71145D01*
Y65811D02*
Y71145D01*
X59614Y65430D02*
X59995Y65811D01*
X49403Y63246D02*
Y70536D01*
Y63246D02*
X50698Y61951D01*
X56515D01*
X57937Y63373D01*
X56998Y64313D02*
Y64973D01*
X57455Y65430D01*
X59614D01*
X50206Y69485D02*
X50368D01*
X53237D01*
X58703Y74618D02*
Y75517D01*
X58725Y75540D01*
X49352Y51818D02*
X54256D01*
X49352Y55118D02*
X51333D01*
X51384Y55169D01*
X49352Y54018D02*
X49360Y54026D01*
X49352Y52918D02*
X51374D01*
X51384Y52908D01*
X49352Y57318D02*
X51349D01*
X51359Y57328D01*
X54256Y51818D02*
X55753Y53315D01*
Y54991D01*
X47897Y54018D02*
X49352D01*
X47295Y53416D02*
X47897Y54018D01*
X47295Y49454D02*
Y53416D01*
Y49454D02*
X48006Y48743D01*
X59309D01*
X60731Y50165D01*
Y54102D01*
X62043Y55414D01*
X83896Y77749D02*
X87655Y73990D01*
X93650D01*
X96342Y71298D01*
X73482Y71145D02*
X74270Y71933D01*
Y72568D01*
Y74549D01*
X74549Y74828D01*
X76454D01*
X65380Y45060D02*
X66065D01*
X64948Y45491D02*
X65380Y45060D01*
X69647Y48793D02*
X70561Y47879D01*
Y45542D02*
Y47879D01*
Y45542D02*
X71069Y45034D01*
X72036D01*
X69520Y45415D02*
Y47015D01*
X65380Y48285D02*
X67041D01*
X64948Y45491D02*
Y48717D01*
D37*
X113360Y63703D02*
X116570D01*
X113106Y63399D02*
Y63460D01*
Y63399D02*
X113109Y63396D01*
Y63198D02*
Y63396D01*
X113106Y63194D02*
X113109Y63198D01*
X113106Y58649D02*
Y63194D01*
X112870Y63697D02*
X113106Y63460D01*
X112116Y63843D02*
X112370Y64097D01*
X112116Y62255D02*
Y63843D01*
X109068Y59207D02*
X112116Y62255D01*
X111051Y54432D02*
Y57609D01*
X110981Y62408D02*
X111870Y63297D01*
X109550Y56642D02*
X112624Y59715D01*
X111051Y57609D02*
X112870Y59428D01*
Y63297D01*
X107512Y63697D02*
X111870D01*
X109133Y67234D02*
X111870Y64497D01*
X113370Y63297D02*
X118783Y57884D01*
X111684Y68859D02*
X112628Y67915D01*
Y64338D02*
X112870Y64097D01*
X112628Y64338D02*
Y67915D01*
X111608Y65608D02*
X112128Y65088D01*
Y64355D02*
Y65088D01*
X111870Y64097D02*
X112128Y64355D01*
X112624Y59715D02*
Y63443D01*
X111531Y60985D02*
X112382Y61836D01*
X111531Y60147D02*
Y60985D01*
Y60122D02*
Y60147D01*
X112382Y61836D02*
Y63284D01*
X112370Y63297D02*
X112382Y63284D01*
X112370Y63697D02*
X112624Y63443D01*
X110566Y68859D02*
X111684D01*
X110541D02*
X110566D01*
X111836Y67843D02*
X112370Y67310D01*
Y64497D02*
Y67310D01*
X112870Y64497D02*
Y68156D01*
X114338Y64097D02*
X115316Y65075D01*
X113370Y64097D02*
X114338D01*
X113370Y64497D02*
Y68494D01*
D38*
X106172Y50978D02*
Y51064D01*
X100457Y47628D02*
X106073D01*
X100457D02*
Y48463D01*
X98908Y50013D02*
X100457Y48463D01*
X92329Y50013D02*
X98908D01*
X106172Y47727D02*
Y50978D01*
X106187D01*
X105029D02*
X106172D01*
X106187D02*
X106213Y51003D01*
X116357Y54186D02*
Y56693D01*
X106073Y47628D02*
X106172Y47727D01*
X91554Y50787D02*
Y55637D01*
X90829Y56363D02*
X91554Y55637D01*
X90829Y56363D02*
Y58092D01*
X90073Y58847D02*
X90829Y58092D01*
X90073Y58847D02*
Y61329D01*
X91554Y50787D02*
X92329Y50013D01*
D39*
X66919Y70068D02*
D03*
X68631Y51994D02*
D03*
X86208Y71171D02*
D03*
X67767Y46101D02*
D03*
X82829Y61112D02*
D03*
X69952Y61697D02*
D03*
X72111Y70866D02*
D03*
X65024Y57097D02*
D03*
X83134Y68478D02*
D03*
X57785Y64643D02*
D03*
X55626Y66650D02*
D03*
X65075Y61163D02*
D03*
X67793Y60046D02*
D03*
X65380Y58928D02*
D03*
X65735Y53238D02*
D03*
X69520Y45415D02*
D03*
X87884Y68123D02*
D03*
X102667Y59182D02*
D03*
X72161Y67081D02*
D03*
X68174D02*
D03*
X68885Y74168D02*
D03*
X84760Y59284D02*
D03*
X84963Y70714D02*
D03*
X105029Y50978D02*
D03*
X91592Y47625D02*
D03*
X86436Y52603D02*
D03*
X90094Y71552D02*
D03*
X92456Y71501D02*
D03*
X93675Y71450D02*
D03*
X81153Y72314D02*
D03*
X82017Y73279D02*
D03*
X82753Y74066D02*
D03*
X56998Y69494D02*
D03*
X67056Y51892D02*
D03*
X72466Y51841D02*
D03*
X116357Y56693D02*
D03*
X82144Y62509D02*
D03*
X81232Y61801D02*
D03*
X74760Y69274D02*
D03*
X74092Y47015D02*
D03*
Y48260D02*
D03*
X69520Y47015D02*
D03*
X77749Y68072D02*
D03*
X76225D02*
D03*
X72060Y68123D02*
D03*
X72009Y63779D02*
D03*
Y65608D02*
D03*
X74193Y70383D02*
D03*
X72769Y59180D02*
D03*
X100889Y55804D02*
D03*
X100990Y65888D02*
D03*
X77826Y63398D02*
D03*
X77851Y65253D02*
D03*
X76352Y72441D02*
D03*
X76327Y73457D02*
D03*
X66877Y66168D02*
D03*
X67107Y68783D02*
D03*
X79375Y62154D02*
D03*
X78232Y62205D02*
D03*
X77089Y62154D02*
D03*
X87020Y67107D02*
D03*
X87071Y66065D02*
D03*
X82779Y64567D02*
D03*
X88138Y58623D02*
D03*
Y61214D02*
D03*
Y62205D02*
D03*
X88113Y63195D02*
D03*
X87097Y64084D02*
D03*
X98069Y68986D02*
D03*
X97561Y59182D02*
D03*
X116459Y63729D02*
D03*
X113106Y58649D02*
D03*
X111531Y60147D02*
D03*
X109550Y56642D02*
D03*
X118783Y57884D02*
D03*
X109423Y62408D02*
D03*
X110566Y68859D02*
D03*
X111836Y67843D02*
D03*
X50368Y69485D02*
D03*
X58725Y75540D02*
D03*
X51384Y55169D02*
D03*
Y52908D02*
D03*
X51359Y57328D02*
D03*
X73482Y71145D02*
D03*
X76454Y74828D02*
D03*
D40*
X88976Y70155D02*
D03*
X121336Y54153D02*
D03*
X103708Y53442D02*
D03*
D41*
X50292Y67285D02*
D03*
Y71685D02*
D03*
D42*
X121996Y77749D02*
D03*
D43*
X63576D02*
D03*
X66116D02*
D03*
X68656D02*
D03*
X71196D02*
D03*
X73736D02*
D03*
X76276D02*
D03*
X78816D02*
D03*
X81356D02*
D03*
X83896D02*
D03*
X86436D02*
D03*
X88976D02*
D03*
X91516D02*
D03*
X94056D02*
D03*
X96596D02*
D03*
X99136D02*
D03*
X101676D02*
D03*
X104216D02*
D03*
X106756D02*
D03*
X109296D02*
D03*
X111836D02*
D03*
X114376D02*
D03*
X116916D02*
D03*
X119456D02*
D03*
D44*
X121620Y63897D02*
D03*
X103620D02*
D03*
M02*
