G04 Layer_Color=8421504*
%FSLAX43Y43*%
%MOMM*%
G71*
G01*
G75*
%ADD11R,1.000X1.100*%
%ADD12O,0.600X1.500*%
%ADD13R,0.600X1.500*%
%ADD14R,1.100X1.000*%
%ADD15O,1.270X3.680*%
%ADD16R,1.270X3.680*%
%ADD17R,2.000X0.550*%
%ADD18O,2.000X0.550*%
%ADD19R,4.500X0.500*%
%ADD20R,2.500X4.000*%
%ADD21R,0.680X1.000*%
%ADD22C,0.508*%
%ADD23O,1.500X0.600*%
%ADD24R,1.500X0.600*%
%ADD25C,0.200*%
%ADD26R,0.220X2.000*%
%ADD27R,2.000X0.220*%
%ADD28O,2.000X0.220*%
%ADD29R,1.400X1.900*%
%ADD30R,1.200X2.300*%
%ADD31R,1.700X0.300*%
%ADD32O,1.700X0.300*%
%ADD33R,2.000X1.500*%
%ADD34R,2.500X1.500*%
%ADD35R,1.750X0.800*%
D11*
X70536Y59180D02*
D03*
Y57480D02*
D03*
X68417Y55414D02*
D03*
Y57114D02*
D03*
X66218Y55397D02*
D03*
Y57097D02*
D03*
X67412Y74166D02*
D03*
Y72466D02*
D03*
X68504Y68529D02*
D03*
Y70229D02*
D03*
X112116Y50470D02*
D03*
Y52170D02*
D03*
X110109Y50444D02*
D03*
Y52144D02*
D03*
X106172Y47727D02*
D03*
Y46027D02*
D03*
X104038Y47727D02*
D03*
Y46027D02*
D03*
X66396Y63398D02*
D03*
Y61698D02*
D03*
X100912Y68934D02*
D03*
Y67234D02*
D03*
X121336Y48080D02*
D03*
Y46380D02*
D03*
X119253Y48082D02*
D03*
Y46382D02*
D03*
X117196Y48057D02*
D03*
Y46357D02*
D03*
X72898Y55497D02*
D03*
Y53797D02*
D03*
X82245Y53338D02*
D03*
Y51638D02*
D03*
X79883Y53340D02*
D03*
Y51640D02*
D03*
X68580Y63398D02*
D03*
Y61698D02*
D03*
D12*
X108113Y53403D02*
D03*
X106213D02*
D03*
X108113Y51003D02*
D03*
X107163D02*
D03*
X91973Y63729D02*
D03*
X90073D02*
D03*
X91973Y61329D02*
D03*
X91023D02*
D03*
D13*
X106213Y51003D02*
D03*
X90073Y61329D02*
D03*
D14*
X90829Y56363D02*
D03*
X89129D02*
D03*
X82067Y46609D02*
D03*
X80367D02*
D03*
X70333Y53315D02*
D03*
X68633D02*
D03*
X86538Y56337D02*
D03*
X84838D02*
D03*
X58953Y64211D02*
D03*
X60653D02*
D03*
X111051Y54432D02*
D03*
X112751D02*
D03*
X99212Y59207D02*
D03*
X100912D02*
D03*
X82042Y48666D02*
D03*
X80342D02*
D03*
X113284Y45974D02*
D03*
X114984D02*
D03*
X110566Y45999D02*
D03*
X108866D02*
D03*
X85014Y72720D02*
D03*
X86714D02*
D03*
X77241Y48666D02*
D03*
X75541D02*
D03*
X72570Y72568D02*
D03*
X74270D02*
D03*
X72570Y74549D02*
D03*
X74270D02*
D03*
X67765Y45060D02*
D03*
X66065D02*
D03*
X73736Y45034D02*
D03*
X72036D02*
D03*
D15*
X85217Y47628D02*
D03*
X87757D02*
D03*
X85217Y52578D02*
D03*
X90297D02*
D03*
X87757D02*
D03*
X90297Y47628D02*
D03*
X92837D02*
D03*
X95377D02*
D03*
X97917D02*
D03*
X100457D02*
D03*
X92837Y52578D02*
D03*
X95377D02*
D03*
X97917D02*
D03*
D16*
X100457D02*
D03*
D17*
X67041Y50825D02*
D03*
D18*
Y49555D02*
D03*
Y48285D02*
D03*
Y47015D02*
D03*
X72441Y50825D02*
D03*
Y49555D02*
D03*
Y48285D02*
D03*
Y47015D02*
D03*
D19*
X53237Y71085D02*
D03*
Y70285D02*
D03*
Y67885D02*
D03*
Y68685D02*
D03*
Y69485D02*
D03*
D20*
X52987Y73935D02*
D03*
X47537D02*
D03*
X52987Y65035D02*
D03*
X47537D02*
D03*
D21*
X90145Y68071D02*
D03*
X88925D02*
D03*
D22*
X89560Y65912D02*
D03*
D23*
X118821Y52222D02*
D03*
Y54122D02*
D03*
X116421Y52222D02*
D03*
Y53172D02*
D03*
D24*
Y54122D02*
D03*
D25*
X111870Y64497D02*
D03*
Y64097D02*
D03*
Y63697D02*
D03*
Y63297D02*
D03*
X112370Y64497D02*
D03*
Y64097D02*
D03*
Y63697D02*
D03*
Y63297D02*
D03*
X112870Y64497D02*
D03*
Y64097D02*
D03*
Y63697D02*
D03*
Y63297D02*
D03*
X113370Y64497D02*
D03*
Y64097D02*
D03*
Y63697D02*
D03*
Y63297D02*
D03*
D26*
X83232Y59333D02*
D03*
X82732D02*
D03*
X82232D02*
D03*
X81732D02*
D03*
X81232D02*
D03*
X80732D02*
D03*
X80232D02*
D03*
X79732D02*
D03*
X79232D02*
D03*
X78732D02*
D03*
X78232D02*
D03*
X77732D02*
D03*
X77232D02*
D03*
X76732D02*
D03*
X76232D02*
D03*
X75732D02*
D03*
Y70333D02*
D03*
X76232D02*
D03*
X76732D02*
D03*
X77232D02*
D03*
X77732D02*
D03*
X78232D02*
D03*
X78732D02*
D03*
X79232D02*
D03*
X79732D02*
D03*
X80232D02*
D03*
X80732D02*
D03*
X81232D02*
D03*
X81732D02*
D03*
X82232D02*
D03*
X82732D02*
D03*
X83232D02*
D03*
D27*
X73982Y61083D02*
D03*
Y61583D02*
D03*
Y62083D02*
D03*
Y62583D02*
D03*
Y63083D02*
D03*
Y63583D02*
D03*
Y64083D02*
D03*
Y64583D02*
D03*
Y65083D02*
D03*
Y65583D02*
D03*
Y66083D02*
D03*
Y66583D02*
D03*
Y67083D02*
D03*
Y67583D02*
D03*
Y68083D02*
D03*
Y68583D02*
D03*
X84982D02*
D03*
Y68083D02*
D03*
Y67583D02*
D03*
Y67083D02*
D03*
Y66583D02*
D03*
Y66083D02*
D03*
Y65583D02*
D03*
Y65083D02*
D03*
Y64583D02*
D03*
Y64083D02*
D03*
Y63583D02*
D03*
Y63083D02*
D03*
Y62583D02*
D03*
Y62083D02*
D03*
Y61583D02*
D03*
D28*
Y61083D02*
D03*
D29*
X79845Y55753D02*
D03*
X82245D02*
D03*
D30*
X74841Y55511D02*
D03*
Y51511D02*
D03*
X77241Y55511D02*
D03*
Y51511D02*
D03*
D31*
X65253Y66168D02*
D03*
D32*
Y66818D02*
D03*
Y67468D02*
D03*
Y68118D02*
D03*
Y68768D02*
D03*
Y69418D02*
D03*
Y70068D02*
D03*
Y70718D02*
D03*
Y71368D02*
D03*
Y72018D02*
D03*
Y72668D02*
D03*
Y73318D02*
D03*
Y73968D02*
D03*
Y74618D02*
D03*
X58703Y66168D02*
D03*
Y66818D02*
D03*
Y67468D02*
D03*
Y68118D02*
D03*
Y68768D02*
D03*
Y69418D02*
D03*
Y70068D02*
D03*
Y70718D02*
D03*
Y71368D02*
D03*
Y72018D02*
D03*
Y72668D02*
D03*
Y73318D02*
D03*
Y73968D02*
D03*
Y74618D02*
D03*
D33*
X62666Y58378D02*
D03*
Y50678D02*
D03*
D34*
X50227Y60763D02*
D03*
X61566Y46373D02*
D03*
X50227D02*
D03*
D35*
X49352Y50718D02*
D03*
Y51818D02*
D03*
Y52918D02*
D03*
Y54018D02*
D03*
Y55118D02*
D03*
Y56218D02*
D03*
Y57318D02*
D03*
Y58418D02*
D03*
M02*
